/* XPM */
static char *_f6dbe55bebc474d988c91b9cc69633arOx5eoPmA9dTpgd6[] = {
/* columns rows colors chars-per-pixel */
"64 64 96 2 ",
"   c None",
".  c #2B2B2A",
"X  c #2C2C2B",
"o  c #2D2D2C",
"O  c #2E2E2D",
"+  c #2F2F2E",
"@  c #363635",
"#  c #373736",
"$  c #383837",
"%  c #3A3A39",
"&  c #3B3B3A",
"*  c #3C3C3B",
"=  c #414140",
"-  c #434342",
";  c #444443",
":  c #444444",
">  c #454544",
",  c #464645",
"<  c #484847",
"1  c #494948",
"2  c #4C4C4B",
"3  c #4D4D4C",
"4  c #4F4F4E",
"5  c #545453",
"6  c #565655",
"7  c #575756",
"8  c #585857",
"9  c #595958",
"0  c #5A5A58",
"q  c #5A5A59",
"w  c #5B5B5A",
"e  c #5C5C5B",
"r  c #5D5D5C",
"t  c #5E5E5D",
"y  c #60605F",
"u  c #616160",
"i  c #636362",
"p  c #646463",
"a  c #656564",
"s  c #656565",
"d  c #666665",
"f  c #676766",
"g  c #686867",
"h  c #686868",
"j  c #696968",
"k  c #6A6A69",
"l  c #6A6A6A",
"z  c #6B6B6A",
"x  c gray42",
"c  c #6C6C6B",
"v  c #6C6C6C",
"b  c #6D6D6C",
"n  c #6D6D6D",
"m  c #6E6E6D",
"M  c gray43",
"N  c #6F6F6E",
"B  c #70706F",
"V  c gray44",
"C  c #717171",
"Z  c gray45",
"A  c #747474",
"S  c #757574",
"D  c gray46",
"F  c #767676",
"G  c #777777",
"H  c #797979",
"J  c gray48",
"K  c #7B7B7A",
"L  c #7B7B7B",
"P  c #7C7C7C",
"I  c #7D7D7C",
"U  c gray49",
"Y  c #7E7E7E",
"T  c #7F7F7E",
"R  c gray50",
"E  c #808080",
"W  c #818180",
"Q  c #818181",
"!  c #828281",
"~  c gray51",
"^  c #838382",
"/  c #838383",
"(  c #848484",
")  c gray52",
"_  c #868686",
"`  c gray53",
"'  c #888888",
"]  c #898989",
"[  c gray54",
"{  c #8B8B8B",
"}  c #8B8B8C",
"|  c gray55",
" . c #8D8D8D",
".. c #8E8E8E",
"X. c #8E8E8F",
"o. c gray56",
/* pixels */
"                                                                                                                                ",
"                                                                                                                                ",
"                                                                                                                                ",
"                                                                                                                                ",
"                                                                                                                                ",
"                                                                                                                                ",
"                                                                                                                                ",
"                                                                                                                                ",
"                                                                                                                                ",
"                                                                                                                                ",
"                                                                                                                                ",
"                                                                                                                                ",
"                                                                                                                                ",
"                                                                                                                                ",
"                                                                                                                                ",
"                                                                                                                                ",
"                                                                                                                                ",
"                                                                                                                                ",
"                                                                                                                                ",
"                                                                                                                                ",
"                                            o o X o o o o o X X o X o o X o     o X o o X X o X o o X o o o     o o X . o o o o ",
"                                            & & & & & & & & & & * & & * & &     & & & * & & * & & & & & & &     & & & & & & & & ",
"                                        o & 4 7 7 7 5 7 7 7 7 7 7 5 7 7 5 2 $ $ 2 7 7 7 5 7 8 5 7 7 7 7 7 4 @ & 2 7 7 7 5 7 7 7 ",
"                                        o & 7 j x N N N N N N N N N N N Z u > > y N N N N N N B N N x N N y > > u N N N N N N N ",
"                                        o & 7 j P ~ ~ ~ / ~ ~ / ~ ~ ~ ~ ^ D y y D ~ ~ ~ ~ ~ ~ W ~ ~ ~ ~ / D y y D ~ ~ ~ ~ ~ ~ ~ ",
"                                        o & 7 N ~ | | ] _ / / _ ] ] | ] | ~ N N ~ | | ] | | ] | | | ] | } E N N ~ | | ] ) ) ] | ",
"                                        o & 7 N ~ | | ) L D A K ) | | | ] ~ j N ~ ] | ] ] ] | | ] | ] | } ~ N j ~ | | ) K K ) ] ",
"                                        . & 5 N ~ } } / A x x A ~ ] ] | | ~ j N ~ | | } | | | ] ] | } | ] ~ N j ~ ] | ) K K ) | ",
"                                        o & 7 N ~ ] | ) Z N N A ) ] | | | ~ N j ~ } | | | ] | | | ] | | } ~ N N ~ | | ] ) ) ] } ",
"                                        o & 7 N ~ | ] ) K A D L ) ] ~ P ~ D j j D ~ E P P W P P P W P W E G s h K P ~ P P E ~ P ",
"                                        o & 7 B ~ | | ] ) / / ) ] ~ V s s i r r u s s s g s s s s s s s s i r r u s s s s s s s ",
"                                        o & 7 j K ~ W W ~ E ~ ~ ~ K u 8 0 0 0 0 0 0 0 0 0 0 0 0 0 0 0 0 0 0 0 0 0 0 0 0 0 0 0 0 ",
"                                        o & 7 s j N x N c N c N N s r 0 0 0 w 0 0 0 8 0 0 0 0 0 0 0 0 0 8 0 0 0 w 8 w 0 0 0 0 0 ",
"                                        o & 7 g x j N j c j g s u u 0 7 8 8 8 8 8 7 8 8 8 8 8 8 8 8 8 8 8 8 8 8 8 8 8 8 8 8 8 8 ",
"                                        o & 5 j K ~ ~ ~ ~ K B g s u 0 7 5 5 5 5 7 5 5 5 5 5 5 5 5 5 5 5 5 5 5 5 5 5 5 5 5 5 5 5 ",
"                                        o & 7 N ~ } | ] | ) L Z j r 4 > < < < 2 > 2 > 2 2 < < < < < 2 < 2 < < 2 < < 1 1 1 1 < < ",
"                                        o & 7 N ~ } } } | ] ) L x 8 = # @ # # # # # # & @ & @ & # # # # # # # # # # # # # # # # ",
"                                        o & 7 N ~ ] | ] ] ] | ~ V 7 * o X O O O o o o o o o o O o o o o O O o o O O O O O O O O ",
"                                        X & 7 N ~ | ] ] | | | ~ N 7 * o O O O O o o o o o o o O O O O o O O O o O O O O O O O O ",
"                                        . & 7 B ~ ] | | ] ] | ~ x 7 * O O O O O o @ O o o @ O o O O @ o O O @ o O O O O @ O O O ",
"                                        o & 7 N ~ } } ] ] | ] ~ V 7 & o o o @ o O o o O o o O o O O O O O O O O O O O O O @ O O ",
"                                        o & 7 c L ) ] ] ] | | ~ N 5 * o o o o o @ o o @ o @ @ o @ O O O @ O O O @ O O O O O O O ",
"                                        X & 7 g N K ) } ] } ] ~ x 7 * o o @ o @ o o o o o O O o O O O @ O O O @ O O O @ O O O O ",
"                                        o & 7 g Z K ) } | | | ~ V 7 * o o o o O O o @ O o o @ o O O O O O O O O O O O O O O @ O ",
"                                        o & 7 c K ) ] ] } ] } ~ N 7 * o o @ o o @ o O @ o o @ o O @ O O O @ O O O O O O O @ O O ",
"                                        o & 7 c K ~ ~ ~ ~ ~ ~ K x 7 * o o o o @ o o o o O o O o O O O O O O O O @ O O O O O O O ",
"                                        X & 7 s x N N j j N j c s 7 * o o @ o O O o o o @ o O o O O O O O O O O O O O @ O O O O ",
"                                        X * 7 s x j N N j c N c s 0 * o o o o o @ o O @ o o @ o O O @ O O O @ O O O O O O O @ O ",
"                                        o & 7 j K ~ ~ P ~ ~ P L x 8 * O O O O @ O O O O O O O O O @ O O O @ O O O O O O O @ O O ",
"                                        o & 5 N ~ } } | } } ] P x 8 * O O O O O @ O O O @ O O O O O O O O O O O @ O O O O O O O ",
"                                        o & 7 N ~ | } ] ] ) K Z j 8 * O O O O O O O O @ O O O @ O O O O O O O O O O O @ O O O O ",
"                                        o & 7 N ~ | | ] } / A x h 8 * O O O O O O O O O O O O O O O @ O O O @ O O O O O O O @ O ",
"                                    o X . & 7 N ~ ] | ] | ~ Z j s 7 * o O O O O O @ O O O @ O O O O O O O O O O O O O O O @ O O ",
"                                    = > = 2 0 N ~ | | ] | ) K Z h 7 * o O O @ O O O O O O O O O @ O O O @ O O O @ O O O O O O O ",
"                                o = s D D Z s N W | ] ] ] ] ) P N 7 * o O O O O O O O O O O O O O O O @ O O O @ O O O @ O O O O ",
"                                . > A o.| ~ N j W ] | ] ) ) ] ) N 7 * o X O @ O O O @ O O O @ O O O O O O O O O O O O O O O @ O ",
"                                o > A | o.~ j N ~ | ] ) K K ) ~ N 7 * o o @ o o O @ O O O O O O O O O O O O O O O O O O O @ O O ",
"                                . : Z | ] ~ N j P ] | ) K K ) ~ N 5 * o O O O O O O O O @ O O O @ O O O @ O O O @ O O O O O O O ",
"                                o : D | | E j N ~ | ] ] ~ ) ] ~ N 5 & o O O O @ O O O O O O O @ O O O @ O O O @ O O O @ O O O O ",
"                                . : D | | ~ N x ~ ] | ] } ] ] ~ N 7 & o O O o o O O @ O O O O O O O O O O O O O O O O O O O @ O ",
"                                o : Z | } E N N ~ ] | ] ] | | ~ N 7 * O O @ o o O @ O O O O O O O @ O O O @ O O O O O O O @ O O ",
"                                . : Z | } ~ j j K ) ] ] ] } } ~ x 7 * o O O O O O O O O @ O O O O O O O O O O O @ O O O O O O O ",
"                                X > D | | ~ c s N K ) | ] | } ~ V 7 * o O O O @ O O O O O O O @ O O O O O O O O O O O @ O O O O ",
"                                X ; D | ] W N s j D ^ | ] } ] E V 5 * O O O o o O O @ O O O O O O O @ O O O @ O O O O O O O @ O "
};
