/* XPM */
static char *canto_bd1683209595[] = {
/* columns rows colors chars-per-pixel */
"64 64 256 2 ",
"   c black",
".  c #010101",
"X  c #020202",
"o  c gray1",
"O  c #040404",
"+  c gray2",
"@  c #060606",
"#  c #070707",
"$  c gray3",
"%  c #090909",
"&  c gray4",
"*  c #0B0B0B",
"=  c #0C0C0C",
"-  c gray5",
";  c #0E0E0E",
":  c gray6",
">  c #101010",
",  c #111111",
"<  c gray7",
"1  c #131313",
"2  c gray8",
"3  c #151515",
"4  c #161616",
"5  c gray9",
"6  c #181818",
"7  c #191919",
"8  c gray10",
"9  c #1B1B1B",
"0  c gray11",
"q  c #1D1D1D",
"w  c #1E1E1E",
"e  c gray12",
"r  c #202020",
"t  c gray13",
"y  c #222222",
"u  c #232323",
"i  c gray14",
"p  c #252525",
"a  c gray15",
"s  c #272727",
"d  c #282828",
"f  c gray16",
"g  c #2A2A2A",
"h  c gray17",
"j  c #2C2C2C",
"k  c #2D2D2D",
"l  c gray18",
"z  c #2F2F2F",
"x  c gray19",
"c  c #313131",
"v  c #323232",
"b  c gray20",
"n  c #343434",
"m  c #353535",
"M  c gray21",
"N  c #373737",
"B  c gray22",
"V  c #393939",
"C  c #3A3A3A",
"Z  c gray23",
"A  c #3C3C3C",
"S  c gray24",
"D  c #3E3E3E",
"F  c #3F3F3F",
"G  c gray25",
"H  c #414141",
"J  c gray26",
"K  c #434343",
"L  c #444444",
"P  c gray27",
"I  c #464646",
"U  c gray28",
"Y  c #484848",
"T  c #494949",
"R  c gray29",
"E  c #4B4B4B",
"W  c #4C4C4C",
"Q  c gray30",
"!  c #4E4E4E",
"~  c gray31",
"^  c #505050",
"/  c #515151",
"(  c gray32",
")  c #535353",
"_  c gray33",
"`  c #555555",
"'  c #565656",
"]  c gray34",
"[  c #585858",
"{  c gray35",
"}  c #5A5A5A",
"|  c #5B5B5B",
" . c gray36",
".. c #5D5D5D",
"X. c gray37",
"o. c #5F5F5F",
"O. c #606060",
"+. c gray38",
"@. c #626262",
"#. c gray39",
"$. c #646464",
"%. c #656565",
"&. c gray40",
"*. c #676767",
"=. c #686868",
"-. c DimGray",
";. c #6A6A6A",
":. c gray42",
">. c #6C6C6C",
",. c #6D6D6D",
"<. c gray43",
"1. c #6F6F6F",
"2. c gray44",
"3. c #717171",
"4. c #727272",
"5. c gray45",
"6. c #747474",
"7. c gray46",
"8. c #767676",
"9. c #777777",
"0. c gray47",
"q. c #797979",
"w. c gray48",
"e. c #7B7B7B",
"r. c #7C7C7C",
"t. c gray49",
"y. c #7E7E7E",
"u. c gray50",
"i. c #808080",
"p. c #818181",
"a. c gray51",
"s. c #838383",
"d. c #848484",
"f. c gray52",
"g. c #868686",
"h. c gray53",
"j. c #888888",
"k. c #898989",
"l. c gray54",
"z. c #8B8B8B",
"x. c gray55",
"c. c #8D8D8D",
"v. c #8E8E8E",
"b. c gray56",
"n. c #909090",
"m. c gray57",
"M. c #929292",
"N. c #939393",
"B. c gray58",
"V. c #959595",
"C. c gray59",
"Z. c #979797",
"A. c #989898",
"S. c gray60",
"D. c #9A9A9A",
"F. c #9B9B9B",
"G. c gray61",
"H. c #9D9D9D",
"J. c gray62",
"K. c #9F9F9F",
"L. c #A0A0A0",
"P. c gray63",
"I. c #A2A2A2",
"U. c gray64",
"Y. c #A4A4A4",
"T. c #A5A5A5",
"R. c gray65",
"E. c #A7A7A7",
"W. c gray66",
"Q. c #A9A9A9",
"!. c #AAAAAA",
"~. c gray67",
"^. c #ACACAC",
"/. c gray68",
"(. c #AEAEAE",
"). c #AFAFAF",
"_. c gray69",
"`. c #B1B1B1",
"'. c #B2B2B2",
"]. c gray70",
"[. c #B4B4B4",
"{. c gray71",
"}. c #B6B6B6",
"|. c #B7B7B7",
" X c gray72",
".X c #B9B9B9",
"XX c gray73",
"oX c #BBBBBB",
"OX c #BCBCBC",
"+X c gray74",
"@X c gray",
"#X c gray75",
"$X c #C0C0C0",
"%X c #C1C1C1",
"&X c gray76",
"*X c #C3C3C3",
"=X c gray77",
"-X c #C5C5C5",
";X c #C6C6C6",
":X c gray78",
">X c #C8C8C8",
",X c gray79",
"<X c #CACACA",
"1X c #CBCBCB",
"2X c gray80",
"3X c #CDCDCD",
"4X c #CECECE",
"5X c gray81",
"6X c #D0D0D0",
"7X c gray82",
"8X c #D2D2D2",
"9X c LightGray",
"0X c gray83",
"qX c #D5D5D5",
"wX c gray84",
"eX c #D7D7D7",
"rX c #D8D8D8",
"tX c gray85",
"yX c #DADADA",
"uX c gray86",
"iX c gainsboro",
"pX c #DDDDDD",
"aX c gray87",
"sX c #DFDFDF",
"dX c gray88",
"fX c #E1E1E1",
"gX c #E2E2E2",
"hX c gray89",
"jX c #E4E4E4",
"kX c gray90",
"lX c #E6E6E6",
"zX c #E7E7E7",
"xX c gray91",
"cX c #E9E9E9",
"vX c #EAEAEA",
"bX c gray92",
"nX c #ECECEC",
"mX c gray93",
"MX c #EEEEEE",
"NX c #EFEFEF",
"BX c gray94",
"VX c #F1F1F1",
"CX c gray95",
"ZX c #F3F3F3",
"AX c #F4F4F4",
"SX c gray96",
"DX c #F6F6F6",
"FX c gray97",
"GX c #F8F8F8",
"HX c #F9F9F9",
"JX c gray98",
"KX c #FBFBFB",
"LX c gray99",
"PX c #FDFDFD",
"IX c #FEFEFE",
"UX c white",
/* pixels */
"z z z z z z z z z z z z z z z z z z l l x x z z z z z l z A ' <.a.l.l.j.z.f.7.;.#.:.s.b.l.<.F +.2XUXUXUXIXUXUXUXUXUXUXUXUXUXUXUX",
"z z z z z z z z z z z z z z z z z z l l x x z z z z z l z A ' <.p.k.l.k.z.g.w.2.&.:.p.c.z.2.G o.2XUXUXUXUXUXUXUXUXUXUXUXUXUXUXUX",
"z z z z z z z z z z z z z z z z z z l l x x z z z z z l z A ] <.s.k.k.k.x.x.g.t.:.>.i.z.x.5.J +.2XUXUXUXUXUXUXUXUXUXUXUXUXUXUXUX",
"z z z z z z z z z z z z z z z z z z l l x x z z z z z l z A ] 1.a.l.z.l.l.x.z.a.,.,.u.x.c.6.J O.2XUXUXUXUXUXUXUXUXUXUXUXUXUXUXUX",
"z z z z z z z z z z z z z z z z z z l l x x z z z z z l z A ] 1.p.c.b.v.l.k.j.i.;.>.i.c.c.4.G X.2XUXUXUXUXUXUXUXUXUXUXUXUXUXUXUX",
"z z z z z z z z z z z z z z z z z z l l x x z z z z z l z A ] 1.a.l.g.g.l.z.l.y.:.,.p.c.z.2.F o.2XUXUXUXUXUXUXUXUXUXUXUXUXUXUXUX",
"z z z z z z z z z z z z z z z z z z l l x x z z z z z l z A ] 1.p.d.0.0.g.v.x.y.<.<.p.x.l.2.F O.1XUXUXUXUXUXUXUXUXUXUXUXUXUXUXUX",
"z z z z z z z z z z z z z z z z z z l l x x z z z z z l z A ] 1.a.g.9.9.f.v.c.p.>.,.p.v.x.2.D ..1XUXUXUXUXUXUXUXUXUXUXUXUXUXUXUX",
"z z z z z z z z z z z z z z z z z z l l x x z z z z l z z A [ 1.a.j.d.f.l.c.c.p.:.:.a.v.M.7.A | ,XUXUXUXUXUXIXUXUXUXUXUXUXUXUXUX",
"z z z z z z z z z z z z z z z z z z l l x x z z z z z l z A [ >.r.f.j.z.x.c.x.p.-.%.1.7.9.<.#.j.yXIXPXUXIXUXUXUXUXUXUXUXUXUXUXUX",
"z z z z z z z z z z z z z z z z z z l l x x z z z x l l z A ' -.3.w.g.z.l.z.j.u.1.} W H A O.W.uXZXUXIXUXIXIXUXIXUXUXUXUXUXUXUXUX",
"z z z z z z z z z z z z z z z z z z l l x x z z z x l k z A ' *.>.5.s.z.l.x.k.i.1._ V m Q h.pXUXUXUXUXUXIXIXUXIXUXUXUXUXUXUXUXUX",
"z z z z z z z z z z z z z z z z z z l l x x z z z x l l z S ' *.:.4.a.l.k.x.k.p.1.] m ~ Y.tXGXPXUXPXIXUXUXUXIXUXUXUXUXUXUXUXUXUX",
"z z z z z z z z z z z z z z z z z z l l x x z z z x l l z A ] -.4.e.h.x.l.z.k.s.3.` n o.6XUXUXUXIXUXUXIXUXUXIXUXUXUXUXUXUXUXUXUX",
"z z z z z z z z z z z z z z z z z z l l x x z z z z z l z Z ] >.r.g.l.x.l.l.l.s.<.( V #.4XPXIXPXUXUXUXUXUXUXIXUXUXUXUXUXUXUXUXUX",
"z z z z z z z z z z z z z z z z z z l l x x z z z z l l l C ] ,.e.s.p.p.i.i.p.w.,._ V o.2XUXUXIXUXUXPXUXIXUXUXUXUXUXUXUXUXUXUXUX",
"z z z z z z z z z z z z z z z z z x c x z l l z z z x k k S ' =.,.:.;.,.>.:.>.;.&._ A @.2XUXUXIXUXUXUXUXUXUXUXUXUXUXUXUXUXUXUXUX",
"z z z z z z z z z z z z z z z z l z x x z l z x z z x l k A ' -.;.,.>.,.,.,.>.-.-.) B O.2XUXUXIXUXUXUXUXUXUXUXUXUXUXUXUXUXUXUXUX",
"z z z z z z z z z z z z z z z z k k l l l l z x x z x l k Z ' ;.w.p.u.t.i.p.u.e.>.( m X.2XUXIXPXUXUXUXUXUXUXUXUXUXUXUXUXUXUXUXUX",
"z z z z z z z z z z z z z z z z l l l l l l z x z l x x l Z ' >.s.c.x.l.x.z.d.t.,.) m X.2XUXIXPXUXUXUXUXUXUXUXUXUXUXUXUXUXUXUXUX",
"z z z z z z z z z z z z z z z z x z z z z z z z l k z x z Z ] <.u.l.x.x.x.f.0.<.>._ M X.1XUXUXPXUXUXUXUXUXUXUXUXUXUXUXUXUXUXUXUX",
"z z z z z z z z z z z z z z z z x x z z x x z l k j l z z Z ] <.i.l.c.c.x.f.w.1.;.) N X.1XUXUXIXUXUXUXUXUXUXUXUXUXUXUXUXUXUXUXUX",
"l l l l l l l l l l l l l l l l z z l z x x z l l j l l l Z ] <.a.l.x.z.l.j.d.r.>.) M o.2XUXUXIXUXUXUXUXUXUXUXUXUXUXUXUXUXUXUXUX",
"l l l l l l l l l l l l l l l l z l z x c v x z z k l k k Z ] <.a.l.c.z.k.z.z.s.1._ M O.3XUXIXIXUXUXUXUXUXUXUXUXUXUXUXUXUXUXUXUX",
"x x x x x x x x x x x x x x x x x x x c c x z z z l z l l Z ] 1.a.l.l.l.k.l.x.s.2.) M +.2XUXUXPXUXUXUXUXUXUXUXUXUXUXUXUXUXUXUXUX",
"z z z z z z z z z z z z z z z z z z z x c x z z z z x l k Z ] 1.p.l.l.l.k.z.x.a.2._ N O.1XIXUXPXUXUXUXUXUXUXUXUXUXUXUXUXUXUXUXUX",
"l l l l l l l l l l l l l l l l j j j k k j h h l z x z z A ' :.s.z.x.z.l.z.x.s.1._ M o.1XIXUXIXUXUXUXUXUXUXUXUXUXUXUXUXUXUXUXUX",
"N N N N N N N N N N N N N N N N M m M N N M m m N N B N N J [ ;.r.f.l.z.l.x.x.s.1._ M X.1XUXUXUXUXUXUXUXUXUXUXUXUXUXUXUXUXUXUXUX",
"T T T T T T T T T T T T T T T T T T T R R T Y Y E R T I I ! X.:.3.r.j.c.v.v.z.d.1.' M X.1XUXUXIXUXUXUXUXUXUXUXUXUXUXUXUXUXUXUXUX",
"_ _ _ _ _ _ _ _ ` _ _ _ _ _ _ ` ` ` ` ' ' ` _ _ ` ` ` ) / ' o.&.=.3.r.p.a.p.u.e.,.` M X.2XUXUXIXUXUXUXUXUXUXUXUXUXUXUXUXUXUXUXUX",
"] ] ] ] ] ] ] ] [ [ ] ] ] ] [ [ } { { } } { [ [ ] [ { [ ] } +.&.%.*.>.<.,.,.,.>.=.) M X.3XUXUXUXUXUXUXUXUXUXUXUXUXUXUXUXUXUXUXUX",
"} } } } } } } } } } { { { { } } } { { } } { [ [ } } } { { o.=.1.<.>.,.,.:.:.:.>.&.) N o.2XIXIXUXUXUXUXUXUXUXUXUXUXUXUXUXUXUXUXUX",
"[ ..{ ] | { [ { } [ } ] ] {  .{ { { [ | | [ [ { } { | ] ] #.q.p.u.y.s.p.p.p.i.0.;.( N O.1XUXUXUXUXUXUXUXUXUXUXUXUXUXUXUXUXUXUXUX",
"%.*.%.%.%.%.%.#.O.X.$.$.%.%.=.*.%.&.%.&.*.&.%.+.o. .@.#.$.<.a.j.g.a.d.g.k.z.l.i.<.) M o.1XIXUXPXUXUXUXUXUXUXUXUXUXUXUXUXUXUXUXUX",
"y.t.y.p.p.p.i.0.-.-.0.i.a.y.u.i.i.p.y.t.y.p.i.q.*.&.9.p.p.a.k.g.w.5.7.e.g.c.c.s.3._ M o.2XUXUXPXUXUXUXUXUXUXUXUXUXUXUXUXUXUXUXUX",
"l.g.s.h.z.v.x.p.>.<.a.v.b.z.l.z.x.x.l.k.l.c.x.s.>.>.p.c.z.k.l.a.6.:.>.7.s.x.x.a.2.) m o.2XUXUXIXUXUXUXUXUXUXUXUXUXUXUXUXUXUXUXUX",
"z.d.w.e.f.x.l.i.2.2.s.z.z.l.l.l.l.l.z.c.x.c.l.i.,.,.a.x.l.z.x.d.5.:.>.7.a.l.z.s.1.( m o.2XIXUXIXUXUXUXUXUXUXUXUXUXUXUXUXUXUXUXUX",
"k.d.w.w.d.x.k.u.2.<.p.j.k.k.k.j.k.k.l.c.z.z.l.i.<.<.s.z.k.l.l.d.q.6.9.r.d.l.x.d.1._ M O.2XUXUXIXUXUXUXUXUXUXUXUXUXUXUXUXUXUXUXUX",
"k.j.g.h.l.v.x.p.,.:.a.c.v.b.c.z.x.z.z.x.l.x.x.s.3.2.s.l.l.z.z.l.g.d.h.h.j.k.l.s.3.` N o.2XUXUXIXUXUXUXUXUXUXUXUXUXUXUXUXUXUXUXUX",
"u.i.d.g.p.s.d.9...| 7.s.f.f.a.p.p.p.a.a.u.a.s.0.O.o.6.i.s.a.p.a.a.p.f.s.p.p.a.e.2._ m ..<XIXUXPXUXUXUXUXUXUXUXUXUXUXUXUXUXUXUXUX",
"<.<.1.<.2.2.3.@.L H @.1.1.2.<.<.,.>.<.3.2.<.3.o.J L o.>.2.2.<.1.1.1.,.<.3.2.,.:.*.` n | 1XIXUXUXUXUXUXUXUXUXUXUXUXUXUXUXUXUXUXUX",
") _ ) ( ) ` ( [ ....` ` ` ' _ ) ( ` _ _ ) ) / ] | .._ _ _ _ ' ) ( ) _ _ _ ) ( / ` ( } h.rXUXUXLXUXUXUXUXUXUXUXUXUXUXUXUXUXUXUXUX",
"B N m N m n b } ^.!.| v m B n M m V M B m v b  .~.Q...m v m N M m M V V m n m m v } W.yXAXIXUXUXUXUXUXUXUXUXUXUXUXUXUXUXUXUXUXUX",
"@.O.X.+.O... .l.sXdXk.} O.#.X.+.O.+.o.@.X.| X.z.dXsXx.....+.+.+.o.o.#.#... .o.o. .k.uXUXIXKXLXIXUXUXUXUXUXUXUXUXUXUXUXUXUXUXUXUX",
"<X2X<X<X2X1X>XuXAXAXeX<X1X1X<X<X1X2X1X1X,X,X<XtXSXAXtX1X<X1X1X1X1X,X1X2X:X>X1X<X1XtXDXUXUXUXUXIXUXUXUXUXUXUXUXUXUXUXUXUXUXUXUXUX",
"UXUXUXUXUXUXIXUXUXIXUXUXIXUXUXUXUXUXUXUXUXUXUXIXUXIXUXUXIXUXIXUXUXUXUXUXIXUXUXUXIXUXUXIXIXPXIXIXUXUXUXUXUXUXUXUXUXUXUXUXUXUXUXUX",
"UXPXUXUXPXIXUXUXIXUXUXPXIXUXUXUXUXIXPXUXUXIXIXUXIXUXUXPXIXUXPXUXUXUXIXIXUXUXUXIXUXUXUXUXUXUXUXUXUXUXUXUXUXUXUXUXUXUXUXUXUXUXUXUX",
"IXPXUXUXKXUXUXIXUXUXPXUXPXIXUXIXIXUXIXPXUXUXKXIXIXPXIXUXPXIXIXUXIXUXUXUXUXUXIXIXUXPXUXUXIXUXIXPXUXUXUXUXUXUXUXUXUXUXUXUXUXUXUXUX",
"UXUXUXUXUXUXUXUXUXUXUXUXUXUXUXUXUXUXUXUXUXUXUXUXUXUXUXUXUXUXUXUXUXUXUXUXUXUXUXUXUXUXUXUXUXUXUXUXUXUXUXUXUXUXUXUXUXUXUXUXUXUXUXUX",
"UXUXUXUXUXUXUXUXUXUXUXUXUXUXUXUXUXUXUXUXUXUXUXUXUXUXUXUXUXUXUXUXUXUXUXUXUXUXUXUXUXUXUXUXUXUXUXUXUXUXUXUXUXUXUXUXUXUXUXUXUXUXUXUX",
"UXUXUXUXUXUXUXUXUXUXUXUXUXUXUXUXUXUXUXUXUXUXUXUXUXUXUXUXUXUXUXUXUXUXUXUXUXUXUXUXUXUXUXUXUXUXUXUXUXUXUXUXUXUXUXUXUXUXUXUXUXUXUXUX",
"UXUXUXUXUXUXUXUXUXUXUXUXUXUXUXUXUXUXUXUXUXUXUXUXUXUXUXUXUXUXUXUXUXUXUXUXUXUXUXUXUXUXUXUXUXUXUXUXUXUXUXUXUXUXUXUXUXUXUXUXUXUXUXUX",
"UXUXUXUXUXUXUXUXUXUXUXUXUXUXUXUXUXUXUXUXUXUXUXUXUXUXUXUXUXUXUXUXUXUXUXUXUXUXUXUXUXUXUXUXUXUXUXUXUXUXUXUXUXUXUXUXUXUXUXUXUXUXUXUX",
"UXUXUXUXUXUXUXUXUXUXUXUXUXUXUXUXUXUXUXUXUXUXUXUXUXUXUXUXUXUXUXUXUXUXUXUXUXUXUXUXUXUXUXUXUXUXUXUXUXUXUXUXUXUXUXUXUXUXUXUXUXUXUXUX",
"UXUXUXUXUXUXUXUXUXUXUXUXUXUXUXUXUXUXUXUXUXUXUXUXUXUXUXUXUXUXUXUXUXUXUXUXUXUXUXUXUXUXUXUXUXUXUXUXUXUXUXUXUXUXUXUXUXUXUXUXUXUXUXUX",
"UXUXUXUXUXUXUXUXUXUXUXUXUXUXUXUXUXUXUXUXUXUXUXUXUXUXUXUXUXUXUXUXUXUXUXUXUXUXUXUXUXUXUXUXUXUXUXUXUXUXUXUXUXUXUXUXUXUXUXUXUXUXUXUX",
"UXUXUXUXUXUXUXUXUXUXUXUXUXUXUXUXUXUXUXUXUXUXUXUXUXUXUXUXUXUXUXUXUXUXUXUXUXUXUXUXUXUXUXUXUXUXUXUXUXUXUXUXUXUXUXUXUXUXUXUXUXUXUXUX",
"UXUXUXUXUXUXUXUXUXUXUXUXUXUXUXUXUXUXUXUXUXUXUXUXUXUXUXUXUXUXUXUXUXUXUXUXUXUXUXUXUXUXUXUXUXUXUXUXUXUXUXUXUXUXUXUXUXUXUXUXUXUXUXUX",
"UXUXUXUXUXUXUXUXUXUXUXUXUXUXUXUXUXUXUXUXUXUXUXUXUXUXUXUXUXUXUXUXUXUXUXUXUXUXUXUXUXUXUXUXUXUXUXUXUXUXUXUXUXUXUXUXUXUXUXUXUXUXUXUX",
"UXUXUXUXUXUXUXUXUXUXUXUXUXUXUXUXUXUXUXUXUXUXUXUXUXUXUXUXUXUXUXUXUXUXUXUXUXUXUXUXUXUXUXUXUXUXUXUXUXUXUXUXUXUXUXUXUXUXUXUXUXUXUXUX",
"UXUXUXUXUXUXUXUXUXUXUXUXUXUXUXUXUXUXUXUXUXUXUXUXUXUXUXUXUXUXUXUXUXUXUXUXUXUXUXUXUXUXUXUXUXUXUXUXUXUXUXUXUXUXUXUXUXUXUXUXUXUXUXUX",
"UXUXUXUXUXUXUXUXUXUXUXUXUXUXUXUXUXUXUXUXUXUXUXUXUXUXUXUXUXUXUXUXUXUXUXUXUXUXUXUXUXUXUXUXUXUXUXUXUXUXUXUXUXUXUXUXUXUXUXUXUXUXUXUX",
"UXUXUXUXUXUXUXUXUXUXUXUXUXUXUXUXUXUXUXUXUXUXUXUXUXUXUXUXUXUXUXUXUXUXUXUXUXUXUXUXUXUXUXUXUXUXUXUXUXUXUXUXUXUXUXUXUXUXUXUXUXUXUXUX",
"UXUXUXUXUXUXUXUXUXUXUXUXUXUXUXUXUXUXUXUXUXUXUXUXUXUXUXUXUXUXUXUXUXUXUXUXUXUXUXUXUXUXUXUXUXUXUXUXUXUXUXUXUXUXUXUXUXUXUXUXUXUXUXUX"
};
