/* XPM */
static char *_6c9a0f94e4e484dfefbc63ab065e1440XdQCY0BNHKPuNHI[] = {
/* columns rows colors chars-per-pixel */
"64 64 226 2 ",
"   c None",
".  c #010000",
"X  c #0C0803",
"o  c #160E05",
"O  c #1C1206",
"+  c #1B1008",
"@  c #201507",
"#  c #231909",
"$  c #251909",
"%  c #3C161D",
"&  c #32161B",
"*  c #39260C",
"=  c #3A230F",
"-  c #0E0125",
";  c #0E0328",
":  c #130426",
">  c #180725",
",  c #1A0927",
"<  c #120629",
"1  c #15092A",
"2  c #1C0C2A",
"3  c #240D24",
"4  c #280E24",
"5  c #220F28",
"6  c #261025",
"7  c #2C1224",
"8  c #321624",
"9  c #3B1A23",
"0  c #371823",
"q  c #44191C",
"w  c #4C1F1F",
"e  c #521F18",
"r  c #482D0F",
"t  c #4D310F",
"y  c #592217",
"u  c #5D2519",
"i  c #5D291F",
"p  c #4C3210",
"a  c #573B14",
"s  c #43241E",
"d  c #632B1D",
"f  c #672814",
"g  c #762F12",
"h  c #782F11",
"j  c #6B321F",
"k  c #61381B",
"l  c #7C3314",
"z  c #72351E",
"x  c #7A3C1F",
"c  c #76391F",
"v  c #431C21",
"b  c #462325",
"n  c #4C2322",
"m  c #4C2925",
"M  c #502522",
"N  c #552D25",
"B  c #592921",
"V  c #5A3226",
"C  c #683121",
"Z  c #673925",
"A  c #693A25",
"S  c #6C3421",
"D  c #5B4117",
"F  c #674316",
"G  c #7B4E1A",
"H  c #7D4523",
"J  c #853711",
"K  c #8D3C13",
"L  c #833C1C",
"P  c #833816",
"I  c #903E13",
"U  c #8C441D",
"Y  c #8F4017",
"T  c #944216",
"R  c #9C4616",
"E  c #954519",
"W  c #9C4B1B",
"Q  c #97481B",
"!  c #88571C",
"~  c #9D501E",
"^  c #A24E1A",
"/  c #A4521D",
"(  c #AB551B",
")  c #AD591C",
"_  c #AE5F14",
"`  c #B45C1C",
"'  c #B85F1C",
"]  c #B5621D",
"[  c #BB631E",
"{  c #BF6918",
"}  c #BC6B12",
"|  c #824A26",
" . c #864522",
".. c #8E5226",
"X. c #9A5223",
"o. c #935425",
"O. c #A45C24",
"+. c #AA5A20",
"@. c #A05623",
"#. c #B15E21",
"$. c #9D6D26",
"%. c #986421",
"&. c #9F7128",
"*. c #A36124",
"=. c #AA6A23",
"-. c #B36222",
";. c #BA6521",
":. c #B56B24",
">. c #BC6B24",
",. c #BC7226",
"<. c #AE7326",
"1. c #91601F",
"2. c #C1730E",
"3. c #C1661E",
"4. c #C26A1D",
"5. c #C06C17",
"6. c #CE7A11",
"7. c #C6721C",
"8. c #C9731B",
"9. c #CB7717",
"0. c #D47D1C",
"q. c #D17B13",
"w. c #D07F0C",
"e. c #C46C21",
"r. c #CA6F24",
"t. c #C57323",
"y. c #CB7423",
"u. c #CE7B23",
"i. c #CA7629",
"p. c #CD7B29",
"a. c #C47927",
"s. c #D17C23",
"d. c #D27C29",
"f. c #D57B27",
"g. c #D9890B",
"h. c #D28412",
"j. c #D4841A",
"k. c #DD8A1A",
"l. c #DA8716",
"z. c #DC9616",
"x. c #CF850B",
"c. c #E49509",
"v. c #EC9D0B",
"b. c #E39908",
"n. c #E18C17",
"m. c #E69412",
"M. c #E59918",
"N. c #E08D09",
"B. c #EAA509",
"V. c #F4AC03",
"C. c #F2A708",
"Z. c #F9B402",
"A. c #FCBB02",
"S. c #F4BC0C",
"D. c #F5B606",
"F. c #EAA917",
"G. c #EDB517",
"H. c #F4BA13",
"J. c #F5B516",
"K. c #EFAE12",
"L. c #C9832B",
"P. c #CA8328",
"I. c #D48323",
"U. c #D98C25",
"Y. c #D4812A",
"T. c #DB862B",
"R. c #DD8C2D",
"E. c #D78624",
"W. c #DF8C31",
"Q. c #DB9B36",
"!. c #D89432",
"~. c #DF9F23",
"^. c #E08B2C",
"/. c #E49927",
"(. c #E49332",
"). c #E99432",
"_. c #EB9C34",
"`. c #F19D35",
"'. c #E48F30",
"]. c #EDAA22",
"[. c #E7A529",
"{. c #EDBD23",
"}. c #F6B926",
"|. c #F6A438",
" X c #F6AA3A",
".X c #F5A838",
"XX c #FEBB3B",
"oX c #FAB436",
"OX c #FEC403",
"+X c #FECB06",
"@X c #FBC50D",
"#X c #FDCD0B",
"$X c #F5C508",
"%X c #FED20C",
"&X c #FFDC0D",
"*X c #FED706",
"=X c #F9C614",
"-X c #FBCB13",
";X c #F9C819",
":X c #FED513",
">X c #FEDB13",
",X c #FEDD1B",
"<X c #FAD418",
"1X c #EFC30F",
"2X c #FFE20D",
"3X c #FFE412",
"4X c #FFEA15",
"5X c #FFE41A",
"6X c #FFEC1C",
"7X c #FFF21E",
"8X c #EEC127",
"9X c #FAC627",
"0X c #FCD323",
"qX c #FADB25",
"wX c #FFD42B",
"eX c #FFCA36",
"rX c #FFDB31",
"tX c #FFD139",
"yX c #FFE422",
"uX c #FFEC25",
"iX c #FFE92C",
"pX c #FFF325",
"aX c #FFF926",
"sX c #FFF42A",
"dX c #FFFB2B",
"fX c #FFE233",
/* pixels */
"                                                                                                                                ",
"                                                                                                                                ",
"                                                                                                                                ",
"                                                                                                                                ",
"                                          . . . . . . . . . . . . . . . . . . . . . .                                           ",
"                                        . . . . X . . . . . . . . . . . . . . . . . . .                                         ",
"                                        O # O O O # # # $ # # # $ $ O # O O O o X . . .                                         ",
"                                      $ r p a a D D D D D D D D D D D D D a p * O . . . .                                       ",
"                          . . . . . o * F ! %.$.$.&.&.&.&.&.&.&.&.&.&.&.$.%.G D * X . . . . .                                   ",
"                        . . . . . . O a ..<.L.!.!.Q.Q._.Q.Q.Q.Q.Q.Q.Q.Q.!.L.<.G r O . . . . . .                                 ",
"                        O O O O o O * F $.P.(.`.|. X X X X X X X X X X.X`.(.P.%.F * # o o O O O                                 ",
"                      & = r r t t a F ! =.P.R.).`.|.|.|.|. X.X.X.X|.|.`.).'.L.=.! F a p t t r q &                               ",
"                  - 3 s k G ! ! ! %.%.=.>.a.d.Y.T.'.(.).(.(.(.(.).(.'.R.Y.f.t.>.=.$.1.! ! ! G a s 6 -                           ",
"                - > 8 N H *.{ ,.a.L.P.a.t.e.e.a.d.Y.T.T.U.E.R.T.T.T.Y.u.y.e.e.t.a.L.L.P.a.,.*.H N 8 > -                         ",
"                6 8 b Z o.>.p.T.^.^.R.Y.u.7.7.9.P.U.U.U.!.U.U.U.U.E.j.0.8.5.8.y.E.T.^.^.E.f.>.o.A b 8 6                         ",
"              0 b N A | O.>.u.Y.T.T.T.I.j.h.h.l.z.~.~.[.[.~.~.z.M.M.z.l.q.q.q.0.I.^.T.T.f.f.>.O.| A V b 0                       ",
"          - 6 b A | o.O.-.>.e.r.r.y.u.j.l.b.B.F.G.{.8X8X8X{.{.G.K.K.B.b.c.N.g.j.0.f.y.y.r.e.;.#.O.o.| A b 5 ;                   ",
"        ; , 8 V H O.,.>.>.;.3.' e.3.7.h.b.K.$X1X;XqXqXqXqXqXqX;X-XS.A.Z.V.C.c.g.q.4.e.[ 3.3.;.3.,.:.*.| N 8 2 ;                 ",
"        6 8 b Z ..:.t.y.7.5.3.5.3.5.6.z.B.$X#X&X>X5X5XuXiXyXyX5X>X%X+XOXA.V.C.c.h.9.5.5.3.5.5.8.8.t.:...Z b 8 5                 ",
"      9 b N Z H X.-.4.7.9.9.6.6.6.x.z.B.H.:X&X2X3X5X5X7XpXpXaX6X4X>X>X%X#X@XS.K.m.g.w.6.6.6.9.9.8.>.-.X.H Z V m 9               ",
"- 1 8 m A H ..o.X.*.] 5.6.x.g.b.b.b.B.1X<X5X4X4X2X2X2X3X7XsXdXsXpX6X6X5X>X<X-XH.K.B.b.b.N.N.g.6.5.] ) X.o...H F m 7 >           ",
"- 1 8 N | *.:.:.) ~ _ } w.c.V.V.1X1X*X2X4XpXpX4X4X*X2X4X7XpXdXdXaXpXpXuXuXyX,X-X$X$XD.V.V.C.N.w.} ) / ( -.:.*.| V 8 > -         ",
"- > 8 V ..>.i.t.;.) _ } g.B.D.OX*X*X2X4X7XaXaX7X4X2X2X3X7XpXdXdXdXdXdXsXsXuXyX5X>X#XOXOXA.V.B.x.} _ _ ] t.y.:...V 7 1 :         ",
"- > 8 V ..,.s.0.9.} 2.x.b.D.@X%X2X2X4X7XaXdXdXpX7X4X3X5X7XpXsXsXsXdXsXsXsXsXuX5X5X>X%X+XOXA.V.b.x.2.} 8.0.s.,.o.V 8 1 ;         ",
"- > 8 V ..,.Y.k.j.x.g.v.G.-X,X,X4X4X7XaXdXdXdXdXaX7X7X7XpXuXpXuXsXuXsXsXsXsXsXpXuX5X>X%X#XOXZ.V.b.g.x.l.k.I.,...V 8 > -         ",
"- : 8 V ..>.j.n.m.c.B.D.1X<XyXuXpXpXdXdXdXdXdXdXaXaXpXpXuXuXuXuXuXiXuXsXsXdXsXsXuXyX5X:X%XOXA.Z.V.v.c.m.n.s.,...V 8 > -         ",
"- > 7 V | -.s.n.m.v.C.H.<X,XyXpXsXaXdXdXdXdXdXdXdXdXdXsXsXiXuXuXuXuXiXuXsXsXsXsXuXyX5X:X#XOXA.Z.V.V.B.m.n.s.-.| N 8 1 -         ",
"- > 7 m H O.7.0.n.m.K.S.-X>X6X7XaXaXaXaXdXsXsXdXdXdXdXdXsXsXsXiXuXsXpXsXsXsXsXpX6X,X>X%X+XOXA.Z.V.v.m.n.0.e.O.H m 7 , -         ",
"- > 7 n z ~ ] 8.0.n.F.K.@X:X3X4X6XpXsXsXuXsXsXsXdXdXdXdXdXdXdXsXsXsXsXsXsXsXuXyX5X%X%X+XOXA.Z.C.v.M.n.0.8.] X.z n 7 > -         ",
"; > 7 v C U / -.4.0.k.F.S.#X2X2X4XyXiXiXiXuXuXpXdXdXdXdXdXdXdXdXdXdXdXsXsXuXyX5X:X%X+XA.Z.V.C.v.m.n.s.r.] / U j v 4 > -         ",
": : 4 9 i c U W -.e.I.z.K.$X$X<X<XqXyXyXyXyXuXuXsXsXdXdXdXdXdXdXdXdXsXpXpXyX5X>X#X@XS.Z.V.V.v.c.k.u.e.-.~ U z i 9 4 > :         ",
"- > 3 % v i z U X.#.,.j.z.G.S.1X8X0X0X0X<X5X5X6XpXsXdXdXdXdXdXdXdXdXpXpX6X5X,X:X=XH.J.K.C.v.m.l.0.e.+.X.L z d w 0 4 >           ",
"      7 0 v M C U X.] 7.j.z.F.].}.}.8X9X-X&X3X4X6XpXsXdXdXdXdXdXdXpXpX6X3X2X&X-X;X].].F.M.m.k.0.{ ] X. .C M v 0 4               ",
"        3 4 0 n j U / ] 7.I.T.(.(.`.].}.;X%X&X3X5XuXuXsXdXdXdXdXsXuXyX5X2X&X%X=XJ.]._./.^.^.s.4.] / U j w 0 4 3                 ",
"        - > 4 q d x Q ) :.,.i.d.T.!./.].H.@X%X>X,XqXfXiXiXdXsXiXiXiXqX,X:X%X@XH.].(.W.T.f.u.e.;.) Q P d q 3 > :                 ",
"        - : 3 % d l T ^ ) ] >.r.i.p.Y.~.F.H.;X;X0XwXrXtXfXfXfXfXrXrXwX0X;X;XH.F.~.T.d.i.r.>.-.#.^ E l u 9 3 : -                 ",
"        - < 3 % y l K R ^ +.+.#.-.>.y.I./.F.}.}.9XeXeXeXtXtXtXtXeXeXeXeX9XJ.]./.Y.y.>.;.#.+.+.^ R K g u % 3 : -                 ",
"        < > 3 % y g J I E Q ^ ^ ( ) ;.a.E.(.[.oXoXXXXXXXXXXXXXXXXXXXoXoX.X.X/.E.i.#.) / / ^ Q I I J g y % 3 > : >               ",
"        < > 3 % e f h J K I I R ^ ^ ) ;.i.W.!._.`.|.|. X|. X X|. X X|.`._.Q.T.p.e.+.^ ^ Q E K K J g f e & 3 > < 1               ",
"        > : 3 & % y f f l L I I T W / +.,.i.d.W.W.(.(.(.(.(.(.(.(.(.(.W.T.Y.i.>.#.^ W Q I K P J f f y q 8 3 > >                 ",
"          , 5 3 7 % q e g h K I T E W @.#.>.e.r.f.f.f.i.d.d.f.d.d.d.p.i.y.e.;.#.@.^ I I I K J f e q % 7 6 5 2 1                 ",
"            2 2 3 3 & q f h J I T E Q ^ ( ) #.-.#.e.e.e.e.e.e.e.e.>.e.;.#.' #.@.^ ^ Q I I J h y e & 3 2 2 2                     ",
"              1 : < 3 % e g J I T E W ^ ^ ( ( #.` ' [ ' #.' 3.[ [ [ ' ` ) ( / ^ ^ I Q I I J h u % 3 > > 1                       ",
"              1 : : 3 % u J K I R R ^ ^ ( ( ( ` ' ' [ ' 3.' ' [ [ [ ' ` ` ) ( / ^ ^ ^ ^ I K l u % 3 < < <                       ",
"              < : : 3 q i P I ^ ^ ^ ( ( ( ( ` ` ' e.[ e.e.3.3.e.3.e.;.[ ` ` ( ( ( / ^ ^ ^ I P i q 3 : : <                       ",
"              < < > 4 v d L E W ^ ^ ( / ( ` ' [ 3.e.e.e.e.e.e.e.e.e.3.e.[ ' ` ` ( ( ^ ^ W I L d v 3 : : <                       ",
"                < > 3 v B z L I K E W ^ ( ` ' e.e.e.e.e.e.e.7.e.e.r.4.3.[ ' ` ( ^ Q E U U L z i v 4 > :                         ",
"                1 1 3 9 w d j C C C x  .^ ( ' ' 4.4.4.r.4.e.r.4.e.4.e.3.3.' ( W U x S S j C d w 0 3 > <                         ",
"                    6 7 0 v v v v n B z U / ` 3.3.3.3.4.4.4.4.4.4.3.e.3.[ ` /  .z B n v v v v 9 8 5                             ",
"                      5 6 4 4 3 4 4 9 B x Q / #.` ` [ ' [ ] ' ' [ ' ` ` ` ( W x B 9 4 3 3 4 3 3 5                               ",
"                        > 1 1 : : 1 7 b C L Q ~ ^ / / / ~ / / / / / ^ / ^ Q L C b 4 , < > > > ,                                 ",
"                        > : : : - : 5 9 M C z c x x x x H x x x x x x c c S C M 0 5 < - - < < <                                 ",
"                            < < < < 2 7 9 v n n n n M M n M M M M M n M n n v 9 7 2 1 < < <                                     ",
"                                    2 5 7 4 4 7 7 7 7 7 7 7 7 7 7 7 7 7 7 4 4 6 6 2                                             ",
"                                      2 > > : > > , > , , , , > , : , : > > 1 , 2                                               ",
"                                          : : - - - - - - - - - - - - : - - :                                                   ",
"                                                                                                                                ",
"                                                                                                                                ",
"                                                                                                                                ",
"                                                                                                                                ",
"                                                                                                                                ",
"                                                                                                                                ",
"                                                                                                                                ",
"                                                                                                                                "
};
