/* XPM */
static char *a96a8abda6e74625fe462a6be8efab7fyTqiuPNQTCz5vueF[] = {
/* columns rows colors chars-per-pixel */
"64 64 192 2 ",
"   c None",
".  c #01000E",
"X  c #050013",
"o  c #090116",
"O  c #0D061A",
"+  c #160B1C",
"@  c #220E1A",
"#  c #2A141E",
"$  c #351B1F",
"%  c #161124",
"&  c #1C1628",
"*  c #1C182B",
"=  c #191326",
"-  c #140D20",
";  c #281C2A",
":  c #341C21",
">  c #3A1F21",
",  c #221E33",
"<  c #3D2324",
"1  c #252333",
"2  c #2B2535",
"3  c #27243A",
"4  c #29263C",
"5  c #2D2A3A",
"6  c #2C2937",
"7  c #312C3C",
"8  c #35303F",
"9  c #2C303B",
"0  c #4C2825",
"q  c #562C28",
"w  c #56322B",
"e  c #5B322B",
"r  c #402F3B",
"t  c #503337",
"y  c #61332C",
"u  c #6C372D",
"i  c #723A2E",
"p  c #653E33",
"a  c #773E31",
"s  c #612F2A",
"d  c #7C4535",
"f  c #7A493C",
"g  c #664136",
"h  c #2F2C41",
"j  c #322E43",
"k  c #2F3240",
"l  c #373242",
"z  c #3B3545",
"x  c #36344A",
"c  c #3A3749",
"v  c #3D394A",
"b  c #353847",
"n  c #433D4D",
"m  c #483842",
"M  c #3C424E",
"N  c #3E4551",
"B  c #45404F",
"V  c #59484C",
"C  c #464251",
"Z  c #494352",
"A  c #444A56",
"S  c #4B4954",
"D  c #43435B",
"F  c #464C5B",
"G  c #494D5B",
"H  c #4A515E",
"J  c #58545F",
"K  c #4C5361",
"L  c #515663",
"P  c #545B63",
"I  c #5C5B64",
"U  c #535269",
"Y  c #565D6C",
"T  c #595C69",
"R  c #565A71",
"E  c #5A5D73",
"W  c #484A60",
"Q  c #625F67",
"!  c #5B6169",
"~  c #5B6276",
"^  c #5D6479",
"/  c #626068",
"(  c #646373",
")  c #656B75",
"_  c #636A7D",
"`  c #686977",
"'  c #716D79",
"]  c #75727B",
"[  c #7C7B7F",
"{  c #834836",
"}  c #914C38",
"|  c #95553C",
" . c #9F5C40",
".. c #A25D41",
"X. c #A85F42",
"o. c #986248",
"O. c #936550",
"+. c #AA6143",
"@. c #B57955",
"#. c #BB6C48",
"$. c #C9754D",
"%. c #BF8059",
"&. c #C3825A",
"*. c #CA855B",
"=. c #F3A56E",
"-. c #E19866",
";. c #666D82",
":. c #686F87",
">. c #6A6F8B",
",. c #6B7283",
"<. c #6D758D",
"1. c #757B85",
"2. c #7D7B80",
"3. c #727489",
"4. c #747889",
"5. c #6F7790",
"6. c #6F7890",
"7. c #737A93",
"8. c #777992",
"9. c #817F84",
"0. c #7A829B",
"q. c #7B8297",
"w. c #8B898D",
"e. c #828085",
"r. c #8A8A94",
"t. c #858898",
"y. c #918F94",
"u. c #929095",
"i. c #99969F",
"p. c #9C9A9E",
"a. c #96939B",
"s. c #838BA4",
"d. c #8A8DA5",
"f. c #868DA9",
"g. c #8B90A7",
"h. c #8C93AE",
"j. c #969CA5",
"k. c #9E9CA3",
"l. c #9397AE",
"z. c #949AAE",
"x. c #8D95B1",
"c. c #8F98B4",
"v. c #939BB5",
"b. c #979EB4",
"n. c #A19EA5",
"m. c #9BA1B7",
"M. c #9BA3BC",
"N. c #ACACAC",
"B. c #A3A0A9",
"V. c #AAADB9",
"C. c #A4A9BA",
"Z. c #AEB0BB",
"A. c #B2B2B2",
"S. c #B0B6BF",
"D. c #BCBCBC",
"F. c #ADB2CB",
"G. c #ADB2C1",
"H. c #B1B7C1",
"J. c #B5BAC6",
"K. c #BDBDC3",
"L. c #B5BBCB",
"P. c #B4BAD2",
"I. c #B8BFD6",
"U. c #B9BFD8",
"Y. c #A6ADC7",
"T. c #BCC2CC",
"R. c #BCC3DA",
"E. c #BBC1D5",
"W. c #C2C2C2",
"Q. c #C6C5C9",
"!. c #CDCDCD",
"~. c #CBCBCD",
"^. c #C8C6CB",
"/. c #D0D0CF",
"(. c #CECED1",
"). c #C4C8D3",
"_. c #CFD5DF",
"`. c #D3D3D3",
"'. c #D7D6D9",
"]. c #CED5E2",
"[. c #D1D6E1",
"{. c #D3D9E6",
"}. c #DCE2EC",
"|. c #E8E8E7",
" X c #EDEDED",
".X c #E4E7ED",
"XX c #E1E7F1",
"oX c #E3EAF3",
"OX c #EAEFF6",
"+X c #FCFCFB",
"@X c #F5F8FC",
"#X c #EDF2F9",
/* pixels */
"                                                                    o o o X X o o O                                             ",
"                                                                    7 8 8 v B v & O                                             ",
"                                                            o X X 7 ] u.y.n.W.i.v o                                             ",
"                                                            6 7 7 J n.~./.`.(.n.n X                                             ",
"                        X o O O                         X 2 Q 2.w.p.A./. X~.' n                                                 ",
"                        n z & O                         2 S w.A.D.W.~.!.(.n.m .                                                 ",
"                    . n n.i.z o                     o 6 Q w.N.D.D./.|.Q.' v                                                     ",
"                    6 ` '.~.C X                     o 7 [ N.D.D.D.`.+XQ.n X                                                     ",
"                o 7 ] A. X^.B .                     o 5 O.N.D.W.W.`.+X~.n X                     o o o o o o o o                 ",
"                o l u./. X^.' n                     o , ~ e.r.u.u.B.D.u.z X                     6 7 8 8 l l 8 7                 ",
"                o l u.Q.!.!.~.n.v .                 o - 3 k 7 7 8 z n l % o                 X 2 / e.w.u.u.u.u.] 7 .             ",
"                o l y.W.D.!.|.^.' v                 h x j k j 2 & = , 4 h 4                 2 S w.A.D.W.W.Q.'.A.` n             ",
"                X b r.T.W.W.!.!.^.k.n o     o X X h 3.g.d.d.d.3.M b R <.<.E 3 X o o     o 6 / w.N.D.D.D.D.!.|. X'.n.n X         ",
"                o 9 w.T.D.D.D.`.+X~.n X     j j j U b.R.I.I.E.b.L F q.c.v.7.D 4 4 4     X 7 [ N.D.D.D.W.~.~.^.^.~.i.z o         ",
"                o 9 %.M.D.D.D./.+X~.B . . j 3.d.d.l.Y.I.I.I.I.z.L A q.c.c.f.7.>.<.E 3 X o 7 2.N.D.D.D.~.|.(.' C Z z & O         ",
"                O 6 / w.B.D.D.D.Q.n.I j j U b.R.I.P.P.P.P.P.P.z.J A 7.x.x.x.x.c.v.7.D , % 5 Q y.D././.!.~.k.v . X o O O         ",
"                    2 S w.N.N.y.I L q.g.d.l.F.P.P.P.P.P.P.P.P.l.L W 7.x.x.x.x.x.x.f.7.~ b 1 1 T Q.+X+X^.' v                     ",
"                    X 2 / [ 2.Q , 5 4.M.P.I.P.P.P.F.P.P.P.P.I.z.K N 7.x.x.h.h.x.x.x.c.0.H 9 1 D n.~.^.n.v .                     ",
"                        6 7 7 6 2 9 A ' C.R.P.P.P.P.P.P.P.P.I.z.K F 6.x.h.h.h.h.h.x.v.q.H M K U S S B n                         ",
"                        o X X & S ! ! ) t.m.F.P.P.P.P.P.P.Y.b.t.! ! 0.h.x.h.x.x.x.f.0.;.H H ;.R , X X X                         ",
"                            . 7 t.T.T.j.) _ m.P.P.P.P.P.P.b._ Y :.0.0.c.x.x.x.x.c.0.~ H ~ ;.<.R , X                             ",
"                            z ( J.oXoXT.1.) t.m.F.P.P.P.).V.4.` f.M.M.M.c.f.0.7.7.;.H H ;.6.<.~ x ,                             ",
"O O X X                 o c t.J._.}.}.{.T.j._ ' b.P.P.U.].].T.J.L.F.F.Y.c.0.! A F K ~ ^ <.<.<.:.^ W , O                         ",
"O * z B                 X v V.oX}.}.}.}.XXH.P H l.U.R.I.G.V.Z.m.h.f.f.x.M.0.Y M M K _ 6.<.<.<.<.5.R , o                         ",
"o z k.n.m .             X c V.XX}.}.}.}.}.S.P G g.R.{.L.E c n n b j h U h.M.7.~ ~ ;.:.<.<.<.<.<.7.R , o                         ",
"X Z K.(.' v             z ( H.}.}.}.}.}.}.T.1.1.H.).J.t.m @ + @ : : : m 4.d.0.7.7.5.<.<.<.<.<.<.5.E x ,                         ",
"o v k.`.!.n.n . X X X v t.J.[.}.}.}.}.}.}._.T.).oX(.` m s s 0 q d | | f m D 7.f.7.5.<.<.<.<.<.<.5.:.^ W , o o o o o             ",
"o 7 y.`. X~.' n C l % v V.OXXX}.}.}.}.}.}.}.XXXX`.p.m $ a d s i +.$.$. .e r E 7.7.7.6.5.<.<.<.<.<.5.7.R 3 - ; 7 7 6             ",
"o 8 u.~.!.!.~.Q.^.a.7 v V.OXXX}.}.}.}.}.}.}.@X(.' m p i { a q y ..$.$.#...f r D 5.0.0.5.<.<.<.<.<.5.6.R 1 , Q 9.[ Q 2 X         ",
"o 7 ] p.A.!.|.+X+XD.n 7 t.J.J.H.S.Z.V.T.[.OX+XQ.n @ u } } a 0 0 {  . ...X.{ # 3 5.0.<.^ ,.<.<.6.<.6.6.R , 7 9.N.N.w.S 2         ",
"    7 I p.Q.!.`.`.n.v & C ! ! ! ! ! ! q.T.OX+XQ.Z @ u } } a 0 > w w w e i e @ h ,.0.L F ;.5.6.<.6.6.6.R , 7 w.D.D.N.w.Q 6 o     ",
"    X 7 w.D.D.D.K.y.8 % 9 N N N M M M P j.).}.A.n @ s a a u 0 : : < w p d y @ j t.b.,.Y ~ ^ ^ ^ ^ ^ ^ W * 8 y.W.D.D.A.9.7 X     ",
"    X 7 O.A.D.W.W.u.j * F ^ ^ ^ ^ ~ ^ ~ ! ,.b.t.j @ 0 y 0 0 < : : w o.&.*.o.: v Z.}.^.j.! M M M M M N 9 % j y.W.D.D.D.w.8 .     ",
"    o 6 ^ w.B.D.D.r.7 , R 7.6.5.6.6.7.^ F Y 7.>.h @ q i e w w q < p %.=.=.@.< v Q.+X#XT.q.P ! ! ! ! ! A & z n.'.`.!.W.p.J 7     ",
"        k F w.N.A.e.7 , R 5.5.<.6.<.5.>._ >.s.>.3 # { +... ...{ 0 p @.=.=.@.< v T.+XOX_.T.S.S.S.S.J.J.r.7 n D.+X+X|.~.A.B.] 8 o ",
"        X 3 Q [ [ I 1 , R 6.5.<.<.<.<.<.5.7.s.5.D r f ..#.$.$...e g &.-.&.O.V 3./.@X.X}.}.}.}.}.}.oXoXV.c j a.^.Q.Q.!./.Q.u.l o ",
"            6 7 6 1 + 2 R 7.5.<.<.<.<.<.<.6.7.7.5.E r q  .$.$.X.u f *.&.g V n.`.}..X}.}.}.}.}.}.}.XXOXV.v % l C n ' ~. X/.u.8 o ",
"            O o o o o , W ^ :.5.<.<.<.<.<.<.<.7.f.7.W m f | | d q y  .O.V ( ).oXT.T._.}.}.}.}.}.}._.J.r.v X X X . n n.!.`.n.z o ",
"                        , x E 5.<.<.<.<.<.<.5.7.7.0.d.3.m : : : + @ : V r.J.).F.1.q.T.}.}.}.}.}.}.S.( z             v ' !.W.Z X ",
"                        o , R 5.<.<.<.<.<.:.;.^ ^ 8.b.l.U h h b v n x ( H.{.R.l.A J S.}.}.}.}.}.oXV.v .             . n n.p.z o ",
"                        o 1 R 7.6.<.<.<.6.^ K M N Y 0.M.x.s.s.h.C.V.V.G.I.).P.h.H P H.XX}.}.}.}.oXC.c X                 n z & O ",
"                        o , W ^ :.<.<.<.;.~ K A N ~ 0.v.Y.F.P.F.J.T.].].E.P.P.m.` ) j.T.{.}.}.[.J.r.z o                 o o O O ",
"                            , x ~ 6.6.^ W K ;.q.7.0.0.x.M.M.M.h._ 4.C.).P.P.P.Y.m.t.) q.T.oXXXJ.` z                             ",
"                            X , Y <.;.~ K ! 0.c.c.c.c.h.h.0.0.<.Y _ v.I.P.P.P.P.E.m.) ) j.J.T.r.7 .                             ",
"                        X X X , R ;.K K ;.0.0.c.x.x.h.h.x.0.! ! q.m.F.P.P.P.P.P.P.F.m.t.) ! ! G & X X o                         ",
"                        n C Z G U K M F q.c.c.c.h.h.h.x.x.7.F H z.E.P.P.P.P.P.P.P.P.R.m.' A 5 1 6 7 7 6                         ",
"                    . v k.^.~.k.D , 9 H 0.c.c.x.x.h.h.x.x.7.A L z.E.P.P.P.F.P.P.P.I.E.P.M.4.5 2 Q 2.2.Q 2 X                     ",
"                    v ' ~.+X+XQ.P 2 4 b ^ 0.0.x.x.x.h.x.x.7.A P z.P.P.P.P.P.P.P.P.Y.z.d.h.8.P I r.N.N.w.S 2                     ",
"        O O o . . n n.^./.`.`.D.u.Q 6 & , D 7.c.c.x.x.x.x.7.F H l.P.P.P.P.P.P.U.I.b.U j j I B.W.W.D.D.B.w./ 2 o                 ",
"        O & z Z n ' ~.|.~.D.D.D.N.2.7 X X 3 E <.>.8.f.c.v.7.F L z.I.I.I.P.F.b.d.d.3.h . X Z ~.+X/.D.D.D.A.e.7 o                 ",
"        o z i.~.^.~.!.~.W.D.D.D.N.2.5 o     4 4 h D 7.v.v.7.G L z.R.I.U.U.b.U j j j     . Z ^.+X/.D.D.D.D.w.8 o                 ",
"        X n n.'. X|.!.W.D.D.D.B.w.Q 6 o     o o o , E <.<.E b v 3.d.d.d.d.3.5 X X o     X n k.Q./.!.W.D.W.u.z o                 ",
"            n ` A./.Q.W.W.D.A.w.S 2                 4 5 4 , % & 4 l j l x h                 n ' !. X!.D.W.y.8 o                 ",
"            . 5 ] u.u.u.u.w.e./ 2 X                 o % z n v l 7 7 7 , - O                 . v k.~.!.!.Q.u.8 o                 ",
"                8 8 8 z 8 8 7 2                     X l a.D.n.y.y.w.9.I ; X                     v ' Q. X/.u.8 o                 ",
"                o o o o o o o o                     X C ^.+X`.K.W.W.N.[ 7 o                     . B Q. XA.] 8 o                 ",
"                                                    . B Q.+X`.D.W.D.N.[ 9 o                     X n ~.'.` 7                     ",
"                                                    v ' Q.|./.D.D.B.w./ 6 O                     o z k.n.n .                     ",
"                                                . v n.~.!.!.W.W.A.t.H 1                         O & l n                         ",
"                                                n ' !. X/.A.p.w.O.^ 2 X                         O O o o                         ",
"                                            X n n.!.'./.~.k.J 7 7 6                                                             ",
"                                            o l i.K.n.y.u.] 7 X X o                                                             ",
"                                            O ; v Z z 8 l 7                                                                     ",
"                                            O O X X o o o o                                                                     "
};
