/* XPM */
static char *result[] = {
/* columns rows colors chars-per-pixel */
"64 64 64 1 ",
"  c #595958",
". c #5D5D5C",
"X c #656564",
"o c #6A6A68",
"O c #666664",
"+ c #5E5E5C",
"@ c #5A5A59",
"# c #555555",
"$ c #4C4C4C",
"% c #505050",
"& c #626260",
"* c #676765",
"= c #5E5E5D",
"- c #565655",
"; c #4D4D4C",
": c #555554",
"> c #5F5F5D",
", c #666665",
"< c gray30",
"1 c #484849",
"2 c #5F5F5E",
"3 c #636362",
"4 c #636361",
"5 c #575756",
"6 c #50504F",
"7 c #525251",
"8 c #5C5C5B",
"9 c #61615F",
"0 c #5B5B5A",
"q c #585857",
"w c #60605F",
"e c #646462",
"r c #565656",
"t c #484848",
"y c #60605E",
"u c #545453",
"i c #515151",
"p c #616160",
"a c gray31",
"s c #5D5D5B",
"d c #515150",
"f c #4B4B4B",
"g c #4E4E4E",
"h c #535352",
"j c #494949",
"k c gray32",
"l c gray29",
"z c #5C5C5A",
"x c #4C4C4B",
"c c #4F4F4E",
"v c #585858",
"b c gray34",
"n c gray35",
"m c gray33",
"M c #4E4E4D",
"N c #535353",
"B c gray28",
"V c #474748",
"C c #5B5B59",
"Z c #4B4B4A",
"A c #696967",
"S c #676766",
"D c #626261",
"F c white",
/* pixels */
" .XooooO+@@@@#$%&*= @@@@@@@@@-;$:=OooO+@@@@+OooO+@@>*,+ @@@@@-<1",
".23OOOO4.@@@@567892.0@@@@@@@@-;<qweOO4.@@@@.4OO4. r >92.0@@@0-<t",
"X3y++==.0@@@@ 5ui-p3. @@@@@@@#$6=ew+=.0@@@@0.==.05%<arp3. @@0-<t",
"oO+  @@@@@@@@@05ai8p2s0@@@@@@#$d&,=  @@@@@@@@@@@@5%ftg0p2.0 5h$j",
"oO+ @@@@@@@@@@@ 5ui-93.@@@@@@#$d&O= @@@@@@@@@@@@@ 5kflgrpe=5%$lj",
"oO=@@@@@@@@@@@@@0#$%&*>@@@@@@#$dpO=@@@@@@@@0.8qr @05%ftgzy kxtjj",
"oO=@@@@@@@@@@@@@0#$%&*>@@@@@@#$dpO=@@@@@@@@.3yhar@@ 5kflc%g$ljjj",
"O4.@@@@0..0@@@@@@5678>vb8.0@0-$dpO=@@@@@@@@.3yhar@@@05%xjttjjjjj",
"+.0@@@@.33.@@@@@@ 5:7a<hwe+@0-$dpO=@n@@@@@@0.8q5 @@@@ 5h$t1jjjjj",
"@@@@@@@.33.@@@@@@@056$$7s2 --kfdpO=0.8q--5 @@@@@@@@@@00r<jjjjjjj",
"@@@@@@@0..0@@@@@@@@ 5#-m7aM;<fjd&O=.4yN$$%5@@@@@@@@@@00r<jjjjjjj",
"@@@@@@@@@@@@@@@@@@@@@0056$$<<fjd&O==,&dBV;-@@@@@@@@ 5--h$jjjjjjj",
"@@@@@@@@@@@@@@@@@@@@C0@ 5#---kfd&O==,&dBV;-@@@@@@@05%<<$ljjjjjjj",
"@@@@@@@@@@@@@@@@@@@ 55 @@@@00-;6>3..4yN$$%5@@@@@@ 5h$ttjjjjjjjjj",
"@@@@@@@@@@@@@@@@@@@5665@@@@C0-;Mv.00.8q--5 @@@@@05%$ljjjjjtt1jjj",
"+.0@@@@@@@@@@@@@@@@5665@@@@@@-;;#@@@@@@@@@@@@@@ 5h$tjjjjtfa%g$lj",
"O4.@@@@@@@@@@@@@@@@ 55 @@@@@@-;;#@@@@@@@@@@@@@05%$ljjjjttc8y@h$j",
"oO=@@@@@@@@@@@@@@@@@@@@@@@@@@-;;#@@@@@@@@@@@@ 5h$tjjjjjZg-p40h$j",
"oO=@@@@@@@@@@@@@@@@@@@@@@@@@@-;;#@@@@@@@@@@@@5%$ljjjjjta0py@i$lj",
"AX=@@@@@@0..0@@@@@@@@@@@@@@@@-;Mv.0@@@@@@@@@0-<tjjjjjjti4*>#;tjj",
"AX=@@@@@@.33.@@@@@@@@@@@@@@@@#$6>3.@@@@@@@@@0-<tjjttjjti4S2-;tjj",
"oO=@@@@@@.33.@@@@@@@@@@@@@@@@#$d&*=@@@@@@@@ 5h$ttfaaftta82 h$jjj",
"oO=@@@@@@0..0@@@@@@@@@@@@@@@@#$d&*=@@@@@@005%$lttc88attfa%g$ljjj",
"O4.@@@@@@ 5#-5 @@@@@@@@@@@@@@#$6=3.@@@@ 5--h$ttlg5&9uxljtt1jjjjj",
".80@@@@@@5%$;%5@@@@@@@@@@@@@@-;Mq.0@@@05%<<$lttgzpy8qh$jtjjjjjjj",
".80@@@@@@-;tt;-@@@@@@@@@@@@@@-;Mq.0@@ 5h$ttttlgrpe.@@-<jjjjjjjjj",
"O4.@@@@@@-;tt;-@@@@@@@@@@@@@@#$6=3.@@5%$ljjttgzp2.0@@-<jjjjjjjjj",
"oO=@@@@@05%<<%50@@@@@@@@@@@C0-$d&*=@@-<tjjjfc5&e.@@C0-<jjjjjjjjj",
"oO=@@@@@@ 5--5 @@@@@@@@@@@@00-$dD*>@0-<tjjta8&y.0@@00-<jjjjjjjjj",
"p=q:#####------#----##-------kfc0> #-kxttttc82v::##--h$t1jjjjjjj",
"%a<$$$$$$;<<;;$$;;;;$$;;;;;<<$lfga<$$fjttttlc6<$$$$;<$jttjjjjjjj",
"%%%dddddd6MM6dd6M;;M66M;;;;<<$lZg%dddddddddd%%%ddddcllc%g<<<<$lj",
"99ppppp&&=qq=&&>v:: >> ##----kfg0&&ppp&&&&&&ppppp&&0gg02 ----h$j",
"oA*OOOOO,3..3**3.@@.ee.@@@@00-$d&oSOOOOOOOOOOOOOO**>a%&*>@@00-<t",
"o*p======.00.==.0@@0..0@@@@C0-$d&Sp===============> <d&*=@@C0-<t",
"AX+  @@@@@@@@@@@@@@@@@@@@@@@@#$dpO=  @@@@@@@@@@@@@@:$%&*=@@@0-<t",
"AX+ @@@@@@@@@@@@@@@@@@@@@@@@@#$dpO= @@@@@@@@@@@@@@@:$%&*>@@@0-<t",
"AX=@@@@@@@@@@@@@@@@@@@@@@@@@@#$dpO=@@@@@@@@@@@@@@@@5678>vq8sqk$j",
"AX=@@@@@@@@@@@@@@@@@@@@@@@@@@#$dpO=@@@@@@@@@@@@@@@@ 5:7a<N99uflj",
"AX=@@@@@@@@@@@@@@@@@@@@@@@@@0-$dpO=@@@@0.==.0@@@@@@@@56$$k.8atjj",
"AX=@@@@@@@@@@@@@@@@@@@@@@@@@0-$dpO=@@@@.4OO4.@@@@@@@@ r#-:7cZjjj",
"oO=@@@@@@@@@@@@@@0..0@@@@@@ 5kfd&O=@@@@=OooO=@@@@@@0..0C056fjjjj",
"oO=@@@@@@@@@@@@@@.33.@@@@@05%fjd&,=@@@@=OooO=@@@@@@.33.@@ 5kxtjj",
"O4.@@ 5------5 @@.33.@@@@ 5h$tt%>3.@@@@.4OO4.@@@@@@.33.@@@05%$lj",
"=.0C05%$$<<<$%50C0..0@@@@5%$lttgv.0@@@@0.==.0@@@@@@0..0@@@@ 5h$j",
"##---Na;;xjjfau--5 @@@@C0-;tjjjgv.0@@@@@@@@@@@@@@@@@@@@@@@@@0-<t",
"$;;;$aN--kx$hua$$%500@@00-;tjjt%>3.@@@@@@@@@@@@@@@@@@@@@@@@@0-<t",
"$;;;$%500-;<rq%$$aN------ua$lttiD*=@@@@@@@@@@@@@@@@@@@@ 55 @@-<1",
"##---5 00-$;-@5--Na$;;;;$auh$ttiD*=@@@@@@@@@@@@@@@@@@@@566500-<1",
"=.0@@ 55 5%aN5 005%$;;;;$%bqdfj6>3.@@@@@@@@@@ 5----5 @@566500-<1",
",3.@@5%%5@bNa%500 5------5 n5kxM .0@@@@@@@@@@5%<<<<%5@@ 55 @@-<1",
"O4.@@-$fkq@-$$-0@@@@@@@@@@@@0-<;#@@@@@@@@@@@@-;tttt;-@@@@@@@@-<1",
"=.0@@-<jfdq-$$-0@@@@@@@@@@@@0-<;#@@@@@@@@@@@@-;tttt;-@@@@@@@@-<1",
"@@@@@-<tt<-5%aN5 0.==.0@@@@@@-;;#@@@@@@@@@@@@5%<<<<%5@@@@@@@@-<1",
"@@@@@-<tt;-@bNa6r.4OO48 @@@@@-;;#@@@@@@@@@@@@ 5----5 @@@@@@@@-<1",
"@@@@@5%;;%500-$$#=Ooo*9s0@@@@-;M .0@@@@@@@@@@@@@@@@@@@@@@@@@@-<1",
"@@@@@ 5--5 @0-$$#=OooA*4.@@@@#$6>e.@@@@@@@@@@@@@@@@@@@@@@@@0@-<1",
"@@@@@@@@@@@@@5%cN@&OOOO4.@@@@#$6>e.@@@@ 5----5 @@@@@@@@ 5--5 -<1",
"@@@@@@@@@@@@@ 5Ncd@==+=.0@@@@-;M .0@@@05%<<<<%50@@@@@005%;;%5-<1",
"@@@@@@@@@@@@@00-;$#@@@@@@@@C0-<;-@@@@ 5h$tttt$h5 @@ 5--h$tt<rr<t",
"@@@@@@@@@@@@@00-;;-0@@@@@@@00-<<-00005%$ljjjjl$%5005%<<$ltt<5r<t",
"---------------k$$k----------k$$k----h$tjjjjjjt$h--h$ttjjjj$hh$j",
"<<<<<<<<<<<<<<<$ll$<<<<<<<<<<$ll$<<<<$ljjjjjjjjl$<<$ljjjjjjl$$lj",
"1111111111111ttjjjjtt111111ttjjjjttttjjjjjjjjjjjjttjjjjjjjjjjjjj"
};
