/* XPM */
static char *_2e70207c6ad459ed6ac18a5699f54ae82Ygdqw0ZoIBljZI[] = {
/* columns rows colors chars-per-pixel */
"64 64 243 2 ",
"   c None",
".  c #393839",
"X  c #38352D",
"o  c #791716",
"O  c #7C0A0A",
"+  c #552F0D",
"@  c #632D00",
"#  c #4B3936",
"$  c #4D3B39",
"%  c #44393B",
"&  c #523F3D",
"*  c #46362B",
"=  c #792B2A",
"-  c #7F302E",
";  c #50451E",
":  c #4F431B",
">  c #4D4228",
",  c #5D4B2B",
"<  c #544627",
"1  c #53413E",
"2  c #574936",
"3  c #5B5237",
"4  c #484738",
"5  c #614C28",
"6  c #68552B",
"7  c #6D5C3C",
"8  c #665738",
"9  c #785939",
"0  c #675233",
"q  c #756139",
"w  c #77693E",
"e  c #6F6734",
"r  c #735C1A",
"t  c #313943",
"y  c #184870",
"u  c #2B577C",
"i  c #365776",
"p  c #355168",
"a  c #3B4751",
"s  c #424243",
"d  c #4C4A4A",
"f  c #564240",
"g  c #594543",
"h  c #5D4946",
"j  c #574C49",
"k  c #5B534A",
"l  c #575759",
"z  c #4C4F57",
"x  c #624C4A",
"c  c #614B45",
"v  c #794846",
"b  c #6A524C",
"n  c #675749",
"m  c #775845",
"M  c #6D5553",
"N  c #6B5954",
"B  c #705955",
"V  c #755D5A",
"C  c #7A5B56",
"Z  c #6B6448",
"A  c #776647",
"S  c #696456",
"D  c #7A615E",
"F  c #776559",
"G  c #7A7256",
"H  c #485A6B",
"J  c #535964",
"K  c #455F74",
"L  c #645F60",
"P  c #546371",
"I  c #6D6A65",
"U  c #6C6B6C",
"Y  c #666464",
"T  c #7D6561",
"R  c #7E6965",
"E  c #746A68",
"W  c #797669",
"Q  c #737375",
"!  c #767679",
"~  c #7B7B7C",
"^  c #7B7677",
"/  c #6F6F71",
"(  c #8E1010",
")  c #B21010",
"_  c #823E00",
"`  c #83201F",
"'  c #903530",
"]  c #B13D35",
"[  c #D81213",
"{  c #F41B1D",
"}  c #E72726",
"|  c #967A12",
" . c #8B6C33",
".. c #A76A25",
"X. c #AF7C3A",
"o. c #A1502F",
"O. c #825B47",
"+. c #875C57",
"@. c #8E5552",
"#. c #896748",
"$. c #926849",
"%. c #897745",
"&. c #97704E",
"*. c #88655A",
"=. c #966859",
"-. c #977659",
";. c #A87F5D",
":. c #A47757",
">. c #A16D55",
",. c #826965",
"<. c #8C6C63",
"1. c #866D69",
"2. c #866966",
"3. c #8A726D",
"4. c #877369",
"5. c #8E7671",
"6. c #8E7974",
"7. c #877470",
"8. c #927A75",
"9. c #967F79",
"0. c #907772",
"q. c #947166",
"w. c #A77968",
"e. c #AF7966",
"r. c #F95449",
"t. c #7A8D6D",
"y. c #7EAB6F",
"u. c #A78814",
"i. c #B99615",
"p. c #B9B01E",
"a. c #939031",
"s. c #A6A33F",
"d. c #9E8012",
"f. c #D1B112",
"g. c #CDB323",
"h. c #D9AD11",
"j. c #CFCB1C",
"k. c #E7CB16",
"l. c #CCCE2C",
"z. c #F1E71F",
"x. c #968B55",
"c. c #8F8756",
"v. c #B6835D",
"b. c #A98A51",
"n. c #BCB851",
"m. c #8B8678",
"M. c #99827C",
"N. c #94847B",
"B. c #978E6C",
"V. c #AA8468",
"C. c #BC8569",
"Z. c #A58A7B",
"A. c #B79476",
"S. c #BCA370",
"D. c #C38967",
"F. c #C99C76",
"G. c #CF9A73",
"H. c #E49E78",
"J. c #DAA476",
"K. c #C7A971",
"L. c #C48F4B",
"P. c #E7CA5D",
"I. c #215F90",
"U. c #3C6686",
"Y. c #336C97",
"T. c #3D79A4",
"R. c #317CAF",
"E. c #1F5F8F",
"W. c #506C87",
"Q. c #707884",
"!. c #457BA1",
"~. c #847D83",
"^. c #3885B8",
"/. c #3B83B0",
"(. c #77858B",
"). c #689994",
"_. c #5CA59B",
"`. c #4985AA",
"'. c #5095B4",
"]. c #6F92B0",
"[. c #1C8AD3",
"{. c #1A88CF",
"}. c #318EC9",
"|. c #51A1CF",
" X c #838385",
".X c #8B8B8C",
"XX c #858689",
"oX c #9A8984",
"OX c #979699",
"+X c #93908D",
"@X c #A18A84",
"#X c #A68E88",
"$X c #AD8E85",
"%X c #A7908A",
"&X c #A9928C",
"*X c #AC9185",
"=X c #AE9892",
"-X c #B19A94",
";X c #B39484",
":X c #A2A19E",
">X c #B8A890",
",X c #9D9DA1",
"<X c #A19DA4",
"1X c #90A4B7",
"2X c #ABABAC",
"3X c #A6A5A7",
"4X c #B7B6B8",
"5X c #B4B0AF",
"6X c #D7AB83",
"7X c #D2B388",
"8X c #E7B688",
"9X c #F1B38E",
"0X c #C9BBA9",
"qX c #DEC697",
"wX c #E7C798",
"eX c #F5CA9D",
"rX c #F3C297",
"tX c #D2C4AD",
"yX c #F2CAA9",
"uX c #FCDAAA",
"iX c #F9D8A7",
"pX c #F4D7B4",
"aX c #EACEA8",
"sX c #FFE1AF",
"dX c #FFE4B1",
"fX c #BDBDC2",
"gX c #81A8C4",
"hX c #9BC5E0",
"jX c #C2C2C4",
"kX c #C6C6CA",
"lX c #CAC9CA",
"zX c #D6D4CB",
"xX c #DCD4CC",
"cX c #C9CCD3",
"vX c #D6D6D9",
"bX c #CAD1CC",
"nX c #E4DED4",
"mX c #F5E7D4",
"MX c #DDEBF6",
"NX c #E5E5E6",
"BX c #FEFEFF",
"VX c #F4F6F8",
"CX c #F0F0F0",
/* pixels */
"                                                                                                                                ",
"                                                                                                                                ",
"                                        $ $ $ $ $ $ $ $             # $ # $ $ $ $ $                                             ",
"                                        $ $ $ 1 g h f 1             b x h g g 1 $ &                                             ",
"                                            $ g V T M c & # $ # # x 6.M.3.T M h & # # # $ $ $ $ $ $ $ $                         ",
"                                            $ g T 1.,.B x g f f h T @X%X9.R M x x g g g g & $ $ & $ $ $                         ",
"                            $ $ $ $ $ $ $ # # f M T 1.1.,.V M V 8.oXoX6.,.M g x C 2.R D M x & $ $ $                             ",
"                            $ $ $ $ & g h g f f h M R 5.M.8.T 1.@X&X8.,.D B h M 0.~.9.3.,.M h & $ $                             ",
"                                $ & x M T D M x f g M 1.@X%X8.3.9.6.,.V 2.2.R 3.#X&X~.0.5.,.M h $ $ # $ # $                     ",
"                                $ & x M ,.1.,.M x x M 1.@X&X@X9.8.3.V T 3.9.9.@X&X#X8.<.R R ,.D b h h g f f                     ",
"                            $ $ $ $ & g M T ,.1.,.,.2.3.9.@X&X%X9.3.3.3.3.9.&X=X@X6.,.M h B 9.@X7.R ,.T M x & $                 ",
"                            1 g h h h x M ,.8.M.oX9.6.0.0.9.&X#X9.0.0.0.0.9.$X&X9.2.,.B b D @X#X9.1.,.T M x f $                 ",
"                        # 1 x M D ,.R ,.1.8.#X=X=X#X9.0.0.0.9.9.8.0.6.0.0.8.9.9.8.3.3.0.9.@XoX8.R V x g f &                     ",
"                        1 g x M ,.<.5.6.0.9.%X=X=X#X9.0.5.5.5.0.9.9.8.6.6.8.9.9.8.0.0.9.%X#X6.2.D M x g f &                     ",
"                    $ & x x g c M ,.3.0.0.8.9.9.9.9.0.0.0.0.0.9.%X%X9.6.6.9.&X$X9.3.0.8.9.8.,.D 1.1.,.T M x & $                 ",
"                    $ & x x g g M ,.0.9.8.0.0.0.0.0.9.9.8.0.9.@X-X=XM.<.+.<.~.;XoX9.0.0.6.3.D C ,.7.5.3.,.M h 1                 ",
"                $ $ $ & & g x M T 8.%X%X9.0.5.5.0.9.#X#X9.9.&X-X-X-X~.+.= = C 3.#X%X9.0.0.5.3.2.V ,.3.0.7.,.M x & #             ",
"                $ $ $ $ # f M ,.8.@X&X&X9.0.0.8.9.@X&X#X8.8.-X-X-X#X8.@.( O = +.~.&X9.3.+.=.0.9.,.V 2.1.,.T T M x &             ",
"                        # g D 8.#X&X@X9.8.5.0.9.#X&X@X0.,.2.&X-X#X8.D v ( ( O = q.~.9.+.' ' 9.&X8.2.T M x M R ,.M x & #         ",
"                        & x R M.&X#X0.1.3.3.3.8.#X#X9.2.v C 9.&X9.<.@.' ) ) ( ( @.w.~.+.o o q.=X@X6.V b g h V T M x g #         ",
"                    $ & x M 1.8.M.8.T T 3.3.T ,.0.~.9.+.= = <.M.9.@.' ) } [ ) ( @.R 6.+.o o 2.@X=XoX,.b x x x h g f             ",
"                    # f M ,.3.5.3.,.D T 3.2.v v 2.6.3.@.( ( @.6.7.@.) [ { { [ ) ` v 1.+.o o v 9.#X@X,.M D M & # # $             ",
"                    # f D 3.0.3.D V ,.3.6.+.= = +.5.D O.( ( @.7.Y @.} { { { { [ ) ' =.+.o o v ,.8.0.D V 2.D g %                 ",
"                    g M ,.3.3.2.V ,.3.5.7.*.' ' @.3.0.w.] ] =.7.3.w.r.r.r.r.r.r.} ] =.+.' ' v V 3.1.V V 2.,.b g                 ",
"                & g D ,.D V V D 2.3.0.3.T <.C.D.*.q.7X8X8XF.<.q.7X8X9X9X9X9X9X9XH.G.=.<.D.C.+.V 1.1.C M V T ,.V h $             ",
"                # g V D M b M V 3.5.3.1.<.q.A.A.*.F S.aXiXaXZ.Z.aXpXdXdXdXsXwXqXK.V.C *.6X6Xw.+.2.2.2.C b M 2.D g $             ",
"                # 1 g h 5 0 b V 1.3.D <.A.F.%.7 3 0 Z x.qXuXaXwXpXdXdXdXdXqXx.w w q , A 6X8XG.e.*.<.e.e.b c B B g $             ",
"                # # # # * , x D 3.1.V q.6X7X-.n > > 3 B.qXdXdXdXdXuXdXdXdXqXB.8 > > n q.7X8X6Xe.+.*.D.e.9 & c c & $             ",
"                1 #     ; , b D 3.1.V <.6X8X0XoX1 1 +XtXpXsXdXdXsXsXsXsXsXpXtX+X& & +X0X8X9XH.C.*.*.D.e.9 > 1 & $ $             ",
"                # #     < 2 8 B ,.,.+.q.6XaXnX4Xj d <XxXpXsXdXuXsXdXsXsXsXpXxX<Xd j 5XnXyX8XG.e.+.F :.>.6 > # $ $ $             ",
"                        > > 2 3 B F #.;.6XyXNX0Xj . ~.5XpXdXdXsXsXsXdXsXdXaX5X X% h fXmXaX6XC.&.+.m 9 6 2 #     $ $             ",
"                        $ $ 2 , b C $.v.6XpXCXlXN * M Z.qXdXdXdXsXsXdXdXdXwXZ.B * b lXCXpX6Xv.$.C b 2 , # $     & $             ",
"                        $ & x b M C $.v.6XuXCXzXm + +  .qXdXdXsXsXsXsXdXdX8X#.+ + m lXCXyXH.v.$.C B b 3 & $                     ",
"                        $ f x M b b  .&.J.yXmXtX .@ @  .J.dXdXsXsXsXdXdXdX7X .@ @  .tXmXyXJ.:.m b b M b f $                     ",
"                        $ f b M g & , O.D.9XyX6X.._ _ ..qXdXdXsXsXsXsXdXdXP...@ _ ..7XyX9XD. ., & g M b 1 $                     ",
"                        # f x k h g 2 9 &.D.H.J.X.....L.wXdXdXsXsXsXsXdXdXeXL.....L.J.H.D.&.7 2 g j x x f $                     ",
"                            d k S I I S 7  .D.H.H.J.8XwXuXsXsXsXsXsXsXsXdXuXeXJ.6XH.H.D.$.n S Y U L j d                         ",
"                            d l U Q.XX~ S A :.D.H.8XeXiXuXuXuXuXuXuXuXuXpXuXiXiX8XJ.D.&.A S 7.XXQ.U l z                         ",
"                        s z Y U /  XOX2X:Xm.m  .:.D.J.9X9XeXeXeXeXeXrXeXeXrX8XJ.D.:. .A m.:X3X,X~.Q U L d s                     ",
"                        s z ! XX.X,X4XjXkX2XW n  . .>.v.S.F.F.F.K.F.F.K.G.G.e.:. .w n G 2XkXfX2X=X.X(.Q l s                     ",
"                        s l +X4XfXkXvXvXvXkX2Xm.7 ; 6 0 9 q e 7 q q q q e q 9 5 5 8 m.2XlXcXjXfXfXfX<Xt.l s                     ",
"                        s S OX4XcXvXvXvXcXkXkX5Xm.G %.G A Z Z Z 3 3 n Z Z A G G G B.5XkXlXjX4XfXkXjX<XQ.l s                     ",
"                        s l .X2XfXcXvXcX2X2XkXvXzXzXbXlX4X2X:X+XQ Q .X:X5X4XlXbXzXzXvXlX2XOX,X3X2X<X.X/ d s                     ",
"                        t l ! OX<X2XfX2X(.7.1XcXCXBXBXBXVXnXtXS.B.B.S.tXxXCXBXBXBXMXcX3X(.Q ~.XX.XQ./ L k g                     ",
"                        . d Y ^ ~  X.X~ l z U.].cXVXBXBXBXmXP.g.i.i.l.P.mXVXBXBXCXcX].W.z d l U U L z k M 9 5 ;                 ",
"                        X 4 Y ^ ^ ^ / l . t y Y.gXvXVXBXMXbXn.p.f.f.p.n.bXMXVXVXcXgXY.y t . d d j j j x O.9 5 >                 ",
"                        * 3 W M.#XoXQ l t t y I./.].MXMXhX|.'.B.j.l.y._.|.hXMXMX].!.I.y t X . . 4 , 7 O.#.O., :                 ",
"                        : 8 q.Z.;X*XN.I 1 t a I.E.`.hXhX|.{.[._.l.z._.{.{.|.hXhX'.I.I.p t . t t 2 8 9 m m 9 m Z                 ",
"                        < 0 -.V.V.V.*Xm.8 4 h J u I.`.'.}.[.[._.l.l._.[.[.}.'.`.Y.u J j . s l Y I S 0 , , 7 N.OXm./             ",
"                        ; 6 $.;.;.V.;XV.7 < k J i i U.!.T.!.^.).g.n.).^.`.!.Y.U.i i J k s s J U ! E n 3 8 W 3X5XOX(.            ",
"                        ; 6 &.V.;.V.V.-.6 4 p p J M M V E / (.(.oXB.(.(.Q E V N N J i p a . s z U ! I W +X3X4X4X2X,X XQ         ",
"                        ; 6 #.-.;.b.:.$.6 4 p i J Y I E E Q t.m.B.B. X^ E E I I L J u p a s X s Y ! ! XX2XfXfXjXfX3XXXQ         ",
"                        ; , m *.w.;.&.O., 4 z H U.Y.T././.!.W.x.l.l.B.Q.`././.T.Y.K K z d t . s Y ! ! XX2XjXcXbXfX2XXX!         ",
"                        3 3 8 9 #.#.m 9 r r k H U.Y.R././.`.t.s.l.l.s.t.`.}././.T.U.H j 3 < > s U ! !  XOX4XcXvXkX3X XQ         ",
"                        I S 3 < 5 5 < r | d.e J J H K K W.t.l.j.s.a.j.l.t.W.W.W.P H J Z a.| 5 2 Y ! ! ! (.OXlXvXkX3XXXQ         ",
"                        ! ^ G G G G G %.u.d.w q Z w w c.c.s.p.p.Z Z p.p.s.s.x.x.x.c.c. .u.d.r n U ! ! ! ! .XfXlX4X,X X!         ",
"                        Q +X4XzXzXzXzX>Xc.r | i.i.i.h.k.k.g.a.8 d 4 e a.p.j.z.j.k.k.h.g.| 6 S E Q ! ! ! Q XX5X4XOXQ.            ",
"                        Q OXNXBXBXBXBXvXm.r | i.i.i.h.h.k.i.8 s d z a e j.z.z.z.k.k.k.i.e j I ~ ! ! ! ! Q XX,X,X XQ             ",
"                        Q OXNXBXBXBXBXNX.XZ e r  ...X.X.X. .6 2 Y S 4 8 x.n.n.K.K.b.X.%.G I                 XX X                ",
"                        Q +XkXNXBXVXNXjX.XS 3 < 9 m 9 O.9 0 , 3 I I 3 e m.Z.;X;XM.3.m n E ^                 Q ^                 ",
"                            +X4XNXCX5X.X~ Q     , 5 5 5 , ,         n m -.V.V.w.=.C 8 2                                         ",
"                            U +XlXlXOX/ Q !     * : ; < < <         m #.-.;.V.-.&.#.5 ;                                         ",
"                                OXOX                                m *.-.;.;.;.:.#.6 :                                         ",
"                                Q Q                                 m O.-.;.;.;.e.%.0 <                                         "
};
