/* XPM */
static char *_18a09ae81fa4bbae09d015a099343d4UpFOX75IN1ymf9Oy[] = {
/* columns rows colors chars-per-pixel */
"64 64 158 2 ",
"   c None",
".  c #010102",
"X  c #020E0E",
"o  c #0C0C0C",
"O  c #070708",
"+  c #120D07",
"@  c #110F0C",
"#  c #16110A",
"$  c #191409",
"%  c #0E0F10",
"&  c #001213",
"*  c #001A1D",
"=  c #0F1113",
"-  c #121212",
";  c #191816",
":  c #171C1C",
">  c #1C1C1C",
",  c #29170E",
"<  c #29190E",
"1  c #24150E",
"2  c #311C0D",
"3  c #301B10",
"4  c #36290F",
"5  c #2B2519",
"6  c #362012",
"7  c #392412",
"8  c #3C2A16",
"9  c #342819",
"0  c #38271B",
"q  c #3E321C",
"w  c #001E21",
"e  c #072220",
"r  c #002C29",
"t  c #102726",
"y  c #002D30",
"u  c #033331",
"i  c #003A37",
"p  c #003839",
"a  c #242425",
"s  c #292727",
"d  c #292826",
"f  c #272F2E",
"g  c #2B2C2B",
"h  c #302F2E",
"j  c #392E2A",
"k  c #39352E",
"l  c #3A3227",
"z  c #213D39",
"x  c #353535",
"c  c #343639",
"v  c #3C3B3B",
"b  c #37393A",
"n  c #443512",
"m  c #493814",
"M  c #483927",
"N  c #403129",
"B  c #433A36",
"V  c #493E39",
"C  c #673C27",
"Z  c #594416",
"A  c #614A18",
"S  c #42413D",
"D  c #554438",
"F  c #594538",
"G  c #7B4725",
"H  c #674434",
"J  c #764730",
"K  c #784931",
"L  c #774831",
"P  c #003F41",
"I  c #004342",
"U  c #004D4E",
"Y  c #1D4440",
"T  c #004D51",
"R  c #005355",
"E  c #00595C",
"W  c #005D62",
"Q  c #00636C",
"!  c #006D75",
"~  c #00727C",
"^  c #444443",
"/  c #484746",
"(  c #494847",
")  c #4C4C4B",
"_  c #47494A",
"`  c #554741",
"'  c #5B4B43",
"]  c #554A44",
"[  c #51514F",
"{  c #555453",
"}  c #595755",
"|  c #5A5957",
" . c #545758",
".. c #5C5D5A",
"X. c #605241",
"o. c #6C5945",
"O. c #7D5D44",
"+. c #635E56",
"@. c #615F5C",
"#. c #736452",
"$. c #7F715F",
"%. c #5F6A65",
"&. c #646361",
"*. c #686663",
"=. c #6B6A66",
"-. c #666768",
";. c #6C6B69",
":. c #74726E",
">. c #767470",
",. c #7B7874",
"<. c #7F7D78",
"1. c #874F27",
"2. c #904E2B",
"3. c #844F31",
"4. c #8C5835",
"5. c #9C5D33",
"6. c #A25E35",
"7. c #956734",
"8. c #AE6A35",
"9. c #B46D3E",
"0. c #B97B3D",
"q. c #A67946",
"w. c #A97C4A",
"e. c #8A7A69",
"r. c #817E79",
"t. c #AF814E",
"y. c #BE8341",
"u. c #BE8349",
"i. c #85837D",
"p. c #89857F",
"a. c #A28D74",
"s. c #C48549",
"d. c #F59A4C",
"f. c #FFAC54",
"g. c #FFB056",
"h. c #E3A661",
"j. c #00828F",
"k. c #008592",
"l. c #898580",
"z. c #8C8983",
"x. c #918E87",
"c. c #95928C",
"v. c #949596",
"b. c #989691",
"n. c #9E9992",
"m. c #A19D95",
"M. c #A19F9A",
"N. c #A4A19B",
"B. c #A9A59E",
"V. c #A6A6A5",
"C. c #ABA7A0",
"Z. c #AFACA7",
"A. c #ADADAD",
"S. c #B2AEA7",
"D. c #B6B3AC",
"F. c #BDBAB4",
"G. c #C0BDB7",
"H. c #C2BFB9",
/* pixels */
"                                                                                                                                ",
"                                                                                                                                ",
"                                                                                                                                ",
"                                                                                                                                ",
"                                                                                                                                ",
"                                                                                                                                ",
"                                                                                                                                ",
"                                                                                                                                ",
"                                                            . . . .                                                             ",
"                                                            * w w *                                                             ",
"                                                        . * T Q W T * .                                                         ",
"                                                        X r Q k.k.Q r X                                                         ",
"                                                    . & y R ! j.k.~ T u & .                                                     ",
"                                                    . & P Q ! ~ ~ ! W P & .                                                     ",
"                                                    . & p E E W W W E P & .                                                     ",
"                                                    . & p R R R E T T p & .                                                     ",
"                                                    . X r I R R R U I r X .                                                     ",
"                                                    O o e u I U U I u * X O                                                     ",
"                                                . O - : : t u i i u t t ; - O .                                                 ",
"                                                . o : a d f z Y Y z g s a > % .                                                 ",
"                                            . . # : g x v _ ..%.=...) v c g : % . .                                             ",
"                                            . o > g c S / ..,.z.z.,...( B c g > o .                                             ",
"                                        . . - > d x ^ / ) @.z.n.n.p.@.) / ^ c s : # O .                                         ",
"                                        . o d v ^ / ^ / / @.i.b.n.i.@./ / / / ^ v d o .                                         ",
"                                        . ; ) =.;.+./ v / } >.l.i.,.| ^ v / @.;.=.) ; .                                         ",
"                                        . > { ,.r.:.} [ } =.i.z.z.i.;.| [ | :.<.,.{ > .                                         ",
"                                        . - ^ &.>.r.i.p.z.c.B.Z.Z.N.c.z.i.i.<.:.&.^ - .                                         ",
"                                        . o g { >.x.n.B.C.Z.F.H.H.F.S.B.B.N.x.>.{ h # .                                         ",
"                                        . O : / i.n.N.B.D.G.F.H.H.F.F.D.B.B.m.i.^ > . .                                         ",
"                                        . . # h *.i.i.z.b.N.N.N.N.N.M.b.p.i.i.*.x % . .                                         ",
"                                            . ; h S / ) { ..&.*.*.&...} [ ( S g ; .                                             ",
"                                            . O > x { { x g / } } _ f h { } k ; . .                                             ",
"                                            . o h &.V.v.c >  .:.>.{ > x v.V.&.f O .                                             ",
"                                            . @ h ;.A.M.X.M ..>.>.+.M ' B.A.;.B 0 2                                             ",
"                                            . o g _ -.e.w.w.#. . .#.q.t.e.%._ D 4.1.3 .                                         ",
"                                            > g v / ^ o.s.s.O.] ` O.s.u.o.v c H 9.6.7 .                                         ",
"                                        . > _ &.-...^ D 4.5.3.J L 3.5.4.D c c F 6.2.3 .                                         ",
"                                        . 5 #.a.a.$.B j C L L L L L L H ^ c g N C C , .                                         ",
"                                        . 9 q.h.h.w.l > B ' ' ' ' ' ' ] ] v > - 1 ,                                             ",
"                                        . 8 y.g.f.w.7 - b [ ) [ ) ) ) ) _ x - . . .                                             ",
"                                        . 8 y.f.d.8.7 - v [ [ ) ) ) ) _ S g - .                                                 ",
"                                        . 8 7.0.8.G < % g v v v / _ / ^ v g % .                                                 ",
"                                            0 8 7 < + O % ; - > c v v v b d - .                                                 ",
"                                            . . . . . . . . . % a g k k k d % .                                                 ",
"                                                                o ; 9 q q 5 + .                                                 ",
"                                                                . + 4 m m 4 # .                                                 ",
"                                                                . $ n Z Z n $ .                                                 ",
"                                                                . $ n A A n $ .                                                 ",
"                                                                                                                                ",
"                                                                                                                                ",
"                                                                                                                                ",
"                                                                                                                                ",
"                                                                                                                                ",
"                                                                                                                                ",
"                                                                                                                                ",
"                                                                                                                                ",
"                                                                                                                                ",
"                                                                                                                                ",
"                                                                                                                                ",
"                                                                                                                                ",
"                                                                                                                                ",
"                                                                                                                                ",
"                                                                                                                                ",
"                                                                                                                                "
};
