/* XPM */
static char *f84424b962f3456be4eda4a0ed21263cQimjbWpHdiEPZCzR[] = {
/* columns rows colors chars-per-pixel */
"64 64 248 2 ",
"   c None",
".  c #790303",
"X  c #781413",
"o  c #690E0D",
"O  c #632C00",
"+  c #4B3937",
"@  c #4C3B39",
"#  c #423B3E",
"$  c #523E3C",
"%  c #5E3B39",
"&  c #4F322C",
"*  c #693A38",
"=  c #7A302E",
"-  c #552F0D",
";  c #4E431E",
":  c #52471E",
">  c #6B581B",
",  c #75641A",
"<  c #4C4326",
"1  c #514620",
"2  c #5D4A2A",
"3  c #564828",
"4  c #494539",
"5  c #54403E",
"6  c #584A36",
"7  c #5C5135",
"8  c #604C2A",
"9  c #69542A",
"0  c #675636",
"q  c #755A39",
"w  c #6C4F32",
"e  c #7A6725",
"r  c #77643C",
"t  c #6B633B",
"y  c #37556C",
"u  c #3F4046",
"i  c #484446",
"p  c #564341",
"a  c #5A4644",
"s  c #5D4946",
"d  c #5C4B4A",
"f  c #555652",
"g  c #624C4A",
"h  c #674948",
"j  c #7B4543",
"k  c #7A4A48",
"l  c #65514E",
"z  c #6A524E",
"x  c #665945",
"c  c #7C5A42",
"v  c #795648",
"b  c #6D5553",
"n  c #6A5956",
"m  c #715956",
"M  c #755D5A",
"N  c #765855",
"B  c #5F6352",
"V  c #776946",
"C  c #7A625E",
"Z  c #77685A",
"A  c #726A51",
"S  c #6A6867",
"D  c #7D6561",
"F  c #7E6965",
"G  c #756866",
"H  c #747475",
"J  c #787678",
"K  c #75756B",
"L  c #535E6D",
"P  c #850302",
"I  c #9B0303",
"U  c #950707",
"Y  c #871616",
"T  c #971515",
"R  c #AD0000",
"E  c #A50505",
"W  c #B40404",
"Q  c #B00F0F",
"!  c #AA1817",
"~  c #B11313",
"^  c #B51D1C",
"/  c #813D00",
"(  c #962827",
")  c #8C3332",
"_  c #912F2E",
"`  c #B42525",
"'  c #AE3C33",
"]  c #C40505",
"[  c #D30D0E",
"{  c #DA1819",
"}  c #C81516",
"|  c #E91B1C",
" . c #F41C1D",
".. c #F31F21",
"X. c #D82828",
"o. c #DB3333",
"O. c #C92B2A",
"+. c #E62424",
"@. c #FE2526",
"#. c #FF2728",
"$. c #FB2728",
"%. c #E53737",
"&. c #967A0F",
"*. c #895D33",
"=. c #8C6B37",
"-. c #A76F29",
";. c #F24B3F",
":. c #844B49",
">. c #934B4A",
",. c #895B4D",
"<. c #895855",
"1. c #955A57",
"2. c #97514F",
"3. c #A65E5B",
"4. c #876558",
"5. c #946A51",
"6. c #99785A",
"7. c #8F6C49",
"8. c #A67A59",
"9. c #B67D5A",
"0. c #A56559",
"q. c #816763",
"w. c #826966",
"e. c #866E6A",
"r. c #896F6B",
"t. c #896A64",
"y. c #86726D",
"u. c #8A726D",
"i. c #887567",
"p. c #96796A",
"a. c #8E7671",
"s. c #8E7974",
"d. c #817B78",
"f. c #927A74",
"g. c #967F79",
"h. c #977B70",
"j. c #976B63",
"k. c #AB7562",
"l. c #EF584D",
"z. c #5E8473",
"x. c #A9841C",
"c. c #BB9A0A",
"v. c #BFAB31",
"b. c #958127",
"n. c #C39E16",
"m. c #D8B305",
"M. c #D3AD14",
"N. c #CFB724",
"B. c #D2C125",
"V. c #EDCC31",
"C. c #93865D",
"Z. c #B5825D",
"A. c #AB8157",
"S. c #97817B",
"D. c #99827C",
"F. c #9D8175",
"G. c #978B66",
"H. c #A8846A",
"J. c #B88866",
"K. c #A58B7D",
"L. c #A38678",
"P. c #B9947D",
"I. c #B69172",
"U. c #ADA57D",
"Y. c #C78867",
"T. c #C2966D",
"R. c #C69E74",
"E. c #DA9B76",
"W. c #D58D6B",
"Q. c #E69B78",
"!. c #C9A278",
"~. c #C6A362",
"^. c #C48E4B",
"/. c #EDD65E",
"(. c #357092",
"). c #2B7AB4",
"_. c #827E82",
"`. c #5391B9",
"'. c #499BD3",
"]. c #838385",
"[. c #898889",
"{. c #9D8982",
"}. c #929295",
"|. c #9A9A9C",
" X c #8C948F",
".X c #A18A84",
"XX c #A68F88",
"oX c #A88F80",
"OX c #A7908A",
"+X c #A9918B",
"@X c #AB9282",
"#X c #AD9993",
"$X c #B19A93",
"%X c #B89B89",
"&X c #B2A495",
"*X c #9D9DA0",
"=X c #A7A7AA",
"-X c #AAA9AC",
";X c #ADADB1",
":X c #B2B1B5",
">X c #B9B9BD",
",X c #B7B7B9",
"<X c #B5B2AD",
"1X c #A19DA4",
"2X c #E09F82",
"3X c #D7AA87",
"4X c #D9B78C",
"5X c #CFB08D",
"6X c #E7AA84",
"7X c #E4B787",
"8X c #E8BC92",
"9X c #F8BC94",
"0X c #FCAF89",
"qX c #C59F85",
"wX c #DCC494",
"eX c #D7C08F",
"rX c #E2C59E",
"tX c #E9C495",
"yX c #F4C79A",
"uX c #EBC48D",
"iX c #D1C8AF",
"pX c #E5CAA1",
"aX c #FDDBAA",
"sX c #F8D4A4",
"dX c #F0D9B3",
"fX c #FFE2AF",
"gX c #FFE4B1",
"hX c #FDE6B9",
"jX c #BFBFC3",
"kX c #82ACCD",
"lX c #C2C2C5",
"zX c #C8C8CB",
"xX c #D6D3CB",
"cX c #CDCDD1",
"vX c #D1D1D5",
"bX c #D8D8DB",
"nX c #D1CDC7",
"mX c #E1DCD8",
"MX c #FDEAC4",
"NX c #F4EED0",
"BX c #D8DDE3",
"VX c #DBE5EF",
"CX c #E5E6E9",
"ZX c #E5E4E6",
"AX c #FCFCFD",
"SX c #F5F5F7",
"DX c #F3F1ED",
"FX c #9FC7E4",
/* pixels */
"                                                                                                                                ",
"                                                                                                                                ",
"                                        @ @ @ @ @ @ @ @             @ @ + + @ @ @ @                                             ",
"                                        @ @ @ 5 p s p 5             5 p s s p 5 @ +                                             ",
"                                            $ p C C b g 5 + @ @ + 5 g b C D b g $ + + + + @ @ + @ @ @ @                         ",
"                                            + p M F D m g a p 5 p g m D e.q.b l b z g g d a p $ $ @ @ @                         ",
"                            @ @ @ @ @ @ + + + $ p z F u.w.C b b C w.y.w.D b p z a._.u.F w.C b h 5 @                             ",
"                            @ @ @ @ 5 p s g b h p g C u.f.u.C q.f.S.a.w.C M z D .XOXf.e.r.w.m d $ +                             ",
"                                + 5 g b C u._.g.m z m q.a.a.r.f.OX.Xe.C t.a._..Xg.f.q.M M m d $ @ @ + @                         ",
"                                + $ g b q.f.XXXXa.D C <.r.h._..X+X.Xe.C r.g.%X+Xg.r.q.M M m h d s s p p                         ",
"                            @ @ + + $ d m q.f..XXX_.a.r.a.g.+X+X.Xg.u.u.a.f.g.g.f.a.r.r.e.e.w.q.w.D b g p @                     ",
"                            5 p d d a g b D r.g.+X$Xg.a.a.g.XXXXg.a.a.a.a.a.f.f.g.g.f.a.f.a.u.e.w.C m g $ +                     ",
"                        + $ g b C q.w.w.t.r.a.f.g.g.f.f.a.h.g.g.a.a.a.s.h.s.s.g.XX+Xg.h.f.r.q.m g s p 5                         ",
"                        5 g m C t.r.a.f._.g.f.h.a.h.f.f.g.g.h.a.a.a.a.a.a.a.r.f.XX+XoX_.f.r.D m g s p 5                         ",
"                    + 5 g m w.e.q.C j.g.%X+Xg.h.f.f.a.g.XXXXg.a.a.h.a.a.a.r.M q.h..X+XXXg.a.r.t.w.C b s $ @                     ",
"                    + $ g m C D C t.g._.+X+X_.a.<.1.j._.$X$X.Xg.u.u.a.f.g.s.q.M w.f.XXXXf.r.r.u.s.a.D m s 5                     ",
"                @ @ @ $ 5 p a l D s..X+X.Xg.f.<.= ) <.{.#X$X$XXXq.D r.g.OX.Xf.q.C D g.s.q.M M D a.s.u.D b g $ @                 ",
"                @ @ @ @ @ $ a l D g.$X#Xg.a.a.<.Y X k g.OX$X$XXXq.M e.D.$X#X{.e.:.k q.e.C N h j <.1.w.F D b s 5                 ",
"                        @ a M D C u.+X$XD.y.G :.T T :.F s.XX$X%Xw.M e.D.$X#X{.1.( ( :.D e.<.= X T ( * n F w.b g 5 @             ",
"                        $ g D F b C {.XXD.D k ) ~ ~ _ :.e._.+Xg.<.k t.D.OXXX{.1.^ ~ ) k w.<.Y I W ! X % M D m g 5 @             ",
"                    @ p h b M N s l u.D.g.<.= Y { { Q ( 1.f.g.j.( ( 1.g.g.S.s.3.o.{ ~ ( k :.T W { { T o 5 s p p                 ",
"                    @ p z m z 6 5 a M y.s.<.Y E |  .[ ^ <.a.s.1.^ ^ 2.a.a.a.y.3.%. .] U = = T W { } U o & p @ @                 ",
"                    @ 5 z z g 5 3 6 l D a.1.T W  . . .O.>.G y.0.X.O.>.D u.y.D 2.%. .] E P X . I W W P o * s p +                 ",
"                    @ 5 g g 5 + 1 2 4.r.e.5.' O.;.l.l.l.k.u.y.0.l.l.2.M F w.M <.O.X.` T X X X Y Q W I X j b s p                 ",
"                        5 5     ; q I.P.j.t.Y.Q.0X9X9X9XrXqXi.i.2X2X4.m M M m N :.2.1.<.j * h ) O.{ W T j n b g 5 @             ",
"                        @ @     ; r !.3Xh.H.4XyX8X5XeXwXeX!.L.P.pXrXF.m b m b b z M y.a.F M m >.o...[ ~ _ j b z p @             ",
"                                ; r !.8X3X4XsXwXC.V V 7.V C.5XpXhXrX{.F N b z b b M y.s.a.F M >.o.@...{ ~ ( j l 5 @             ",
"                                ; r !.yXyXsXaXwXG.7 < < 0 C.wXhXgXrX@Xy.C C t.j.p.u.a.s.s.u.G 2.o.@.$. .[ ! j d 5 @             ",
"                                ; r !.yXsXaXfXdXiX Xi 5  XiXdXgXgXpXoXu.e.h.P.3X8X5X{.a.s.s.y.3.%.@.@.@. .O.= p @ @             ",
"                                ; r !.yXaXfXgXdXxX1Xi d :XmXhXfXgXpXoXf.F.P.3X8XfXpX@Xa.a.s.s.3.o. .@.@.#.o._ * $ @             ",
"                                ; r !.yXaXfXfXdX<X].# d >XDXhXgXfXpXoXF.qXqXJ.R.yXpXXXa.a.s.s.1.` [  .@.$.$.+.` * @             ",
"                                ; q T.yXaXfXfXrXI.b & d iXSXMXaXfXrXK.K.8X7XA.Z.8XrXK.e.a.s.s.1.! ] | @.$.$.$.X.= &             ",
"                                ; q J.6XsXgXgX4X7.- - c iXAXMXfXgXrXoXoXrXtXZ.A.7X4Xp.D e.s.s.1.! ] | #.@.#.@.X.Y o             ",
"                                : 9 9.E.yXgXgX4X*.O O =.iXDXhXfXgXrXK.K.rXtXI.Z.I.I.4.M r.s.a.<.( ~ { ..$.#.#.| Q I             ",
"                                : 9 =.Y.7XsXaX7X-./ / -.tXMXhXfXgXrXK.K.4X8XE.9.7.q b M e.a.D N k ) ! [  .#.@.$.| {             ",
"                                : 2 q 8.R.yXsXuX^.-.-.^.uXgXgXfXgXpX%XP.3X6XQ.Z.q 2 z M e.w.M b m j T ] | #.#.#.$.$.            ",
"                                    2 *.Y.Q.yXyXuX7XuXuXaXfXfXfXgXsX8X3XE.E.E.9.,.l b m M M m b m j T ] | #.#.#.$.| U .         ",
"                                    ; 0 6.J.!.7XyXsXsXsXaXaXaXaXaXsX8X6XQ.W.W.9.4.b l l b b b b b j Y Q +.$.+.{ { } U P         ",
"                                        w *.8.Y.E.Q.Q.7XuXyXyXyXyX9X6XQ.W.Y.9.0.<.l a a z z s a z z * ) +.| ~ U U U I I         ",
"                                        ; 8 e 7.8.9.9.Y.I.!.!.!.!.I.J.9.Y.J.6.4.z g $ $ g h 5 5 g g $ = O.} U . P P E W         ",
"                                            8 9 9 9 9 9 r r r r r r 9 q w.s.K C d @     5 p     5 p     U I I I I E R R         ",
"                                            7 7 x V A A V V A A A A A i.].}.}.].S n     @ +     @ @     . P E R R R R R         ",
"                                            S H  X*X<X<X;X,XiXxXxXxXxXxXlXlXjXjX=X}.].S                     R R R R             ",
"                                            C.G.U.iXmXCXCXDXAXAXAXAXSXDXZXBXvXvXlX:X|.].                    R R R R             ",
"                                        1 > x.v.N./.NXAXAXAXAXAXDXZXvXvXbXbXzXlXcXzX:X*X].H                                     ",
"                                        < > &.c.m.V.iXVXSXAXAXCXlX;X=X;XzXzX,XjXcXbXzX:X}.].                                    ",
"                                            > &.m.B.`.kXVXAXDXzX`.G J |.,X>X=X;XcXbXbXzX:X|.].H                                 ",
"                                            & , m.m.z.`.FXBXlX&X4.x K [.|.|.[.|.zXZXBXvXlX;X}.].                                ",
"                                            # e m.B.z.).'.`.z.Z S.{.OX{.J S V `.vXSXCXvXlX:X;X*X].H                             ",
"                                            u t v.v.z.(.).y t r G.%X%XK.G B l S.bXAXCXcXlX,X>X=X].H                             ",
"                                            i f C.G.i.B f f V 6.H.J.H.L.f.y.S  XbXAXCXcXjX,X>X=XS.4.J J                         ",
"                                            u f S H G x 2 9 5.A.A.8.A.k.h.a.S S.bXAXCXcXjX>X,X;X}.`.J J                         ",
"                                            i i L L y y 4 0 7.H.8.8.H.8.t.V 7 i.xXAXCXvXjX,X,X,X;X|.`.4.                        ",
"                                            4 6 0 n y y 4 9 7.8.6.8.6.5.v 7 6 K xXAXCXcXjX:X-X;X,X-X[.H                         ",
"                                            + 9 b.b.B i 4 8 V 5.5.7.4.v 7 7 x [.bXAXCXvXlX-X{.K.;X-X[.H                         ",
"                                            3 e x.x.=.e , e e ,.q v q w > e =.U.mXAXCXvXlX=X].`.|.*X[.H                         ",
"                                        1 8 q *.=.-.x.c.m.c.e 2 3 2 6 9 &.c.m./.NXAXCXvXlX=X].J _.].                            ",
"                                        1 8 c ,.1.7.x.n.m.c., 3 6 0 0 e x.M.V./.MXSXBXcXlX=X[.H J d.                            ",
"                                        1 8 c 7.,.7.=.-.=.> : 0 4.a.i.C.A.~.sXMXZXbXzXjX>X=X[.H                                 ",
"                                        1 2 q :.v *.q q 3 ; ; 0 w.h.F.L.6.&XmXAXBXzX;X=X=X*X].H                                 ",
"                                            8 8 2 8 8 2         7 V 6.F.i.#XcXCXcX:X}.].[.].                                    ",
"                                            1 1 1 1 1 1         ; 8 7.7.Z z.-XjX;X*X].H H H                                     ",
"                                                                    9 7 7 x d. X[.].                                            ",
"                                                                    : : : 6 S H H H                                             "
};
