/* XPM */
static char *c6b163b28fd94d1f9e1087bde3666abby6o7CKe8uhoL0hTB[] = {
/* columns rows colors chars-per-pixel */
"64 64 165 2 ",
"   c None",
".  c #010102",
"X  c #0A0604",
"o  c #000B0A",
"O  c #0B0C0C",
"+  c #0B0806",
"@  c #110D07",
"#  c #1A0F09",
"$  c #161107",
"%  c #171308",
"&  c #1A1309",
"*  c #000F10",
"=  c #0C0E10",
"-  c #011212",
";  c #0F1012",
":  c #0F1817",
">  c #001C1C",
",  c #141414",
"<  c #181817",
"1  c #141B1B",
"2  c #1C1C1C",
"3  c #23140D",
"4  c #2A190E",
"5  c #211F1B",
"6  c #201B11",
"7  c #04201E",
"8  c #2D230D",
"9  c #3A2C0F",
"0  c #30240E",
"q  c #23211B",
"w  c #272216",
"e  c #392414",
"r  c #3B2915",
"t  c #392C1E",
"y  c #3F331B",
"u  c #001E21",
"i  c #1E1F20",
"p  c #002725",
"a  c #042C29",
"s  c #082B29",
"d  c #162423",
"f  c #102827",
"g  c #1F2827",
"h  c #00322E",
"j  c #002E30",
"k  c #013432",
"l  c #003835",
"z  c #003B3B",
"x  c #193633",
"c  c #232323",
"v  c #262728",
"b  c #2C2C2C",
"n  c #2B2A27",
"m  c #302F2F",
"M  c #3F3121",
"N  c #2E3232",
"B  c #343433",
"V  c #3C3C3B",
"C  c #3A3C38",
"Z  c #512D1A",
"A  c #463513",
"S  c #483713",
"D  c #4D3B14",
"F  c #513E15",
"G  c #483520",
"H  c #473A23",
"J  c #593625",
"K  c #443B33",
"L  c #403F3D",
"P  c #493D38",
"I  c #00413F",
"U  c #5A4416",
"Y  c #5F4817",
"T  c #574316",
"R  c #604917",
"E  c #604A18",
"W  c #5D4B25",
"Q  c #564520",
"!  c #45413C",
"~  c #4D483E",
"^  c #594838",
"/  c #7B4825",
"(  c #684433",
")  c #66523F",
"_  c #023F40",
"`  c #004342",
"'  c #024749",
"]  c #004D4D",
"[  c #004D51",
"{  c #005355",
"}  c #00565B",
"|  c #00595C",
" . c #005E63",
".. c #005F68",
"X. c #00656D",
"o. c #006C73",
"O. c #00737C",
"+. c #444443",
"@. c #494746",
"#. c #4C4B4B",
"$. c #464E4B",
"%. c #554D42",
"&. c #504F4E",
"*. c #555452",
"=. c #5A5856",
"-. c #5E5D5A",
";. c #585754",
":. c #635444",
">. c #6C5844",
",. c #605F5C",
"<. c #5F605F",
"1. c #65625D",
"2. c #766653",
"3. c #666563",
"4. c #696763",
"5. c #6A6966",
"6. c #6E6C69",
"7. c #706F6B",
"8. c #73716D",
"9. c #757470",
"0. c #787671",
"q. c #7D7B76",
"w. c #7F7D78",
"e. c #85502D",
"r. c #8D5936",
"t. c #976834",
"y. c #AF6B36",
"u. c #BA7B3D",
"i. c #816D56",
"p. c #80715E",
"a. c #A87C4A",
"s. c #A97A46",
"d. c #897A68",
"f. c #817F79",
"g. c #AF814D",
"h. c #BE8349",
"j. c #958168",
"k. c #85837D",
"l. c #C78B48",
"z. c #D69956",
"x. c #F59A4C",
"c. c #DDA05C",
"v. c #FFAB54",
"b. c #FFB056",
"n. c #007A85",
"m. c #007E8A",
"M. c #00818E",
"N. c #008390",
"B. c #8D8A84",
"V. c #898781",
"C. c #928E88",
"Z. c #95928C",
"A. c #99968F",
"S. c #9D9992",
"D. c #9A9A9B",
"F. c #A19D95",
"G. c #A4A29C",
"H. c #A9A59E",
"J. c #AFADA7",
"K. c #ABABAB",
"L. c #B1AEA8",
"P. c #B6B2AB",
"I. c #BDBAB3",
"U. c #C0BDB7",
"Y. c #C4C0BA",
/* pixels */
"                                                                                                                                ",
"                                                                                                                                ",
"                                                                                                                                ",
"                                                                                                                                ",
"                                                                                                                                ",
"                                                                                                                                ",
"                                                    . . . . . . . .                                                             ",
"                                                    - - > u > u u >                                                             ",
"                                                . * j ' | .. .....[ > .                                                         ",
"                                                * p [ o.n.M.N.M.N.X.j o                                                         ",
"                                            . o j [ X.n.m.m.m.M.m.O.[ k - .                                                     ",
"                                            o > z } X.o.O.n.O.O.O.O. ._ - .                                                     ",
"                                        . o 7 a k z ` ] |  . . . .| | ` - .                                                     ",
"                                        . o p k k h h l ` ] { { { { [ z - .                                                     ",
"                                        . o p k k h h k l ` [ { { [ ` s o .                                                     ",
"                                        . o > p p p a a s k ` ] ' _ k > o .                                                     ",
"                                        . . o o o = 1 d i s k l f d d : X . . .                                                 ",
"                                        . . . . X O 2 c c g x x B B B b < O O O                                                 ",
"                                            . . ; 5 b m N B V $.<.4.3.=.+.B b i + .                                             ",
"                                            X O < c N B V V @.*.4.q.k.k.6.=.@.m 1 +                                             ",
"                                        . X ; < < c N V ! @.#.&.*.5.B.S.Z.f.=.V b 2 O .                                         ",
"                                        . + d b m V ! #.*.=.=.*.$.=.q.Z.A.k.4.*.*.V , .                                         ",
"                                        . ; m &.,.4.5.5.7.8.7.1.*.#.;.5.q.f.8.0.k.1.2 .                                         ",
"                                        . ; B *.5.0.f.f.f.f.f.0.4.,.-.5.k.B.C.Z.F.8.c .                                         ",
"                                        . O b +.*.1.0.f.f.f.f.f.k.B.k.Z.H.J.J.H.Z.3.5 .                                         ",
"                                        . O c B V #.-.3.,.6.f.B.F.H.H.J.U.Y.Y.J.k.#.< .                                         ",
"                                        . + < v v b B B B &.f.F.G.J.P.U.U.Y.Y.G.3.B ; .                                         ",
"                                        . X , 1 2 2 2 < < B 5.k.k.k.S.G.G.H.G.k.+.2 + .                                         ",
"                                            X O < 2 2 2 2 c B ! #.*.,.4.5.5.5.&.q +                                             ",
"                                            . + 1 q 5 i c c c c B @.3.3.+.V #.! , .                                             ",
"                                            . X < i 2 c b N N N V 5.K.D.V v =.*.< .                                             ",
"                                            . X ; < i v N B B V L 5.K.G.:.H 1.=.2 .                                             ",
"                                                o ; v B B B B B B $.5.d.a.a.i.+., .                                             ",
"                                                e S ^ %.+.L +.@.@.+.+.>.l.a.:.v O .                                             ",
"                                            . e t.l.l.g.:.&.3.5.6.<.+.P r.e.Z O . . . o                                         ",
"                                            . G s.v.b.z.2.<.9.f.f.6.@.P ( J # . # # X +                                         ",
"                                            . t y.x.v.z.j.9.q.w.f.7.*.@.%.K , # Z Z & .                                         ",
"                                            . 4 e.y.u.s.p.6.6.7.7.5.*.#.&.V , # Z Z 3 .                                         ",
"                                            . O 4 e A M L #.*.=.=.*.&.&.&.V , + & 3                                             ",
"                                            . . . . O < N L #.#.#.#.#.#.#.B , . . .                                             ",
"                                                . O b V +.$.#.#.&.&.#.#.! b ; .                                                 ",
"                                                $ q K %.%.~ V C V V +.L C n 6 $                                                 ",
"                                            . % r T T W W D q , , 5 t G y y S r & .                                             ",
"                                            . & S E Y T D 9 $ . . @ 0 A A D Y S & .                                             ",
"                                            . & S E Y D 4 %     . @ 0 A F U Y A % .                                             ",
"                                            . & S E E S % .     . @ 0 S T Y E A & .                                             ",
"                                                                                                                                ",
"                                                                                                                                ",
"                                                                                                                                ",
"                                                                                                                                ",
"                                                                                                                                ",
"                                                                                                                                ",
"                                                                                                                                ",
"                                                                                                                                ",
"                                                                                                                                ",
"                                                                                                                                ",
"                                                                                                                                ",
"                                                                                                                                ",
"                                                                                                                                ",
"                                                                                                                                ",
"                                                                                                                                ",
"                                                                                                                                ",
"                                                                                                                                ",
"                                                                                                                                "
};
