/* XPM */
static char *_d7f1190111e4ccbdf74baa5840df9101eiV1fWqm7dP9BLL[] = {
/* columns rows colors chars-per-pixel */
"64 64 252 2 ",
"   c None",
".  c #760000",
"X  c #7A0605",
"o  c #781413",
"O  c #681312",
"+  c #632C00",
"@  c #4B3937",
"#  c #4C3B39",
"$  c #423B3E",
"%  c #523F3D",
"&  c #593A38",
"*  c #53322D",
"=  c #74302F",
"-  c #552F0D",
";  c #4E431E",
":  c #50451F",
">  c #6D591B",
",  c #7C6A19",
"<  c #4D4224",
"1  c #524621",
"2  c #5C4B2A",
"3  c #57472A",
"4  c #54403E",
"5  c #594B38",
"6  c #59523A",
"7  c #4B473B",
"8  c #614D29",
"9  c #66532E",
"0  c #6C5529",
"q  c #675536",
"w  c #755A38",
"e  c #6B4F32",
"r  c #77643C",
"t  c #71642B",
"y  c #3B637A",
"u  c #374C5C",
"i  c #474345",
"p  c #564341",
"a  c #5A4644",
"s  c #5C4946",
"d  c #5B4A49",
"f  c #545352",
"g  c #624C4A",
"h  c #674A48",
"j  c #7B4846",
"k  c #65514E",
"l  c #6A514E",
"z  c #675C49",
"x  c #795746",
"c  c #6D5553",
"v  c #695956",
"b  c #715956",
"n  c #755D5A",
"m  c #765955",
"M  c #776A46",
"N  c #7A625E",
"B  c #75645C",
"V  c #726B51",
"C  c #526674",
"Z  c #6B6664",
"A  c #7D6561",
"S  c #776866",
"D  c #747476",
"F  c #767678",
"G  c #7B7A7B",
"H  c #787779",
"J  c #777569",
"K  c #565F5C",
"L  c #820000",
"P  c #8A0303",
"I  c #970605",
"U  c #841615",
"Y  c #971515",
"T  c #A20000",
"R  c #AD0000",
"E  c #AC0E0E",
"W  c #B40303",
"Q  c #BD0606",
"!  c #B21616",
"~  c #A81818",
"^  c #813D00",
"/  c #962827",
"(  c #8C3332",
")  c #8C2928",
"_  c #B42826",
"`  c #D91617",
"'  c #CC0909",
"]  c #F41C1D",
"[  c #EA1A1B",
"{  c #FA1F21",
"}  c #DB3333",
"|  c #D02C2B",
" . c #FD2526",
".. c #E63231",
"X. c #907514",
"o. c #906B36",
"O. c #A86D28",
"+. c #976D1E",
"@. c #F24B3F",
"#. c #844B49",
"$. c #934B4A",
"%. c #855A4A",
"&. c #895955",
"*. c #955A57",
"=. c #97514F",
"-. c #896946",
";. c #93714F",
":. c #876357",
">. c #986C54",
",. c #927455",
"<. c #A57958",
"1. c #B67D5A",
"2. c #A56559",
"3. c #826966",
"4. c #866E6A",
"5. c #896F6B",
"6. c #846863",
"7. c #86726D",
"8. c #8A726D",
"9. c #897367",
"0. c #967968",
"q. c #8E7671",
"w. c #8C7571",
"e. c #8E7974",
"r. c #807B7B",
"t. c #927A75",
"y. c #917A74",
"u. c #977F7A",
"i. c #927D78",
"p. c #907770",
"a. c #976B63",
"s. c #AB7563",
"d. c #A65E5B",
"f. c #EF584D",
"g. c #5E8473",
"h. c #BA9614",
"j. c #AF8E0D",
"k. c #A98636",
"l. c #BEAA2E",
"z. c #9F8438",
"x. c #C29C16",
"c. c #D9B505",
"v. c #D4B111",
"b. c #E1BF18",
"n. c #CEB323",
"m. c #E1DB15",
"M. c #E4CC14",
"N. c #D9C62A",
"B. c #E2CB21",
"V. c #958953",
"C. c #939151",
"Z. c #8C855F",
"A. c #B0845A",
"S. c #97817B",
"D. c #99827C",
"F. c #9D8275",
"G. c #908672",
"H. c #A88267",
"J. c #B88866",
"K. c #A58C7D",
"L. c #A38779",
"P. c #B89379",
"I. c #ADA246",
"U. c #C78867",
"Y. c #C69E74",
"T. c #DA9B76",
"R. c #C6946D",
"E. c #C9A278",
"W. c #C0A66D",
"Q. c #D59C60",
"!. c #E3C961",
"~. c #386F96",
"^. c #3A7AA5",
"/. c #2D7CB1",
"(. c #577289",
"). c #4D6D86",
"_. c #7F7F81",
"`. c #417CA4",
"'. c #847D83",
"]. c #3485BA",
"[. c #3181B4",
"{. c #4082AC",
"}. c #4C8AB6",
"|. c #469BD1",
" X c #61AAD7",
".X c #2E92D0",
"XX c #828284",
"oX c #8B8B8D",
"OX c #868789",
"+X c #9D8983",
"@X c #9A9A9D",
"#X c #949496",
"$X c #8B938E",
"%X c #A68F88",
"&X c #A28B83",
"*X c #A7908A",
"=X c #A9918B",
"-X c #AB9282",
";X c #AF9992",
":X c #B19A93",
">X c #BA9D87",
",X c #B2A495",
"<X c #A19DA2",
"1X c #A6A6A9",
"2X c #ADADB1",
"3X c #B2B2B5",
"4X c #BABABD",
"5X c #B7B7BA",
"6X c #B7B3AC",
"7X c #9E9EA1",
"8X c #E09F82",
"9X c #D7AA87",
"0X c #D9B78C",
"qX c #CFB08D",
"wX c #E7AA84",
"eX c #E4B787",
"rX c #F8BC94",
"tX c #ECB990",
"yX c #C59F85",
"uX c #DCC494",
"iX c #D7C08F",
"pX c #E5C59A",
"aX c #F4C79A",
"sX c #EBC48D",
"dX c #D1C8AF",
"fX c #E5CAA1",
"gX c #FDDBAA",
"hX c #F9D3A5",
"jX c #F0D9B3",
"kX c #FFE2AF",
"lX c #FFE4B1",
"zX c #FDE6B9",
"xX c #BDBDC0",
"cX c #86B3D3",
"vX c #B6C0C9",
"bX c #B2CEE2",
"nX c #CACACE",
"mX c #C6C5C7",
"MX c #D6D6D9",
"NX c #D3D0CA",
"BX c #FDEAC4",
"VX c #EDE7DB",
"CX c #DEDEE1",
"ZX c #C2D3E1",
"AX c #D4E5F2",
"SX c #E8E8EA",
"DX c #ECEDF0",
"FX c #F3F3F4",
"GX c #FDFDFE",
"HX c #F9F9F8",
"JX c #F9F3E8",
"KX c #E0DDD6",
/* pixels */
"                                                                                                                                ",
"                                                                                                                                ",
"                                                # @ # # @ @ # @             # # @ # # # # #                                     ",
"                                                @ % 4 p s a p %             % p d s # # # #                                     ",
"                            # # # # # # @ @ @ # @ % g b A A c g % @ # @ @ 4 g b A B a #                                         ",
"                            # # # # p p a d d d k l g c A 4.A n g a p p a g m N A n a @                                         ",
"                                @ % g c N 6.6.7.D.e.k a c N 4.4.3.B c l N 3.5.A k a # # # @ # # # # # #                         ",
"                                @ % g b 3.5.5.t.%X+XA k n N 6.q.u.y.6.A 8.y.8.A d a g k g a p % % # # #                         ",
"                            # # # # % a b n n 6.t.L.&X'.8.4.n 4.&X*Xy.8.w.8.6.b l m t.'.4.A c g 4 #                             ",
"                            4 a a d d g m n n A 5.u.=X=Xu.5.N 4.&X=X&Xu.y.5.N n A q.=X=Xi.6.c g % @                             ",
"                        # p g c A 3.3.3.4.4.4.5.q.t.u.u.t.p.5.8.t.+X=X%Xu.w.5.t.&X%X&Xt.6.c a % # # % @                         ",
"                        @ 4 g c N 3.5.8.e.y.p.t.u.u.y.p.y.q.y.q.y.u.=X%Xu.p.p.u.%X=Xu.5.A b g d s a p 4                         ",
"                            4 p d g b A 8.q.w.u.%X=Xu.p.q.q.y.q.q.y.u.u.y.p.p.t.u.u.y.w.5.4.6.A 3.N c g % #                     ",
"                            4 p a g b A 5.t.u.&X=X%Xt.5.8.y.p.q.q.e.w.y.t.u.t.t.p.p.y.t.u.u.t.w.8.4.A b a %                     ",
"                        # % g c N A 4.5.q.u.*X=X&Xq.6.N 5.q.q.q.y.q.w.u.=X=Xu.t.q.q.q.u.*X=Xu.5.N N 4.3.b g 4 #                 ",
"                        % s c 6.w.e.w.5.5.t.%X%Xt.3.n 6.t.u.t.p.5.8.t.&X:X;X'.a.*.6.5.u.*X=X&Xy.6.N A N b g 4 #                 ",
"                    @ % g c 3.q.e.w.N n n 6.y.y.3.A A p.%X%Xu.5.N 4.%X:X:X;X+X&.( = &.i.u.&X*X%Xy.A k a p % % # # #             ",
"                    4 g b N A 6.*.&.j j m N 3.6.j #.4.+X;X;Xu.4.n 3.=XyX:X%Xi.#.o U &.w.w.u.;X;Xu.A k a # # # # # #             ",
"                # % g b 6.A v h / Y o = &.7.A j / / *.+X;X;Xu.4.n 3.=X:X%Xi.3.#.Y Y j S 5.D.;X=X7.N A n a #                     ",
"                @ 4 g b A n & o E W I U &.3.#.( Q _ *.OX=X=Xu.5.#.&.'.%Xu.4.#.( ! E ( j 4.u.*X+Xn c 3.A g p                     ",
"                    4 a s & O P ` ` W Y j &./ ! ` } 2.i.i.+Xi.*./ / a.+Xi.&./ ! ` ` U = :.i.D.8.k a b n c g 4 #                 ",
"                    # # 4 & O I ` ` W Y = = I ' { ..d.w.w.w.7.=.! ! *.e.7.=._ ' ] [ T U &.e.w.n 5 4 d k b l 4 #                 ",
"                    @ % d & o P R W I . X U I ' [ } =.S 7.7.A $.| } d.w.A $.| ] { [ Q Y *.7.A l 5 * 4 a c h p #                 ",
"                    % g c j o I W E U o O U Y ! | } #.n 3.3.n =.f.f.d.5.8.1.f.f.f.f.} _ *.4.5.:.9 1 < p g g 4 #                 ",
"                # 4 g c v j U W ` | ( h h j $.*.$.#.m m n n c a.8X8X0.9.>XpXaXrXrXrXT.1.a.5.>XJ.w ;     4 p                     ",
"                # p l c j ( E ` ] ..$.b n A w.7.n c c c c c m u.pXdXP.F.E.uXiXiX0XuXaXeXL.s.0XE.r :     # #                     ",
"                # p l j ) ! `  . .} $.n S q.e.4.n c c c c m 6.K.fXjXfXyXV.r o.M M V.uXhX0X9XtXE.r :                             ",
"                # p k = ~ ` ]  . .} =.A 8.y.e.q.p.0.a.6.n N 4.-XfXlXzXpXZ.z < < q G.uXgXhXaXrXY.r ;                             ",
"                # # p = | ]  . . ...d.7.e.e.q.L.qX0X0X>X0.4.5.-XfXlXlXjXdXoX4 7 oXdXjXkXgXhXaXY.r ;                             ",
"                # # * ) }  . . .] } d.e.e.w.q.-XfXgXsXE.P.u.p.-XfXlXkXzXVX3Xd i ;XKXjXzXlXgXaXY.r ;                             ",
"                # * o E [  . .] ' _ *.i.e.w.w.-XfXfXE.J.8XyXu.-XfXgXlXBXJXxXf $ '.6XjXlXlXgXaXY.r ;                             ",
"                * = I ' ` ]  .] ' Y *.i.e.w.4.K.fXtXJ.A.0X0XK.-XfXlXgXBXJXxXg * v K.uXlXlXgXaXR.r ;                             ",
"                O X I W Q '  .] ' ~ *.y.e.8.A 0.qXeXA.J.tXfXK.-XuXlXlXBXHXNXx - - -.eXzXlXhXwXJ.w :                             ",
"                L I T R R Q ` ` ! / &.w.e.4.n :.J.Y.<.R.pXtX&XK.fXlXgXBXJXfXo.+ + +.0XlXkXaXT.1.0 :                             ",
"                T T R R R R Q ! ( j m A 8.5.n c x -.1.T.tX0X&X-XpXkXkXzXzXeXO.+ ^ O.eXlXhX0XJ.o.9 :                             ",
"                R R R R R R R Y j v b n 3.3.m l 5 w 1.T.wX9X-X>XfXzXkXlXlXsXQ.O.O.A.sXhXaXT.<.w 8 1                             ",
"            . L T W W R R R R ~ j c c m m m n b k :.J.T.T.T.wXtXhXlXkXlXlXhXsXsXsXsXaXtXT.U.r 8                                 ",
"            . L I I T T R R I ) j c l l c c l g l :.1.U.U.T.wXrXhXgXgXgXkXgXhXhXhXhXeXT.U.<.0 ;                                 ",
"            . . L L L P T T = & l l a a l c a a l m >.1.U.T.T.wXaXaXaXaXaXaXwXwXT.T.R.>.o.q                                     ",
"            . . . . . L I P = p g h 4 4 g g s d g x :.<.J.J.1.J.J.Y.Y.Y.Y.R.A.1.1.<.o.r 2 ;                                     ",
"            . . . . . . L L     p p     4 d K v a g B 7.r.9.r 0 r r r r t t q e 0 0 9 8                                         ",
"            . . . . . . . .     @ @     p v _._.Z Z G oX$XXX9.V V V V M V V V M z z 6 6                                         ",
"                . . . .                 Z F #X1X<X@X1X2X4XmXNXNXNXNXNXNX5X6X6X6X1X$XJ Z                                         ",
"                . . . .                 oX@XxXxX5X3X3XmXMXSXFXHXGXGXGXGXDXSXSXKXdXW.G.,.                                        ",
"                                F D D OX3XmXnXnX2X1X3XvXMXCXSXSXSXJXGXGXGXHXGXBX!.n.x.j.> ;                                     ",
"                                '.oXoX1XnXCXnX3X;X*X1X4XnXnX4XvXvXbXSXGXGXGXVXfXN.c.h.X.> <                                     ",
"                        _.D F _.@X3XMXCXCXnX<XoX}.0.#X2XvX2XF C }. XZXHXGXAX X}.N.c.X.>                                         ",
"                        D F _.#X3XCXDXDXCXxXoXF G XXOX$X#XG.C u /.|.cXZXAXbX}.g.N.c., @                                         ",
"                    H D D e.@X5XMXFXSXMXnX3XOXG +X+XD Z z K y ~.[..X|. X X|./.g.N.c.t $                                         ",
"                    H G }.K.3XNXFXHXCXnX3X@XXXG.-XD.v 6 2 5 C ~.^.{.^.[.^.^.~.g.l.l.r i                                         ",
"                H H D XX@X3XnXCXHXFXZX3X#XG.p.s.H.,.q 6 w %.m S Z S Z S S S n 3.Z.Z.f $                                         ",
"                H D D OX2XNXMXDXGXSXxX;Xr.p.0.A.A.-.9 2 z S Z S S S S S Z S n Z G C f i                                         ",
"                H D D oX4XCXDXGXGXSX<Xr.p.<.<.<.>.%.2 7 C ~.`.{.].{.{.{.}.`.).C C K f i                                         ",
"                H G XX@XnXDXGXGXGXMX#XJ ,.<.<.;.%.w 6 f y ~.[.[.].].].].]./.^.~.V r 6 $                                         ",
"            H D D XX@X4XSXGXGXHXDXmX#XJ :.>.>.%.9 6 z Z C (.(.(.(.(.(.(.(.(.C g.l.j.t <                                         ",
"            H D D OX1XnXDXGXGXFXCX4XoXJ x x %.w > t M V.C.V.V.V.V.V.C.C.C.C.C.I.N.n., ;                                         ",
"            H H D OX1XnXFXGXGXFXMX2XOXB q 8 8 > X.j.j.x.n.b.b.M.M.M.m.m.m.m.m.B.!.V.w ;                                         ",
"            H D D _.;X4XCXFXGXSXxX@X}.-.6 : : > j.h.h.x.c.c.c.c.c.c.M.m.m.m.m.N.W.F.M 9                                         ",
"                H G }.#X4XMXHXSX1XG H D     : 8 o.o.o.O.+., , , , X.o.z.k.k.k.k.H.s.,.-.9 ;                                     ",
"                H D ,.r.@X4XSXMX#XD D H     : 8 w #.x q 1 * ; < * 3 6 x %.%.:.,.<.A.H.;.9 1                                     ",
"                    H H G 7XnXnX#XD             2 8 8 2 1 1         2 2 x :.>.<.<.H.A.;.9 :                                     ",
"                    H D D oX2X5XoXD             : : 1 : 3 1         1 2 q x -.;.;.;.;.-.9 :                                     ",
"                        D G OXoX                                        2 8 2 q 9 9 9 9                                         ",
"                        H H D D                                         1 1 : ; 1 ; 1 1                                         "
};
