/* XPM */
static char *e873a58993f6466af897f0b5063a05ca3STq7SsOXTsmJRiX[] = {
/* columns rows colors chars-per-pixel */
"64 64 134 2 ",
"   c None",
".  c #010102",
"X  c #070708",
"o  c #000E0E",
"O  c #0C0C0C",
"+  c #120D07",
"@  c #110F0C",
"#  c #16110A",
"$  c #191409",
"%  c #0E0F10",
"&  c #011212",
"*  c #0F1113",
"=  c #001A1D",
"-  c #121212",
";  c #191816",
":  c #111D1C",
">  c #1D1C1C",
",  c #23150E",
"<  c #29170E",
"1  c #29190E",
"2  c #311C0D",
"3  c #201F1F",
"4  c #321D10",
"5  c #36290F",
"6  c #2E2615",
"7  c #27231D",
"8  c #372111",
"9  c #3A2513",
"0  c #3C2A16",
"q  c #342819",
"w  c #3B2A1E",
"e  c #3E321C",
"r  c #001E21",
"t  c #012723",
"y  c #012C29",
"u  c #01322E",
"i  c #002D30",
"p  c #003331",
"a  c #0B3632",
"s  c #003936",
"d  c #0D3834",
"f  c #003A39",
"g  c #183532",
"h  c #212122",
"j  c #292826",
"k  c #212A29",
"l  c #2C2B2B",
"z  c #3E2F28",
"x  c #31312E",
"c  c #39352E",
"v  c #353535",
"b  c #373838",
"n  c #3C3B3B",
"m  c #443512",
"M  c #493814",
"N  c #4D3F2E",
"B  c #403F3E",
"V  c #683720",
"C  c #6C3D27",
"Z  c #2C413F",
"A  c #594416",
"S  c #614A18",
"D  c #48423D",
"F  c #5D473B",
"G  c #7B4725",
"H  c #003F41",
"J  c #004443",
"K  c #004D4E",
"L  c #004D51",
"P  c #005355",
"I  c #00595C",
"U  c #264D48",
"Y  c #3A4240",
"T  c #314D49",
"R  c #005D62",
"E  c #00636C",
"W  c #006D75",
"Q  c #00727C",
"!  c #454544",
"~  c #484746",
"^  c #494847",
"/  c #464B4A",
"(  c #4C4B4A",
")  c #504F4E",
"_  c #565452",
"`  c #5A5856",
"'  c #5D5C5A",
"]  c #665446",
"[  c #6D5646",
"{  c #605F5C",
"}  c #62605D",
"|  c #766755",
" . c #666562",
".. c #6C6966",
"X. c #6E6D69",
"o. c #706E6A",
"O. c #73716D",
"+. c #757571",
"@. c #797672",
"#. c #7B7A75",
"$. c #874F27",
"%. c #8F4E2B",
"&. c #945E38",
"*. c #A25D30",
"=. c #A15E3A",
"-. c #956734",
";. c #AE6A35",
":. c #B97B3D",
">. c #A47847",
",. c #B87142",
"<. c #8D7D69",
"1. c #807E79",
"2. c #AC804D",
"3. c #BE8341",
"4. c #85837D",
"5. c #89857F",
"6. c #9F8A71",
"7. c #A18C73",
"8. c #F59A4C",
"9. c #FFAC55",
"0. c #FFB056",
"q. c #E2A561",
"w. c #00828F",
"e. c #008592",
"r. c #7E8780",
"t. c #8A8681",
"y. c #8F8B85",
"u. c #908D86",
"i. c #928E88",
"p. c #96938C",
"a. c #99958E",
"s. c #9F9A93",
"d. c #A39F97",
"f. c #A5A199",
/* pixels */
"                                                                                                                                ",
"                                                                                                                                ",
"                                                                                                                                ",
"                                                                                                                                ",
"                                                                                                                                ",
"                                                                                                                                ",
"                                                                                                                                ",
"                                                                                                                                ",
"                                                            . . . .                                                             ",
"                                                            = r r =                                                             ",
"                                                        . = L E R L = .                                                         ",
"                                                        o y E e.e.E i o                                                         ",
"                                                    . & p L Q w.e.Q L i & .                                                     ",
"                                                    . & H R W Q Q W R H & .                                                     ",
"                                                    . & H I I R R R I H & .                                                     ",
"                                                    . & s P P P P P L f & .                                                     ",
"                                                    . o y H P P P K H y o .                                                     ",
"                                                    . & t s J K K J s t & .                                                     ",
"                                                . X % : y u s f f s u y : - X .                                                 ",
"                                                X @ > k g d u u u u d g k 3 O X                                                 ",
"                                            . . % > j b n U a y u d Z Z v k > % . .                                             ",
"                                            . O > l v B ^ / T U U T ( ( D v l > O .                                             ",
"                                        . . - > j v B ^ ( ` +.r.4.O.' ( ^ ! v j > - X .                                         ",
"                                        . O j n ! ^ ^ ^ ^ { 4.d.s.5.{ ~ ^ ! ^ ! b j O .                                         ",
"                                        . ; ( ..X.{ ! n ! ` @.t.t.#.` ! n ! } X...( ; .                                         ",
"                                        . > _ #.1.o._ ( ` ..#.4.4.#...` / _ O.#.#._ > .                                         ",
"                                        . - !  .@.#.o.O.4.i.a.a.a.p.u.4.O.O.#.#. .! - .                                         ",
"                                        . - l (  .@.#.4.p.s.d.d.f.f.s.p.4.#.@.} ( x O .                                         ",
"                                        . X > v ( } +.1.4.u.s.d.f.s.y.t.4.O. .( v > X .                                         ",
"                                        . X % h v (  .....O.4.y.y.4.O.....} ^ v h - X .                                         ",
"                                            . # 3 x D ~ ! ( '  .} ' ( ^ ~ n x 7 - .                                             ",
"                                            . X > l v b n n ! ( ( ! n b n b l > . .                                             ",
"                                            . O l ! ! ~ ^ ^ ^ ( ( ^ ^ ! ^ ! ! x O .                                             ",
"                                            . - ! ` ( ^ ^ ( ( ( ( ( ( ^ ^ ^ ( D w 4                                             ",
"                                            . > _  .^ n ^ ( ( ( ( ( ( ^ B n / ] &.$.4 .                                         ",
"                                            > b  .O._ ^ _ ' ` ` ' ` ` _ ( ~ ! [ ,.*.8 .                                         ",
"                                        . > ^ ..+.#.O.X.O.O.O.O.O.O.+.o.X.{ / F =.%.4 .                                         ",
"                                        . 7 | 7.6.<... .X.o.O.O.O.O.o.O.+.{ b z C V < .                                         ",
"                                        . q >.q.q.>.N l ^ ' ` ' ` ` ` ` ' ^ h % , <                                             ",
"                                        . 0 3.0.9.:.9 % b ) ( ( ( ( ( ( ^ v - . . .                                             ",
"                                        . 0 3.9.8.;.8 * b _ ) ( ) ( ( ^ D l * .                                                 ",
"                                        . 0 -.:.;.G < * l b n n ! ^ ^ ! b l O .                                                 ",
"                                            0 0 9 < + X % ; - 3 v B n n b l - .                                                 ",
"                                            . . . . . . . . . O 3 l x c c j % .                                                 ",
"                                                                O ; q e e 6 + .                                                 ",
"                                                                . + 5 M M 5 # .                                                 ",
"                                                                X # m A A m # .                                                 ",
"                                                                . $ m S S m $ .                                                 ",
"                                                                                                                                ",
"                                                                                                                                ",
"                                                                                                                                ",
"                                                                                                                                ",
"                                                                                                                                ",
"                                                                                                                                ",
"                                                                                                                                ",
"                                                                                                                                ",
"                                                                                                                                ",
"                                                                                                                                ",
"                                                                                                                                ",
"                                                                                                                                ",
"                                                                                                                                ",
"                                                                                                                                ",
"                                                                                                                                ",
"                                                                                                                                "
};
