/* XPM */
static char *_3053402765c4e29cd0fc4fa4436c945goWeRnbUixdYJIUD[] = {
/* columns rows colors chars-per-pixel */
"64 64 226 2 ",
"   c None",
".  c #760202",
"X  c #7C0101",
"o  c #750D0C",
"O  c #7E0E0E",
"+  c #79100F",
"@  c #791615",
"#  c #4B3937",
"$  c #4C3B39",
"%  c #463B3A",
"&  c #523F3D",
"*  c #5B3F3D",
"=  c #742424",
"-  c #722E2D",
";  c #792A28",
":  c #77302F",
">  c #753837",
",  c #6A3130",
"<  c #51451D",
"1  c #4F441D",
"2  c #594926",
"3  c #4A4439",
"4  c #54413F",
"5  c #584D34",
"6  c #574F32",
"7  c #78403F",
"8  c #66573A",
"9  c #745439",
"0  c #604C29",
"q  c #424242",
"w  c #4E4C4B",
"e  c #4B4642",
"r  c #564240",
"t  c #5A4543",
"y  c #5C4946",
"u  c #574B4A",
"i  c #565556",
"p  c #4F4F50",
"a  c #634C4A",
"s  c #684B49",
"d  c #724543",
"f  c #7B4342",
"g  c #734846",
"h  c #764C4A",
"j  c #7A4D4B",
"k  c #66514E",
"l  c #69504E",
"z  c #685D46",
"x  c #78594C",
"c  c #635453",
"v  c #6D5553",
"b  c #6D5957",
"n  c #665C5B",
"m  c #715654",
"M  c #715856",
"N  c #755D5A",
"B  c #795F5A",
"V  c #69645B",
"C  c #76605D",
"Z  c #7A625E",
"A  c #726B57",
"S  c #685F60",
"D  c #6B6A6B",
"F  c #676563",
"G  c #7D6561",
"H  c #7E6865",
"J  c #746C6A",
"K  c #737375",
"L  c #7B7A7C",
"P  c #777677",
"I  c #737070",
"U  c #820101",
"Y  c #8B0202",
"T  c #830C0C",
"R  c #960202",
"E  c #9B0203",
"W  c #960C0C",
"Q  c #9B0E0E",
"!  c #9D1312",
"~  c #941414",
"^  c #821E1D",
"/  c #A40101",
"(  c #AA0202",
")  c #A10F0F",
"_  c #B30405",
"`  c #BD0405",
"'  c #A91515",
"]  c #B81818",
"[  c #8C2423",
"{  c #942827",
"}  c #883231",
"|  c #9C3A39",
" . c #85302F",
".. c #BB3837",
"X. c #B72322",
"o. c #C50707",
"O. c #D40F10",
"+. c #DE1516",
"@. c #D41717",
"#. c #D01010",
"$. c #EE1B1C",
"%. c #E5191A",
"&. c #FE1C1D",
"*. c #F31C1D",
"=. c #F91F20",
"-. c #CC2929",
";. c #DC3233",
":. c #D32F2F",
">. c #E42E2E",
",. c #EA2627",
"<. c #FF2425",
"1. c #FC2829",
"2. c #E63939",
"3. c #864947",
"4. c #924C4B",
"5. c #895855",
"6. c #985B58",
"7. c #AE4241",
"8. c #896B59",
"9. c #A87D5A",
"0. c #A8625E",
"q. c #816662",
"w. c #826A66",
"e. c #866D69",
"r. c #886D68",
"t. c #8A716D",
"y. c #8A726D",
"u. c #87766C",
"i. c #9A7D66",
"p. c #8E7671",
"a. c #8F7772",
"s. c #8D7570",
"d. c #8D7671",
"f. c #8E7974",
"g. c #847671",
"h. c #907873",
"j. c #927975",
"k. c #927A75",
"l. c #977F79",
"z. c #977F7A",
"x. c #907772",
"c. c #CE4647",
"v. c #EB4748",
"b. c #F6484A",
"n. c #FA5355",
"m. c #FA5455",
"M. c #F04F50",
"N. c #F4797A",
"B. c #CF6C6C",
"V. c #89827D",
"C. c #99827D",
"Z. c #99817B",
"A. c #988279",
"S. c #AC8D75",
"D. c #7E7F81",
"F. c #B67F81",
"G. c #838385",
"H. c #8A8283",
"J. c #868688",
"K. c #8B8A8C",
"L. c #8A8B89",
"P. c #9E8781",
"I. c #9C8883",
"U. c #8D8E91",
"Y. c #939395",
"T. c #9A9A9D",
"R. c #979799",
"E. c #A28A84",
"W. c #A68E88",
"Q. c #A68E88",
"!. c #AC8082",
"~. c #A7908A",
"^. c #A9928B",
"/. c #AF9891",
"(. c #AC9891",
"). c #B19A93",
"_. c #B7A099",
"`. c #A5A39F",
"'. c #9E9EA1",
"]. c #A29FA2",
"[. c #A6A6AA",
"{. c #A7A6A9",
"}. c #ADAEB2",
"|. c #B2B2B6",
" X c #B5B6BA",
".X c #BABABD",
"XX c #B7B9BC",
"oX c #B2B0B1",
"OX c #C79093",
"+X c #F78586",
"@X c #D39EA2",
"#X c #D2B2B1",
"$X c #E8B5B8",
"%X c #E2AEB1",
"&X c #BEBEC2",
"*X c #E6BFC2",
"=X c #BAC0C3",
"-X c #C1C1C5",
";X c #C5C5CA",
":X c #C9C9CD",
">X c #C5C9CD",
",X c #CDCED1",
"<X c #D2D2D6",
"1X c #D5D6DA",
"2X c #DADADD",
"3X c #D4D9DE",
"4X c #D1CFCE",
"5X c #E9C2C4",
"6X c #F9C4C5",
"7X c #FFCBCB",
"8X c #FCD7D7",
"9X c #EFD0D0",
"0X c #DDDEE1",
"qX c #D7DCE1",
"wX c #DCE0E3",
"eX c #E2E2E5",
"rX c #E4E6E9",
"tX c #EAEAEC",
"yX c #E4E9EC",
"uX c #EEEEF0",
"iX c #E4EDF0",
"pX c #F4F4F5",
"aX c #F7F7F8",
"sX c #FEFEFE",
"dX c #F9F8F9",
"fX c #F0EEEF",
/* pixels */
"                                                                                                                                ",
"                                                                                                                                ",
"                                                $ $ $ $ $ # # #             $ $ # $ $ $ $ $                                     ",
"                                                $ $ 4 t y y k k             4 r t t 4 $ $ $                                     ",
"                            $ $ $ $ & $ # $ # # # 4 y b Z t.C.h.k # # # # 4 a l Z N t $                                         ",
"                            $ $ $ $ # $ 4 t t y y y s b w.k.^.E.Z a 4 t k c N Z t.Z t #                                         ",
"                                $ $ # 4 a l Z w.w.C y t v w.h.C.I.f.N N h.C.h.w.G v t # # # # # $ $ $ $                         ",
"                                $ # & y m w.y.l.Z.y.b a b Z w.h.~.E.w.w.Q.^.k.w.v a 4 r y y t & 4 $ $ $                         ",
"                        $ $ # # $ 4 y v w.y.h.Z.^.Q.s.q.w.q.B G h.l.y.y.z.j.q.v t t s v G G v a 4 $                             ",
"                        4 t y y y a N Z G w.w.h.Q.^.I.z.k.t.G G t.f.h.h.j.y.w.G v c N Z e.w.b y & #                             ",
"                    $ 4 a v G H w.w.e.H k a v w.j.E.(.~.Z.a.t.t.y.p.h.h.p.j.E.Q.E.Z.y.w.G v y & $ # # $                         ",
"                    $ 4 a v Z w.e.t.j.w.c a m Z e.l.Q.Q.l.j.p.p.t.t.t.y.s.z.~.).).^.E.j.q.v s y y y t 4                         ",
"                        4 r t a N G t.s.w.w.w.t.p.j.l.l.j.a.j.t.Z B N q.t.j.z.C.Z.E.^.~.j.w.w.w.w.G v a 4 #                     ",
"                        4 r t a m G w.t.p.h.j.j.p.j.l.k.j.a.p.t.Z N B B w.t.s.s.p.l.~.~.z.j.p.p.y.w.b a t 4                     ",
"                    # 4 a v Z H e.w.B G t.j.p.p.p.l.Q.Q.z.p.a.s.t.t.e.w.B G e.s.p.j.l.l.j.j.p.y.Z m y t a a 4 $                 ",
"                    4 y v w.y.f.t.e.w.w.p.p.p.j.l.E.).).Z.p.p.j.z.A.h.t.G q.j.z.j.p.p.p.p.j.z.j.w.m t 4 s a 4 $                 ",
"                # & a v w.y.h.t.Z w.C.E.z.p.p.l.~.).).).Z.j.p.z.~.~.z.s.e.j.Q.~.l.s.p.s.p.z.~.Q.h.q.v a t 4 $ $ $ $             ",
"                4 y m Z w.w.t.w.w.y.Q.Q.j.t.y.Z.).).).^.l.s.j.Z./.).E.j.p.j.Q.^.E.l.j.p.p.z.~.^.E.h.w.v r # $ $ $ $             ",
"            $ 4 a m w.H k a b w.C.Q.E.h.q.B t.C.).).E.k.j.p.s.z./.).).E.w.H f.P.~.~.z.j.p.j.z.E.^.Q.h.Z t #                     ",
"            # 4 a b Z C y t s w.E.^.z.r.N N t.z.~.~.z.s.t.t.s.Z.)._.).P.G N w.H./.(.k.t.s.s.e.j.~.^.A.w.s 4                     ",
"                r r t a a l v B j.z.k.e.N N r.j.z.z.k.t.G G e.I./.).E.p.Z N e.l./.~.e.q.t.t.B q.h.Z.j.t.m a 4 #                 ",
"                $ # # r m B m B t.s.s.w.N N t.j.a.p.s.H N N H k.~.~.z.t.N N e.F.~.E.G N r.t.q.B w.t.p.y.G v 4 #                 ",
"                    # t Z w.N B e.y.G N m B r.j.a.t.H C v b N q.j.z.j.w.N N t.k.z.x.B B t.s.t.w.G G t.p.y.Z t #                 ",
"                    t v q.w.N N w.q.j d l N t.p.s.q.h > 7 f f 3.r.p.j.r.h h q.y.a.e.N B t.x.x.r.h h q.t.y.q.c y                 ",
"                # y C H Z N M m B h = = d N y.s.H h = @ ~ ) ! { 6.f.f.5.; = j H s.t.B N t.j.f.q.; = h C Z Z w.C y $             ",
"                # y Z w.M l v m g - o + d N w.q.h - O Y R ( ` X.6.f.g.5.@ o - h q.q.j h q.y.f.5.@ @ > v k b Z N t $             ",
"                # r M M y t l d = o . @ d N B h = O R R Y Q @.;.0.d.H j @ . o - m h ; = h H d.5.@ + 7 k t t y t 4 $             ",
"                # & a a 4 4 l d = o . o - g v d @ R _ _ X W %.2.0.w.j : o X X O : , o o - h q.5.; = d k 4 # # $ $ $             ",
"                $ & 4 4 $ 4 l m d - o . o = s f ~ _ +.@.W W %.;.6.j { W X U R R T o . . o = h M h d m s 4 $     $ $             ",
"                $ $ $ $ # 4 l M b d = o @ @ >  .Q o.+.@.R R #.-.|  .Q R Y Y / / Y U . . o = d m b b M k 4 $     $ $             ",
"                $ $     $ 4 l m v m d d d , @ T / _ o.` / E W Q Q W U Y R / ( ( ( R U o - d m m m M m a 4 $                     ",
"                $ $     # 4 l M M v v v b s = @ ~ ) / _ ` _ Y Y Q Q Y R _ ` _ ( ) ~ @ = g M v l v m M l r $                     ",
"                        $ 4 l m m v y t v m d d f } ) ` +.@.( ~  . .W _ +.%.` Q } f f d m l y t l m M l 4 $                     ",
"                        $ 4 l m l a & 4 a m m v b f ! o.$.<.O.' f h { ] ,.*.O.' } f m m M a 4 & a l m l 4 $                     ",
"                        $ 4 c l y & $ r a m m N b f ! o.$.<.<.-.4.v g | >.<.&.@.' { g M M l 4 $ & y l l r $                     ",
"                        $ 4 a y & # # & v M m v M 7 ! o.$.1.<.;.4.n b 4.;.<.1.<.O.' 3.m M l 4 $ # & a a r $                     ",
"                            r r q % $ r l m m m N f ! o.%.<.<.;.4.n n 4.;.<.<.1.*.-.4.v N a r % % q & 4                         ",
"                            $ e w p u u a l m v k > [ ] ,.<.<.>.7.3.s 3.-.*.<.<.1.;.4.v a a u w p w q %                         ",
"                            3 w i D D n t t l v a 4 d | >.1.<.1.>...> , ' O.*.<.1.;.4.c t u n D D S w q                         ",
"                            q p D L G.F.D c a a v c a 3.;.<.<.<.<.;.3.d ^ ) ,.<.1.>.7.3.v S K D.J.L n p                         ",
"                            q p D U. X&X{.H.c c H.J.c > :.<.<.<.<.v.z.z.d [ -.<.<.1.>.c.!.Y.D.G.'.'.J.D p q                     ",
"                            p i D.T.=XqX:X[.I I [.[.L 4.;.<.<.<.<.M.@X}.L 5.;.<.<.<.=.M.@X}.J.G.'.[.U.K i q                     ",
"                        < 6 V L U.=X,X3X1X-X{.].oXXXXXOXv.<.<.<.<.M.%X,X&XOXv.<.<.=.<.n.%X=XK.L K.U.G.D p q                     ",
"                        8 z F L.}.=XqXyX0X<X-X&X&X>X3X$Xm.<.<.<.=.m.$XyXiX$Xn.<.<.<.<.M.$X=X'.G.D.D.D F w 3                     ",
"                    < 8 8.e.P U.&X0XuXuXeX<X-X&X>X1XqX%Xn.&.<.<.<.m.6XsXsX6Xm.<.=.<.=.n.%X,X XT.J.D i w 3 <                     ",
"                    2 9 u.I.K.].:XfXsXdXeX<X-X;X3XrXyX%Xv.%.%.*.=.m.7XsXsX8XN.v.1.=.&.n.$X0X,X}.L.D i 5 2 2                     ",
"                < 0 9 x J K.}.,XtXdXsXaXeX1X<X2XuXsXsX5X:.` _ o.*.m.7XsXsXfX5X+Xb.&.&.n.6XpXqX&XU.J C 9 2 <                     ",
"                < 0 x r.V.{.,XuXsXsXdXfXrXeXeXtXdXsXsX9XB...:.c.b.+X8XsXsXsXiX5XN.b.n.+X8XsXyX-XU.J x 9 2 2                     ",
"                < 6 A V.}.,XfXdXsXdXtXrXpXaXaXdXsXsXsXpX9X5X*X5X6X8XdXsXsXsXdXtX*X$X6X8XdXdXrX-XY.A 8 0                         ",
"                < 8 I '.,XtXsXsXsXaXtXrXaXsXsXsXsXsXsXsXsXsXsXsXsXsXsXsXsXsXsXaXwXrXsXsXsXfXrX-XU.F 5 <                         ",
"                < 8 L.&XrXsXsXsXsXsXdXdXsXsXsXsXsXsXsXsXsXsXsXsXsXsXsXsXsXsXsXaXeXrXaXdXtXeX0X-XU.I                             ",
"                6 A `.<XpXsXsXsXsXsXsXsXsXsXsXsXsXsXsXsXsXsXsXsXsXsXsXsXsXsXsXaXeXeXaXdXeX1X1X.XU.P                             ",
"                V V.|.eXaXsXsXsXsXsXsXsXsXsXsXsXsXsXsXsXsXsXsXsXsXsXsXsXsXsXsXaXeXeXdXdXrX<X:X[.J.K                             ",
"                K Y.:XtXdXsXsXsXaXaXsXsXdXdXsXsXsXsXsXsXsXsXsXsXsXsXsXsXsXsXdXuXwXwXuXuXeX<X-X{.J.K                             ",
"                K Y.1XsXsXsXsXdXtXtXaXaXtXtXdXsXsXsXsXsXsXsXsXsXsXsXsXsXsXdXtX0XqX0XeXeX0X<X-X[.J.K                             ",
"                K R.0XsXsXsXdXuX0XeXaXaX2X2XfXdXsXsXsXsXsXsXsXsXdXdXsXsXsXaXeX1X<X1X1X1X<X:X-X[.J.K                             ",
"                K R.0XsXsXdXtXeX2XrXdXpX,X;X1XtXdXsXsXsXsXsXsXdXtXtXdXsXsXaXeX<X;X;X<X<X:X&X.X[.J.K                             ",
"                K Y.:X0X0X2X<X<X1XeXtX0X-X&X,XeXpXdXsXsXsXsXdXtX0XeXaXsXsXdXeX<X.X&X<X<X-X.X.X[.J.P                             ",
"                    Y.Y.Y.'. X:X1X1X,X-X.X&X<X2X0XtXdXsXsXdXtXeX2XeXaXsXsXdXeX<X&X-X<X<X-XXX.X[.J.K                             ",
"                    K K I V.T.oX&X&X.X}.}.}.:X1X2XeXuXaXaXpXeX2X2XeXaXsXsXuXqX;X|.|.:X:X|.{.{.T.J.K                             ",
"                            G.J.U.R.}.}.Y.Y.|.:X1X0XeXeXeXeX2X2X2XrXdXdXtXwX:XoXY.Y.|.|.Y.G.G.J.                                ",
"                            P K K G.'.'.D.D.T.}..X-X,X<X4X<X<X:X;X:X4X4X:X#XoX(.V.g.T.T.G.K K P                                 ",
"                                    G.G.L P D.J.K.T.|.&X-X&X-X|.R.L.A.S.S.S.S.S.S.i.H.J.                                        ",
"                                    K K P P K K K G.{..X X X.X{.H.J z 5.8.9.9.9.9.i.P K                                         "
};
