/* XPM */
static char *_8d3d1c7e6c54ca5a6463311a2acbb96INEuedGpldRrIL6I[] = {
/* columns rows colors chars-per-pixel */
"64 64 154 2 ",
"   c #0D0E0F",
".  c #0F0F10",
"X  c #100F10",
"o  c #151212",
"O  c #191514",
"+  c #1E1817",
"@  c #171618",
"#  c #191719",
"$  c #1E1919",
"%  c #201816",
"&  c #241C1A",
"*  c #2C1E1A",
"=  c #2D211D",
"-  c #33221D",
";  c #38251F",
":  c #221F21",
">  c #262226",
",  c #2D2220",
"<  c #2C262A",
"1  c #2E292E",
"2  c #362723",
"3  c #392520",
"4  c #352C23",
"5  c #3D2A24",
"6  c #302728",
"7  c #322A2B",
"8  c #3E2D2A",
"9  c #373025",
"0  c #383025",
"q  c #332D31",
"w  c #3C3032",
"e  c #3C353B",
"r  c #442D27",
"t  c #442F2A",
"y  c #45302A",
"u  c #4B3329",
"i  c #45382B",
"p  c #51372F",
"a  c #523C2E",
"s  c #4E3833",
"d  c #433638",
"f  c #42383D",
"g  c #4E3B39",
"h  c #513730",
"j  c #543A32",
"k  c #5A3D35",
"l  c #543E3A",
"z  c #5E4037",
"x  c #55413E",
"c  c #5E4138",
"v  c #604137",
"b  c #634339",
"n  c #68463B",
"m  c #664A3C",
"M  c #6B4B3D",
"N  c #6E503F",
"B  c #75523D",
"V  c #7C563F",
"C  c #7D583F",
"Z  c #463D42",
"A  c #4B4147",
"S  c #4E434A",
"D  c #534346",
"F  c #54464A",
"G  c #57494F",
"H  c #574C52",
"J  c #5C4F53",
"K  c #5D5359",
"L  c #604642",
"P  c #634844",
"I  c #6F4B40",
"U  c #734D42",
"Y  c #6E5240",
"T  c #735341",
"R  c #7B5346",
"E  c #7C5943",
"W  c #665257",
"Q  c #62535B",
"!  c #6C5C63",
"~  c #725C61",
"^  c #805746",
"/  c #835A45",
"(  c #885F45",
")  c #845D4B",
"_  c #895F48",
"`  c #856245",
"'  c #86604C",
"]  c #8F6349",
"[  c #8F644A",
"{  c #89644E",
"}  c #8A644E",
"|  c #8B644F",
" . c #8B644C",
".. c #836A4C",
"X. c #8C6F4F",
"o. c #8D6A4E",
"O. c #91654A",
"+. c #90654A",
"@. c #966E4F",
"#. c #936C4D",
"$. c #9B6E4E",
"%. c #8E714F",
"&. c #9C704E",
"*. c #976E50",
"=. c #996F50",
"-. c #8F7051",
";. c #8F7853",
":. c #927353",
">. c #937451",
",. c #947454",
"<. c #9E7451",
"1. c #927A54",
"2. c #9D7B56",
"3. c #9E7B5A",
"4. c #9E7B59",
"5. c #A07552",
"6. c #A17753",
"7. c #A37954",
"8. c #A27954",
"9. c #A47F5B",
"0. c #806E76",
"q. c #806E76",
"w. c #826F78",
"e. c #826F78",
"r. c #817077",
"t. c #817077",
"y. c #87747C",
"u. c #87747C",
"i. c #9F825A",
"p. c #A4805B",
"a. c #A5855D",
"s. c #AB865C",
"d. c #AD885D",
"f. c #A8885F",
"g. c #AC8B61",
"h. c #AD8B62",
"j. c #AE8B62",
"k. c #AD8B61",
"l. c #B28F62",
"z. c #B59263",
"x. c #B69364",
"c. c #B49063",
"v. c #BE9F6B",
"b. c #C0A06C",
"n. c #8B7F82",
"m. c #8B7F82",
"M. c #948088",
"N. c #948088",
"B. c #9C8D92",
"V. c #9C8D92",
"C. c #9F9095",
"Z. c #9F9095",
"A. c #A8969C",
"S. c #A8969C",
/* pixels */
"  & c R R U R k & .   . . . .   X X X X X X . . . . . . . . . . X . . . . . . . . . . . . . . X . . . . .     & z T R R R z &   ",
"o = n R ^ ^ ^ n =     .   . o o X X O o X   X X X . . . . X . . . . X . . . . . . . . . . X . . . . . . . .   = b ) ^ R R b - o ",
"* r B [ O.+.O.M =         o & & o o & & o X . X . . . . X X X   . . . . . . . X . . . . . . . . .   . . .     = M +.[ O.+.B r & ",
"- u ` 7.7.6.&.C 5 @ . o O & - = o O * - % o X X o o X . X X X   . . . . . . . . X . . . . . . . .   o . . X @ 5 C &.5.6.7.` u - ",
"- a :.x.z.d.5./ k 2 O O 2 r 5 * X O * - - & o X & & O           . . . . . . . . . . . . . . .   . . . .   O 2 k / 5.d.z.x.>.a - ",
"- a X.h.h.9.=./ n y $ $ y j r - O O * 3 - * O O * - % o X X o o o . . . . . . X . . . . . . .   . . .   . % y n / @.p.h.j.%.a - ",
"- r B } { ) ) U n y $ $ t k a 5 % o * - 3 * o O * - - & O o & * o   . . . . . . . . . . . . . o . . .   . $ y n R ^ ' { { B u - ",
"- r n T U R R n j 2 & = p z l y % O * ; - * O O * ; - * o O * * @ . . . . . . . . . . . . . . . . . . . . O 4 j n R U U R b r - ",
"- r b R U R R b 2 & 2 a n I g q + X * 3 - * O X * ; ; * o o - * O     . . . . . . . . . . . . . . . . . . X # 2 b R T R R n r - ",
"- r v U U M U l & + y v n P F e & o * 3 5 - O O * ; - * O O * * O   . . . . . . . . . . . . . . . . . . .     & j U I U I k r - ",
"- r j v k b c u % + y l g F ! J : O * 3 u r + O * - ; * o O * * o . . . . . . . . . . . . . . . . . . . . . . + u b c b c h r - ",
"- 3 j c c k c y % $ 8 x J ! e.~ 6 X & r h y % X * - - * o O * - O . . . . . . . . . . . . . . . . . . . .   . & u c k k v h 5 - ",
"- r v M I I I j & @ 7 J n.Z.N.! 6 o * 5 h u % o * - - * O o * * O . . . . . . . . . . . . o . . . . . . . .   & j I I I I v r - ",
"- r n ^ ' { { I = @ 1 K V.S.~ F : X * 5 u 5 + O - 5 ; * O O * * O . . . . . . . . . . .     . . . . . . . o o 4 I | | ) ^ n r - ",
"- r n ) 3.h.h...4 o 1 H y.r.S > X O * ; 5 : O + 5 u r * X O * * O . . . . . . . . . . . . . . . . . . . . O 2 c :.h.h.3.) n r - ",
"- r b _ h.b.b.1.i $ < f J G 1 @ X O - 5 ; - O % t p 5 * O O * * o . . . . . . . . . . . . . . . . . . . . $ y T a.v.v.h._ b r - ",
"- r b } g.v.v.p.m 4 & # > 7 8 2 O $ 8 u 5 * X % u h 5 & O o * - o . . . . . . X . . . . . . . X . . .     $ t T a.b.v.g.' b r - ",
"- r n O.9.l.l.2.B y + . o , j u & $ t h 5 * O % t h r * o O * * O . . . . . . . . . . . . . . . . . X     $ t M 2.c.z.a. .M r - ",
"- u B O.<.5.<.o.m y + O 2 j n k & $ y a 5 * o % t h 5 * O O * * O . . . . . . . . . X . . . . . . . .   . $ y n o.5.&.&.#.B u - ",
"- u ^ $.&.<.5.[ n t + + y b U c & $ y j t - O $ 5 u 5 * o O * * o . . . . . . . X . . . . . . . . X X   . % t m [ 2.5.&.$.C u - ",
"- u C 5.s.c.c.2.I y # + y b U c & + t k h r + O - 3 3 * O O * * O . . . . . . . . . . . . . . . . . X     % t Y 2.l.l.s.5.C u - ",
"- u C 5.c.v.v.a.Y t + + t b U k & $ t k k t % o - 3 3 * X O * * O . . . . X . . . . . . X . . . . . X   . + t Y a.v.v.c.5.C u - ",
"- u C 2.c.v.v.a.T t + + t b U c = $ t k k t $ + r u 5 * O O * - @ . . . . . . . . . . . . . . . . X .   . + r Y a.v.v.c.6.V u - ",
"- u C <.s.d.a.-.m t + $ t b U c & $ t k k y % $ t p 5 * o O * * o   . . . . . . . . X . . . . . . . .   . + t I %.s.d.d.&.V u - ",
"- u C $.<.#.E m z t # + t b U c & $ t k k y + % y h r * o O * * O . . . . . . . . . . . X . . . . . .   . + y z n E #.2.&.C u - ",
"* u C $.<.#.E m z t + + t b U k = $ u c k t $ $ y h 5 & o O = , O . . . . . . . . . . . . . . X . . .   . + y z m E #.&.$.C u - ",
"- u C 5.s.h.a.X.m r + + t b U c * & l M b t $ $ t p r * X O 7 q # .   . . . . . . . . . . . . . . . .     + y m %.a.j.s.&.V u - ",
"- u C 5.l.v.v.g.T t + + t b U z & & v U b t + $ t p r 2 < q e q $ .   . . . . . . . X . . . . . . . . . . + y T a.v.v.c.8.V u - ",
"- u C 6.c.v.b.a.T t + + t v U c : * c U b t $ $ t j p l W Q Z q $     . . . . . . . . . X . . . . . .     $ t T a.v.v.c.8.C u - ",
"- u C &.s.l.h.,.m t # + t b U z & & c U b t $ & u v k L ~ ! S 7 #     . . . . . . . . . . . . . . . . .   $ t M 1.d.l.d.&.C u - ",
"* u C &.5.&.[ E m t + + t b U z : & c U b t # & k n v l D S Z q $   . . . . . . X . . . . . . . . . .     $ y b E *.&.<.&.V u - ",
"- u V ] ] ( B n z t + + y b U k * * k U b t + & c U b h d e q < @   . . . . . . . . . . . . . . . . .   . $ y k n U / ] ] V u - ",
"- r m ^ R U n k k t $ + t b U z * : k U b t $ & c U k l f q : O . . . . . . . . . . . . . X X . . . . .   % y k k b U E ^ M r - ",
"- u M / ' ' T m c t + + t b U z * : c U b t + & k M c s w < + X . . . . . . . . . . . . . . . . . . . .   $ y z m T ) ) ) n u - ",
"- u B *.p.s.a.-.I 8 + + t b U c & : k U b t + & u c k u > % * & o . . . . . . . . . . . . . . . . . .   . $ y N :.a.g.p.#.B u - ",
"- u E 7.c.b.b.a.Y t $ $ t c U c & * k U b t + $ t k k t % O * * O . . . . . . . . X . . . . . . . . .   . % 0 T a.b.v.z.5.C u - ",
"- u V 5.z.v.b.a.T t # + t b U k & & c U b t + $ t k k t % O * * @ . . . . . . . . . . . . . . . . . X .   + r Y a.v.v.l.7.C p - ",
"- u B #.2.a.a.:.m y + + t c U c : * k U b t + $ t k h r + O * * o   . . . . . . . X . . X . . . . X X   . + y M :.a.a.2.@.B u - ",
"- r M R T N Y m z y + + t b U z & * b U b t + % r h t 2 O X * * # . . . . . . . . . . . . . . . . . .     % y z m T B B ^ M r - ",
"- u b B b k k k k y % + t b U z : : k U b t + % t p 5 * O O * - O . . . . . . . . . . . . . . . . . .   . + r z k k k b M b r - ",
"- r n U U n I n k y $ + t b U z * * k U b t + $ t h 5 * X O * * O . . . . . . . . . . . . . . . . . .   . + y z n n P I U n r - ",
"- r b R ) } | ^ b t + + t b U c : & k n b t $ $ u p r * X O * * O .   . . . . . . . . . . . . X . . . . . + y c E | ' ) ^ n r - ",
"- r n ) 3.h.g.,.Y t + + t b U c * % s b k y $ % t p r & O O * * o   . . . . . . . . . . . . X . . . .     + y N 2.g.g.2.) n r - ",
"- r M O.h.v.v.a.T t O + t b U k & + t j k y % $ t p 3 * O O * * # .   . . . . . . . . . . . . . . . . . . + y T g.v.v.g.| n r - ",
"- u B <.l.v.v.a.T t O + t b U c & $ t k k y $ $ t p r * o o * - O . . . . . . . . . . . . . . . . . .   . + r Y p.v.v.l.=.B u - ",
"- u C 5.s.l.l.2.U t + + t c I k & $ t k k y $ + 5 u 5 * O O * * O . . . . . . . . . . . . . . . . . .   . + y N 2.l.l.s.5.^ u - ",
"- u C @.&.5.<. .M t $ O t k c u % % t k k y % O - 5 ; * o O * * o . . . . . . . . . . . . . . . . . . .   + r N [ &.5.$.$.C u - ",
"- u C &.5.5.5.' v 4 & , h c l 8 $ & y j j 5 $ O - ; ; * O o * * O . . . . . . . . . . . X . . . . . . . . @ ; z  .6.5.5.$.V u - ",
"- u V &.s.l.c.%.0 = 4 j n I g 7 # % y h t - O + 5 u 5 * O O * - o . . . . . . . . . X . . X . . . . . .   . O i %.c.d.s.<.C u - ",
"- u V 8.z.v.v.;.9 O y z n P F e $ + r u 3 * o % y h 5 * X O * * O . . . . X . . . . . . . . . . . . . .       9 ;.v.v.c.6.C u - ",
"- u V 8.l.v.v.;.9 # r k g F ! K > O - 5 3 * o $ y j r * o O * * O . . . . . . . . . . . . . . . . . . .       9 ;.v.v.c.8.V u - ",
"- u V 5.s.z.z.X.9 o 0 x H ! e.! < X * ; 5 - O + r y 3 * O O * * o . . . . . . . . . . . . . . . . . . .       9 %.c.c.s.&.V u - ",
"- u C $.&.8.<.C , @ 7 H m.Z.m.~ < o * ; u 5 + O - 2 3 * o O * - O X . X . . X . . . . . . . X . . . . . .     = E 7.6.&.&.C u - ",
"- u C $.&.&.&.B = @ 7 K V.S.e.F : o * 5 u r + o * ; - * o o & * X X . . . . . . . X . . . . . . . . . . . X O 5 C &.&.&.&.C u - ",
"- u V 5.d.d.&.B = @ 1 H u.e.Z : o O * ; 5 2 O o * - 3 * O X o X X . . . . . . . . . . . . . . . . . . .   # 2 z ` &.s.s.5.V u - ",
"- u V 5.c.z.7.C 5 & < f K G 6 O   O * - - * O o * - - & o X X X X . . . . . . . X . . . . . . X . . .     % y n ` 2.c.c.8.V u = ",
"- u C 6.c.z.5./ j 5 & $ > 1 t 2 + o * ; ; * o O * - + o X . . . . . . X . . . . . . . . . . . . . . .   . & y n ( 6.l.z.6.C u - ",
"- u B &.s.a.&./ m y %   @ = y r % o * - * & o o & % o . . . . . X . . . . . . . . . . . X . . . . . . . . % t b / &.s.d.<.B u - ",
"- r n ' <.*._ R b y + O 2 t r = O O * - % o X o o o o . . . . . . . . . . . . . . . . . . . . . . . . . . + t b B ' @.@._ M r - ",
"- r n R _ _ R I c y + $ y j 5 * o o & % O     X . X . . . . . . . . . . . X . . . . . . . . . . . . . . . + t b I R ] _ ^ b r - ",
"- r n R R R R U b y + + u h 5 * o o o o o . . . . . . X . . . . . . . X . . . . . . . . . . . . . . . . . + t b I R ^ ^ R n r - ",
"- r b M I U U n h 2 O + 4 r - & o . . . . . . . . . . . . . . X . . . . . . . . . . . . . . . . . . . . . O 2 h n I I I M v r - ",
"- 5 a c b k c h , O X X + + O o . . . . . . X . . . . . . . X . . . . . . . X . . . . . . . . . . . . . . X O - h v z z z j r - ",
"- 5 p k j j k t + .   .   . . . . . . . . . . . . . . . . . . . . . . . . . . . . . . . . . . . . . . . . . . % t j k j j u 5 - "
};
