/* XPM */
static char *dd74cf96e5474dde84b207cba38068071lU7YeovAblyd5Qs[] = {
/* columns rows colors chars-per-pixel */
"64 64 165 2 ",
"   c #0D0E0F",
".  c #0F0F10",
"X  c #100F10",
"o  c #121112",
"O  c #1B1616",
"+  c #1E1817",
"@  c #151518",
"#  c #191718",
"$  c #1F1918",
"%  c #241C1A",
"&  c #281E1C",
"*  c #2C221D",
"=  c #32211D",
"-  c #211F21",
";  c #252124",
":  c #2B2323",
">  c #2A2529",
",  c #2F2A2F",
"<  c #362723",
"1  c #352E24",
"2  c #3C2B25",
"3  c #342B2C",
"4  c #3F2D2A",
"5  c #332E31",
"6  c #3A2F30",
"7  c #363234",
"8  c #3F3331",
"9  c #452D27",
"0  c #432F29",
"q  c #413027",
"w  c #45302A",
"e  c #4B332A",
"r  c #45382B",
"t  c #523C2E",
"y  c #433536",
"u  c #4C3631",
"i  c #4F3833",
"p  c #42383C",
"a  c #4C3C3B",
"s  c #503730",
"d  c #563B33",
"f  c #5A3D35",
"g  c #533E3C",
"h  c #5E4037",
"j  c #53413E",
"k  c #5E4239",
"l  c #604137",
"z  c #634339",
"x  c #68463C",
"c  c #664A3C",
"v  c #6C4B3D",
"b  c #6E503F",
"n  c #74523C",
"m  c #7C563F",
"M  c #7D583F",
"N  c #4D3F43",
"B  c #4B4245",
"V  c #4E444C",
"C  c #504246",
"Z  c #52464D",
"A  c #52494E",
"S  c #594848",
"D  c #534950",
"F  c #5B4E55",
"G  c #5D5054",
"H  c #5D5459",
"J  c #654C46",
"K  c #6E4B40",
"L  c #724C41",
"P  c #6E5140",
"I  c #765143",
"U  c #7B5345",
"Y  c #7C5942",
"T  c #62555B",
"R  c #69575F",
"E  c #6A5961",
"W  c #77666E",
"Q  c #78656F",
"!  c #7C7376",
"~  c #805746",
"^  c #845B46",
"/  c #885F45",
"(  c #855F4C",
")  c #845D4A",
"_  c #895F48",
"`  c #856245",
"'  c #896046",
"]  c #886046",
"[  c #8A6146",
"{  c #896046",
"}  c #86604C",
"|  c #866048",
" . c #8D6348",
".. c #8F6349",
"X. c #8F6449",
"o. c #8E6449",
"O. c #8F644A",
"+. c #89644E",
"@. c #8A644E",
"#. c #8D634A",
"$. c #826A4C",
"%. c #8C6F4F",
"&. c #8C6B4E",
"*. c #90654A",
"=. c #91654A",
"-. c #91664A",
";. c #91654A",
":. c #966E4F",
">. c #966A4B",
",. c #9A6D4D",
"<. c #8D714F",
"1. c #9C704E",
"2. c #976E50",
"3. c #996F50",
"4. c #8F7652",
"5. c #8F7853",
"6. c #937451",
"7. c #937453",
"8. c #9D7351",
"9. c #917953",
"0. c #9D7B56",
"q. c #9E7B5A",
"w. c #A07552",
"e. c #A17753",
"r. c #A37954",
"t. c #A27854",
"y. c #A47F5B",
"u. c #806F77",
"i. c #806F77",
"p. c #817177",
"a. c #837279",
"s. c #9F825A",
"d. c #A4805B",
"f. c #A5855D",
"g. c #AB865C",
"h. c #AD885D",
"j. c #AA885F",
"k. c #AD8B62",
"l. c #AC8B61",
"z. c #AD8B61",
"x. c #B28F62",
"c. c #B59263",
"v. c #B69364",
"b. c #B49163",
"n. c #BE9F6B",
"m. c #C0A06C",
"M. c #8B7E81",
"N. c #8B7E81",
"B. c #907983",
"V. c #8C8084",
"C. c #97818A",
"Z. c #97818A",
"A. c #9C868F",
"S. c #96888D",
"D. c #97898E",
"F. c #988A8F",
"G. c #988A8F",
"H. c #A09396",
"J. c #A3969A",
"K. c #A3969A",
"L. c #A5989B",
"P. c #AD9AA0",
"I. c #B1A1A5",
"U. c #BAA8AD",
"Y. c #BAA8AD",
/* pixels */
"  & f U U U L f & X . . . .                     X X X . . .   . . .       .     . . .       . .   . . . X     & h U U U L f &   ",
"o = c U Y ~ ~ z & .   .   o O % % % % O % % % O X X O % % $ O $ $ O % $ $ $ $ O o o O % + + % % + O X   X     * z U ~ Y ~ x < o ",
"& 9 n =...-.-.b *   .     + < w w 0 9 9 9 9 w < O O < 9 0 0 0 w 0 0 0 0 0 0 0 < O O < w 0 0 0 0 w < @ .       * b =.O.=.=.n 9 % ",
"= e ` r.t.w.1.m 2 O X o + : e f k k k l f k z u % % e k z z z f z f z z k z l u + % u z l l z l f s & O X   O 9 M 1.8.t.r.` e = ",
"= t 6.v.c.h.8.^ f < O + < e d f v L L L L L L d % % d L L L K L L L K L L L L d % % d L L L L v k d e < + O < f / 8.g.v.c.6.t = ",
"= t &.k.k.d.:.~ x 0 + + 0 f f f x b L L L U U h % % f U U I I U L U L U I U U f % % f U U U v x f f f w + + 0 x ~ 2.y.k.k.&.t = ",
"= w n @.+.( ^ U z 9 + + 0 f f d f l k l L U U h % % f U I U I U U L U L L U U f % % f U U K x f d f f 0 + % 0 z I ~ ( O.@.n w = ",
"= 9 z U L U U x s 2 & : s l l l z z x v U ~ ~ c 4 9 x ~ ~ U ~ U ~ ~ ~ ~ ~ ~ ~ K 9 0 v ~ ~ I v z x z l s < & 2 s v U L U I x 9 = ",
"= 9 x U L U U l < & 2 u x L v I ^ ` _ [ O.O.=.[ Y Y _ O.=.O.-.-.=.=.=.=.=.=.=._ Y M _ =.-.O.) _ _ ^ L v x u * < l U U L U x 9 = ",
"= 9 l v L K L d % + w k x J K L Y | O.O.O.O.O.=.=.=.=.O.O.O.O.-.=._ O.=.=.=.O.O.=.=.=.O.O.-.=.O.[ ^ I L L d % % d L L L K k 9 = ",
"= 9 s l k k k e $ + 0 d a a p a a z U ~ U U ~ U ~ ~ U ^ U ~ U U ~ U U ~ ~ U ~ U ~ U U ~ U ~ Y U v z l l l u + + w l f k l s 9 = ",
"= 9 d k f k k e % O 0 g C Z F H H F J L I U U U U I U L U U U I U I U U U L U U U U U I U I U L x f d f f 0 + + e k k k l s 2 = ",
"= 9 f v K K K d % @ 3 C R a.G.K.K.N.G N L U U U U U U U U U U U U U U U U I U U U U U L U U U L L x h f f 0 $ % d L L K v l 9 = ",
"= 9 x ~ } +.@.v * @ 5 V Q B.P.Y.Y.G.F y g f f f f f f f f f f f f f f f f f f f f f k f k f h h l f e 0 0 2 & 2 K } @.( ~ x 9 = ",
"= 9 z ) q.k.k.$.< @ 3 Z Q B.Z.A.A.a.D 5 : % & & & & & & & & & & - & & & - & & & & & & & & & % & & & % + % % 3 k 7.k.k.r._ z 9 = ",
"= 9 z _ k.m.m.9.r $ > p F E E E E G N 6 & + @ O . . O % % + @ + % O O + % % O @ o o O + + + + + + + + O X + 0 K l.n.n.k._ l 9 = ",
"= 9 x ( k.n.n.y.c < % - ; > ; > > 3 u i w 0 w < O O < 0 0 0 0 0 0 0 0 0 0 0 0 < O O < 0 0 0 0 0 0 0 0 < O + 0 P f.n.n.j.@.z 9 = ",
"= 9 x ..y.x.x.0.n 0 + . @ + + % % = e f l z l u + % e l z l k k k k k k f z z u + % u z z l z f f f f w + + 0 K 0.b.c.f.+.v 9 = ",
"= e U >.1.8.w.O.v 0 + O < 0 0 e s f f f K L L f % % g L L L L K L L L L L L I f % % d L L L L K f f f w + + 0 v O.0.w.8.>.n e = ",
"= e m ,.8.w.0.O.c 0 + + w f f l L L f l K U U f & & k U U ~ U ^ ~ ~ ~ ~ U ~ U f & & f U U U L L k d f w + + 0 c O.0.1.1.,.m e = ",
"= e m w.g.x.x.0.P 4 O + 0 f f z L L k f K U U f % % f ~ [ O.O.O.=.=.O.O.O._ ~ f % & f I U L U K l f f 0 + + 0 P 8.x.x.g.w.M e = ",
"= e m t.c.n.n.f.I 0 $ + 0 f d l K L z x L ^ ~ z * % f Y =.,.>.>.=.=.-.>.,.=.~ f % & z ~ ^ U U L f d f 0 + + 0 P f.n.n.b.e.M e = ",
"= e m t.b.n.n.f.P 0 + + 0 f d f K L L I _ -.;.K * % f ~ =.>.,.O.^ ^ =.>.,.=.U f & * v -.=._ U L l f f 0 % + 9 I f.m.n.b.w.m e = ",
"= e m 8.g.h.d.4.K 0 + + 0 f f z L U U U _ -.,.n * * v @.>.,.>.O.^ ^ -.>.>.>.&.v & * n 3.,.=.U K f f d 0 + + 9 c <.f.h.g.w.m e = ",
"= e M 1.8.>.Y c h w # + w l K L L U U U U ) >.n * 1 $.f.8.>.>.>.=.=.>.>.>.8.y.$.* * n 1.,.o.Y L h d d w $ $ 0 h c Y >.8.1.M e * ",
"= e M ,.8.>.Y c h 4 + + 0 l L U U L U L U _ 3.Y * 1 5.c.8.O.-.>.-.=.>.>.>.w.v.9.1 * n 1.,.o.~ K l d f w $ $ 0 k c Y >.8.3.M e = ",
"= e M w.g.x.f.4.v 0 + + 0 l L U L U L U / 2.g.%.1 1 9.k.O.^ -.=.^ ^ =.>.>.e.v.7.1 * n 1.,.o.^ L f f f 0 $ + q P <.g.h.j.1.M e = ",
"= e M w.x.n.n.f.P 0 + + 0 f x L U U L ~ O.r.c.5.1 1 5.h.+.U X.X.~ U =.>.>.e.v.5.1 * b >.>.^ b l d s i 4 $ O q P f.m.n.b.t.M e = ",
"= e M w.c.n.n.f.I 4 + + 0 f f x L L L U =.r.c.4.1 1 4.j.+.U O.X.U U O.>.-.e.v.6.1 * n >._ L j p y y y 5 # $ 9 P f.n.n.b.t.m e = ",
"= e M w.g.x.x.7.P q + + 0 f f l K U U ~ O.r.c.4.1 1 5.k.>.~ =.=./ ~ [ =.-.r.v.5.1 * n o.I J T H H T H B - $ 9 v 6.h.x.h.w.m e = ",
"= e M ,.1.1.-.Y z 0 + + w d d f K U L ~ O.t.c.4.1 1 5.b.8.O.>.-.=.O.~ / =.r.v.4.1 * n | k G N.K.K.L.L.! , O 0 z Y 2.1.w.1.M e = ",
"= 9 m X.X./ n x h q + % w f d k L L U U O.w.c.4.1 1 5.b.0.>.>.>.=.[ ~ ~ O.e.x.5.1 * n ) j G D.I.H.J.I.V.7 O 0 h x L ^ X.-.n e = ",
"= 9 x ~ U I l f f 0 + % 0 d f l v U U Y X.t.b.5.1 1 4.b.t.>.>.=.^ ~ _ =.-.r.c.6.1 * n ` j A a.a.A A a.W , $ 0 f f l L Y ~ v 0 = ",
"= 9 v ^ } } I v f 0 + + 0 f d l K U L ~  .t.b.5.1 1 4.b.w.>.>...~ U O.>.>.w.c.5.1 * n ` j V W R ; : R E > + 0 h v I ) ( ^ v w = ",
"= e n 3.d.l.f.4.v 0 + + 0 f d f K U I ~  .t.c.5.1 1 4.b.t.>.>. .U ~ =.>.>.r.c.4.1 * n ^ j V W R : > E E > + 2 b 4.f.j.y.,.n e = ",
"= e M 0.b.n.n.f.I 0 O % 0 f f l L L I U O.8.h.%.= 1 4.b.w.>.>...~ Y O.>.>.w.c.4.1 * n +.J S T A * ; A F ; + q P f.n.n.c.e.M e = ",
"= e m e.c.n.n.f.P 0 $ + 0 f d l K L U ~ X.,.w.Y * 1 s.c.t.>.>. .~ U O.>.>.w.c.6.1 * n >.+.K 8 - . @ ; ; o $ 0 I f.n.n.v.r.~ e = ",
"= e n ,.0.f.f.6.v q + + 0 f d f K U U U _ >.>.n * 1 5.c.w.>.>. .U U  .>.>.w.c.5.1 * n ,.>.n 4 & % - $ O . $ w v 7.f.f.r.,.n e = ",
"= 9 v ~ I P P v k w + + 0 f f l K L L U Y ) -.n * 1 5.c.w.>.>.O.~ Y O.>.>.w.c.4.1 * n >._ I x f h d e < O $ 0 h c P n L ~ v 9 = ",
"= 9 x v l f f f f q % + 0 f d k K U U L I Y o.n * 1 5.c.t.>.>.=.^ ^ =.>.>.t.c.9.1 * n =.~ L L U I v k w $ $ q f f f f z v z 9 = ",
"= 9 x L L v K z f q + + w d f f L U L U L ~ =.L * 1 9.c.0.>.>.>.=.=.>.>.>.w.v.4.1 * n -.~ U U L x f f 0 + + w f x v K K L x 9 = ",
"= 9 x U ( @.} ~ x w + % w f f f K I U I U ~ =.n * 1 <.h.1.-.>.>.,.>.>.>.>.8.g.$.< * n -.~ L L L f f f w + + 0 x Y @.} ) U x 9 = ",
"= 9 x ^ q.l.k.8.v q O $ 0 d d k K U I I U ~ =.m * * Y 3./ / O.>.>.>.>.>.>.,.@.v * * n -.^ U U L l f d 0 % @ q P 7.k.l.q.^ x 9 = ",
"= e x -.k.n.n.l.b 0 $ $ w f d l K I L L L ~ ..v * * v O.U U _ O.=.=.=.=.=._ ~ f % * b O.U U L L f d f 0 % $ q P l.n.n.k.;.v 9 = ",
"= w m 8.k.n.n.d.I 0 O $ 9 f d l L v z z L ~ ~ z & & z U U U Y ^ ~ Y ~ ~ ~ ~ U f % * z ~ U U U v l f d 0 $ O 9 I f.n.n.b.8.I e = ",
"= e M 1.g.x.k.0.L 0 $ $ 0 d d f v x f f x K K d % % t K K v v v K L v v v v n d $ $ d b L v v x f f f 0 $ + 0 v 0.b.h.h.8.U e = ",
"= e Y 1.1.w.0.@.v 0 O + 0 f f f l f t f f f l w $ O e l l f h h f f l h l h h w + $ r l f f f f d d f 9 $ $ q c O.0.w.1.,.M e = ",
"= e m 1.8.8.w.X.f < & = s l l l z x x x x x x f 2 2 f z x x z x x z x z x x x d 2 2 d c x x x x x x z e * & 2 h  .8.w.w.,.m e = ",
"= e M 1.g.x.x.<.r % 2 s x K K I ^ / { ^ { ^ / ^ m M ^ ` ) _ _ ^ { ^ _ _ _ _ _ ^ M M ~ _ _ _ ^ _ [ / I x i 2 % q <.c.k.g.8.m e = ",
"= e M t.x.n.n.9.1 O q h x K K K U /  .-.-.-.=.=.O.=.O.X.-.-.=.=.-.X.-.=.=.=.=.@.=.=...=...=.=...[ ~ L v h 0 O 1 5.n.n.b.t.m e = ",
"= e M t.c.n.n.5.1 O q f a a p a g S U ~ ^ ~ ~ ~ ~ U U ~ U ~ U ^ Y ~ U ~ U ~ U ~ ~ ~ ~ ~ ~ ~ ~ U v z l h f 9 + 1 9.n.n.b.w.m e = ",
"= e m w.g.x.c.%.1 O 2 j B A G H H F J L L I I U U U U I I U U L U U U L U U U U I U I U I I U L x f f f f 9 + 1 %.b.b.g.w.M e = ",
"= e M ,.w.w.w.M : O 5 N R i.S.K.P.N.F N K U U U U I U L U U U U L U U U U U I U U U I I U U L L L c f f f 0 + * M r.t.1.,.M e = ",
"= e M 1.1.w.,.n * O , Z Q Z.P.Y.Y.A.F 7 i l f l l f k f k f f k f l f f f f f f f l f l f l k l f f e 0 w 2 & 2 m 1.1.1.,.M e = ",
"= 9 M w.g.g.t.n * @ , Z Q N.Z.A.B.B.N 6 - - % - & & & & & & & & % & & & & & & % & % & & & & & - & % % + + & 2 f Y 8.g.h.1.M e = ",
"= e M w.b.b.t.m 2 % > p F E E R E R N 0 - + % O X o O + + + @ + + + + + % O O O X . O % + + + + % + + O X + w c ` r.b.c.r.M e = ",
"= e M r.b.b.e.^ f 2 % $ ; > > > - 3 y s w 0 0 < O O < 0 0 9 9 9 0 w 0 0 w 0 w < o O < 0 0 0 0 0 0 w w < O O 0 x { t.c.c.e.Y e = ",
"= e n ,.g.g.3.~ x 0 +   @ + + + % = d k l z l u O % u z z k k k k k l f l z l u % % e l l z l l f f f w O % 0 z Y 1.g.g.8.n 9 = ",
"= 9 v _ 3.3._ L l w + O < 0 0 e d k K L L L L d % % f L L L v L K K K K L L L f & & f L L L L x k d d 0 % O 0 z I +.,.1._ v 9 = ",
"= 9 x ~ _ _ ~ L l w + % e f f l L U U U U U U k & - f U U U U U U U U U U U U f - - f U ~ U U K z f f 0 % O 0 z b U _ / ~ x 9 = ",
"= 9 x U ~ ~ U K k 0 + % w f f x L U U U U U U k & & l U U U U U U U U U U U U f & & f U U U U L l f f 0 % O 0 z L U ~ ~ U x 9 = ",
"= 9 l v v L K z s < O O < w 0 e d f l f l k k w % O w l k f f k k f f f f z f u % % w z f l f d e 0 0 < O O < s x L K v v z 9 = ",
"= 2 d l f l l s < @ . X O + % % % & & & & & & % X X % - % & & & & & % & & & - & X X % & - & % % % % % % X X O = e l l l l s 9 = ",
"= 9 s d d d f 0 O     . .   . .             . X X X X             .         . X X X       X                   % 0 d d d d e 2 = "
};
