/* XPM */
static char *_8ddc22b08344037e5d7baed96d692f7PXYaSLkQOX8eWpeK[] = {
/* columns rows colors chars-per-pixel */
"64 64 117 2 ",
"   c #2A2B2C",
".  c #3C332C",
"X  c #2F3132",
"o  c #343535",
"O  c #383633",
"+  c #373939",
"@  c #3D3E3D",
"#  c #46392F",
"$  c #453B33",
"%  c #4E3F35",
"&  c #563F30",
"*  c #653E24",
"=  c #5F412D",
"-  c #4E4035",
";  c #4D433C",
":  c #594233",
">  c #694025",
",  c #60422D",
"<  c #6F4528",
"1  c #72472A",
"2  c #744829",
"3  c #7D4D2E",
"4  c #7D502F",
"5  c #634531",
"6  c #664834",
"7  c #694F3D",
"8  c #734D32",
"9  c #7C5537",
"0  c #70523B",
"q  c #7E5638",
"w  c #3F4141",
"e  c #464647",
"r  c #494543",
"t  c #4D4A47",
"y  c #474748",
"u  c #474848",
"i  c #4B4C4B",
"p  c #524942",
"a  c #5B4E44",
"s  c #594F48",
"d  c #5E5147",
"f  c #50504F",
"g  c #5C534C",
"h  c #4F5050",
"j  c #545454",
"k  c #595755",
"l  c #585857",
"z  c #575858",
"x  c #5A5A59",
"c  c #62544A",
"v  c #65584E",
"b  c #7F5D46",
"n  c #635A52",
"m  c #695C51",
"M  c #6E6157",
"N  c #60605F",
"B  c #716459",
"V  c #646462",
"C  c #696967",
"Z  c #81502F",
"A  c #855431",
"S  c #885633",
"D  c #8C5935",
"F  c #855C3E",
"G  c #8E5B38",
"H  c #915D37",
"J  c #925E38",
"K  c #95613A",
"L  c #986239",
"P  c #98633B",
"I  c #9A633A",
"U  c #99643B",
"Y  c #99643C",
"T  c #9A643C",
"R  c #9A653D",
"E  c #9E673F",
"W  c #865E40",
"Q  c #885F41",
"!  c #896142",
"~  c #8A6243",
"^  c #8B6344",
"/  c #84624A",
"(  c #9E6740",
")  c #9E6840",
"_  c #9F6940",
"`  c #916749",
"'  c #976A4B",
"]  c #986A4B",
"[  c #996B4B",
"{  c #9D6C4B",
"}  c #996B4C",
"|  c #9A6E4F",
" . c #A26A41",
".. c #A26A42",
"X. c #A26B42",
"o. c #A16A44",
"O. c #A76F47",
"+. c #A76F48",
"@. c #A3714F",
"#. c #AB724A",
"$. c #AC734D",
"%. c #B0764F",
"&. c #B2774F",
"*. c #A17253",
"=. c #B27850",
"-. c #B37850",
";. c #B37950",
":. c #B47950",
">. c #B47951",
",. c #B57A51",
"<. c #B67A52",
"1. c #B47B54",
"2. c #BB7E55",
"3. c #BD8057",
"4. c #BE8158",
"5. c #C08158",
"6. c #C08258",
/* pixels */
"l x C C C C C V x x x l x j t i N C x l x x l x l x l x x j i t j x V C C V x x l x l x C C C V x x x N C V x x x x x l x j i u ",
"x x V C V C C N x x l x l k i j x N N x x l x x x l x l l j i i l N N C C N x x z x x x V V V V n x j z x N N x x l l x x j u r ",
"V V x x x x x x x x x l l z k j f j N N x x x x l x l x x j u f x N N x N x x x x x x x x x N x x j i i f j N V x x x l l j i u ",
"C C n x x x x x x x x x x x z k i f x N N x x x x x x x x j i f V C N l x x x x x x x x x l x x z k h u r i x N N x x l k j i u ",
"C V N z z x x l l x l z x x x x z j f j N V x x x x x x x k u f N C N x x x x x x x x x x x x l x z z f u u i j N C x j i t u u ",
"C V x z x x l x x l x j f i i i i u r e j z j i i f i f f u w e j z f f i f i i i i i h f i u j z x x l f i u i x x x j t e e e ",
"C V N x z x z x l x x j w o o o o o o o o + o o o o o o o o X o o o o o o o o o + o o o o o o @ j x x l l j t u i h i i t u u e ",
"V V x x x x l x x x j t ; - - - % % % - - - % - - - - - - - - - - - - - - - - - - - - - - - % ; u i i f i i i i e e e e e e e u ",
"N x x l x x x x V x w ; b } } ' ' ' ' [ ' ' ' ' ' ' ' ' ' ' ' ' ' [ ' ' ' ' ' ' ' [ ' ' ' } } b ; o o o o @ i j i e e e e y y y ",
"l l x x l x x x V l $ : } 6.6.4.3.3.3.3.3.3.3.3.3.3.3.3.3.3.3.3.3.3.3.3.3.3.3.3.3.3.3.3.3.4.6.@.7 % % % & ; i e w r e e e y y y ",
"x l x l x l x x x g : 8 @.4.4.3.3.3.3.4.3.3.3.3.3.3.3.3.3.3.4.4.3.3.3.3.3.3.4.4.3.3.3.3.3.3.4.1.{ ' } } } b ; o X o w e e e r u ",
"l x l x l x l x x g 5 3 ..-.-.&.;.-.-.-.-.;.&.&.&.&.&.&.&.;.-.-.&.&.&.;.<.$.-.-.&.;.;.-.&.&.&.>.2.4.4.2.6.*.7 % % ; r e t u e u ",
"x l x l l x l x z g 5 3 J ......) ) ) ) ) ) ) ) ....) o...) o.) ..E ) X.) ) ) ) ..E ) X.) X...#.>.2.4.4.2.>.*.} ' / s e e e e e ",
"l x l x x l x x x g 5 2 D U U K Y K Y Y Y P P P I K I Y U K I P U U I K Y Y I U I U K U Y Y K ) #.&.&.&.>.>.2.6.4.*.c e e e e e ",
"x x x l l x z x x g 5 2 D U K Y Y I Y K Y Y U I Y K K Y I I Y Y K U U K Y K Y K K Y K K K U K Y ) ) ..( ..O.>.4.6.*.c e e e u e ",
"n x x x x l l x z g 5 2 D Y U K K G K K K K K K H H G K J K K J J J K K K K K K J J K K J J G K P P P I K ) $.-.>.| n i i i t e ",
"C V x x x x x z x g 5 2 D U U K A A D H D D H S A Z Z A D H D D S Z S H H H D S A A D D A Z Z S J P P P K Y ) ....` B x x j t y ",
"C V N x x z x x x g 5 1 D U U H Z Z A D D D D S 3 3 3 Z S S S Z 3 Z S S S D S S 3 3 S A 3 2 3 3 D J J P P P P K I ^ B x x j u u ",
"C V x x z k x z x g 5 2 D Y Y G Z 3 A S D D S S Z 3 A S S S Z 3 3 3 S S S D S S 3 Z A S Z 3 3 3 A A D G K I K I I ! M x h t u u ",
"C V x x x x x x l g 5 2 D Y E J Z Z S D S D S Z 3 Z S S D S Z 3 2 Z S S H S S A 3 Z S S Z 3 Z 2 2 3 S D J K I I I ! m j i e e u ",
"C V x x x l x x x g 5 2 D Y Y G Z 3 S D D S Z Z 3 3 A D D A 3 3 3 3 S S D S Z Z 3 3 A D S S Z 3 8 A A D D J K I I ! m j i e e e ",
"C C n x z x k x x g 5 2 D Y Y J Z Z S D S S Z 3 3 Z S S D A 3 3 3 Z S D S S Z 3 3 3 S D S S Z 3 3 3 S D A H K I I ! v h i e e e ",
"C V x x l x z x x g , 2 D Y Y J Z Z S S D S Z 2 2 Z S S D S Z 3 2 Z S S Z Z A Z 3 Z S S H S A A 3 Z S D D J J I P W g u u u e e ",
"V V x l x z x x x g 5 2 J Y I J Z Z S S S Z Z 3 3 Z S D S S 3 3 3 3 S S 3 Z S S Z Z S S S D S S Z 3 A S S S K Y P F s e e e u e ",
"N N x z z x k z x g 5 1 J U U J Z Z S S Z 3 3 3 3 3 A D D S Z 3 3 3 S S 3 Z S S Z 3 S D D D D S 3 3 A S A A J U I F a e e e u e ",
"x x x z x x x x x g 5 1 D Y Y H Z 3 Z Z 3 3 3 2 3 3 A A A A 3 2 3 3 A Z 3 3 Z Z 3 3 A A A A S A 3 3 A Z 3 A H U I F a e e e e u ",
"V V x x x l x z x g 5 2 D Y Y H Z 2 Z 3 8 3 2 3 2 3 3 3 8 3 3 3 2 3 3 3 3 8 3 3 3 2 2 9 3 3 3 8 3 3 3 3 2 Z H U Y F a e u e e u ",
"C V x x x z x x x g 5 2 D Y U K H D D S D D D D G D D S D D S D D G S D S D D G G D D D D D D D D D D D D G K U Y F a e e u e e ",
"C V x x x x z x x g 5 2 D U K ) #.$.$.$.$.$.$.$.$.$.$.$.$.$.$.$.$.$.$.$.$.$.$.$.$.$.$.$.$.$.$.$.$.$.$.$.$.+.Y I K F s w e u e u ",
"N N k j j j j j j s , 2 D U I ..$.>.-.-.-.<.-.-.>.>.>.>.;.;.>.>.>.>.-.>.>.>.-.>.-.-.>.>.-.>.>.>.-.-.>.>.>.$.o.U I W a e e e y e ",
"h i i y t i i t i t , 2 H U I Y ......X.X.) X.) o.o.o.X...........X...o.....o.o.X.X.o.) o.....X.o.o.o.o...) Y Y Y F a e e e y y ",
"i h h h h i f h h p , 2 D U U K K H K H K K K K H H K H J H H G G J J I J J J J H G K K K K J J J J J J J J K I Y F g i i i t r ",
"N N N N N N N N N g 5 2 D U U K H D D D D H H S A Z D S A Z Z Z A A D D J D H S Z A D H D D H S A Z D S A A J Y I Q v j j j u e ",
"C C C C C N C C C M 6 2 D U U U J Y I J H D S S Z Z S S Z 3 3 3 2 3 A D D S D S Z 3 S S S S S A Z 3 S S 3 Z J I Y ! m z x j i e ",
"C V N x x x x x x l 5 2 H U U E $.&.&.O.J S S S Z 3 S S S Z Z 2 3 3 S D D S S S 3 3 S S Z Z S S Z 3 S S 3 A H Y U ! m x x j i e ",
"C V x x x x l x l g 5 2 D U U E $.>.>.$.J S S S 3 Z S D D S Z Z 3 3 A D S D S S Z Z A A Z Z S A 3 Z A S A A J I U ! m x x j t e ",
"C V x x l x l x x g 5 2 D U U U ....X.Y J D S A 3 Z A S D S S A Z Z A D H S H S Z 3 S S 3 3 S A Z Z A S S D K Y Y ! n x x j i e ",
"C N x x x l x x x g 5 2 D I H D D D K K S S D S Z 3 S D D S H A Z Z S D S S S Z 3 Z A S A Z S S Z 3 S S S S J I Y ^ m x z h i e ",
"C V N x l x x x x g 5 2 D K 3 < 2 3 J J A A S S Z Z S S J S S S 3 3 A S S S Z Z 2 Z S S S S S S 3 3 S S A A J I U ^ B N j i e e ",
"C C x x x x l x x d 5 2 D D 2 , * 2 D J Z 3 A A Z Z S S S S D A Z Z S H S A Z 3 3 Z S D S S D A Z Z A S 3 Z H Y Y ^ M x i e e e ",
"C N x x x x x x x g 5 2 G G 2 > * 2 G H Z 4 S S 3 3 S D D D D S 3 Z A S S S 3 3 3 3 S S Z Z S S 3 3 A A 3 Z H U Y Q c t e y y y ",
"C V N x x x x x x g 5 2 D K 4 1 > 2 D K Z 4 Z Z 3 3 A A A A S A 3 3 Z S A A 3 3 2 3 A A 3 3 Z A 3 3 A A 3 A H U I F g e e y e y ",
"C V x x x x x x x g 5 2 D I H 4 < 2 G H Z 3 3 3 3 3 2 9 3 3 3 8 2 3 Z Z 9 3 2 3 2 3 3 3 3 3 3 8 3 3 3 3 2 A H U Y Q v j u y e u ",
"C N x x l l j j j g , 2 D U U H 8 Z G K D D D D S D D D D D D D D D S S D D D D G D D S S G D D D D D G S G K U I ! m k h t t e ",
"N x x x x z i i u p , 2 D Y Y K G G K E +.$.$.$.$.$.$.$.$.$.$.$.$.$.$.$.$.$.$.$.$.$.$.$.$.$.$.$.$.$.$.$.$.+.Y Y Y W m z j h i y ",
"j j j j j f i i u t , 2 D Y U I U U U ) $.>.>.>.-.>.>.>.-.-.-.>.>.>.>.>.>.>.>.>.>.>.>.>.>.>.-.1.-.-.>.-.>.$...K I ^ m x z k i e ",
"i i i i i i j j k s , 2 G U U U Y U U Y ) ..X.X.X.X.o.( ..( ....X.....X.......X.o.o.o.....) ..E o._ o.o.o.) Y I I ! m x z j i e ",
"i i i i i f j x x g 6 1 D U U K K H H H K H K J G J K K K K I J J J J J K J D J H H J J K K K K K J J K J J K P I ! n z z j i e ",
"f k j j j j z x x g 5 2 D U U K S Z Z A H S A Z Z Z D D H D D S A A D D D D Z Z Z Z D D G G G G A A A D Z S J I I ! m k x j t y ",
"x x x x x z k j x g 5 2 G Y U H A Z 3 3 A S 3 3 3 3 S D S D S S Z Z S S D A Z 2 3 Z S D S S S Z 3 3 S S Z Z H Y I ! m x z j i e ",
"C N x x x k f f j g = 2 G Y Y K D Z 3 Z S A 3 3 3 Z S S Z Z S S Z 3 S D D S Z 3 3 3 S S S S Z 3 3 3 A S 3 Z H I Y ^ m x z j i e ",
"C N x x x j i u h g 5 2 D Y Y J D Z Z Z S S Z 3 3 3 S A 3 3 A S Z 3 A D D S Z Z 3 Z S S S S Z 3 3 A S A Z Z H E Y F m x z j i e ",
"x N x x l k i u u p = 2 D U U K A Z A S S D S A 3 3 S A Z 3 S A Z 3 A S D S S A 3 3 S S A Z A A 3 3 S S 3 Z H Y Y W n z z j i e ",
"l x l x l j u e u ; = 2 D U U H Z 3 S D D S D S 3 3 S S Z Z S S Z 3 S S S S D S 3 Z S A 4 3 S S 3 4 A S Z A J Y Y ^ m x z j i e ",
"x l x l x j i e u ; = 2 J Y U H Z Z S D D D D A Z Z S S 3 Z S S Z Z S S Z Z S S Z Z A S 4 Z S S Z Z A D S D J Y Y ! m z z j i e ",
"l x l x l k i i i p = 1 D Y Y H Z Z Z Z S S S Z 3 3 Z Z 3 3 Z Z 3 Z Z A 3 Z Z Z 3 Z Z Z 3 3 Z Z 3 3 Z S A D J Y E ! m x j j i e ",
"l x l x x x j j z g 5 2 G P Y J Z 3 3 3 3 3 3 3 3 3 3 3 3 3 3 3 3 2 3 3 2 3 3 3 3 2 3 3 3 3 3 3 3 3 3 3 Z Z J I P Q m x k j t y ",
"x l x l x x x x z g 5 2 G I K K H D S D F D D D S F S D S F S D D S D D D D D S H D S G D S D D S G S D S H K Y P Q v k z k i e ",
"l x l x l x x x z g = 2 G U Y Y O.$.$.$.$.$.$.$.$.$.$.$.$.$.$.$.$.$.$.#.$.$.$.$.$.$.$.$.$.$.$.$.$.$.$.$.$.+.E I E F d i j j i e ",
"x l x l x l x x x g 6 2 D Y Y X.$.>.>.>.>.>.&.>.>.<.>.>.>.>.<.>.>.>.<.<.>.>.>.>.>.<.>.>.-.>.>.>.>.&.>.-.-.&.X.Y I F a i j j i e ",
"l x l x x x x x x g 6 2 D Y Y ) ....X.X.X.......X.....O.......o.........o._ o.o.X.X.X.X.X.X.X...o...........P Y P F s i z j i e ",
"j j j j j j h i f t = , 4 q 9 q 9 q q 9 9 q q q Z 9 q q 9 9 A 9 9 9 A 9 Z W 9 q 9 9 9 9 A 9 9 9 F 9 9 9 9 9 9 9 q 0 p e h h i e ",
"i i i i u e @ O O O . . # # # # # # # # # # # # # # # # # # # # $ # # # # # $ $ # # # # $ # # # # $ # # # # # # $ $ r e i i e e ",
"e e e e e ; X                                                                                                     o r y e e e e "
};
