/* XPM */
static char *_0679581a73b4b978d94e25c687747bdHTqQlwTT5YUcDolT[] = {
/* columns rows colors chars-per-pixel */
"64 64 256 2 ",
"   c black",
".  c #010101",
"X  c #020202",
"o  c gray1",
"O  c #040404",
"+  c gray2",
"@  c #060606",
"#  c #070707",
"$  c gray3",
"%  c #090909",
"&  c gray4",
"*  c #0B0B0B",
"=  c #0C0C0C",
"-  c gray5",
";  c #0E0E0E",
":  c gray6",
">  c #101010",
",  c #111111",
"<  c gray7",
"1  c #131313",
"2  c gray8",
"3  c #151515",
"4  c #161616",
"5  c gray9",
"6  c #181818",
"7  c #191919",
"8  c gray10",
"9  c #1B1B1B",
"0  c gray11",
"q  c #1D1D1D",
"w  c #1E1E1E",
"e  c gray12",
"r  c #202020",
"t  c gray13",
"y  c #222222",
"u  c #232323",
"i  c gray14",
"p  c #252525",
"a  c gray15",
"s  c #272727",
"d  c #282828",
"f  c gray16",
"g  c #2A2A2A",
"h  c gray17",
"j  c #2C2C2C",
"k  c #2D2D2D",
"l  c gray18",
"z  c #2F2F2F",
"x  c gray19",
"c  c #313131",
"v  c #323232",
"b  c gray20",
"n  c #343434",
"m  c #353535",
"M  c gray21",
"N  c #373737",
"B  c gray22",
"V  c #393939",
"C  c #3A3A3A",
"Z  c gray23",
"A  c #3C3C3C",
"S  c gray24",
"D  c #3E3E3E",
"F  c #3F3F3F",
"G  c gray25",
"H  c #414141",
"J  c gray26",
"K  c #434343",
"L  c #444444",
"P  c gray27",
"I  c #464646",
"U  c gray28",
"Y  c #484848",
"T  c #494949",
"R  c gray29",
"E  c #4B4B4B",
"W  c #4C4C4C",
"Q  c gray30",
"!  c #4E4E4E",
"~  c gray31",
"^  c #505050",
"/  c #515151",
"(  c gray32",
")  c #535353",
"_  c gray33",
"`  c #555555",
"'  c #565656",
"]  c gray34",
"[  c #585858",
"{  c gray35",
"}  c #5A5A5A",
"|  c #5B5B5B",
" . c gray36",
".. c #5D5D5D",
"X. c gray37",
"o. c #5F5F5F",
"O. c #606060",
"+. c gray38",
"@. c #626262",
"#. c gray39",
"$. c #646464",
"%. c #656565",
"&. c gray40",
"*. c #676767",
"=. c #686868",
"-. c DimGray",
";. c #6A6A6A",
":. c gray42",
">. c #6C6C6C",
",. c #6D6D6D",
"<. c gray43",
"1. c #6F6F6F",
"2. c gray44",
"3. c #717171",
"4. c #727272",
"5. c gray45",
"6. c #747474",
"7. c gray46",
"8. c #767676",
"9. c #777777",
"0. c gray47",
"q. c #797979",
"w. c gray48",
"e. c #7B7B7B",
"r. c #7C7C7C",
"t. c gray49",
"y. c #7E7E7E",
"u. c gray50",
"i. c #808080",
"p. c #818181",
"a. c gray51",
"s. c #838383",
"d. c #848484",
"f. c gray52",
"g. c #868686",
"h. c gray53",
"j. c #888888",
"k. c #898989",
"l. c gray54",
"z. c #8B8B8B",
"x. c gray55",
"c. c #8D8D8D",
"v. c #8E8E8E",
"b. c gray56",
"n. c #909090",
"m. c gray57",
"M. c #929292",
"N. c #939393",
"B. c gray58",
"V. c #959595",
"C. c gray59",
"Z. c #979797",
"A. c #989898",
"S. c gray60",
"D. c #9A9A9A",
"F. c #9B9B9B",
"G. c gray61",
"H. c #9D9D9D",
"J. c gray62",
"K. c #9F9F9F",
"L. c #A0A0A0",
"P. c gray63",
"I. c #A2A2A2",
"U. c gray64",
"Y. c #A4A4A4",
"T. c #A5A5A5",
"R. c gray65",
"E. c #A7A7A7",
"W. c gray66",
"Q. c #A9A9A9",
"!. c #AAAAAA",
"~. c gray67",
"^. c #ACACAC",
"/. c gray68",
"(. c #AEAEAE",
"). c #AFAFAF",
"_. c gray69",
"`. c #B1B1B1",
"'. c #B2B2B2",
"]. c gray70",
"[. c #B4B4B4",
"{. c gray71",
"}. c #B6B6B6",
"|. c #B7B7B7",
" X c gray72",
".X c #B9B9B9",
"XX c gray73",
"oX c #BBBBBB",
"OX c #BCBCBC",
"+X c gray74",
"@X c gray",
"#X c gray75",
"$X c #C0C0C0",
"%X c #C1C1C1",
"&X c gray76",
"*X c #C3C3C3",
"=X c gray77",
"-X c #C5C5C5",
";X c #C6C6C6",
":X c gray78",
">X c #C8C8C8",
",X c gray79",
"<X c #CACACA",
"1X c #CBCBCB",
"2X c gray80",
"3X c #CDCDCD",
"4X c #CECECE",
"5X c gray81",
"6X c #D0D0D0",
"7X c gray82",
"8X c #D2D2D2",
"9X c LightGray",
"0X c gray83",
"qX c #D5D5D5",
"wX c gray84",
"eX c #D7D7D7",
"rX c #D8D8D8",
"tX c gray85",
"yX c #DADADA",
"uX c gray86",
"iX c gainsboro",
"pX c #DDDDDD",
"aX c gray87",
"sX c #DFDFDF",
"dX c gray88",
"fX c #E1E1E1",
"gX c #E2E2E2",
"hX c gray89",
"jX c #E4E4E4",
"kX c gray90",
"lX c #E6E6E6",
"zX c #E7E7E7",
"xX c gray91",
"cX c #E9E9E9",
"vX c #EAEAEA",
"bX c gray92",
"nX c #ECECEC",
"mX c gray93",
"MX c #EEEEEE",
"NX c #EFEFEF",
"BX c gray94",
"VX c #F1F1F1",
"CX c gray95",
"ZX c #F3F3F3",
"AX c #F4F4F4",
"SX c gray96",
"DX c #F6F6F6",
"FX c gray97",
"GX c #F8F8F8",
"HX c #F9F9F9",
"JX c gray98",
"KX c #FBFBFB",
"LX c gray99",
"PX c #FDFDFD",
"IX c #FEFEFE",
"UX c white",
/* pixels */
"UXUXUXUXUXUXUXUXUXUXUXUXUXUXIXPXJXUXUX1XO.N ( 1.u.z.x.c.j.e.&.} } [ ) Y B z z z z z z z z z z z z z z z z z z z z z z z z z z z ",
"UXUXUXUXUXUXUXUXUXUXUXUXUXUXIXIXLXLXUX3XX.M ` >.p.j.d.g.j.y.*.{ } [ ) Y B z z z z z z z z z z z z z z z z z z z z z z z z z z z ",
"UXUXUXUXUXUXUXUXUXUXUXUXUXUXUXIXPXUXUX2XX.n ` 5.d.h.r.t.f.y.&.[ } [ ) Y B z z z z z z z z z z z z z z z z z z z z z z z z z z z ",
"UXUXUXUXUXUXUXUXUXUXUXUXUXUXUXUXIXUXLX,XX.m ( <.s.h.w.e.f.u.*.{ } [ ) Y B z z z z z z z z z z z z z z z z z z z z z z z z z z z ",
"UXUXUXUXUXUXUXUXUXUXUXUXUXUXUXUXUXUXUX1X} v _ 3.p.z.d.d.l.u.&.{ } [ ) Y B z z z z z z z z z z z z z z z z z z z z z z z z z z z ",
"UXUXUXUXUXUXUXUXUXUXUXUXUXUXUXUXPXPXUXuXk...' O.6.a.i.i.i.8.#.} } [ ) Y B z z z z z z z z z z z z z z z z z z z z z z z z z z z ",
"UXUXUXUXUXUXUXUXUXUXUXUXUXUXUXUXUXUXIXSXiXW.X.L O.1.1.1.<.-.o. .} [ ) Y B z z z z z z z z z z z z z z z z z z z z z z z z z z z ",
"UXUXUXUXUXUXUXUXUXUXUXUXUXUXUXUXPXUXUXAXsX~.| U O.<.<.:.=.%...} } [ ) Y B z z z z z z z z z z z z z z z z z z z z z z z z z z z ",
"UXUXUXUXUXUXUXUXUXUXUXUXUXUXUXUXPXUXUXuXl...[ O.8.i.p.e.2.*. .{ { [ ) Y B l z z z z z z z z z z z z z z z z z z z z z z z z z z ",
"UXUXUXUXUXUXUXUXUXUXUXUXUXUXUXUXLXUXUX<XO.M ^ 1.a.z.z.f.e.2.o.[ { [ ) Y B l z z z z z z z z z z z z z z z z z z z z z z z z z z ",
"UXUXUXUXUXUXUXUXUXUXUXUXUXUXUXUXUXUXUX<X} v ( 2.a.z.z.k.f.q.$.{ { [ ) Y B l z z z z z z z z z z z z z z z z z z z z z z z z z z ",
"UXUXUXUXUXUXUXUXUXUXUXUXUXUXUXUXIXPXUX3Xo.N _ <.a.z.z.z.z.u.*.{ { [ ) Y B l z z z z z z z z z z z z z z z z z z z z z z z z z z ",
"UXUXUXUXUXUXUXUXUXUXUXUXUXUXUXUXIXUXUX1XX.m ( 2.d.c.z.x.c.p.*.{ { [ ) Y B l z z z z z z z z z z z z z z z z z z z z z z z z z z ",
"UXUXUXUXUXUXUXUXUXUXUXUXUXUXUXUXUXUXUX2X@.V ( <.a.x.l.z.z.i.&.} { [ ) Y B l z z z z z z z z z z z z z z z z z z z z z z z z z z ",
"UXUXUXUXUXUXUXUXUXUXUXUXUXUXUXUXPXIXIX<XX.M ( <.s.v.x.z.z.y.$.{ { [ ) Y B l z z z z z z z z z z z z z z z z z z z z z z z z z z ",
"UXUXUXUXUXUXUXUXUXUXUXUXUXUXUXUXUXIXUX2XX.M _ <.u.z.l.l.l.y.$.} { [ ) Y B l z z z z z z z z z z z z z z z z z z z z z z z z z z ",
"UXUXUXUXUXUXUXUXUXUXUXUXUXUXUXUXLXUXUX1XO.M ( 2.u.k.x.z.k.r.#. .} [ ) Y B z z z z z z z z z z z z z z z z z z z z z z z z z z z ",
"UXUXUXUXUXUXUXUXUXUXUXUXUXUXUXUXUXPXLX1X..M ' ,.i.j.z.z.z.u.#.{ } [ ) Y B z z z z z z z z z z z z z z z z z z z z z z z z z z z ",
"UXUXUXUXUXUXUXUXUXUXUXUXUXUXUXUXLXUXUX3Xo.n ` 5.f.x.z.x.c.p.$.] } [ ) Y B z z z z z z z z z z z z z z z z z z z z z z z z z z z ",
"UXUXUXUXUXUXUXUXUXUXUXUXUXUXUXUXUXUXPX>X .b ) 3.d.z.k.l.x.p.%.] } [ ) Y B z z z z z z z z z z z z z z z z z z z z z z z z z z z ",
"UXUXUXUXUXUXUXUXUXUXUXUXUXUXUXUXUXIXUX3X..m _ <.s.c.l.z.x.i.&.{ } [ ) Y B z z z z z z z z z z z z z z z z z z z z z z z z z z z ",
"UXUXUXUXUXUXUXUXUXUXUXUXUXUXUXUXIXPXIXtXk.X.] +.8.a.u.y.y.8.$.| } [ ) Y B z z z z z z z z z z z z z z z z z z z z z z z z z z z ",
"UXUXUXUXUXUXUXUXUXUXUXUXUXUXUXUXUXUXUXFXiXW...J X.,.>.:.,.-.o.| } [ ) Y B z z z z z z z z z z z z z z z z z z z z z z z z z z z ",
"UXUXUXUXUXUXUXUXUXUXUXUXUXUXUXUXIXUXUXAXsX^.| P ..1.1.<.<.=.X.} } [ ) Y B z z z z z z z z z z z z z z z z z z z z z z z z z z z ",
"UXUXUXUXUXUXUXUXUXUXUXUXUXUXUXUXUXUXIXuXl. .] X.9.a.p.a.a.9.+.{ } [ ) Y B z z z z z z z z z z z z z z z z z z z z z z z z z z z ",
"UXUXUXUXUXUXUXUXUXUXUXUXUXUXUXUXPXUXIX,XO.N ^ <.p.x.x.l.f.0.#.} } [ ) Y B z z z z z z z z z z z z z z z z z z z z z z z z z z z ",
"UXUXUXUXUXUXUXUXUXUXUXUXUXUXUXUXUXUXUX1X .m ) <.a.z.x.j.t.2.o.[ } [ ) Y B z z z z z z z z z z z z z z z z z z z z z z z z z z z ",
"UXUXUXUXUXUXUXUXUXUXUXUXUXUXUXUXUXPXUX4X+.V ` >.i.k.k.a.6.-...} } [ ) Y B z z z z z z z z z z z z z z z z z z z z z z z z z z z ",
"UXUXUXUXUXUXUXUXUXUXUXUXUXUXUXUXIXUXUX1XX.m ( 1.a.z.z.s.7.-.X. .} [ ) Y B z z z z z z z z z z z z z z z z z z z z z z z z z z z ",
"UXUXUXUXUXUXUXUXUXUXUXUXUXUXUXUXUXUXUX2X@.V ) 1.a.z.z.f.e.1.O.} } [ ) Y B z z z z z z z z z z z z z z z z z z z z z z z z z z z ",
"UXUXUXUXUXUXUXUXUXUXUXUXUXUXUXUXPXUXUX1Xo.M ) 2.p.z.l.k.f.q.#.} } [ ) Y B z z z z z z z z z z z z z z z z z z z z z z z z z z z ",
"UXUXUXUXUXUXUXUXUXUXUXUXUXUXUXUXUXUXUX2XX.M _ 1.a.z.l.z.z.u.%.{ } [ ) Y B z z z z z z z z z z z z z z z z z z z z z z z z z z z ",
"UXUXUXUXUXUXUXUXUXUXUXUXUXUXUXUXIXUXUX2Xo.M ( 1.u.k.j.z.z.u.=.} } { ) Y B l z z z z z z z z z z z z z z z z z z z z z z z z z z ",
"UXUXUXUXUXUXUXUXUXUXUXUXUXUXUXUXUXPXIX2X .n ' 2.u.h.p.d.k.u.*.[ } [ ) Y B l z z z z z z z z z z z z z z z z z z z z z z z z z z ",
"UXUXUXUXUXUXUXUXUXUXUXUXUXUXUXUXUXUXUX4X#.B _ 1.g.j.w.w.d.u.*.{ { [ ) Y B l z z z z z z z z z z z z z z z z z z z z z z z z z z ",
"UXUXUXUXUXUXUXUXUXUXUXUXUXUXUXUXPXUXPX,XO.m ( 3.d.j.w.w.f.y.&.[ { [ ( Y B l z z z z z z z z z z z z z z z z z z z z z z z z z z ",
"UXUXUXUXUXUXUXUXUXUXUXUXUXUXUXUXUXUXUX<X .n / <.a.c.g.g.x.i.%.] { [ ( Y B l z z z z z z z z z z z z z z z z z z z z z z z z z z ",
"UXUXUXUXUXUXUXUXUXUXUXUXUXUXUXUXIXUXUXtXg.{ _ @.7.s.i.i.a.9.@.{ { [ ) Y B l z z z z z z z z z z z z z z z z z z z z z z z z z z ",
"UXUXUXUXUXUXUXUXUXUXUXUXUXUXUXUXUXPXLXDXaX^.O.K O.,.>.:.,.;.X.} } [ ) Y B l z z z z z z z z z z z z z z z z z z z z z z z z z z ",
"UXUXUXUXUXUXUXUXUXUXUXUXUXUXUXUXUXUXUXSXaX~. .I O.,.>.>.>.-.X.{ } { ) Y B l z z z z z z z z z z z z z z z z z z z z z z z z z z ",
"UXUXUXUXUXUXUXUXUXUXUXUXUXUXUXUXUXUXIXtXj.| { @.9.p.u.i.p.0.@.[ } [ ) Y B z z z z z z z z z z z z z z z z z z z z z z z z z z z ",
"UXUXUXUXUXUXUXUXUXUXUXUXUXUXUXUXPXUXIX,Xo.m / 3.i.l.k.l.z.u.&.} } [ ) Y B z z z z z z z z z z z z z z z z z z z z z z z z z z z ",
"UXUXUXUXUXUXUXUXUXUXUXUXUXUXUXUXUXUXUX1X| n _ 2.p.z.z.x.x.i.%.[ } [ ) Y B z z z z z z z z z z z z z z z z z z z z z z z z z z z ",
"UXUXUXUXUXUXUXUXUXUXUXUXUXUXUXUXIXLXUX3XO.B _ >.i.l.l.l.z.u.%.{ } [ ) Y B z z z z z z z z z z z z z z z z z z z z z z z z z z z ",
"UXUXUXUXUXUXUXUXUXUXUXUXUXUXUXUXUXUXUX1Xo.M ) 1.a.x.z.z.l.y.&.} } [ ) Y B z z z z z z z z z z z z z z z z z z z z z z z z z z z ",
"UXUXUXUXUXUXUXUXUXUXUXUXUXUXUXUXUXUXPX,XO.N ^ :.a.x.z.z.z.u.%.{ } ] ) Y B z z z z z z z z z z z z z z z z z z z z z z z z z z z ",
"UXUXUXUXUXUXUXUXUXUXUXUXUXUXUXUXUXUXUX2XO.B ) 2.a.z.l.x.c.p.&.{ { ] ) Y B z z z z z z z z z z z z z z z z z z z z z z z z z z z ",
"UXUXUXUXUXUXUXUXUXUXUXUXUXUXUXUXIXIXUX3Xo.N _ <.s.z.k.l.x.i.%.] { ] ) Y B z z z z z z z z z z z z z z z z z z z z z z z z z z z ",
"UXUXUXUXUXUXUXUXUXUXUXUXUXUXUXUXPXUXUX<XO.B ) 1.a.z.z.z.x.i.$.[ { ] ) Y B z z z z z z z z z z z z z z z z z z z z z z z z z z z ",
"UXUXUXUXUXUXUXUXUXUXUXUXUXUXUXUXJXLXUX4XX.m ` <.u.l.z.z.z.y.$.[ { ] ) Y B z z z z z z z z z z z z z z z z z z z z z z z z z z z ",
"UXUXUXUXUXUXUXUXUXUXUXUXUXUXUXUXUXUXUX2XO.M _ <.a.c.x.x.z.u.%.{ } ] ) Y B z z z z z z z z z z z z z z z z z z z z z z z z z z z ",
"UXUXUXUXUXUXUXUXUXUXUXUXUXUXUXUXPXUXPX<XO.m ( >.a.x.k.l.z.i.*.[ } [ ) Y B z z z z z z z z z z z z z z z z z z z z z z z z z z z ",
"UXUXUXUXUXUXUXUXUXUXUXUXUXUXUXUXUXIXUX2X| n _ 2.s.c.l.z.x.u.*.[ } [ ) Y B z z z z z z z z z z z z z z z z z z z z z z z z z z z ",
"UXUXUXUXUXUXUXUXUXUXUXUXUXUXUXUXUXPXIXyXx.O.' ..8.s.u.u.u.8.%.} } [ ) Y B z z z z z z z z z z z z z z z z z z z z z z z z z z z ",
"UXUXUXUXUXUXUXUXUXUXUXUXUXUXUXUXUXUXUXDXiXW.X.P o.1.>.<.1.;.O.| } [ ) Y B z z z z z z z z z z z z z z z z z z z z z z z z z z z ",
"UXUXUXUXUXUXUXUXUXUXUXUXUXUXUXUXIXUXUXSXsX~.{ K X.1.,.1.2.-.o.[ } [ ) Y B z z z z z z z z z z z z z z z z z z z z z z z z z z z ",
"UXUXUXUXUXUXUXUXUXUXUXUXUXUXUXUXUXIXUXtXj.| [ o.9.u.p.p.f.w.@.] { [ ( Y B l z z z z z z z z z z z z z z z z z z z z z z z z z z ",
"UXUXUXUXUXUXUXUXUXUXUXUXUXUXUXUXIXUXUX,X+.M ( ,.t.s.d.f.z.u.%.[ { [ ) Y B l z z z z z z z z z z z z z z z z z z z z z z z z z z ",
"UXUXUXUXUXUXUXUXUXUXUXUXUXUXUXUXUXUXIX,X .v ) -.3.7.9.r.g.y.%.{ } [ ) Y B l z z z z z z z z z z z z z z z z z z z z z z z z z z ",
"UXUXUXUXUXUXUXUXUXUXUXUXUXUXUXUXIXIXUX4X@.N ' %.>.,.,.7.s.t.%.} } { ) Y B l z z z z z z z z z z z z z z z z z z z z z z z z z z ",
"UXUXUXUXUXUXUXUXUXUXUXUXUXUXUXUXPXUXUX1XO.m ` -.<.1.1.8.d.y.&.} } { ) Y B l z z z z z z z z z z z z z z z z z z z z z z z z z z ",
"UXUXUXUXUXUXUXUXUXUXUXUXUXUXUXUXPXUXIX1X#.B ` :.3.7.8.e.h.u.&.{ } [ ) Y B l z z z z z z z z z z z z z z z z z z z z z z z z z z ",
"UXUXUXUXUXUXUXUXUXUXUXUXUXUXUXUXIXIXUX<Xo.M _ <.y.s.d.g.x.p.%.[ { [ ) Y B l z z z z z z z z z z z z z z z z z z z z z z z z z z ",
"UXUXUXUXUXUXUXUXUXUXUXUXUXUXUXUXUXPXUX<X..m ) <.a.k.l.l.c.i.%.] { [ ( Y B l z z z z z z z z z z z z z z z z z z z z z z z z z z "
};
