/* XPM */
static char *_11acfb8132e4e82ecbc3b9248af4075zFLiQPjpmjVzcQHU[] = {
/* columns rows colors chars-per-pixel */
"64 64 256 2 ",
"   c black",
".  c #010101",
"X  c #020202",
"o  c gray1",
"O  c #040404",
"+  c gray2",
"@  c #060606",
"#  c #070707",
"$  c gray3",
"%  c #090909",
"&  c gray4",
"*  c #0B0B0B",
"=  c #0C0C0C",
"-  c gray5",
";  c #0E0E0E",
":  c gray6",
">  c #101010",
",  c #111111",
"<  c gray7",
"1  c #131313",
"2  c gray8",
"3  c #151515",
"4  c #161616",
"5  c gray9",
"6  c #181818",
"7  c #191919",
"8  c gray10",
"9  c #1B1B1B",
"0  c gray11",
"q  c #1D1D1D",
"w  c #1E1E1E",
"e  c gray12",
"r  c #202020",
"t  c gray13",
"y  c #222222",
"u  c #232323",
"i  c gray14",
"p  c #252525",
"a  c gray15",
"s  c #272727",
"d  c #282828",
"f  c gray16",
"g  c #2A2A2A",
"h  c gray17",
"j  c #2C2C2C",
"k  c #2D2D2D",
"l  c gray18",
"z  c #2F2F2F",
"x  c gray19",
"c  c #313131",
"v  c #323232",
"b  c gray20",
"n  c #343434",
"m  c #353535",
"M  c gray21",
"N  c #373737",
"B  c gray22",
"V  c #393939",
"C  c #3A3A3A",
"Z  c gray23",
"A  c #3C3C3C",
"S  c gray24",
"D  c #3E3E3E",
"F  c #3F3F3F",
"G  c gray25",
"H  c #414141",
"J  c gray26",
"K  c #434343",
"L  c #444444",
"P  c gray27",
"I  c #464646",
"U  c gray28",
"Y  c #484848",
"T  c #494949",
"R  c gray29",
"E  c #4B4B4B",
"W  c #4C4C4C",
"Q  c gray30",
"!  c #4E4E4E",
"~  c gray31",
"^  c #505050",
"/  c #515151",
"(  c gray32",
")  c #535353",
"_  c gray33",
"`  c #555555",
"'  c #565656",
"]  c gray34",
"[  c #585858",
"{  c gray35",
"}  c #5A5A5A",
"|  c #5B5B5B",
" . c gray36",
".. c #5D5D5D",
"X. c gray37",
"o. c #5F5F5F",
"O. c #606060",
"+. c gray38",
"@. c #626262",
"#. c gray39",
"$. c #646464",
"%. c #656565",
"&. c gray40",
"*. c #676767",
"=. c #686868",
"-. c DimGray",
";. c #6A6A6A",
":. c gray42",
">. c #6C6C6C",
",. c #6D6D6D",
"<. c gray43",
"1. c #6F6F6F",
"2. c gray44",
"3. c #717171",
"4. c #727272",
"5. c gray45",
"6. c #747474",
"7. c gray46",
"8. c #767676",
"9. c #777777",
"0. c gray47",
"q. c #797979",
"w. c gray48",
"e. c #7B7B7B",
"r. c #7C7C7C",
"t. c gray49",
"y. c #7E7E7E",
"u. c gray50",
"i. c #808080",
"p. c #818181",
"a. c gray51",
"s. c #838383",
"d. c #848484",
"f. c gray52",
"g. c #868686",
"h. c gray53",
"j. c #888888",
"k. c #898989",
"l. c gray54",
"z. c #8B8B8B",
"x. c gray55",
"c. c #8D8D8D",
"v. c #8E8E8E",
"b. c gray56",
"n. c #909090",
"m. c gray57",
"M. c #929292",
"N. c #939393",
"B. c gray58",
"V. c #959595",
"C. c gray59",
"Z. c #979797",
"A. c #989898",
"S. c gray60",
"D. c #9A9A9A",
"F. c #9B9B9B",
"G. c gray61",
"H. c #9D9D9D",
"J. c gray62",
"K. c #9F9F9F",
"L. c #A0A0A0",
"P. c gray63",
"I. c #A2A2A2",
"U. c gray64",
"Y. c #A4A4A4",
"T. c #A5A5A5",
"R. c gray65",
"E. c #A7A7A7",
"W. c gray66",
"Q. c #A9A9A9",
"!. c #AAAAAA",
"~. c gray67",
"^. c #ACACAC",
"/. c gray68",
"(. c #AEAEAE",
"). c #AFAFAF",
"_. c gray69",
"`. c #B1B1B1",
"'. c #B2B2B2",
"]. c gray70",
"[. c #B4B4B4",
"{. c gray71",
"}. c #B6B6B6",
"|. c #B7B7B7",
" X c gray72",
".X c #B9B9B9",
"XX c gray73",
"oX c #BBBBBB",
"OX c #BCBCBC",
"+X c gray74",
"@X c gray",
"#X c gray75",
"$X c #C0C0C0",
"%X c #C1C1C1",
"&X c gray76",
"*X c #C3C3C3",
"=X c gray77",
"-X c #C5C5C5",
";X c #C6C6C6",
":X c gray78",
">X c #C8C8C8",
",X c gray79",
"<X c #CACACA",
"1X c #CBCBCB",
"2X c gray80",
"3X c #CDCDCD",
"4X c #CECECE",
"5X c gray81",
"6X c #D0D0D0",
"7X c gray82",
"8X c #D2D2D2",
"9X c LightGray",
"0X c gray83",
"qX c #D5D5D5",
"wX c gray84",
"eX c #D7D7D7",
"rX c #D8D8D8",
"tX c gray85",
"yX c #DADADA",
"uX c gray86",
"iX c gainsboro",
"pX c #DDDDDD",
"aX c gray87",
"sX c #DFDFDF",
"dX c gray88",
"fX c #E1E1E1",
"gX c #E2E2E2",
"hX c gray89",
"jX c #E4E4E4",
"kX c gray90",
"lX c #E6E6E6",
"zX c #E7E7E7",
"xX c gray91",
"cX c #E9E9E9",
"vX c #EAEAEA",
"bX c gray92",
"nX c #ECECEC",
"mX c gray93",
"MX c #EEEEEE",
"NX c #EFEFEF",
"BX c gray94",
"VX c #F1F1F1",
"CX c gray95",
"ZX c #F3F3F3",
"AX c #F4F4F4",
"SX c gray96",
"DX c #F6F6F6",
"FX c gray97",
"GX c #F8F8F8",
"HX c #F9F9F9",
"JX c gray98",
"KX c #FBFBFB",
"LX c gray99",
"PX c #FDFDFD",
"IX c #FEFEFE",
"UX c white",
/* pixels */
"UXUXUXUXUXUXUXUXUXUXUXUXUXUXUXUXIXPXUX2Xo.N _ <.u.k.k.l.l.u.*.} { [ _ Y N l z x l l z z z z z z z z z z z z z z z z z z z z z z ",
"UXUXUXUXUXUXUXUXUXUXUXUXUXUXUXUXIXUXUX1XO.N ) 2.i.j.f.f.h.y.*. .{ [ _ Y N l z x l l z z z z z z z z z z z z z z z z z z z z z z ",
"UXUXUXUXUXUXUXUXUXUXUXUXUXUXUXUXUXUXIX<X+.B ( <.d.g.w.q.a.t.%.{ { [ _ Y N l z x l l z z z z z z z z z z z z z z z z z z z z z z ",
"UXUXUXUXUXUXUXUXUXUXUXUXUXUXUXUXIXUXUX1X..m ( 2.f.h.w.q.f.i.%.[ { [ _ Y N l z x l l z z z z z z z z z z z z z z z z z z z z z z ",
"UXUXUXUXUXUXUXUXUXUXUXUXUXUXUXUXUXIXUX4XO.B ` 1.p.l.f.f.x.p.%.{ { [ _ Y N l z x l l z z z z z z z z z z z z z z z z z z z z z z ",
"UXUXUXUXUXUXUXUXUXUXUXUXUXUXUXUXUXUXUX<X} v ( 2.s.v.z.x.b.a.%.{ { [ _ Y N l z x l l z z z z z z z z z z z z z z z z z z z z z z ",
"UXUXUXUXUXUXUXUXUXUXUXUXUXUXUXUXIXUXUX,Xo.M / 3.d.x.k.k.l.u.&.} { [ _ Y N l z x l l z z z z z z z z z z z z z z z z z z z z z z ",
"UXUXUXUXUXUXUXUXUXUXUXUXUXUXUXUXUXUXPXrXh.| { @.9.p.p.p.p.0.#.{ { [ _ Y N l z x l l z z z z z z z z z z z z z z z z z z z z z z ",
"UXUXUXUXUXUXUXUXUXUXUXUXUXUXUXUXIXUXUXAXdX/.| P ..>.1.,.>.*. .| } [ ` Y N l z x l l z z z z z z z z z z z z z z z z z z z z z z ",
"UXUXUXUXUXUXUXUXUXUXUXUXUXUXUXUXUXUXIXFXsX^.X.G  .:.1.1.1.-. .} } [ ` T N l z x l l z z z z z z z z z z z z z z z z z z z z z z ",
"UXUXUXUXUXUXUXUXUXUXUXUXUXUXUXUXPXIXUXtXf.} ' #.6.p.a.p.i.8.+.{ { [ _ Y N l z x l l z z z z z z z z z z z z z z z z z z z z z z ",
"UXUXUXUXUXUXUXUXUXUXUXUXUXUXUXUXUXIXUX1X} b ) <.d.c.z.x.v.p.&.] { [ _ Y N l z x l l z z z z z z z z z z z z z z z z z z z z z z ",
"UXUXUXUXUXUXUXUXUXUXUXUXUXUXUXUXPXUXPX,X..n _ 3.f.x.k.z.b.s.*.] { [ _ Y N l z x l l z z z z z z z z z z z z z z z z z z z z z z ",
"UXUXUXUXUXUXUXUXUXUXUXUXUXUXUXUXIXUXUX3X@.B ` 2.g.v.z.z.x.p.*.} } [ ` T N z z c l l z z z z z z z z z z z z z z z z z z z z z z ",
"UXUXUXUXUXUXUXUXUXUXUXUXUXUXUXUXUXUXIX1X| b _ <.a.l.j.k.l.y.&.| } [ _ Y N l z c l l z z z z z z z z z z z z z z z z z z z z z z ",
"UXUXUXUXUXUXUXUXUXUXUXUXUXUXUXUXIXUXUX1XO.N ( 1.a.l.j.l.z.i.&.} } [ _ Y M l l x l l z z z z z z z z z z z z z z z z z z z z z z ",
"UXUXUXUXUXUXUXUXUXUXUXUXUXUXUXUXUXIXUX3Xo.M ( ,.p.z.k.l.z.u.&.{ } [ _ U m k z x z z x x k k z z z z z z z z z z z z z z z z z z ",
"UXUXUXUXUXUXUXUXUXUXUXUXUXUXUXUXPXIXUX3X+.N ( <.a.z.l.l.x.i.&.{ } [ _ Y m k z z l z x x l l x x z z z z z z z z z z z z z z z z ",
"UXUXUXUXUXUXUXUXUXUXUXUXUXUXUXUXUXUXPX,XO.B ( 1.s.x.z.l.k.t.%.{ } [ ' T M k z x l l x z l l x c l l l l l l l l l l l l l l l l ",
"UXUXUXUXUXUXUXUXUXUXUXUXUXUXUXUXPXUXUX4X+.N ) 2.a.c.x.z.j.r.&. .} { ] R M k x c z z z z l l x x l l l l l l l l l l l l l l l l ",
"UXUXUXUXUXUXUXUXUXUXUXUXUXUXUXUXUXPXIX1X..M _ 1.u.z.z.z.k.t.&. .} { ] T M k x v c x x z l l z z x x x x x x x x x x x x x x x x ",
"UXUXUXUXUXUXUXUXUXUXUXUXUXUXUXUXUXUXUX3X..n ) 1.a.x.z.x.c.p.&.{ } { ' Y m k x v v x x x z z z l x x x x x x x x x x x x x x x x ",
"UXUXUXUXUXUXUXUXUXUXUXUXUXUXUXUXPXUXPX>XX.n ~ 1.a.z.l.l.x.i.&.{ { [ ` Y n j l x c z z x z z x l z z z z z z z z z z z z z z z z ",
"UXUXUXUXUXUXUXUXUXUXUXUXUXUXUXUXIXUXUXiXz...[ O.0.a.i.p.a.0.@.[ [ ] ` Y n j l z z l l z z x x z z z z z z z z z z z z z z z z z ",
"UXUXUXUXUXUXUXUXUXUXUXUXUXUXUXUXPXUXUXAXdX^.{ J O.2.<.<.>.*.O.{ { { ) T B k z z l j j k z z z z z z z z z z z z z z z z z z z z ",
"UXUXUXUXUXUXUXUXUXUXUXUXUXUXUXUXPXUXUXFXaX!.o.L o.<.<.<.,.*.X.{ { { _ T B l x z z k k k l l l l z z x x x z z z z z z z z z z z ",
"UXUXUXUXUXUXUXUXUXUXUXUXUXUXUXUXUXIXLXeXj...`  .7.s.d.s.a.9.@.} } { _ Y B z x z l l z x x x z x l z z z l l z z z z z z z z z z ",
"UXUXUXUXUXUXUXUXUXUXUXUXUXUXUXUXUXUXUX3X| b ) <.i.z.x.c.v.p.#.' { [ ) U M l l k j k z x x z l l z l l l k l l z l l l l l l l l ",
"UXUXUXUXUXUXUXUXUXUXUXUXUXUXUXUXUXUXKX:X..n ) 2.a.l.l.z.c.a.%.] { ' ( I N z l l k l z x z k k k l z z z z z z z z z z z z z z z ",
"UXUXUXUXUXUXUXUXUXUXUXUXUXUXUXUXIXUXUX2XO.M ) <.p.l.l.z.l.a.<.@.o.} ' ! J A C Z Z Z Z Z Z Z Z A Z A A S S A Z Z A A A A A A A A ",
"UXUXUXUXUXUXUXUXUXUXUXUXUXUXUXUXIXIXUX4XX.m ' 2.p.z.z.c.z.k.a.0.=.+.O...[ ] ' [ ' ' ' ' ' ' ' ] ] ] ] ] ] ] ] [ ] ] ] ] ] ] ] ] ",
"UXUXUXUXUXUXUXUXUXUXUXUXUXUXUXUXIXUXIX1X+.B ( <.p.k.f.f.s.g.j.p.<.&.*.;.;.,.,.2.<.<.<.<.,.:.-.=.,.>.-.=.*.-.>.,.1.1.1.1.1.1.1.1.",
"UXUXUXUXUXUXUXUXUXUXUXUXUXUXUXUXLXIXUX2XX.m ( 2.s.g.w.5.6.r.g.i.<.&.-.2.t.p.i.p.s.p.u.p.a.e.:.:.w.e.3.:.:.2.r.a.s.i.a.a.a.s.a.a.",
"UXUXUXUXUXUXUXUXUXUXUXUXUXUXUXUXIXUXUX1Xo.N ) 1.a.d.8.:.:.7.a.i.>.&.1.w.g.z.l.l.l.l.z.c.z.p.<.>.s.g.r.6.6.w.f.k.f.f.l.c.z.l.l.l.",
"UXUXUXUXUXUXUXUXUXUXUXUXUXUXUXUXIXUXUX3X@.V ) ,.f.h.0.>.:.7.d.d.,.>.r.g.k.k.l.z.c.c.x.c.x.a.>.;.i.l.h.a.a.d.h.d.8.q.g.v.z.l.l.l.",
"UXUXUXUXUXUXUXUXUXUXUXUXUXUXUXUXUXUXUX3X+.V _ <.a.g.r.6.5.e.f.a.,.<.s.x.l.h.l.z.z.x.z.z.l.i.>.>.p.x.x.l.l.l.l.f.9.0.g.c.z.k.k.k.",
"UXUXUXUXUXUXUXUXUXUXUXUXUXUXUXUXUXUXIX,X .m ) 3.a.k.f.a.d.h.z.a.>.:.i.x.z.l.l.j.h.x.x.c.z.i.>.<.a.z.z.l.z.z.x.l.h.d.k.x.z.z.z.z.",
"UXUXUXUXUXUXUXUXUXUXUXUXUXUXUXUXUXUXUX,X .n ) 3.p.l.k.l.x.x.x.i.>.>.p.c.c.z.z.k.l.k.d.f.l.a.>.>.p.l.l.z.x.z.c.x.b.z.z.z.z.z.h.d.",
"UXUXUXUXUXUXUXUXUXUXUXUXUXUXUXUXIXUXUX2XX.m / ,.p.z.l.z.z.z.l.u.:.>.p.x.x.l.x.x.x.d.0.0.d.p.>.:.s.z.l.k.k.j.x.c.v.x.l.k.l.g.e.7.",
"UXUXUXUXUXUXUXUXUXUXUXUXUXUXUXUXIXUXUX1XX.m ^ :.w.d.d.s.a.p.a.0.>.;.w.a.d.a.s.s.s.r.1.1.e.w.-.:.q.s.s.p.i.y.p.i.u.p.u.y.s.y.2.;.",
"UXUXUXUXUXUXUXUXUXUXUXUXUXUXUXUXUXUXIX1X} b _ *.2.2.2.1.2.2.<.:.%.-.,.1.<.<.1.2.<.>.-.;.,.,.-.%.>.1.2.1.2.<.;.>.,.,.>.>.,.>.-.$.",
"UXUXUXUXUXUXUXUXUXUXUXUXUXUXUXUXKXUXUXtXj.| ( ` ` ' ' ` ` ' ` ) ( ) ` ` _ _ _ _ ) ` ' ` ) ( ) ` ` ( ` ' ` | $.;.,.,.,.,.,.,.>.:.",
"UXUXUXUXUXUXUXUXUXUXUXUXUXUXUXUXUXUXUXDXuXW.} v m M M m M N N M M M M m m m m m M M N m n m N C N M m m B ! ,.a.p.p.p.p.i.p.a.d.",
"UXUXUXUXUXUXUXUXUXUXUXUXUXUXUXUXPXPXLXUXUXyXj.| o.o.O.o.O.+.+.+.O.O.o.X.o.o.O.O.+.O.X.X.o.O.+.+.O.@...W c H 6.n.c.x.x.c.x.z.x.v.",
"UXUXUXUXUXUXUXUXUXUXUXUXUXUXUXUXUXUXUXUXUXAXrX<X<X<X1X1X1X2X2X1X2X2X1X1X<X<X1X1X2X2X2X1X1X1X1X2X2X5X4XT.W S 9.m.x.x.x.v.v.x.z.z.",
"UXUXUXUXUXUXUXUXUXUXUXUXUXUXUXUXIXIXPXPXLXIXUXIXUXUXUXUXUXUXUXUXUXUXUXUXUXUXUXUXUXUXUXUXUXUXUXUXUXUXPXyXg.o.<.7.1.1.2.4.5.4.1.,.",
"UXUXUXUXUXUXUXUXUXUXUXUXUXUXUXUXIXIXUXUXPXIXUXUXUXUXUXUXUXUXUXUXIXIXUXUXUXUXUXUXIXIXIXIXIXUXUXIXIXIXUXJXpX!.@.A D F F G H H G D ",
"UXUXUXUXUXUXUXUXUXUXUXUXUXUXUXUXPXUXUXIXUXIXPXUXIXIXIXIXPXPXIXUXUXUXUXUXUXIXIXPXIXUXUXIXPXPXIXUXUXIXUXIXPXpXg. .X.o.o.o.o.O.O.o.",
"UXUXUXUXUXUXUXUXUXUXUXUXUXUXUXUXUXUXUXUXUXUXUXUXUXUXUXUXUXUXUXUXUXUXUXUXUXUXUXUXUXUXUXUXUXUXUXUXUXIXIXUXUXVXyX>X2X2X2X2X2X2X2X2X",
"UXUXUXUXUXUXUXUXUXUXUXUXUXUXUXUXUXUXUXUXUXUXUXUXUXUXUXUXUXUXUXUXUXUXUXUXUXUXUXUXUXUXUXUXUXUXUXUXUXUXUXUXUXUXUXUXUXUXUXUXUXUXUXUX",
"UXUXUXUXUXUXUXUXUXUXUXUXUXUXUXUXUXUXUXUXUXUXUXUXUXUXUXUXUXUXUXUXUXUXUXUXUXUXUXUXUXUXUXUXUXUXUXUXUXUXUXIXPXPXIXUXUXUXUXUXUXUXUXUX",
"UXUXUXUXUXUXUXUXUXUXUXUXUXUXUXUXUXUXUXUXUXUXUXUXUXUXUXUXUXUXUXUXUXUXUXUXUXUXUXUXUXUXUXUXUXUXUXUXIXIXUXUXUXUXUXUXUXUXUXUXUXUXUXUX",
"UXUXUXUXUXUXUXUXUXUXUXUXUXUXUXUXUXUXUXUXUXUXUXUXUXUXUXUXUXUXUXUXUXUXUXUXUXUXUXUXUXUXUXUXUXUXUXUXUXUXUXIXIXIXIXUXUXUXUXUXUXUXUXUX",
"UXUXUXUXUXUXUXUXUXUXUXUXUXUXUXUXUXUXUXUXUXUXUXUXUXUXUXUXUXUXUXUXUXUXUXUXUXUXUXUXUXUXUXUXUXUXUXUXUXUXUXUXUXUXUXUXUXUXUXUXUXUXUXUX",
"UXUXUXUXUXUXUXUXUXUXUXUXUXUXUXUXUXUXUXUXUXUXUXUXUXUXUXUXUXUXUXUXUXUXUXUXUXUXUXUXUXUXUXUXUXUXUXUXUXUXIXIXUXUXUXUXUXUXUXUXUXUXUXUX",
"UXUXUXUXUXUXUXUXUXUXUXUXUXUXUXUXUXUXUXUXUXUXUXUXUXUXUXUXUXUXUXUXUXUXUXUXUXUXUXUXUXUXUXUXUXUXUXUXIXUXUXUXUXUXUXUXUXUXUXUXUXUXUXUX",
"UXUXUXUXUXUXUXUXUXUXUXUXUXUXUXUXUXUXUXUXUXUXUXUXUXUXUXUXUXUXUXUXUXUXUXUXUXUXUXUXUXUXUXUXUXUXUXUXUXUXUXUXUXUXUXUXUXUXUXUXUXUXUXUX",
"UXUXUXUXUXUXUXUXUXUXUXUXUXUXUXUXUXUXUXUXUXUXUXUXUXUXUXUXUXUXUXUXUXUXUXUXUXUXUXUXUXUXUXUXUXUXUXUXUXUXUXUXUXUXUXUXUXUXUXUXUXUXUXUX",
"UXUXUXUXUXUXUXUXUXUXUXUXUXUXUXUXUXUXUXUXUXUXUXUXUXUXUXUXUXUXUXUXUXUXUXUXUXUXUXUXUXUXUXUXUXUXUXUXUXUXUXUXUXUXUXUXUXUXUXUXUXUXUXUX",
"UXUXUXUXUXUXUXUXUXUXUXUXUXUXUXUXUXUXUXUXUXUXUXUXUXUXUXUXUXUXUXUXUXUXUXUXUXUXUXUXUXUXUXUXUXUXUXUXUXUXUXUXUXUXUXUXUXUXUXUXUXUXUXUX",
"UXUXUXUXUXUXUXUXUXUXUXUXUXUXUXUXUXUXUXUXUXUXUXUXUXUXUXUXUXUXUXUXUXUXUXUXUXUXUXUXUXUXUXUXUXUXUXUXUXUXUXUXUXUXUXUXUXUXUXUXUXUXUXUX",
"UXUXUXUXUXUXUXUXUXUXUXUXUXUXUXUXUXUXUXUXUXUXUXUXUXUXUXUXUXUXUXUXUXUXUXUXUXUXUXUXUXUXUXUXUXUXUXUXUXUXUXUXUXUXUXUXUXUXUXUXUXUXUXUX",
"UXUXUXUXUXUXUXUXUXUXUXUXUXUXUXUXUXUXUXUXUXUXUXUXUXUXUXUXUXUXUXUXUXUXUXUXUXUXUXUXUXUXUXUXUXUXUXUXUXUXUXUXUXUXUXUXUXUXUXUXUXUXUXUX",
"UXUXUXUXUXUXUXUXUXUXUXUXUXUXUXUXUXUXUXUXUXUXUXUXUXUXUXUXUXUXUXUXUXUXUXUXUXUXUXUXUXUXUXUXUXUXUXUXUXUXUXUXUXUXUXUXUXUXUXUXUXUXUXUX"
};
