/* XPM */
static char *d3490497a111420afb5c9190b27cd2b07WotvtFAaCaHCNDY[] = {
/* columns rows colors chars-per-pixel */
"64 64 256 2 ",
"   c black",
".  c #010101",
"X  c #020202",
"o  c gray1",
"O  c #040404",
"+  c gray2",
"@  c #060606",
"#  c #070707",
"$  c gray3",
"%  c #090909",
"&  c gray4",
"*  c #0B0B0B",
"=  c #0C0C0C",
"-  c gray5",
";  c #0E0E0E",
":  c gray6",
">  c #101010",
",  c #111111",
"<  c gray7",
"1  c #131313",
"2  c gray8",
"3  c #151515",
"4  c #161616",
"5  c gray9",
"6  c #181818",
"7  c #191919",
"8  c gray10",
"9  c #1B1B1B",
"0  c gray11",
"q  c #1D1D1D",
"w  c #1E1E1E",
"e  c gray12",
"r  c #202020",
"t  c gray13",
"y  c #222222",
"u  c #232323",
"i  c gray14",
"p  c #252525",
"a  c gray15",
"s  c #272727",
"d  c #282828",
"f  c gray16",
"g  c #2A2A2A",
"h  c gray17",
"j  c #2C2C2C",
"k  c #2D2D2D",
"l  c gray18",
"z  c #2F2F2F",
"x  c gray19",
"c  c #313131",
"v  c #323232",
"b  c gray20",
"n  c #343434",
"m  c #353535",
"M  c gray21",
"N  c #373737",
"B  c gray22",
"V  c #393939",
"C  c #3A3A3A",
"Z  c gray23",
"A  c #3C3C3C",
"S  c gray24",
"D  c #3E3E3E",
"F  c #3F3F3F",
"G  c gray25",
"H  c #414141",
"J  c gray26",
"K  c #434343",
"L  c #444444",
"P  c gray27",
"I  c #464646",
"U  c gray28",
"Y  c #484848",
"T  c #494949",
"R  c gray29",
"E  c #4B4B4B",
"W  c #4C4C4C",
"Q  c gray30",
"!  c #4E4E4E",
"~  c gray31",
"^  c #505050",
"/  c #515151",
"(  c gray32",
")  c #535353",
"_  c gray33",
"`  c #555555",
"'  c #565656",
"]  c gray34",
"[  c #585858",
"{  c gray35",
"}  c #5A5A5A",
"|  c #5B5B5B",
" . c gray36",
".. c #5D5D5D",
"X. c gray37",
"o. c #5F5F5F",
"O. c #606060",
"+. c gray38",
"@. c #626262",
"#. c gray39",
"$. c #646464",
"%. c #656565",
"&. c gray40",
"*. c #676767",
"=. c #686868",
"-. c DimGray",
";. c #6A6A6A",
":. c gray42",
">. c #6C6C6C",
",. c #6D6D6D",
"<. c gray43",
"1. c #6F6F6F",
"2. c gray44",
"3. c #717171",
"4. c #727272",
"5. c gray45",
"6. c #747474",
"7. c gray46",
"8. c #767676",
"9. c #777777",
"0. c gray47",
"q. c #797979",
"w. c gray48",
"e. c #7B7B7B",
"r. c #7C7C7C",
"t. c gray49",
"y. c #7E7E7E",
"u. c gray50",
"i. c #808080",
"p. c #818181",
"a. c gray51",
"s. c #838383",
"d. c #848484",
"f. c gray52",
"g. c #868686",
"h. c gray53",
"j. c #888888",
"k. c #898989",
"l. c gray54",
"z. c #8B8B8B",
"x. c gray55",
"c. c #8D8D8D",
"v. c #8E8E8E",
"b. c gray56",
"n. c #909090",
"m. c gray57",
"M. c #929292",
"N. c #939393",
"B. c gray58",
"V. c #959595",
"C. c gray59",
"Z. c #979797",
"A. c #989898",
"S. c gray60",
"D. c #9A9A9A",
"F. c #9B9B9B",
"G. c gray61",
"H. c #9D9D9D",
"J. c gray62",
"K. c #9F9F9F",
"L. c #A0A0A0",
"P. c gray63",
"I. c #A2A2A2",
"U. c gray64",
"Y. c #A4A4A4",
"T. c #A5A5A5",
"R. c gray65",
"E. c #A7A7A7",
"W. c gray66",
"Q. c #A9A9A9",
"!. c #AAAAAA",
"~. c gray67",
"^. c #ACACAC",
"/. c gray68",
"(. c #AEAEAE",
"). c #AFAFAF",
"_. c gray69",
"`. c #B1B1B1",
"'. c #B2B2B2",
"]. c gray70",
"[. c #B4B4B4",
"{. c gray71",
"}. c #B6B6B6",
"|. c #B7B7B7",
" X c gray72",
".X c #B9B9B9",
"XX c gray73",
"oX c #BBBBBB",
"OX c #BCBCBC",
"+X c gray74",
"@X c gray",
"#X c gray75",
"$X c #C0C0C0",
"%X c #C1C1C1",
"&X c gray76",
"*X c #C3C3C3",
"=X c gray77",
"-X c #C5C5C5",
";X c #C6C6C6",
":X c gray78",
">X c #C8C8C8",
",X c gray79",
"<X c #CACACA",
"1X c #CBCBCB",
"2X c gray80",
"3X c #CDCDCD",
"4X c #CECECE",
"5X c gray81",
"6X c #D0D0D0",
"7X c gray82",
"8X c #D2D2D2",
"9X c LightGray",
"0X c gray83",
"qX c #D5D5D5",
"wX c gray84",
"eX c #D7D7D7",
"rX c #D8D8D8",
"tX c gray85",
"yX c #DADADA",
"uX c gray86",
"iX c gainsboro",
"pX c #DDDDDD",
"aX c gray87",
"sX c #DFDFDF",
"dX c gray88",
"fX c #E1E1E1",
"gX c #E2E2E2",
"hX c gray89",
"jX c #E4E4E4",
"kX c gray90",
"lX c #E6E6E6",
"zX c #E7E7E7",
"xX c gray91",
"cX c #E9E9E9",
"vX c #EAEAEA",
"bX c gray92",
"nX c #ECECEC",
"mX c gray93",
"MX c #EEEEEE",
"NX c #EFEFEF",
"BX c gray94",
"VX c #F1F1F1",
"CX c gray95",
"ZX c #F3F3F3",
"AX c #F4F4F4",
"SX c gray96",
"DX c #F6F6F6",
"FX c gray97",
"GX c #F8F8F8",
"HX c #F9F9F9",
"JX c gray98",
"KX c #FBFBFB",
"LX c gray99",
"PX c #FDFDFD",
"IX c #FEFEFE",
"UX c white",
/* pixels */
"UXUXUXUXUXUXUXUXUXUXUXUXUXUXUXUXUXUXUXUXUXUXUXUXUXUXUXUXUXUXUXUXUXUXUXUXUXUXUXUXUXUXUXUXUXUXUXUXUXUXUXUXUXUXUXUXUXUXUXUXUXUXUXUX",
"UXUXUXUXUXUXUXUXUXUXUXUXUXUXUXUXUXUXUXUXUXUXUXUXUXUXUXUXUXUXUXUXUXUXUXUXUXUXUXUXUXUXUXUXUXUXUXUXUXUXUXUXUXUXUXUXUXUXUXUXUXUXUXUX",
"UXUXUXUXUXUXUXUXUXUXUXUXUXUXUXUXUXUXUXUXUXUXUXUXUXUXUXUXUXUXUXUXUXUXUXUXUXUXUXUXUXUXUXUXUXUXUXUXUXUXUXUXUXUXUXUXUXUXUXUXUXUXUXUX",
"UXUXUXUXUXUXUXUXUXUXUXUXUXUXUXUXUXUXUXUXUXUXUXUXUXUXUXUXUXUXUXUXUXUXUXUXUXUXUXUXUXUXUXUXUXUXUXUXUXUXUXUXUXUXUXUXUXUXUXUXUXUXUXUX",
"UXUXUXUXUXUXUXUXUXUXUXUXUXUXUXUXUXUXUXUXUXUXUXUXUXUXUXUXUXUXUXUXUXUXUXUXUXUXUXUXUXUXUXUXUXUXUXUXUXUXUXUXUXUXUXUXUXUXUXUXUXUXUXUX",
"UXUXUXUXUXUXUXUXUXUXUXUXUXUXUXUXUXUXUXUXUXUXUXUXUXUXUXUXUXUXUXUXUXUXUXUXUXUXUXUXUXUXUXUXUXUXUXUXUXUXUXUXUXUXUXUXUXUXUXUXUXUXUXUX",
"UXUXUXUXUXUXUXUXUXUXUXUXUXUXUXUXUXUXUXUXUXUXUXUXUXUXUXUXUXUXUXUXUXUXUXUXUXUXUXUXUXUXUXUXUXUXUXUXUXUXUXUXUXUXUXUXUXUXUXUXUXUXUXUX",
"UXUXUXUXUXUXUXUXUXUXUXUXUXUXUXUXUXUXUXUXUXUXUXUXUXUXUXUXUXUXUXUXUXUXUXUXUXUXUXUXUXUXUXUXUXUXUXUXUXUXUXUXUXUXUXUXUXUXUXUXUXUXUXUX",
"UXUXUXUXUXUXUXUXUXUXUXUXUXUXUXIXUXUXUXUXUXUXUXUXUXUXUXUXUXUXUXUXUXUXUXUXUXUXUXUXUXUXUXUXUXUXUXUXUXUXUXUXUXUXUXUXUXUXUXUXUXUXUXUX",
"UXUXUXUXUXUXUXUXUXUXUXUXIXIXUXUXUXUXUXUXUXUXUXUXUXUXUXUXUXUXUXUXUXUXUXUXUXUXUXUXUXUXUXUXUXUXUXUXUXUXUXUXUXUXUXUXUXUXUXUXUXUXUXUX",
"UXUXUXUXUXUXUXUXUXUXUXUXUXUXUXUXUXUXUXUXUXUXUXUXUXUXUXUXUXUXUXUXUXUXUXUXUXUXUXUXUXUXUXUXUXUXUXUXUXUXUXUXUXUXUXUXUXUXUXUXUXUXUXUX",
"UXUXUXUXUXUXUXUXUXIXIXIXIXUXUXUXUXUXUXUXUXUXUXUXUXUXUXUXUXUXUXUXUXUXUXUXUXUXUXUXUXUXUXUXUXUXUXUXUXUXUXUXUXUXUXUXUXUXUXUXUXUXUXUX",
"UXUXUXUXUXUXUXUXUXUXUXUXUXUXIXIXUXUXUXUXUXUXUXUXUXUXUXUXUXUXUXUXUXUXUXUXUXUXUXUXUXUXUXUXUXUXUXUXUXUXUXUXUXUXUXUXUXUXUXUXUXUXUXUX",
"UXUXUXUXUXUXUXUXUXIXPXPXIXUXUXUXUXUXUXUXUXUXUXUXUXUXUXUXUXUXUXUXUXUXUXUXUXUXUXUXUXUXUXUXUXUXUXUXUXUXUXUXUXUXUXUXUXUXUXUXUXUXUXUX",
"UXUXUXUXUXUXUXUXUXUXUXUXUXUXUXUXUXUXUXUXUXUXUXUXUXUXUXUXUXUXUXUXUXUXUXUXUXUXUXUXUXUXUXUXUXUXUXUXUXUXUXUXUXUXUXUXUXUXUXUXUXUXUXUX",
"2X2X2X2X2X2X2X2X>XyXVXUXUXIXIXUXUXUXUXUXUXUXUXUXUXUXUXUXUXUXUXUXIXIXIXIXIXIXIXIXUXUXUXUXUXUXUXUXUXUXUXUXUXUXUXUXUXUXUXUXUXUXUXUX",
"o.O.+.o.X.X.X... .h.iXIXUXUXUXUXUXIXPXPXIXUXUXIXPXIXIXUXUXUXUXUXIXPXPXIXIXIXPXPXUXIXIXIXUXUXPXIXUXUXUXUXUXUXUXUXUXUXUXUXUXUXUXUX",
"D G J J G F D D Z @.Q.iXJXUXUXIXIXUXUXIXIXIXIXIXUXUXUXUXUXUXIXIXUXUXUXUXUXUXUXUXUXIXIXUXPXIXUXIXUXUXUXUXUXUXUXUXUXUXUXUXUXUXUXUX",
",.1.4.5.4.1.1.2.8.<.+.g.uXIXUXUXUXUXUXUXUXUXUXUXUXUXUXUXUXUXUXUXUXUXUXUXIXIXUXUXIXUXUXLXPXPXPXIXUXUXUXUXUXUXUXUXUXUXUXUXUXUXUXUX",
"z.z.x.v.c.x.x.c.m.7.S E Y.4X2X1X2X1X1X1X1X2X2X2X1X1X<X<X1X1X2X2X2X3X3X3X3X3X2X1X<XyXAXIXUXUXUXUXUXUXUXUXUXUXUXUXUXUXUXUXUXUXUXUX",
"b.x.z.x.c.x.x.x.m.6.L v ! +.$.#.+.+.O.o.X.X.O.+.O.O.o.o.X.o.O.O.O.O.o.o.o.o.o.....h.uXUXIXLXUXLXUXUXUXUXUXUXUXUXUXUXUXUXUXUXUXUX",
"f.a.i.i.p.a.p.p.p.>.Q N m M M N C N m n m N M M m m m m m M M M B B N m m N N N b } W.yXSXUXUXIXUXUXUXUXUXUXUXUXUXUXUXUXUXUXUXUX",
":.>.>.,.,.,.,.,.:.&.| ` ] ` ) ` ` ) ( ) ` ' ` ) _ _ _ _ ` ` ) ( ) _ ` ) ) _ ` ` ` _ } f.yXUXIXLXUXUXUXUXUXUXUXUXUXUXUXUXUXUXUXUX",
"$.=.:.>.>.,.,.>.:.:.>.2.1.1.3.:.%.-.,.,.;.-.>.<.2.1.<.<.1.,.-.%.;.<.2.2.1.1.2.2.=.( v } <XPXUXPXUXUXUXUXUXUXUXUXUXUXUXUXUXUXUXUX",
"=.1.y.a.y.u.p.i.p.p.y.i.p.a.s.q.:.-.w.e.1.1.r.s.s.s.a.d.a.w.;.>.0.i.s.s.d.f.s.w.>.^ m X.1XUXUXIXUXUXUXUXUXUXUXUXUXUXUXUXUXUXUXUX",
"7.w.g.l.k.l.x.c.c.x.j.k.k.k.z.s.:.>.p.d.0.0.d.x.x.x.l.x.x.p.>.:.p.l.c.c.c.c.z.a.,./ M o.2XUXUXIXUXUXUXUXUXUXUXUXUXUXUXUXUXUXUXUX",
"f.h.z.z.z.z.z.b.x.c.l.x.z.l.k.p.>.>.a.l.f.d.k.l.k.z.z.c.c.p.>.>.i.l.x.z.l.l.k.i.1.( M X.<XUXUXUXUXUXUXUXUXUXUXUXUXUXUXUXUXUXUXUX",
"z.z.z.l.x.l.d.h.l.x.z.z.l.l.z.a.<.>.i.z.c.x.x.h.j.l.l.z.x.i.:.>.a.k.g.s.s.f.k.a.1.) M X.<XIXUXUXUXUXUXUXUXUXUXUXUXUXUXUXUXUXUXUX",
"j.k.k.z.c.g.q.9.f.z.z.l.l.x.x.p.>.>.i.l.z.z.x.z.z.l.h.l.x.s.<.,.a.f.w.6.6.e.g.s.,.) V @.3XUXIXIXUXUXUXUXUXUXUXUXUXUXUXUXUXUXUXUX",
"l.z.z.x.v.g.q.8.d.j.f.s.a.g.k.u.;.>.a.x.c.x.c.c.z.l.k.k.g.r.>.,.s.d.6.:.>.8.g.f.<.) V +.2XUXIXIXUXUXUXUXUXUXUXUXUXUXUXUXUXUXUXUX",
"l.l.z.z.c.l.d.f.k.g.e.7.6.r.g.s.>.<.p.z.c.z.l.l.l.l.z.g.w.1.&.>.p.s.5.:.>.7.f.s.2.) M X.<XIXUXUXUXUXUXUXUXUXUXUXUXUXUXUXUXUXUXUX",
"a.a.s.a.a.a.i.s.p.r.2.>.:.3.e.w.:.:.e.a.p.u.p.s.p.i.p.t.2.-.&.<.i.g.w.5.5.q.h.s.2.) m ..1XUXUXIXUXUXUXUXUXUXUXUXUXUXUXUXUXUXUXUX",
"<.<.<.<.<.<.<.<.<.>.=.&.&.=.:.<.=.-.:.,.<.<.<.<.1.<.:.:.;.&.*.,.i.j.d.s.d.g.k.a.2.( M O.1XUXUXPXUXUXUXUXUXUXUXUXUXUXUXUXUXUXUXUX",
"' ' ' ' ' ' ' ' ' ' ' ' ' ' ' ` ' ' ' ' ' ' ' ] ] ' ` { X.o.@.*.9.p.h.l.z.z.l.p.1.' M X.3XUXIXUXUXUXUXUXUXUXUXUXUXUXUXUXUXUXUXUX",
"A A A A A A A A A A A S S S A Z A Z Z Z Z Z Z Z Z Z Z J ! ' } X.@.<.p.l.l.l.k.p.<.) m O.2XUXUXIXUXUXUXUXUXUXUXUXUXUXUXUXUXUXUXUX",
"z z z z z z z z z z l l l z z z k k k l z z l k l l z N I / ' { ] %.a.c.z.l.l.a.3._ n ..>XLXUXIXUXUXUXUXUXUXUXUXUXUXUXUXUXUXUXUX",
"l l l l l l l l l l l l z z l l l l z z z l k j l l l M U ) ] { ' #.p.c.c.x.z.i.,.) m ..3XUXIXUXUXUXUXUXUXUXUXUXUXUXUXUXUXUXUXUX",
"z z z z z z z z z z z z x x z z z x x z z l l l z z x B T ` { } } @.0.p.s.s.s.7. .` X.k.rXPXIXUXUXUXUXUXUXUXUXUXUXUXUXUXUXUXUXUX",
"z z z z z z z z z z l l l z z z l z z l k k k l z z z B T ` [ } { X.=.>.1.<.2.o.I o.Q.pXHXUXUXPXUXUXUXUXUXUXUXUXUXUXUXUXUXUXUXUX",
"z z z z z z z z z z z z x x z z z x x z k j k l z l l B T ` [ { { o.*.;.<.,.3.O.L | /.fXSXUXUXPXUXUXUXUXUXUXUXUXUXUXUXUXUXUXUXUX",
"z z z z z z z z z z z z z z z z z x x z z l k l z l j m U _ ] { [ @.q.a.i.i.a.q.O.[  .l.iXIXIXLXUXUXUXUXUXUXUXUXUXUXUXUXUXUXUXUX",
"z z z z z z z z z z z z z z z z l z z z x z z x x z j m U _ ] { { &.i.x.l.k.z.s.3.^ m o.,XUXUXPXUXUXUXUXUXUXUXUXUXUXUXUXUXUXUXUX",
"x x x x x x x x x x x x x x x x l z l l x x x c c x k m Y ` [ } [ &.p.c.x.z.x.a.<./ v | 1XUXIXIXUXUXUXUXUXUXUXUXUXUXUXUXUXUXUXUX",
"x x x x x x x x x x x x x x x x z z l l x x x c v x k M T ' { } | &.t.k.l.l.l.u.2.` M ..2XUXIXUXUXUXUXUXUXUXUXUXUXUXUXUXUXUXUXUX",
"l l l l l l l l l l l l l l l l x x l l z z z z c z k M R ] { }  .&.t.k.z.x.c.a.<./ M O.3XUXIXLXUXUXUXUXUXUXUXUXUXUXUXUXUXUXUXUX",
"l l l l l l l l l l l l l l l l c x l k z z l l x z k M T ' { } { %.y.l.l.z.x.s.<.( B +.<XIXUXUXUXUXUXUXUXUXUXUXUXUXUXUXUXUXUXUX",
"z z z z z z z z z z z z z z z z x x l k x x l l x z k m Y ` [ } { &.p.x.z.l.z.a.,.( B @.3XUXUXIXUXUXUXUXUXUXUXUXUXUXUXUXUXUXUXUX",
"z z z z z z z z z z z z z z z z x z k l x x z l x z k m Y ` [ } { &.i.z.l.k.z.p.,.) M o.2XUXIXUXUXUXUXUXUXUXUXUXUXUXUXUXUXUXUXUX",
"z z z z z z z z z z z z z z z z z z z z z z l l x z l N Y _ [ } } &.u.z.k.j.l.a.1.( N O.1XUXUXIXUXUXUXUXUXUXUXUXUXUXUXUXUXUXUXUX",
"z z z z z z z z z z z z z z z z z z z z z z l l x z l N Y _ [ } } %.u.z.l.k.l.p.<._ b | 1XIXUXUXUXUXUXUXUXUXUXUXUXUXUXUXUXUXUXUX",
"z z z z z z z z z z z z z z z z z z z z z z l l x z l N Y _ [ } } *.p.x.z.z.v.h.2.` B @.3XUXUXIXUXUXUXUXUXUXUXUXUXUXUXUXUXUXUXUX",
"z z z z z z z z z z z z z z z z z z z z z z l l x z z N Y _ ] { [ *.s.v.z.k.x.g.3._ n ..,XPXUXPXUXUXUXUXUXUXUXUXUXUXUXUXUXUXUXUX",
"z z z z z z z z z z z z z z z z z z z z z z l l x z z N Y _ ] { ' %.a.v.c.z.x.s.<.) b } 1XUXIXUXUXUXUXUXUXUXUXUXUXUXUXUXUXUXUXUX",
"z z z z z z z z z z z z z z z z z z z z z z l l x z l N Y _ [ } { +.8.i.p.a.p.6.#.' } f.tXUXIXPXUXUXUXUXUXUXUXUXUXUXUXUXUXUXUXUX",
"z z z z z z z z z z z z z z z z z z z z z z l l x z l N Y _ [ } | ..-.<.<.<.>. .G X.^.sXFXIXUXUXUXUXUXUXUXUXUXUXUXUXUXUXUXUXUXUX",
"z z z z z z z z z z z z z z z z z z z z z z l l x z l N Y _ [ } }  .=.,.<.1.>...P | /.dXAXUXUXIXUXUXUXUXUXUXUXUXUXUXUXUXUXUXUXUX",
"z z z z z z z z z z z z z z z z z z z z z z l l x x l N Y ) [ { { #.9.i.a.p.p.9.@.{ | h.rXPXUXUXUXUXUXUXUXUXUXUXUXUXUXUXUXUXUXUX",
"z z z z z z z z z z z z z z z z z z z z z z l l x x l N Y ) [ { { &.i.z.j.j.x.d.3./ M o.,XUXUXPXUXUXUXUXUXUXUXUXUXUXUXUXUXUXUXUX",
"z z z z z z z z z z z z z z z z z z z z z z l l x x l N Y ) [ { [ %.a.b.x.z.v.s.2.) v } <XUXUXUXUXUXUXUXUXUXUXUXUXUXUXUXUXUXUXUX",
"z z z z z z z z z z z z z z z z z z z z z z l l x z l N Y ) [ { } %.p.z.f.f.l.i.1.` B O.4XUXIXUXUXUXUXUXUXUXUXUXUXUXUXUXUXUXUXUX",
"z z z z z z z z z z z z z z z z z z z z z z l l x z k N Y ) [ { { %.u.f.w.e.h.f.2.) m ..1XUXUXIXUXUXUXUXUXUXUXUXUXUXUXUXUXUXUXUX",
"z z z z z z z z z z z z z z z z z z z z z z l l x z k N Y ) [ { [ %.y.s.q.w.g.f.<.( B +.<XIXUXUXUXUXUXUXUXUXUXUXUXUXUXUXUXUXUXUX",
"z z z z z z z z z z z z z z z z z z z z z z l l x z k N Y ) [ { | *.u.h.d.d.j.i.2.) N O.1XUXUXIXUXUXUXUXUXUXUXUXUXUXUXUXUXUXUXUX",
"z z z z z z z z z z z z z z z z z z z z z z l l x z k N Y ) [ { | *.y.k.z.l.k.u.1._ N o.2XUXPXIXUXUXUXUXUXUXUXUXUXUXUXUXUXUXUXUX"
};
