/* XPM */
static char *_b5b80cb445145fba40897ee3e8137a6tguTrdgdr8nI1yln[] = {
/* columns rows colors chars-per-pixel */
"64 64 130 2 ",
"   c gray17",
".  c #2C2C2C",
"X  c #2D2D2D",
"o  c gray18",
"O  c #2F2F2F",
"+  c gray19",
"@  c #313131",
"#  c #323232",
"$  c gray20",
"%  c #343434",
"&  c #353535",
"*  c gray21",
"=  c #373737",
"-  c gray22",
";  c #393939",
":  c #3A3A3A",
">  c gray23",
",  c #3C3C3C",
"<  c gray24",
"1  c #3E3E3E",
"2  c #3F3F3F",
"3  c gray25",
"4  c #414141",
"5  c gray26",
"6  c #444444",
"7  c #464646",
"8  c #484848",
"9  c #494949",
"0  c gray29",
"q  c #4B4B4B",
"w  c #4C4C4C",
"e  c gray30",
"r  c #4E4E4E",
"t  c gray31",
"y  c #515151",
"u  c gray32",
"i  c #535353",
"p  c gray33",
"a  c #555555",
"s  c #565656",
"d  c gray34",
"f  c #585858",
"g  c gray35",
"h  c #5A5A5A",
"j  c #5B5B5B",
"k  c gray36",
"l  c #5D5D5D",
"z  c gray37",
"x  c #5F5F5F",
"c  c #606060",
"v  c gray38",
"b  c #626262",
"n  c gray39",
"m  c #646464",
"M  c #656565",
"N  c gray40",
"B  c #676767",
"V  c #686868",
"C  c DimGray",
"Z  c #6A6A6A",
"A  c gray42",
"S  c #6C6C6C",
"D  c #6D6D6D",
"F  c gray43",
"G  c #6F6F6F",
"H  c gray44",
"J  c #717171",
"K  c #727272",
"L  c gray45",
"P  c #747474",
"I  c gray46",
"U  c #777777",
"Y  c gray47",
"T  c #797979",
"R  c gray48",
"E  c #7B7B7B",
"W  c #7C7C7C",
"Q  c gray49",
"!  c #7E7E7E",
"~  c gray50",
"^  c #808080",
"/  c #818181",
"(  c gray51",
")  c #838383",
"_  c #848484",
"`  c gray52",
"'  c #868686",
"]  c gray53",
"[  c #888888",
"{  c #898989",
"}  c gray54",
"|  c #8B8B8B",
" . c gray55",
".. c #8D8D8D",
"X. c #8E8E8E",
"o. c gray56",
"O. c #929292",
"+. c #A4A4A4",
"@. c gray66",
"#. c #A9A9A9",
"$. c #AAAAAA",
"%. c gray67",
"&. c #ACACAC",
"*. c gray78",
"=. c #C8C8C8",
"-. c gray79",
";. c #CACACA",
":. c #CBCBCB",
">. c gray80",
",. c #CDCDCD",
"<. c #CECECE",
"1. c #D0D0D0",
"2. c #D7D7D7",
"3. c #D8D8D8",
"4. c gray85",
"5. c #DADADA",
"6. c gray86",
"7. c #DDDDDD",
"8. c #DFDFDF",
"9. c gray88",
"0. c #F3F3F3",
"q. c #F4F4F4",
"w. c gray96",
"e. c #F6F6F6",
"r. c #F8F8F8",
"t. c #FBFBFB",
"y. c gray99",
"u. c #FDFDFD",
"i. c #FEFEFE",
"p. c white",
/* pixels */
"p.p.p.p.p.p.p.p.p.p.p.p.p.p.p.p.p.p.p.p.p.p.p.p.p.p.p.p.p.p.p.p.p.p.p.p.p.p.p.p.p.p.p.p.p.p.p.p.p.p.p.p.p.p.p.p.p.p.p.p.p.p.p.p.",
"p.p.p.p.p.p.p.p.p.p.p.p.p.p.p.p.p.p.p.p.p.p.p.p.p.p.p.p.p.p.p.p.p.p.p.p.p.p.p.p.p.p.p.p.p.p.p.p.p.p.p.p.p.p.p.p.p.p.p.p.p.p.p.p.",
"p.p.p.p.p.p.p.p.p.p.p.p.p.p.p.p.p.p.p.p.p.p.p.p.p.p.p.p.p.p.p.p.p.p.p.p.p.p.p.p.p.p.p.p.p.p.p.p.p.p.p.p.p.p.p.p.p.p.p.p.p.p.p.p.",
"p.p.p.p.p.p.p.p.p.p.p.p.p.p.p.p.p.p.p.p.p.p.p.p.p.p.p.p.p.p.p.p.p.p.p.p.p.p.p.p.p.p.p.p.p.p.p.p.p.p.p.p.p.p.p.p.p.p.p.p.p.p.p.p.",
"p.p.p.p.p.p.p.p.p.p.p.p.p.p.p.p.p.p.p.p.p.p.p.p.p.p.p.p.p.p.p.p.p.p.p.p.p.p.p.p.p.p.p.p.p.p.p.p.p.p.p.p.p.p.p.p.p.p.p.p.p.p.p.p.",
"p.p.p.p.p.p.p.p.p.p.p.p.p.p.p.p.p.p.p.p.p.p.p.p.p.p.p.p.p.p.p.p.p.p.p.p.p.p.p.p.p.p.p.p.p.p.p.p.p.p.p.p.p.p.p.p.p.p.p.p.p.p.p.p.",
"p.p.p.p.p.p.p.p.p.p.p.p.p.p.p.p.p.p.p.p.p.p.p.p.p.p.p.p.p.p.p.p.p.p.p.p.p.p.p.p.p.p.p.p.p.p.p.p.p.p.p.p.p.p.p.p.p.p.p.p.p.p.p.p.",
"p.p.p.p.p.p.p.p.p.p.p.p.p.p.p.p.p.p.p.p.p.p.p.p.p.p.p.p.p.p.p.p.p.p.p.p.p.p.p.p.p.p.p.p.p.p.p.p.p.p.p.p.p.p.p.p.p.p.p.p.p.p.p.p.",
"p.p.p.p.p.p.p.p.p.p.p.p.p.p.p.p.p.p.p.p.p.p.p.p.p.p.p.p.p.p.p.p.p.p.p.p.p.p.p.p.p.p.p.p.p.p.p.p.p.p.p.p.p.p.p.p.p.p.p.p.p.p.p.p.",
"p.p.p.p.p.p.p.p.p.p.p.p.p.p.p.p.p.p.p.p.p.p.p.p.p.p.p.p.p.p.p.p.p.p.p.p.p.p.p.p.p.p.p.p.p.p.p.p.p.p.p.p.p.p.p.p.p.p.p.p.p.p.p.p.",
"p.p.p.p.p.p.p.p.p.p.p.p.p.p.p.p.p.p.p.p.p.p.p.p.p.p.p.p.p.p.p.p.p.p.p.p.p.p.p.p.p.p.p.p.p.p.p.p.p.p.p.p.p.p.p.p.p.p.p.p.p.p.p.p.",
"p.p.p.p.p.p.p.p.p.p.p.p.p.p.p.p.p.p.p.p.p.p.p.p.p.p.p.p.p.p.p.p.p.p.p.p.p.p.p.p.p.p.p.p.p.p.p.p.p.p.p.p.p.p.p.p.p.p.p.p.p.p.p.p.",
"p.p.p.p.p.p.p.p.p.p.p.p.p.p.p.p.p.p.p.p.p.p.p.p.p.p.p.p.p.p.p.p.p.p.p.p.p.p.p.p.p.p.p.p.p.p.p.p.p.p.p.p.p.p.p.p.p.p.p.p.p.p.p.p.",
"p.p.p.p.p.p.p.p.p.p.p.p.p.p.p.p.p.p.p.p.p.p.p.p.p.p.p.p.p.p.p.p.p.p.p.p.p.p.p.p.p.p.p.p.p.p.p.p.p.p.p.p.p.p.p.p.p.p.p.p.p.p.p.p.",
"p.p.p.p.p.p.p.p.p.p.p.p.p.p.p.p.p.p.p.p.p.p.p.p.p.p.p.p.p.p.p.p.p.p.p.p.p.p.p.p.p.p.p.p.p.p.p.p.p.p.p.p.p.p.p.p.p.p.p.p.p.p.p.p.",
"p.p.p.p.p.p.p.p.p.p.p.p.p.p.p.p.p.p.p.p.p.p.p.p.p.p.p.p.p.p.p.p.p.p.p.p.p.p.p.p.p.p.p.p.p.p.p.p.p.p.p.p.p.p.p.p.p.p.p.p.p.p.p.p.",
"p.p.p.p.p.p.p.p.p.p.p.p.p.p.p.p.p.p.p.t.p.p.p.p.p.p.p.p.p.p.p.p.p.p.p.p.p.p.p.p.p.t.p.p.t.p.p.p.p.p.p.t.p.p.p.p.t.p.p.t.p.p.p.p.",
"p.p.p.p.p.p.p.p.p.p.p.p.p.p.p.p.p.p.p.p.p.p.p.p.p.p.p.p.p.p.p.p.p.t.p.p.t.p.p.p.p.p.p.p.p.p.p.p.p.p.p.p.p.p.p.p.p.p.p.p.p.p.t.p.",
"p.p.p.p.p.p.p.p.p.p.p.p.p.p.p.p.p.t.p.p.p.p.p.p.p.p.p.p.p.p.p.p.p.p.p.p.p.p.p.p.p.p.p.p.p.p.p.p.p.p.p.p.p.p.p.p.p.p.p.p.p.p.p.p.",
"p.p.p.p.p.p.p.p.p.p.p.p.p.p.p.p.p.p.p.p.p.w.3.=.=.=.=.*.=.=.=.>.=.=.>.=.=.2.w.w.3.=.=.=.=.=.>.>.=.>.=.=.=.2.0.w.3.=.=.>.=.=.>.=.",
"p.p.p.p.p.p.p.p.p.p.p.p.p.p.p.p.p.t.t.p.p.3.| l l c l l c B c l c c c l l  .8.9.| l h l c c c c c c B l h | 9.9.| l l c c c c c ",
"p.p.p.p.p.p.p.p.p.p.p.p.p.p.p.p.p.p.p.w.3.#.h # % % % % - - % % - - % # % l #.#.l # % % - % - - % % - % # h #.&.h % % % - % - - ",
"p.p.p.p.p.p.p.p.p.p.p.p.p.p.p.p.t.p.p.2.] h u a u u u a a a u u u a a a u a l l a u a u a u a u a a a a a a l l a u a u u u a a ",
"p.p.p.p.p.p.p.p.p.p.p.p.p.p.p.p.p.p.p.>.h % a B A F J J F F F F J F J J F l 7 5 l J F J J F A A F F J F F c 5 7 c J J J F F F F ",
"p.p.p.p.p.p.p.p.p.p.p.p.p.p.p.p.p.p.t.=.l % a J E ) ) ~ ) ] ) ) ) ) ) ) ~ J l c I ] ) ~ ) ) ~ ) ) ) ) ] ) I h l E ] ) ) ] ) ~ ~ ",
"p.p.p.p.p.p.p.p.p.p.p.p.p.p.p.p.p.p.p.>.c - a J ) | | ] ] ] ) ] | | | | | ) J J ) | | | | | | | |  . . . .) A F ) |  .| ] ] ] | ",
"p.p.p.p.p.p.p.p.p.p.p.p.p.p.p.p.p.p.p.>.c % a F ) | | ) E I I E ) | | ] | ) F F ~ | | | | | | | | ] ] | ] ) F J ~ ] | ) I E ) | ",
"p.p.p.p.p.p.p.p.p.p.p.p.p.p.p.p.p.p.p.>.c % u F ) | | ) I F A J ) | | | | ) F F ~ | | |  .| | ] | | | | | ) J F ~ | | ] E E ) | ",
"p.p.p.p.p.p.p.p.p.p.p.p.p.p.p.p.p.p.p.>.l % u J ) | | ) I F A J ~ | ] |  .) A A ) |  .| ] | | | | | |  . .) F A ) |  .| ] ) ] | ",
"p.p.p.p.p.p.p.p.p.p.p.p.p.p.p.p.t.p.p.>.c - a J ) |  .] E I J E ] | ) ) ) I B B E ~ ) ~ ~ ~ ) ~ ~ ~ ~ ) ) I A B I ~ ) ~ ) ~ ~ E ",
"p.p.p.p.p.p.p.p.p.p.p.p.p.p.p.p.p.p.p.=.l % a F ~ | | ] ] ) ) ] ] ) F B B c h l c B B B B c B B B A B c B B l l c B B B c B B c ",
"p.p.p.p.p.p.p.p.p.p.p.p.p.p.p.p.p.p.p.=.c - u A E ~ ~ ) ~ ) ~ ~ ) I c h a h h h h h a h h h h a h l h a a h h h h h h l a h l h ",
"p.p.p.p.p.p.p.p.p.p.p.p.p.p.p.p.p.p.p.>.l - u B A A A A A F F F F A c h h h h h h a h h h h h h h h h h h h h h h h h h h h h h ",
"p.p.p.p.p.p.p.p.p.p.p.p.p.p.p.p.p.p.p.>.l % u A A F F F F F B c B l h a h h a a a h h h h h h h a h a a h a a h a a a a h a a h ",
"p.p.p.p.p.p.p.p.p.p.p.p.p.p.p.p.p.p.p.>.c % a F E ~ ) ) ) E J A B l a u u a a a a a a a a a a a a u a a a a a a a a a a a u a a ",
"p.p.p.p.p.p.p.p.p.p.p.p.p.p.p.p.p.p.p.>.l - a F ] |  . . .] E J A l t 7 7 9 9 t 9 9 9 9 9 9 9 9 9 9 9 9 9 9 9 9 9 9 9 9 9 9 9 9 ",
"p.p.p.p.p.p.p.p.p.p.p.p.p.p.p.p.p.p.p.=.l % a F ) | | | | | ) E A h 7 % % % - % % % % % - % % % % - % % - - % % - % - % % % - - ",
"p.p.p.p.p.p.p.p.p.p.p.p.p.p.p.p.p.p.p.=.c - a J ) | | | | | | ) A a , O # # O #     O O O   O   O O O O O O O O O O O O O O O O ",
"p.p.p.p.p.p.p.p.p.p.p.p.p.p.p.p.p.p.p.=.c - u J ) | | | | | | ~ F a - O O O O O O O O # O O O O O O O O O O O O O O O O O O O O ",
"p.p.p.p.p.p.p.p.p.p.p.p.p.p.p.p.p.p.p.>.c % u F ) | | ] ] | | ) J a - O O O O O O O O O # # # O # O # O O # O O O # O O # O O # ",
"p.p.p.p.p.p.p.p.p.p.p.p.p.p.p.p.p.p.p.>.c % a J ) | | ] |  .] ) F h - O   O   O O O # # O O O O O O O O O O O O O O O O   O   O ",
"p.p.p.p.p.p.p.p.p.p.p.p.p.p.p.p.t.p.p.>.c % u F ~ ) ] | |  .| ) F a - O O O   O O O O O O O O O O   O   O   O   O O O   O O O O ",
"p.p.p.p.p.p.p.p.p.p.p.p.p.p.p.p.p.p.p.>.l - u A F E ]  . . .| ) F a , # O O     O O O # O O O O O O O O O O O O O O O O O O O O ",
"p.p.p.p.p.p.p.p.p.p.p.p.p.p.p.p.t.p.p.=.l % u F F I ] |  . .| ~ F h - O O O O O O O O O O O O O O O O O O O O O O O O O O O O O ",
"p.p.p.p.p.p.p.p.p.p.p.p.p.p.p.p.p.p.p.>.c % a F ~ ) | | | | | ) F a - O # O O O O O   O O O O O O O O O O O O O O O O O O O O O ",
"p.p.p.p.p.p.p.p.p.p.p.p.p.p.p.p.t.p.p.>.l % u F E ~ ) ~ ~ ~ ~ E A a - O O # O # O O O O O     O O O O O O O O O O O O O O O O O ",
"p.p.p.p.p.p.p.p.p.p.p.p.p.p.p.p.p.p.p.>.c - u A B A F F A A F A A a , O O O O O O O O O O O O O O O O O O O O O O O O O O O O O ",
"p.p.p.p.p.p.p.p.p.p.p.p.p.p.p.p.p.p.p.>.c , u B A A A A F A A A B a , O   O O O O O O O O # O O O O O O O O O O O O O O O O O O ",
"p.p.p.p.p.p.p.p.p.p.p.p.p.t.p.p.p.p.p.>.l - a F E ~ ~ ) ) ) ) E F a - O O O O O O O O # O O O O O O O O O O O O O O O O O O O O ",
"p.p.p.p.p.p.p.p.p.p.p.p.p.p.p.p.t.p.t.>.B - u F ) | | | | | ] E F h - O O O O O O O O O O   O O O O O O O O O O O O O O O O O O ",
"p.p.p.p.p.p.p.p.p.p.p.p.p.p.p.p.p.p.p.>.l % a J ) | | ] | ] E J A a , # O O O O O O O O   O O O O O O O O O O O O O O O O O O O ",
"p.p.p.p.p.p.p.p.p.t.p.p.p.p.t.p.p.t.3.+.u % a J ~ ] | | | ) J A B a - O O   O O O O O O O O O O O O O O O O O O O O O O O O O O ",
"p.p.p.p.p.p.p.p.p.p.p.t.p.p.p.p.p.8.] t % % a F ~ |  .| | ) J F B a , O   O O O O O # O O O O O O O O O O O O O O O O O O O O O ",
"p.p.p.p.p.p.p.p.t.p.p.p.p.p.p.0.3.#.c , 5 t h F ~ ] | | | ] E F A a , O O O O O O O # O O   O O O O O O O O O O O O O O O O O O ",
"p.p.p.p.p.p.p.p.p.p.p.p.p.p.p.2.| c F I I J B B )  . . .| ] ] E F a , O O O O O O O O O O O O O O O O O O O O O O O O O O O O O ",
"p.p.p.p.p.p.p.p.p.p.p.p.p.p.p.=.l , I O. .) A A ~  . .| ] ) ] ) F h , O O O O O O O O # O   O O O O O O O O O O O O O O O O O O ",
"p.p.p.p.p.p.p.p.p.p.p.p.p.p.p.=.l , J  . .) F A )  . .] E I ] ) F a , O O O O O O O O O O O O O O O O O O O O O O O O O O O O O ",
"p.p.p.p.p.p.p.p.p.p.p.p.p.p.p.=.c , J | | ) F F ~  . .] I I ) ~ F h , O O O O O O O O # O O O O O O O O O O O O O O O O O O O O ",
"p.p.p.p.p.p.p.p.p.p.p.p.p.p.p.>.c 5 J  . .) A A ~ | | | ] ] | ) F h - O O O O O O O O O   O O O O O O O O O O O O O O O O O O O ",
"p.p.p.p.p.p.p.p.p.p.p.p.p.p.p.>.l 5 J  . .) A A ~ ] |  . . . .~ J a , # O O O O O O # # O O O O O O O O O O O O O O O O O O O O ",
"p.p.p.p.p.p.p.p.p.p.p.p.p.p.p.>.c 5 I  . .~ F F ) | | | | | | ) F h , O O O O O O O O O O O O O O O O O O O O O O O O O O O O O ",
"p.p.p.p.p.p.p.p.p.p.p.p.p.p.p.>.c 5 J  .| ~ A A ~ ] | | | ] ] ) F a , O   O O O O O # O O   O O O O O O O O O O O O O O O O O O ",
"p.p.p.p.p.p.p.p.p.p.p.p.p.p.p.>.c 5 J |  .) A B F E ] | ] | | ) F a , O O O O O O O O O   O O O O O O O O O O O O O O O O O O O ",
"p.p.p.p.p.p.p.p.p.p.p.p.p.p.p.>.c , F |  .) A c A I ) | ] | | ) F a - O O O O O O O O O O O O O O O O O O O O O O O O O O O O O "
};
