/* XPM */
static char *result[] = {
/* columns rows colors chars-per-pixel */
"64 64 210 2 ",
"   c #0B0519",
".  c #0E081B",
"X  c #110B1D",
"o  c #1C1727",
"O  c #211D2B",
"+  c #25222E",
"@  c #3D2326",
"#  c #262231",
"$  c #2A2633",
"%  c #2D2A35",
"&  c #2E2A3A",
"*  c #312E36",
"=  c #3E2832",
"-  c #312D3B",
";  c #333137",
":  c #35333B",
">  c #38373D",
",  c #3B3A3D",
"<  c #482724",
"1  c #562C28",
"2  c #59312A",
"3  c #422C35",
"4  c #493239",
"5  c #622E26",
"6  c #67352B",
"7  c #733A2D",
"8  c #653931",
"9  c #40403F",
"0  c #6B423B",
"q  c #744233",
"w  c #7E4A38",
"e  c #312F42",
"r  c #343242",
"t  c #393643",
"y  c #3D3B43",
"u  c #393648",
"i  c #3C3B4A",
"p  c #3D3D51",
"a  c #493640",
"s  c #403E44",
"d  c #413E4B",
"f  c #553E44",
"g  c #413E51",
"h  c #3D4152",
"j  c #464546",
"k  c #484847",
"l  c #45434A",
"z  c #48464B",
"x  c #4B4B4B",
"c  c #54474D",
"v  c #4F504F",
"b  c #50504F",
"n  c #444353",
"m  c #4A4653",
"M  c #4E4C51",
"N  c #45465B",
"B  c #484558",
"V  c #474A5D",
"C  c #4C4B5C",
"Z  c #594752",
"A  c #504E54",
"S  c #524D5C",
"D  c #545454",
"F  c #585757",
"G  c #585857",
"H  c #55525B",
"J  c #59565F",
"K  c #5A5A59",
"L  c #674643",
"P  c #784E44",
"I  c #645158",
"U  c #60605F",
"Y  c #4A4D63",
"T  c #4D5364",
"R  c #4E5368",
"E  c #545464",
"W  c #595561",
"Q  c #525A65",
"!  c #5D5A63",
"~  c #53556B",
"^  c #585769",
"/  c #545B6D",
"(  c #5B5B6B",
")  c #575D71",
"_  c #5A5E77",
"`  c #605D65",
"'  c #695961",
"]  c #625D6A",
"[  c #615D71",
"{  c #5B6477",
"}  c #5C6475",
"|  c #5D647A",
" . c #646462",
".. c #696967",
"X. c #65616B",
"o. c #6D646B",
"O. c #69656E",
"+. c #79676A",
"@. c #696673",
"#. c #6D6A73",
"$. c #646679",
"%. c #626A7C",
"&. c #6A6C7B",
"*. c #716E76",
"=. c #726E7B",
"-. c #6C737D",
";. c #727077",
":. c #74727C",
">. c #79767D",
",. c #7B787F",
"<. c #854A37",
"1. c #8E533D",
"2. c #98563B",
"3. c #A35C3D",
"4. c #875642",
"5. c #926550",
"6. c #AB6543",
"7. c #AE7150",
"8. c #847170",
"9. c #CB875C",
"0. c #656D83",
"q. c #6B6E84",
"w. c #686E88",
"e. c #677086",
"r. c #6A7285",
"t. c #6C758D",
"y. c #7E7B82",
"u. c #737689",
"i. c #73798D",
"p. c #7B7E8C",
"a. c #6F7791",
"s. c #6F7890",
"d. c #737B93",
"f. c #787C95",
"g. c #827E87",
"h. c #79818E",
"j. c #778097",
"k. c #7C8493",
"l. c #7C849C",
"z. c #7E86A1",
"x. c #838087",
"c. c #84838B",
"v. c #89868E",
"b. c #8A888E",
"n. c #8D8A92",
"m. c #858999",
"M. c #848A9C",
"N. c #928E97",
"B. c #8C929E",
"V. c #939196",
"C. c #96949B",
"Z. c #9C9A9E",
"A. c #838BA4",
"S. c #888EA2",
"D. c #858EA9",
"F. c #8C93A4",
"G. c #8A93AD",
"H. c #949AA5",
"J. c #9699A8",
"K. c #8C95B2",
"L. c #8F98B6",
"P. c #949CB3",
"I. c #979EB7",
"U. c #A19CA4",
"Y. c #9CA0AD",
"T. c #9AA1B5",
"R. c #9AA1B9",
"E. c #A2A1A4",
"W. c #A6A5AA",
"Q. c #A9A7AC",
"!. c #ABAAAD",
"~. c #A5AAB6",
"^. c #ABABB5",
"/. c #A5ABBB",
"(. c #B1AFB3",
"). c #ADB3BD",
"_. c #B3B2B4",
"`. c #B5B5BA",
"'. c #B8B7BE",
"]. c #BDBCBD",
"[. c #A5ACC3",
"{. c #A7ADC4",
"}. c #ACB2C6",
"|. c #ACB3CA",
" X c #B2B8C7",
".X c #B5BCC5",
"XX c #BCBDC2",
"oX c #B0B6CE",
"OX c #B5BBD3",
"+X c #B8BED6",
"@X c #BFC0C1",
"#X c #BDC2CC",
"$X c #BDC3D5",
"%X c #BBC2D9",
"&X c #C2C2C3",
"*X c #C8C8C7",
"=X c #C6C5C9",
"-X c #CBCBCC",
";X c #D0CFCF",
":X c #C5CAD5",
">X c #CDCDD0",
",X c #CED3DD",
"<X c #D2D2D2",
"1X c #D9D9DA",
"2X c #D4DAE4",
"3X c #D7DDE5",
"4X c #DCE2EC",
"5X c #DFE6F0",
"6X c #E5E8EE",
"7X c #E2E9F2",
/* pixels */
"G K .......... .K K G K G D k x U ..U G G G K G K G G K K D x k k y O X .     . X + l G  ..... .U K G K ....K K K K K G K D x k ",
"K K  ....... . .K K K K K D x D K U U K K G G K G K K G D D j , j s * & - - & $ O $ l D U  . . .K G G G K U K K K K G K K D x j ",
" . .K K K K K K K G K K K D D D b b U U K K K G G K G G D l ; % : d J X.=.:.=.] r % k D K K U K G G x x x D U  .K K K G K D k k ",
"....K K K K K K K K G D M x k k j v K U U K K G K G G D x j : > l ! g.Z.Q.W.C.=.n > l D G K K G G D b x k x K U U K K G F v x k ",
"....K K K K K K G G F M s : * : j x b D  . .K K G G D x s s x ` *.n.!.@X*X`.b.] m k M G G G K K K G F b k k x D U  .K G M k k k ",
".. .K K K K K K K F M z z i % * 9 k k v U  .U K G D x l l S #.b.Z.(.&X-X&XU.*.H M M D G K K G D G G G F v k k k G U G v k k k k ",
".. .K K K K G D F M l A @.] d : 9 k j v U  .I K D x y i H ;.V.!.].*X<X&XC.#.H z D D K K  .U D x D G D F D x k k x v x x k j k l ",
" . .K K K G K D M x z ] N.n.W d h k k D K K G D G k > y X.v.!.@X-X1X1X(.#.z j k D K K K  .K x l k z z l k k y j j k j k k k k k ",
"I K K K G K F A j l I v.]._.#.n s z b D M x x b G c - t O.V.!.@X*X;X<X!.W t l b G K K K K K M j : * % % % % * : y j k k j j k j ",
"K K G G K G F x > d #.J.-X*Xn.! x k D D b x k b D l $ - J g.n.Z.E.Q.Q.v.l $ s M b G G K D D k l y t y d d d d s , h j k k k k k ",
"K K K G G K F z * s :.W.-X>X_.v.J j x D b D b M k , + + s m S W W ] ] S - % , l k b F F D l y z W O.;.>.y.=.#.W 9 > j k k k j k ",
"K K G K G G D k % i >.Q.&X;X-X^.g.! A x b F b k , : t u g g C g d u g g u r : - , 9 M b z l z ! ,.N.Z.E.W.W.U.g.K z y , j k l j ",
"K G K G G K F l % s ,.E.].-X;X*X(.v.W s l k 4 - * i ^ &.u.u.q.( g p Y ) ~ Y e $ $ ; h j > l ` 8.Z.(.`.].&X-X>XXXn.X.j ; y j k k ",
"K K G K K G D k * i ;.Z.`.*X;X<X<X!.] i > t i g n / f.J.I.I.F.i.T V | t.a.$.N e : : > : * d ;.C._.&X*X-X;X;X*X(.n.] > $ , j k j ",
"K K K G K G F z % > O.V.(.@X*X;X1X`.@.t % r ^ q.i.S.I.|.oXoX{.S.} Q t.z.A.f.w.0.~ B e # + d ,.E.].*X;X;X-X(.v.@.W d $ + , j k j ",
"K K K K G G F z > t K ,.Z._.].].XXW.@.B i Y i.J.R.{.oX+X%X%XoXG.$.} f.D.K.G.D.f.s.| g & # u *.Z.].;X<X*X!.v.! d t : % ; h k k k ",
" . .K K K K K v l j d J g.C.E.Z.g.:.$.&.i.A.I.}.OXOXOXOX+X+X|.G.{ / j.z.K.L.K.G.D.j.| Y e r H x.@X1X<X_.y.J j : ; , j M D D k k ",
".. .K K K K K G D z i l ` ;.>.#.H C $.p.G./.oX+X+X+XOXOXOXOX|.F.{ / j.z.G.L.L.L.L.D.h.{ h r l $.U._.!.b.K t > > 9 k D K D v k k ",
".. .K K G K G K G v l l j d d y r i Q u.J.{.OX+X+XOXOXOXOXoX[.S.%./ j.z.z.L.K.L.L.G.l.e.Y h V T ] ] ` H j , 9 k G K K G v k k l ",
".. .K K G G K G G G D x , % + % i Q $.h.S.I.}.oXOXOXOXOXOX|.P.f.%.%.l.z.K.L.K.K.K.z.j.%./ T R V u r : , , 9 j v U ..U D x k k k ",
" .I F D F K G K K K  .K k : $ i $.B.Y.H.m.m.P.{.oXOX+XOXoX/.A.d.h.j.z.L.K.G.G.z.z.j.| { | | { Y - + % , h 9 j v  ...U D x k k j ",
"M x z z v D G G K K  .K k y s ( C.#X#X).F.k.S.J.[.oX+X+XOX/.B.g.z.G.P.P.K.D.j.j.a.0./ } | e.0.R r # * , 9 k k v G K G v x l j k ",
"% & * : j M F K K K K v y l $.B.#X2X4X,X).H.p.h.P.}.OX:X%X X/.I.R.R.R.R.K.l.%./ / / } | e.t.t.| Y i r > 9 j k k M v x x k k k k ",
"o o r n z M v D G D D k ; n c.).2X7X7X4X:X~.u.r.F.}.OXOX).I.C.S.M.z.z.z.D.l.| T T / { e.t.a.a.e._ Y r & 9 k k j j j j j k j k j ",
". & ( =.] H x x b b k , & C B.#X4X5X5X4X,X).h.r.H.}.#X/.p.[ S S T S W $.l.M.r.$.| | e.r.a.a.s.e.0.Y r & h x j j j h j j j k j k ",
"  & :.C.b.*.D l j s > > l @.~.,X4X5X5X5X4X#XC.B./. XT.m.' a 3 3 4 4 c I =.d.s.t.e.r.t.t.t.t.s.t.0./ p & , 4 ; > , , j j j k k j ",
"  - :.Q.`.E.#.z > * + s $.H.#X4X5X5X5X5X4X:X#X@X&X(.c.I f 1 1 1 q w <.P I ] w.d.s.s.a.t.a.t.a.t.w.| R p * + + + $ ; , j j k k k ",
"  % =.Q.*X@XV.*.I d - g h.).,X4X4X4X4X4X4X4X4X,XXXV.+.c 5 5 1 6 1.3.2.1.L Z [ w.a.s.a.t.t.t.t.a.a.w._ V & + - > > > , , j j k k ",
"X & o.Z.@X-X@X_.!.v.S S m.).,X4X,X,X,X2X4X7X6X>XN.' L 6 7 7 5 7 1.6.6.3.<.0 f ~ w.a.a.t.t.a.a.a.a.a.{ Y r t W #.] D y : , j j j ",
"o - S g.Q.=X<X1X<XQ.] S &.B.~.'.).).).#X,X5X6X#X*.c 5 6 7 7 2 5 <.2.3.2.<.8 a g 0.s.e.e.e.e.t.t.a.e._ Y t n y.V.v.;.M t > , j k ",
"* * s J v.(.*X1X>XQ.` d C ( &.-.-.-.-.k.).<X3X].] 4 5 7 7 7 1 < 1 8 7 q 7 8 = g 0.s.%.{ | 0.0.e.e.0.~ N u H V.!.!.V.#.x ; ; 9 j ",
"k s * d *.Z.@X-X-XJ.! t u n T Q Q T Q -.H.).#XE.J 3 1 6 7 7 < @ < 1 7 P 7 8 3 g h.F.h.-.{ { { { { ) Y h t J Z.@X&X!.b.! : $ , j ",
"U D > t ` b.(.@X@XZ.W u h Y { | { { { $.&.k.F.p.n @ 1 5 5 2 < @ @ 8 5.7.7.1.4 K E.#X).C.-.Q Q Q Q T h , t ^ U.*X;X].Z.*.l % , 4 ",
"..I s s A #.V.!.!.n.C u h R 0.w.e.0.0.| { 0.d.0.g = 1 6 7 8 6 1 1 0 7.9.9.5.L ..`.4X,X).k.-.-.-.-.-.Q V d ] Q.>X<X-X(.v.K i : ; ",
"..U A j s A *.b.V.,.N u Y 0.w.a.t.r.r.e.0.r.a.0.g 4 8 <.2.2.2.w 0 w 7.9.9.5.I >.#X6X4X,X#X)./.).).~.H.-.S ] Q.<X1X<X*X!.h.H % o ",
".. .K x s s H ] #.` r e V { t.a.a.a.t.t.t.t.a.w.R Z 0 1.3.6.3.2.q w 7.9.7.5.8.V.-X6X5X4X3X,X,X2X4X,X_.k.S S v.!._.&X-X&XZ.O.% . ",
".. .K D x z s s , * # & h _ w.a.a.t.t.t.t.a.d.a.w.[ Z L 4.3.2.1.7 q 3.5.5.8.Z.XX:X4X4X4X4X4X4X4X4X,X).h.z - z K *.C.&X*XQ.*.%   ",
".. .U G D x i * % % # - p Y 0.w.t.a.t.t.t.t.a.d.a.w.[ I P <.<.7 2 8 P 5.;.n._.#X@X#X,X4X5X5X5X5X4X#XH.&.i % % : l @.E.`.Q.:.-   ",
".. .K K F D x k l j s y e p R 0.t.s.a.t.t.t.w.w.t.a.f.=.I f 4 4 4 4 Z +.C.~.}./.B.C.#X3X4X5X7X4X,X~.#.n j y > > > x =.v.C.=.&   ",
"....K G G F F D b b M l & e Y 0.t.s.a.t.t.0.| | $.t.A.g.%.Q H A S ! ] g./.OX}.J.-.h.}.2X4X5X7X2X#XB.C : l x k j s s Z ] =.] $ . ",
".. .U K G G G G G G D k ; r Y ) e.t.a.t.e.{ / T R { l.z.G.z.z.z.S.F.J.}.+X+X{.F.r.u.~.:X4X5X7X2X Xh.z : k F D D b M l d d r O X ",
".. .K K K G G K K K G v , r i R | e.e.w.| { / / / 0.l.K.R.R.R.P.T.~..X$X%X+X|.P.h.p.H.`.,X4X2X#XB.$.j , D K K K K D j , * O O O ",
".. .K K G G K K K K K D l : % r / 0.0.0./ } 0.t.j.z.z.K.L.I.K.z.k.S./.OX+X+XoX{.J.M.k.H..X#X.XH.! l h j K  .K K K F D k , > > : ",
" . .K K K G G D D D D x k : + & Y { { { } | j.z.z.G.K.K.L.z.j.h.i.M./.OXOXOXOXOX{.T.M.k.H.Y.m.#.y $ : x K I K G K G F F x k 4 j ",
"U K K K K G x x k k k y y t : u Y / T Q 0.j.z.K.K.K.K.G.z.j.%.&.l.P.|.OXOXOXOXOXOX{.R.F.p.$.Q i $ + % y k D G K K G K F F v k k ",
"b F b F D M k k j j , j F ] X.X.R h h T 0.l.G.L.L.L.K.G.z.h./ $.F./.oXOXOXOXOXOX%XOX[.J.r.Q i r i i l l l z D D G K G G K D x k ",
"x x k k j h j j j y s W v.Q.`.U.$.n u h { j.z.L.L.L.L.K.D.s./ } F.}.oXOXOXOX%X%X%XoX[.G.p.$.C H #.>.#.` l i k v G K K K K D x k ",
"x x k j > , y j j x W y.^.<X1X@Xh.D r e h 0.j.G.D.K.K.K.z.j./ $.G.|.OX%XOXOXOX|.[.T.l.i.q.&.:.g.Z.E.Z.y.W d l j v D G K K D x j ",
"D D b k * % : d l ] v.!.=X<X;X@XZ.*.y # & p _ s.f.A.K.K.D.d._ $.J.oX+X%X+XoX[./.J.i.E g B @.W.XX].]._.Z.,.J y * s b D K K D x j ",
"U K K x * & d W #.v.(.-X;X;X*X].E.,.s + O e N ) $.w.f.A.z.t./ } A.[.oXoX|.I.A.i.q.^ r % t @.`.1X;X*X@X(.V.O.t % 4 k F K K D x j ",
"..U K x > i O.n.(.=X;X;X-X*X&X(.C.;.d * : , r u u Y 0.a.t.$.V E u.G.I.I.J.f./ n i i , > t ] Q.<X<X;X*X_.Z.=.s $ j D G G K D x j ",
" .U K v y z O.n.'.;X-X&X].`.(.Z.g.` d t l l , ; & u Y ~ ) Y i g [ q.u.u.q.^ d ; : , l k l J v.(.*X;X-X@XE.>.u * k G G G K D x j ",
"K U K D D k x ! b.H.W.Q.E.Z.V.8.J l l z v D M k d s r u g g u u g B B g u t s l x x D b k M ! ,.!.*X>X=XW.>.s $ k D K G K F x j ",
"G G K G K x t y K O.:.>.,.;.@.W l y x D K K G D c s $ * S ] ] ( W H m t + $ j x H G K D D x l J b._.>X-XW.:.i * x G D K K v x j ",
"K K G K K D j , , t i d y t t , y x K  ...U K G D j $ n v.Q.Q.E.Z.n.g.W * $ j b G K G K G b z k  .v.=X>XH.#.s : x F K G K D x j ",
"G G K G K D k j > * % % * $ $ ; j D  .......U K D j : W Q.<X;X*X@X!.V.o.t $ j D G K G K K D k j l #.(.XXb.K d s v F K K K D x j ",
"G K K G K G F b z z k l k s 4 h v K  .........K k j z #.`.<X<X-X&X!.b. .t ; z D G K K K K D k 9 i E n.N.` m j v v K K K K D x j ",
"K F K K G G K G G F F F F D x k D K  .U  . . .K m H #.V.&X1X-X@X!.V.*.H d y x D D D D D D D k 9 : l X.O.M j v F D F D F G D x j ",
"G K K G K G G K G K G G G G D b x v K I K K v v F ;.E.@X-X*X_.Z.b.#.A l l M D D v x x x x x x h * $ y k M v F D v x x v G D x j ",
"K G G K G K K G K G G K G G U D x x D G K v j m X.v.`.*X@X!.v.#.' M d y x D D D x j j j k k x j : * * h x D D v k j j x D D x j ",
"F K K G G K G G K G G G G K K D x x D K D z > g ;.C.W.Q.Z.y.W i t t j M D D M k l k k k k k k z x k x x x x x x k j j x D D x k ",
"D D D D D D F D D D D D D D G b x x M D A s % r ( :.>.*.O.F y % % > j v D D k k k j k j k k k k A D D A x j j k k j k x b D k k ",
"x x x k k x x x x x x x x x x k k k k z k , O O $ & & & $ % ; > , j l k x x k k k k k k j k k k k x x k x j k k k j k k x x k k ",
"j j j k k j j k j k j j j k j k k k k j j > O X .       . o ; , j j k k k l k k k l j j k j k z k k k k j k j j k k j k j j k k "
};
