/* XPM */
static char *b77d3f3dc28d4a73f6e78c37b4b31dcdDOn2rPncL3VW6Hxz[] = {
/* columns rows colors chars-per-pixel */
"64 64 85 1 ",
"  c #07070F",
". c #0A0A0F",
"X c #0C0C12",
"o c #111216",
"O c #1A1A1E",
"+ c #373507",
"@ c #383607",
"# c #373508",
"$ c #393708",
"% c #3B3908",
"& c #373615",
"* c #383716",
"= c #3B3A17",
"- c #3B3A19",
"; c #1D1E25",
": c #222225",
"> c #222228",
", c #34332A",
"< c #333336",
"1 c #3E3D34",
"2 c #353539",
"3 c #37383B",
"4 c #3B3B3D",
"5 c #403E1A",
"6 c #6C6812",
"7 c #44443C",
"8 c #48483D",
"9 c #3F3F42",
"0 c #3F4043",
"q c #474747",
"w c #484847",
"e c #464649",
"r c #4B4B4B",
"t c #50504F",
"y c #4F5052",
"u c #545454",
"i c #585857",
"p c #5A5A59",
"a c #60605F",
"s c #646462",
"d c #696967",
"f c #948F1D",
"g c #96901E",
"h c #C2BB22",
"j c #D6CD0F",
"k c #D6CE12",
"l c #F2E60A",
"z c #EFE51C",
"x c #F1E610",
"c c #F5EA12",
"v c #F8EE1C",
"b c #D3CC25",
"n c #DFD73A",
"m c #DFD83A",
"M c #E6DE36",
"N c #E0D83A",
"B c #E4DC38",
"V c #E5DD38",
"C c #EAE128",
"Z c #F2EA25",
"A c #F3EA25",
"S c #F2E926",
"D c #F3EB2B",
"F c #F3EA2C",
"G c #F3EB2C",
"H c #F5ED2C",
"J c #FAF122",
"K c #FBF122",
"L c #FBF123",
"P c #FCF226",
"I c #FDF425",
"U c #FBF22B",
"Y c #FEF52C",
"T c #FDF42F",
"R c #FFF72F",
"E c #FFFA2F",
"W c #FFFF2F",
"Q c #E8E137",
"! c #EFE734",
"~ c #F5EC32",
"^ c #F8EF31",
"/ c #F9F031",
"( c #FFF730",
") c #FFFA30",
"_ c #FFFF30",
/* pixels */
"ipdddddsppippurtsspppppippippurrtaddddppipppdddsapiaddppppippurq",
"ppsdsdsspppiiurtppappppiippiiurriaassapppiipsssspiuipapppppppurq",
"sspppapppppppiuuuupspppppiippurrpsaaapppppppppappirrruaspppppurq",
"ddappppipppiiipirupsapppppipptrtaspiipppipipppppiurrqrpaapppirrq",
"dsappppppippppiiuuyupsppippipurtaaaiipippipipppipiitrwruasputrqq",
"dspppiipppiiipippurrsdappippiurtadpiippiipppppuuiiiitwqrpaptrqqq",
"dspppipiipipippipurradppipppiurradpppiippippsauruppiuuwwrtrrwqqq",
"ssppippppppppipppuruppiupppppurtasapipipppppsaurupipputrwqqeqwqq",
"ppppppppsspppppiiiiutrrypspupurraspppppippppppiuippiiiuurqqqqqwq",
"ppipppppsspppppppipiteetpapuutruasapppiuuuippippiippppiurqqqwqqq",
"ppppippppppppuippppiuuuuurrrrrwraspaaatrrrupippipppiippurqqwwqwe",
"ppppuppipppppppiipiipppitrrrrwwrasapdarqqruipipppiiiuiuyrqqqqqqw",
"ppippipppiipppupipippppiuuuuiuwuadpadatqqruppppiiipirrrrwqweewqq",
"piippppiippipppppipiuuippppppurrasapspurrruppipipiuurqqwewewwqwq",
"pppippppppippippppputtuppppppurrippppppuuuiiiippputrweqqwqwwqqew",
"ppppuppppuppippiipiutruppppur42249qqupppppppppiiitwqqqqqqrrrrrwq",
"dappppppipippiipippiuuippppr:XXXXXo:rpppppppppputwwqqqqqqrpppyrq",
"dspppppppppiippppiippppue9e1=%%%%%%-100qupppiiuurqqqwqwwruaspuww",
"ddppipppppiipipipipppppr:XX&fhhhhhhg-XX:rppppurrwqwqewqrppaiywww",
"dspppippppppppipipippue1*##6bWWWWW_b6#$*1euppurqwewqqwqtsdaurqew",
"ddppiipippsspppippppae;*fhhbDWEEEEWDbhhf*;eppurqewwwwwqtadaurqqq",
"ddppppppppssppippppue3&6bWWR^~~~~~~^EW_b6*1euurqqwrrwqerppiyrwqq",
"ddppppippppppppppppe;&fbDWERQnnNNmnM/WEFbf*;3rrqqrpprqqwttrwwqwq",
"sappiipippiuuiippur1*6b_ER~!MnnNNNNV!~R)_b6&,2qrrusaureqqqqweqwq",
"pppppippiutrrruppe:*fbHEE^MM!~~~~~~~MM~EEHbf*O2rpaapiywwqqwqwewe",
"ppppippipurqqruppeX$hWER~!VM^RRRREY~MBCSU__h$.3ussppiureqeeqqqqw",
"sspppiippurqqruppeX+hWW^MM!~YRRRRRRRUCkkS)_h$Xesappppureqewqqqew",
"dssppipppurrrtiur1*6bR/!VM^ERYRYRRYR)ZkjzIRb6-8uippppurwqqqwwewe",
"ddppppiipiiuuiiw:*gbH/QV!~RRYRYRRYRY(USzxcIFkg5:wppppurwqeqqwqqq",
"ppiuuuuuuuuuuii4X%h_W~nm~ERYYRRYYRYRRRRJllJ_Wh5.4iuuitwwqwweqeww",
"urrrrrrrrrrrrrr2.%hWE~mm~RRRRRYRRRRURRRJllJ)Wh@.<trrrwweqqewwweq",
"rttrrurrtrrrrtt4X%hWE~NN~EYRRYRYURRRRRRJllJ)Eh5X3tyrwwrtrwrrrwwq",
"spaaaaasspiipasqo%hWE~Nm~RRRRYRYRRRRRR(JllJ))h%oqasirrpppuuuuurq",
"dddddssddsppssdeo+hWE~mm~RRUYRYRYRURYR(KllJ__h%orddprusspppppurq",
"ddsppppppppppaaeo@hWW~nn~YRRRRRYRRRRUR(JllJE_h%oeapprrpdappppurq",
"dspippippppppppq:=gbD^QM!^(RURYRYRUR(RPvxcPFbg=:qppurrsspppppurq",
"dspiipippppiipiur1*6bR/!MM~ERRRRYRUR(PccvIEb6&7ruppurrsdappppurq",
"dapppppipiippppppqX+hWW~MMCSU(RRR(RRPvlcP)Wh+X9ppupuruppiuppuurq",
"dsappippippipippp0X+hWER/CkkS)(RRR(PcxvPREWh+X0pppppuuurruaatrqq",
"ddpiipiipippippppq:*gbDEESkjzJJPJJJvccP(_Hbg*:eppppppurrrrpprqqq",
"dsapippipippipippur1&6bWEUSzxllllllcvPR)_b6*1rupipppppuuuuurwqwq",
"dspppiipipippipippar;*fbDWEIcllllllcPEEHbf->rppppipppppppurwqqwq",
"dspippppipiiippppaspr3&6bWWRIJJJJJKP)W_b6-7yppippippdsppiiuurqqq",
"ssaiiiuuuuuuuuipppssae;*fhhbH_)))))Fbhhf&>yspipiipipsspppipirrrq",
"apppputrrrrrryuppppppuw1=$+6b__))__b6$#*1eipppppppipppppippiuurq",
"uuuuuurrrrwqrruuuippippr:X &ghhhhhhf-XX:rpppppipipippipppipipurq",
"rrwrrtyuutrrturrrruppppir44,*%%%%%%=1e9euppippiiipppppppipipiurq",
"rrrrrripiurruutrrruuuuuuuut4O.XXooX:rppppppppppppipiipipuuipiueq",
"uuuuuiiipurruiuuuurrwrrrrrur4<<3ewewupppipipiiipppipppiurtippure",
"pppiiiuiiitruuippitrrrrrrtiirrrrpdpppppppipppiiuuuuuippurtuppurq",
"dsppiuttupiurtuppiiuuuuuuuiiuurrpapppppipipiiirrrrrruppuiuiiiure",
"ssppiurwyuiurrupiiipiipipipppurruppipiipipipiurqqqeruppipippiuwe",
"pppppuweryuurrupppiipppppppipurruppiipipppipiurqqqwruppppipppure",
"ppippurqqruitruupppaappppiippurrupippppipipiiitrrrrrupipipiiiurq",
"pppipureqrupuurrupassappipiipurruppipiipippiiiiuuuuuppiippipuurq",
"piipiitrrtuppurrupddddappppppurrupppippippippiippipppipppipipure",
"ipipiiiuuuiipurwupsddddapippiurrasppppppppippipipiippippippppurq",
"pippppiiiipppitruiasssssppiiiurrpspppppiuuuuuiiiippiipppuuuupurq",
"pipiipipiipiiiuuruppapapppippurrippppppurrrrrruppipppppurrrruurq",
"ipippippipippppurrupipiipppppurruppppuuurqqqqruuippiuuurreqruurq",
"ppipiipiiiiiippurrupippuppppiurruppipurrweweqwrruppurrrrqqqruurq",
"uuuuuuuuuuuuuuuurrruuuuuuuuuutrruuuuuurqwqqqeqqruuuurqqqqqqruurq",
"wrrrrwrwrrrrwrrrqerrrrrrrrrrrrqqrrrrrrwqqqeqwqqwwrrrrqqwqqqqrrqq",
"eqeeqqqqqqqqqqqqqqqqqqqqqqqqqqqqqqqqqeqqwqwwqqqqqqqqwqqqqwqqqqqq"
};
