/* XPM */
static char *_0944d2782b44af3e7761240fa8116d596mAZgP3zSkEgT22[] = {
/* columns rows colors chars-per-pixel */
"64 64 256 2 ",
"   c black",
".  c #010101",
"X  c #020202",
"o  c gray1",
"O  c #040404",
"+  c gray2",
"@  c #060606",
"#  c #070707",
"$  c gray3",
"%  c #090909",
"&  c gray4",
"*  c #0B0B0B",
"=  c #0C0C0C",
"-  c gray5",
";  c #0E0E0E",
":  c gray6",
">  c #101010",
",  c #111111",
"<  c gray7",
"1  c #131313",
"2  c gray8",
"3  c #151515",
"4  c #161616",
"5  c gray9",
"6  c #181818",
"7  c #191919",
"8  c gray10",
"9  c #1B1B1B",
"0  c gray11",
"q  c #1D1D1D",
"w  c #1E1E1E",
"e  c gray12",
"r  c #202020",
"t  c gray13",
"y  c #222222",
"u  c #232323",
"i  c gray14",
"p  c #252525",
"a  c gray15",
"s  c #272727",
"d  c #282828",
"f  c gray16",
"g  c #2A2A2A",
"h  c gray17",
"j  c #2C2C2C",
"k  c #2D2D2D",
"l  c gray18",
"z  c #2F2F2F",
"x  c gray19",
"c  c #313131",
"v  c #323232",
"b  c gray20",
"n  c #343434",
"m  c #353535",
"M  c gray21",
"N  c #373737",
"B  c gray22",
"V  c #393939",
"C  c #3A3A3A",
"Z  c gray23",
"A  c #3C3C3C",
"S  c gray24",
"D  c #3E3E3E",
"F  c #3F3F3F",
"G  c gray25",
"H  c #414141",
"J  c gray26",
"K  c #434343",
"L  c #444444",
"P  c gray27",
"I  c #464646",
"U  c gray28",
"Y  c #484848",
"T  c #494949",
"R  c gray29",
"E  c #4B4B4B",
"W  c #4C4C4C",
"Q  c gray30",
"!  c #4E4E4E",
"~  c gray31",
"^  c #505050",
"/  c #515151",
"(  c gray32",
")  c #535353",
"_  c gray33",
"`  c #555555",
"'  c #565656",
"]  c gray34",
"[  c #585858",
"{  c gray35",
"}  c #5A5A5A",
"|  c #5B5B5B",
" . c gray36",
".. c #5D5D5D",
"X. c gray37",
"o. c #5F5F5F",
"O. c #606060",
"+. c gray38",
"@. c #626262",
"#. c gray39",
"$. c #646464",
"%. c #656565",
"&. c gray40",
"*. c #676767",
"=. c #686868",
"-. c DimGray",
";. c #6A6A6A",
":. c gray42",
">. c #6C6C6C",
",. c #6D6D6D",
"<. c gray43",
"1. c #6F6F6F",
"2. c gray44",
"3. c #717171",
"4. c #727272",
"5. c gray45",
"6. c #747474",
"7. c gray46",
"8. c #767676",
"9. c #777777",
"0. c gray47",
"q. c #797979",
"w. c gray48",
"e. c #7B7B7B",
"r. c #7C7C7C",
"t. c gray49",
"y. c #7E7E7E",
"u. c gray50",
"i. c #808080",
"p. c #818181",
"a. c gray51",
"s. c #838383",
"d. c #848484",
"f. c gray52",
"g. c #868686",
"h. c gray53",
"j. c #888888",
"k. c #898989",
"l. c gray54",
"z. c #8B8B8B",
"x. c gray55",
"c. c #8D8D8D",
"v. c #8E8E8E",
"b. c gray56",
"n. c #909090",
"m. c gray57",
"M. c #929292",
"N. c #939393",
"B. c gray58",
"V. c #959595",
"C. c gray59",
"Z. c #979797",
"A. c #989898",
"S. c gray60",
"D. c #9A9A9A",
"F. c #9B9B9B",
"G. c gray61",
"H. c #9D9D9D",
"J. c gray62",
"K. c #9F9F9F",
"L. c #A0A0A0",
"P. c gray63",
"I. c #A2A2A2",
"U. c gray64",
"Y. c #A4A4A4",
"T. c #A5A5A5",
"R. c gray65",
"E. c #A7A7A7",
"W. c gray66",
"Q. c #A9A9A9",
"!. c #AAAAAA",
"~. c gray67",
"^. c #ACACAC",
"/. c gray68",
"(. c #AEAEAE",
"). c #AFAFAF",
"_. c gray69",
"`. c #B1B1B1",
"'. c #B2B2B2",
"]. c gray70",
"[. c #B4B4B4",
"{. c gray71",
"}. c #B6B6B6",
"|. c #B7B7B7",
" X c gray72",
".X c #B9B9B9",
"XX c gray73",
"oX c #BBBBBB",
"OX c #BCBCBC",
"+X c gray74",
"@X c gray",
"#X c gray75",
"$X c #C0C0C0",
"%X c #C1C1C1",
"&X c gray76",
"*X c #C3C3C3",
"=X c gray77",
"-X c #C5C5C5",
";X c #C6C6C6",
":X c gray78",
">X c #C8C8C8",
",X c gray79",
"<X c #CACACA",
"1X c #CBCBCB",
"2X c gray80",
"3X c #CDCDCD",
"4X c #CECECE",
"5X c gray81",
"6X c #D0D0D0",
"7X c gray82",
"8X c #D2D2D2",
"9X c LightGray",
"0X c gray83",
"qX c #D5D5D5",
"wX c gray84",
"eX c #D7D7D7",
"rX c #D8D8D8",
"tX c gray85",
"yX c #DADADA",
"uX c gray86",
"iX c gainsboro",
"pX c #DDDDDD",
"aX c gray87",
"sX c #DFDFDF",
"dX c gray88",
"fX c #E1E1E1",
"gX c #E2E2E2",
"hX c gray89",
"jX c #E4E4E4",
"kX c gray90",
"lX c #E6E6E6",
"zX c #E7E7E7",
"xX c gray91",
"cX c #E9E9E9",
"vX c #EAEAEA",
"bX c gray92",
"nX c #ECECEC",
"mX c gray93",
"MX c #EEEEEE",
"NX c #EFEFEF",
"BX c gray94",
"VX c #F1F1F1",
"CX c gray95",
"ZX c #F3F3F3",
"AX c #F4F4F4",
"SX c gray96",
"DX c #F6F6F6",
"FX c gray97",
"GX c #F8F8F8",
"HX c #F9F9F9",
"JX c gray98",
"KX c #FBFBFB",
"LX c gray99",
"PX c #FDFDFD",
"IX c #FEFEFE",
"UX c white",
/* pixels */
"h C ] 1.u.k.c.v.x.s.6.,.<.,.=.@.} $.y.d.8.1.1.,.=.#...*.t.a.8.1.,.:.=.$.X.X.#.=.,.1.1.8.d.y.$.} @.=.,.<.,.6.s.x.v.c.k.u.1.] C h ",
"j C ] 2.i.j.h.h.l.s.6.,.1.,.-.@.} $.y.d.8.<.<.,.-.#. .&.t.s.8.<.,.>.-.%.X...#.-.,.<.<.8.d.y.$.} @.-.,.1.,.6.s.l.h.h.j.i.2.] C j ",
"k Z ] 3.d.h.e.w.f.s.7.<.1.<.;.#.} $.u.f.9.<.,.>.-.#.| $.y.f.8.<.<.<.:.&... .$.-.>.,.<.9.f.u.$.} #.;.<.1.<.7.s.f.w.e.h.d.3.] Z k ",
"l A [ 3.d.h.w.w.f.d.7.<.1.1.:.#.| $.u.f.0.1.,.:.-.#.} $.u.f.8.<.<.<.>.&. . .$.-.:.,.1.0.f.u.$.| #.:.1.1.<.7.d.f.w.w.h.d.3.[ A l ",
"l A [ 2.a.k.f.g.l.d.7.<.1.<.:.$...&.t.s.9.1.,.:.-.$.} $.t.d.8.<.<.,.;.$.....$.-.:.,.1.9.s.t.&...$.:.<.1.<.7.d.l.g.f.k.a.2.[ A l ",
"l B W +.7.i.p.a.a.e.1.-.-.=.%.+...#.5.9.1.;.=.*.%.+.| @.7.q.<.=.=.*.$.+. . .@.%.*.=.;.1.9.5.#...+.%.=.-.-.1.e.a.a.p.i.7.+.W B l ",
"j z M U O.<.<.<.<.;.#.X..... . . .X.@.@.o.X.O.O.X. .} X.%.&.o. ..... .| } }  .X.O.O.X.o.@.@.X. . . .....X.#.;.<.<.<.<.O.U M z j ",
"h l m U +.1.<.:.=.$.O.X... . .| | ..@.@.X...O.O...| } X.%.&.o. ..... .| } } | ..O.O...X.@.@...| |  . ...X.O.$.=.:.<.1.+.U m l h ",
"k N E +.0.a.p.w.1.-.=.=.=.*.%.O.} +.6.0.>.*.=.=.$.o.| @.7.w.2.;.-.*.$.O. . .O.$.=.=.*.>.0.6.+.} O.%.*.=.=.=.-.1.w.p.a.0.+.E N k ",
"l A ] 1.a.x.x.f.w.4.1.,.,.>.;.#.| %.y.d.7.,.<.>.=.@.| %.t.d.0.3.1.,.-.#... .@.=.>.<.,.7.d.y.%.| #.;.>.,.,.1.4.w.f.x.x.a.1.] A l ",
"x S ] 1.u.k.x.z.g.y.6.<.<.>.=.$.X.=.i.d.7.<.1.,.-.@...&.t.s.8.1.1.,.;.$... .#.-.,.1.<.7.d.i.=.X.$.=.>.<.<.6.y.g.z.x.k.u.1.] S x ",
"z A ] <.u.k.x.c.x.d.8.1.<.,.-.$.o.=.i.d.8.<.1.,.-.#...&.t.s.8.1.<.>.-.$.....#.-.,.1.<.8.d.i.=.o.$.-.,.<.1.8.d.x.c.x.k.u.<.] A z ",
"j C ' 1.a.z.z.z.x.d.7.1.2.1.:.$. .%.y.d.8.1.<.>.-.#. .%.y.d.9.1.<.>.=.#.....#.-.>.<.1.8.d.y.%. .$.:.1.2.1.7.d.x.z.z.z.a.1.' C j ",
"j C ` 1.s.x.z.l.z.d.7.<.2.1.:.$.| $.t.d.9.1.<.>.-.#.| %.y.f.9.1.<.>.=.#.....$.-.>.<.1.9.d.t.$.| $.:.1.2.<.7.d.z.l.z.x.s.1.` C j ",
"x S ' <.p.z.l.l.l.s.7.,.,.>.-.$...%.r.a.0.2.<.>.-.$. .%.u.f.8.<.<.>.-.$.....$.-.>.<.2.0.a.r.%...$.-.>.,.,.7.s.l.l.l.z.p.<.' S x ",
"x S ] 1.p.l.l.l.k.a.7.<.,.:.=.#...@.4.9.2.:.=.*.%.+. .#.7.q.1.-.=.*.&.@. . .@.%.*.=.:.2.9.4.@...#.=.:.,.<.7.a.k.l.l.l.p.1.] S x ",
"k Z ] 2.i.k.x.z.j.p.8.2.<.:.-.#.| | +.$.+.o.X..... .| ..+.#.+.o.o.X... .| }  ...X.X.o.+.$.+.| | #.-.:.<.2.8.p.j.z.x.k.i.2.] Z k ",
"h C ] 2.i.k.x.x.l.a.9.2.<.>.=.@.| | #.%.+.o.X.X. .| | ..@.#.+.o.o.X.X. .| } |  .X.X.o.+.%.#.| | @.=.>.<.2.9.a.l.x.x.k.i.2.] C h ",
"h C ] 2.i.l.x.c.c.f.8.<.<.:.&.+...$.8.w.2.;.-.*.$.O.| #.7.q.<.=.-.-.*.@. . .O.$.*.-.;.2.w.8.$...+.&.:.<.<.8.f.c.c.x.l.i.2.] C h ",
"j C ] 2.p.l.x.c.v.g.8.<.<.>.*.+...*.u.f.0.2.<.:.-.#. .&.i.f.8.,.<.<.:.%.....$.-.:.<.2.0.f.u.*...+.*.>.<.<.8.g.v.c.x.l.p.2.] C j ",
"k Z [ 2.a.z.z.z.z.d.8.<.<.>.-.#. .&.u.f.0.1.>.;.-.$. .&.u.f.8.<.,.>.-.$.....%.-.;.>.1.0.f.u.&. .#.-.>.<.<.8.d.z.z.z.z.a.2.[ Z k ",
"k B Q #.0.p.i.u.i.w.<.=.=.=.&.@. .%.t.d.9.1.>.:.;.%. .%.y.d.9.1.,.:.-.$. ...&.;.:.>.1.9.d.t.%. .@.&.=.=.=.<.w.i.u.i.p.0.#.Q B k ",
"k x B R $.2.>.:.<.;.O. ...o.o.X...*.t.a.8.<.,.>.>.&. .$.t.d.0.2.<.>.-.$. ...&.>.>.,.<.8.a.t.*...X.o.o... .O.;.<.:.>.2.$.R B x k ",
"l c B T #.1.>.>.<.;.O.| X.o.o.X. .*.y.a.7.<.,.>.-.#. .$.t.d.0.2.<.:.*.+.| | $.-.>.,.<.7.a.y.*. .X.o.o.X.| O.;.<.>.>.1.#.T B c l ",
"c C E O.7.i.p.p.p.w.,.*.-.-.&.+. .&.u.f.8.,.,.;.$.X.} &.u.d.7.,.,.;.@. .{ } X.$.;.,.,.8.f.u.&. .+.&.-.-.*.,.w.p.p.p.i.7.O.E C c ",
"v D ' >.u.l.x.x.x.d.7.<.1.,.-.#.| %.u.f.8.>.-.&.@...} &.u.f.7.>.-.&.O. .{ } X.@.&.-.>.8.f.u.%.| #.-.,.1.<.7.d.x.x.x.l.u.>.' D v ",
"x A ` ,.p.l.l.z.c.g.8.<.,.:.=.@.| %.y.d.7.-.@.+.#.+.| %.y.f.9.:.@.O.#.@. . .@.#.+.@.-.7.d.y.%.| @.=.:.,.<.8.g.c.z.l.l.p.,.` A x ",
"l Z ` <.a.z.l.j.h.i.6.,.,.:.=.@.| %.y.s.4.&.+.+.%.#. .%.y.s.6.*.O.O.%.%.X...$.%.+.+.&.4.s.y.%.| @.=.:.,.,.6.i.h.j.l.z.a.<.` Z l ",
"l A ' 1.d.c.x.g.e.5.<.,.2.<.=.+. .*.p.s.>.+.$.&.*.$...*.u.p.:.+.$.*.*.$.X.X.$.*.&.$.+.>.s.p.*. .+.=.<.2.,.<.5.e.g.x.c.d.1.' A l ",
"l A ' 1.d.c.x.d.7.,.>.,.3.1.=.+. .=.p.s.,.#.=.;.=.#...*.i.p.;.@.-.>.-.$.....$.=.;.=.#.,.s.p.=. .+.=.1.3.,.>.,.7.d.x.c.d.1.' A l ",
"l Z ` <.a.x.z.a.7.<.,.<.1.,.-.#.X.*.y.a.5.:.,.,.-.#. .&.i.d.4.;.,.<.:.%. .| #.-.,.,.:.5.a.y.*.X.#.-.,.1.<.,.<.7.a.z.x.a.<.` Z l ",
"l Z ` <.s.x.k.p.7.<.<.<.1.,.-.$.X.#.5.9.<.-.;.-.%.O.| #.7.w.1.-.;.-.=.@.| } O.%.-.;.-.<.9.5.#.X.$.-.,.1.<.<.<.7.p.k.x.s.<.` Z l ",
"k Z ' 2.g.v.k.i.7.1.,.,.2.<.-.#. ...$.%.O.X.o.o.o...|  .@.#.O.o.o.o.o...} } ..o.o.o.X.O.%.$... .#.-.<.2.,.,.1.7.i.k.v.g.2.' Z k ",
"k Z ' 1.f.v.l.d.e.5.<.,.2.<.=.@. ...%.&.+.X.X.X.X...| ..@.#.O.X.o.o.X. .} } ..X.X.X.X.+.&.%... .@.=.<.2.,.<.5.e.d.l.v.f.1.' Z k ",
"z Z ` >.i.z.v.x.f.r.3.>.1.,.*.+. .#.7.w.2.;.=.&.$.+. .$.9.w.<.*.=.*.%.+.| | +.$.&.=.;.2.w.7.#. .+.*.,.1.>.3.r.f.x.v.z.i.>.` Z z ",
"l Z ` >.u.l.v.v.z.a.6.,.<.,.=.@. .&.y.d.0.1.,.:.*.@. .*.p.g.7.>.,.>.;.$... .@.*.:.,.1.0.d.y.&. .@.=.,.<.,.6.a.z.v.v.l.u.>.` Z l ",
"j C ' 1.a.z.l.l.l.d.9.2.<.>.;.%...&.u.d.7.,.,.:.*.+. .&.i.f.8.,.,.>.;.%.X...@.*.:.,.,.7.d.u.&...%.;.>.<.2.9.d.l.l.l.z.a.1.' C j ",
"k N W @.0.p.u.y.u.e.3.;.*.&.&.@. .&.y.s.6.,.<.,.=.@.| %.y.d.8.<.,.>.-.$.....#.=.,.<.,.6.s.y.&. .@.&.&.*.;.3.e.u.y.u.p.0.@.W N k ",
"x v V T #.1.,.>.>.-.#.X. .|  . .} %.t.s.7.<.1.<.:.$.} #.t.d.9.1.,.:.=.@.|  .%.:.<.1.<.7.s.t.%.}  . .|  .X.#.-.>.>.,.1.#.T V v x ",
"z v B T #.1.<.<.<.;.@..... . .| { %.t.s.8.1.1.<.:.%. .%.y.d.8.<.,.:.=.@.|  .%.:.<.1.1.8.s.t.%.{ |  . .....@.;.<.<.<.1.#.T B v z ",
"j M E @.9.a.p.a.s.t.1.-.;.;.*.+.| %.u.f.8.<.,.:.*.#.O.;.p.f.6.>.<.,.-.$. . .@.=.:.,.<.8.f.u.%.| +.*.;.;.-.1.t.s.a.p.a.9.@.E M j ",
"h V ` 1.a.l.f.d.g.p.6.<.2.1.:.$. .&.i.g.8.<.,.:.&.@.O.:.p.f.6.,.1.1.;.$... .+.&.:.,.<.8.g.i.&. .$.:.1.2.<.6.p.g.d.f.l.a.1.` V h ",
"j C ` 1.a.g.q.6.9.7.1.>.,.>.-.$. .&.i.f.6.,.3.1.*.O. .&.t.s.8.1.2.<.-.$... .+.*.1.3.,.6.f.i.&. .$.-.>.,.>.1.7.9.6.q.g.a.1.` C j ",
"l Z ` <.a.d.6.>.<.<.,.>.>.;.=.#...$.8.w.,.=.:.;.%.o.} +.5.9.1.;.;.-.%.+. . .O.%.;.:.=.,.w.8.$...#.=.;.>.>.,.<.<.>.6.d.a.<.` Z l ",
"x S ` <.s.f.8.,.<.<.1.1.<.:.*.@. ...$.&.+... ...O.o.|  .#.$.+.o.o.o.X. .} | o.O... ...+.&.$... .@.*.:.<.1.1.<.<.,.8.f.s.<.` S x ",
"x S ` <.s.j.r.8.7.6.3.1.<.>.=.#.....$.%.+.X.|  .O.O. ...$.%.+.X.X.X.X...} | o.O. .| X.+.%.$.....#.=.>.<.1.3.6.7.8.r.j.s.<.` S x ",
"l Z ` 1.s.z.g.s.s.t.5.<.,.>.-.%.X.$.6.0.1.-.=.*.&.@...$.8.w.1.-.=.*.&.@. . .@.&.*.=.-.1.0.6.$.X.%.-.>.,.<.5.t.s.s.g.z.s.1.` Z l ",
"j C ' 1.s.l.f.d.k.d.7.,.>.>.;.%.o.*.t.a.8.2.2.<.-.#...*.u.d.9.1.<.>.-.$.X...#.-.<.2.2.8.a.t.*.o.%.;.>.>.,.7.d.k.d.f.l.s.1.' C j ",
"g V ' 1.a.f.0.q.h.g.8.,.,.>.;.%.X.*.t.a.9.3.3.<.=.@...&.t.s.9.1.,.:.=.$.X.X.#.=.<.3.3.9.a.t.*.X.%.;.>.,.,.8.g.h.q.0.f.a.1.' V g ",
"k Z ' 1.p.d.0.q.h.g.8.,.<.,.;.$...%.r.a.9.3.2.,.=.@.| %.t.s.9.1.,.:.-.$.X...#.=.,.2.3.9.a.r.%...$.;.,.<.,.8.g.h.q.0.d.p.1.' Z k ",
"v D ' ,.p.j.d.d.j.s.7.<.<.,.;.#.| $.r.s.0.2.,.:.-.@.} $.u.f.8.<.<.,.:.%. . .#.-.:.,.2.0.s.r.$.| #.;.,.<.<.7.s.j.d.d.j.p.,.' D v ",
"v D ] <.a.x.x.z.l.a.7.1.<.,.;.$. .$.r.s.9.1.>.:.-.#.} $.u.f.8.<.<.<.:.%. . .$.-.:.>.1.9.s.r.$. .$.;.,.<.1.7.a.l.z.x.x.a.<.] D v ",
"h C ] 3.d.v.v.c.l.s.9.2.,.:.;.%...&.t.s.8.<.<.,.;.$. .%.t.s.7.<.<.,.;.$. ...%.;.,.<.<.8.s.t.&...%.;.:.,.2.9.s.l.c.v.v.d.3.] C h ",
"f m E #.0.s.d.a.i.q.2.;.*.&.%.@...*.u.d.7.<.<.<.;.$...%.r.a.8.1.<.,.-.#. ...%.;.<.<.<.7.d.u.*...@.%.&.*.;.2.q.i.a.d.s.0.#.E m f ",
"j z m I o.,.1.1.>.=.+.X.o.X. .} { *.a.h.8.,.<.>.-.#. .%.t.s.9.1.1.,.-.#. . .#.-.>.<.,.8.h.a.*.{ }  .X.o.X.+.=.>.1.1.,.o.I m z j ",
"l c M I o.,.<.<.,.-.+.X.o.o. .} { #.9.e.<.*.=.=.%.O.| @.7.q.1.-.-.*.$.O.|  .+.%.=.=.*.<.e.9.#.{ }  .o.o.X.+.-.,.<.<.,.o.I M c l ",
"l V Q #.9.p.p.p.a.r.1.-.-.=.%.+.|  .@.#.o...o.O.X. .} ..%.&.O....... .| | | ..X.O.o...o.#.@. .| +.%.=.-.-.1.r.a.p.p.p.9.#.Q V l ",
"l A [ 3.s.x.x.l.h.u.7.<.,.>.;.%... .+.@.o.X.o.O.X. .} ..%.&.O....... .| | | ..X.O.o.X.o.@.+. ...%.;.>.,.<.7.u.h.l.x.x.s.3.[ A l ",
"k C _ ,.p.z.x.g.w.5.2.<.,.:.;.&.o.$.7.0.1.-.=.*.%.+.| @.7.q.<.-.-.=.%.+. . .+.%.*.=.-.1.0.7.$.o.&.;.:.,.<.2.5.w.g.x.z.p.,._ C k ",
"k C ) :.u.l.x.d.6.,.<.<.>.:.;.%.X.*.u.f.9.1.<.>.-.#. .%.y.d.8.1.<.,.;.$. . .$.-.>.<.1.9.f.u.*.X.%.;.:.>.<.<.,.6.d.x.l.u.:.) C k ",
"l Z _ >.u.l.z.d.7.<.1.1.,.>.;.#.| $.i.g.9.<.1.<.-.#. .%.y.d.9.1.<.>.-.$.....$.-.<.1.<.9.g.i.$.| #.;.>.,.1.1.<.7.d.z.l.u.>._ Z l ",
"l A ' <.i.l.z.g.e.6.3.1.<.>.-.#.} #.y.f.8.<.1.,.-.#. .%.y.d.8.<.,.>.-.$.....$.-.,.1.<.8.f.y.#.} #.-.>.<.1.3.6.e.g.z.l.i.<.' A l ",
"l Z ] 1.p.l.l.j.d.t.6.1.<.>.-.@.| $.t.s.9.1.<.>.-.#. .%.y.d.8.<.,.>.;.%.....$.-.>.<.1.9.s.t.$.| @.-.>.<.1.6.t.d.j.l.l.p.1.] Z l ",
"k Z ] 2.a.z.l.k.k.a.7.<.<.>.=.@. .%.r.a.9.1.,.:.-.$.| %.y.d.7.,.,.>.;.%.....$.-.:.,.1.9.a.r.%. .@.=.>.<.<.7.a.k.k.l.z.a.2.] Z k "
};
