/* XPM */
static char *_9b96589ff8749a18a8afbd53381a8ddoP2xGeHm5TGbxaRB[] = {
/* columns rows colors chars-per-pixel */
"64 64 175 2 ",
"   c #0C1717",
".  c #091B1B",
"X  c #161515",
"o  c #181716",
"O  c #1C1914",
"+  c #171718",
"@  c #181718",
"#  c #131818",
"$  c #1B1B1B",
"%  c #221C14",
"&  c #221F1D",
"*  c #1E201F",
"=  c #2E2717",
"-  c #24211E",
";  c #2C241B",
":  c #372915",
">  c #3E3319",
",  c #072424",
"<  c #0C2221",
"1  c #022B2B",
"2  c #0D2C2A",
"3  c #122323",
"4  c #1E2221",
"5  c #12292C",
"6  c #1B2A2B",
"7  c #0C2F31",
"8  c #192E30",
"9  c #043435",
"0  c #033835",
"q  c #033739",
"w  c #0D363A",
"e  c #013C3B",
"r  c #193336",
"t  c #1B3F3B",
"y  c #242423",
"u  c #2B2722",
"i  c #232826",
"p  c #2C2925",
"a  c #272728",
"s  c #272A29",
"d  c #2C2C2C",
"f  c #322C26",
"g  c #3A2D25",
"h  c #322E2A",
"j  c #2F302F",
"k  c #31302E",
"l  c #393329",
"z  c #233333",
"x  c #2D3233",
"c  c #343433",
"v  c #393634",
"b  c #3A3836",
"n  c #363C3C",
"m  c #3C3C3B",
"M  c #412B1D",
"N  c #433514",
"B  c #4D3E19",
"V  c #402E24",
"C  c #453525",
"Z  c #483625",
"A  c #4D3A23",
"S  c #4A3B2C",
"D  c #563322",
"F  c #573D29",
"G  c #443A35",
"H  c #483D37",
"J  c #413E3C",
"K  c #6A3C22",
"L  c #00403F",
"P  c #3F403F",
"I  c #4B422A",
"U  c #56462B",
"Y  c #41413F",
"T  c #4A433C",
"R  c #53453D",
"E  c #5D483A",
"W  c #72472B",
"Q  c #76542E",
"!  c #664836",
"~  c #724A35",
"^  c #774E37",
"/  c #7D5036",
"(  c #7B5439",
")  c #0C3E44",
"_  c #094247",
"`  c #004846",
"'  c #03464B",
"]  c #004A4B",
"[  c #174641",
"{  c #004C50",
"}  c #005255",
"|  c #035059",
" . c #00595D",
".. c #3F4543",
"X. c #005F6A",
"o. c #00656C",
"O. c #00747F",
"+. c #464646",
"@. c #494746",
"#. c #4A4846",
"$. c #4C4B4B",
"%. c #534741",
"&. c #534D46",
"*. c #5C4B41",
"=. c #514E4C",
"-. c #575245",
";. c #52514E",
":. c #5A524C",
">. c #485652",
",. c #4C5F5B",
"<. c #545454",
"1. c #585654",
"2. c #575857",
"3. c #585857",
"4. c #5A5A59",
"5. c #604D42",
"6. c #625240",
"7. c #6F5441",
"8. c #6F5C46",
"9. c #62594E",
"0. c #6A5B4C",
"q. c #755F4B",
"w. c #645E57",
"e. c #615D5B",
"r. c #6F604E",
"t. c #60605F",
"y. c #68635D",
"u. c #7B6E5E",
"i. c #646462",
"p. c #696967",
"a. c #6E6C69",
"s. c #716F6B",
"d. c #73716E",
"f. c #747671",
"g. c #797775",
"h. c #7B7874",
"j. c #7E7C79",
"k. c #804F2E",
"l. c #8E5D2E",
"z. c #865536",
"x. c #885838",
"c. c #976432",
"v. c #A7733D",
"b. c #BD7E3D",
"n. c #C17C3C",
"m. c #8E6A45",
"M. c #946B44",
"N. c #9B6C42",
"B. c #92704D",
"V. c #836E56",
"C. c #90765A",
"Z. c #A6794A",
"A. c #827160",
"S. c #987F61",
"D. c #837D77",
"F. c #807E79",
"G. c #85827D",
"H. c #89857F",
"J. c #D5924B",
"K. c #C28D55",
"L. c #8A8781",
"P. c #8B8883",
"I. c #918C86",
"U. c #918E89",
"Y. c #94918C",
"T. c #999690",
"R. c #9D9A95",
"E. c #9E9C98",
"W. c #A09D95",
"Q. c #A09E99",
"!. c #A7A59D",
"~. c #A8A6A1",
"^. c #AEABA4",
"/. c #B0AEA8",
"(. c #B4B2AD",
/* pixels */
"3.4.p.p.p.p.p.i.4.4.3.4.3.<.$.$.t.i.t.4.4.4.2.4.4.2.4.4.2.<.$.$.<.4.i.p.p.i.t.2.4.4.4.e.i.p.p.i.t.2.4.e.i.i.t.2.2.4.4.2.4.<.$.+.",
"4.4.i.p.p.p.p.i.4.4.4.4.4.<.$.<.4.i.4.4.4.4.4.2.2.4.4.2.4.<.$.$.<.i.t.i.i.i.4.2.2.4.2.4.i.i.i.t.4.2.<.<.t.i.t.2.4.4.4.4.4.<.$.+.",
"i.i.4.4.4.4.4.4.4.4.4.3.4.2.<.<.<.<.t.i.4.4.4.4.2.4.2.4.4.<.$.$.e.i.t.t.e.4.4.4.2.4.4.4.4.e.e.t.4.2.$.$.$.<.e.i.4.2.2.2.4.<.$.+.",
"p.p.t.4.4.4.4.4.4.4.3.4.4.4.4.<.$.$.4.t.t.4.4.4.4.4.2.4.4.<.$.=.t.i.t.<.2.4.4.4.4.2.4.4.4.4.4.4.4.2.$.$.+.$.2.i.e.t.4.2.2.=.$.+.",
"p.i.t.4.4.4.4.2.3.4.3.4.4.3.4.2.2.<.$.2.t.i.4.4.4.4.4.2.4.<.$.$.t.i.e.2.2.2.4.4.4.2.4.2.2.4.4.2.2.2.<.<.$.+.$.<.t.i.4.<.=.$.+.+.",
"p.i.4.4.4.4.4.3.4.3.4.4.3.4.4.3.4.<.$.$.t.i.t.2.4.2.4.4.4.<.$.=.e.i.t.4.4.4.2.4.2.4.4.4.4.4.3.2.4.4.4.<.$.$.+.$.4.t.4.<.$.+.+.+.",
"p.i.4.4.2.4.2.4.4.3.4.3.4.3.4.3.4.2.$.$.t.i.t.2.4.4.4.4.4.<.$.=.t.t.e.4.4.4.4.4.2.4.4.e.i.i.<.$.<.4.4.2.<.<.$.+.$.$.$.$.+.+.+.+.",
"p.t.4.4.4.4.4.4.4.4.4.3.4.4.3.4.4.2.$.$.4.t.2.<.4.4.4.4.2.=.P P $.<.2.<.2.4.2.4.4.4.4.4.i.4.=.=.<.4.4.2.4.2.$.$.+.$.+.+.+.+.$.+.",
"e.4.4.2.4.4.2.t.i.i.t.2.4.4.2.4.4.2.2.;.=.$.$.<.4.p.4.2.<.$.d a x G $.<.3.3.3.3.4.3.3.4.4.e.<.<.2.4.4.4.2.2.<.<.$.+.+.+.+.$.+.+.",
"4.4.4.4.2.2.4.4.i.i.4.4.2.4.4.3.3.4.4.2.$.$.$.$.4.4.4.$.+.n 8 5 8 ) m @.3.4.3.<.<.2.3.4.2.4.2.4.4.2.4.2.2.4.2.<.$.+.+.+.+.+.+.+.",
"4.4.2.4.4.2.3.4.4.4.4.4.4.4.4.3.3.4.4.3.2.<.<.<.<.$.#...x 8 ) ' ) ) r m >.4.=.$.$.$.2.3.4.3.4.2.4.4.2.4.4.4.4.2.$.+.+.$.$.+.$.+.",
"4.2.4.2.4.4.4.2.3.4.4.4.2.3.4.4.4.4.3.4.4.4.4.2.$.+.m x 6 w | X.X.| ) z ..$.+.+.+.$.2.3.3.4.4.4.2.4.2.2.2.2.2.$.$.+.+.+.+.+.+.+.",
"2.2.4.2.3.4.4.4.3.4.4.4.4.4.3.4.4.3.4.3.4.4.4.1.<.+.x 6 7 _ o.O.O.X.) w z c P +.+.$.<.2.4.4.4.3.4.4.4.2.$.$.$.$.+.+.+.+.+.+.$.+.",
"4.4.4.4.4.4.3.4.4.4.2.3.3.4.2.4.3.4.4.3.<.1.3.3.<.+.a 3 w { o.O.O.o.{ q 5 s n +.$.$.3.4.4.2.4.3.4.2.<.<.$.+.+.$.+.$.+.+.+.+.+.+.",
"4.4.2.4.4.3.3.4.4.2.3.4.4.4.4.3.3.4.3.<.>.=.3.3.<...y < 0 ] o.o.o.X.{ q < y P =.<.3.3.2.4.4.2.4.2.<.$.$.+.+.+.+.+.+.$.+.+.+.+.+.",
"e.4.4.4.2.4.4.4.3.4.4.4.2.3.4.4.4.4.3.2.=.$.<.<.<.P 4 . 9 ` }  .X.| ' 9 . 4 P <.3.2.3.2.4.3.4.3.<.<.$.+.+.$.+.+.+.$.$.$.$.$.$.+.",
"i.i.4.2.4.4.2.4.4.4.4.2.4.4.2.4.4.2.4.2.<.<.4.2.<.m $ . 1 e ` } { ' ) 1   * m <.3.4.4.2.4.4.2.<.$.$.+.+.+.+.+.+.+.$.4.4.4.<.$.+.",
"p.i.t.2.4.2.4.4.4.4.4.4.4.2.4.4.2.4.4.4.4.4.<.<.+.c $   , 9 L _ ` ) 9 ,   $ c +.<.3.4.4.2.2.<.<.$.+.$.+.$.+.+.$.$.<.t.i.4.<.$.+.",
"p.i.t.4.4.4.2.4.4.4.4.4.4.4.4.2.4.2.4.2.4.4.<.+.c y + # 3 2 0 L e 9 5 3 + + y c +.<.3.2.4.3.$.$.$.+.+.+.+.+.+.$.4.t.4.2.<.$.+.+.",
"p.i.4.4.4.2.4.4.4.4.4.4.4.2.2.4.4.4.4.4.4.<.+.c i $ @ y i z t L [ t 8 a 4 $ @ a c +.<.3.2.<.$.+.+.+.+.+.+.+.+.$.i.p.t.<.$.+.+.+.",
"p.i.e.4.2.4.2.4.4.t.t.i.4.4.4.4.4.4.4.4.<.+.c y @ @ i d c +.>.,.,.>...c d a @ @ y c +.<.4.<.$.+.+.+.+.+.+.+.+.<.i.p.4.<.$.+.+.+.",
"p.p.4.2.4.4.4.4.2.e.t.t.e.4.2.4.4.4.<.<.+.c y @ @ y d m +.<.p.f.f.p.<.+.m d y @ @ y c +.$.<.$.+.+.$.<.$.+.+.+.$.2.4.2.<.+.+.$.+.",
"p.i.e.4.3.4.2.4.2.4.4.t.2.4.4.2.4.4.1.@.c a $ $ a h b J @.4.h.L.L.h.4.#.J v j a $ @ a c P $.@.+.+.$.4.4.$.+.+.$.$.<.$.$.+.$.+.+.",
"i.i.4.2.4.4.3.4.4.2.<.<.<.<.4.4.4.<.<.+.a $ a x m Y +.+.=.e.D.I.I.D.y.=.+.+.Y m c a $ y c +.@.@.$.<.i.t.<.$.+.+.+.+.+.+.+.+.+.+.",
"4.e.4.4.4.2.4.4.4.<.=.$.$.$.4.4.4.4.<.Y y y m =.4.4.$.@.=.e.h.L.H.h.t.=.#.$.1.w.=.v y & c +.+.$.4.t.t.4.2.<.$.+.+.+.+.+.+.$.+.+.",
"4.4.4.4.2.4.4.2.2.<.$.+.+.$.<.4.4.2.<.Y y y +.4.a.a.e.e.t.s.L.U.U.G.d.t.4.t.a.a.e.+.y @ c +.$.<.t.i.4.4.2.<.$.+.+.+.$.+.+.+.+.+.",
"i.i.e.2.2.4.2.4.4.<.$.+.+.$.<.4.4.3.<.Y & & J 3.s.F.D.F.L.U.Q.~.~.Q.Y.H.G.F.j.d.4.m 4 @ c +.3.t.t.4.4.4.2.<.$.+.+.+.$.+.+.+.+.+.",
"p.i.e.4.4.4.4.4.4.2.$.$.$.$.<.4.4.4.<.Y y & k $.s.L.U.T.W.~./.(.(./.!.E.T.I.H.s.$.c @ @ v <.t.t.4.4.2.4.4.<.$.+.+.+.+.+.+.+.+.$.",
"p.i.t.2.2.2.4.4.4.4.<.<.<.2.4.4.4.4.<.Y a @ a J p.D.U.W.!.^./.(.(.(.^.!.R.U.H.p.m a @ a +.4.t.4.4.2.2.4.4.2.$.+.+.+.+.$.+.+.+.+.",
"t.t.2.<.<.<.<.<.<.<.2.<.<.<.<.2.<.<.=.+.d $ $ j 1.d.F.P.U.T.R.Q.E.R.Y.U.H.G.s.:.x $ @ d $.4.2.<.2.<.<.<.2.$.$.+.$.+.+.+.$.+.+.+.",
"$.$.$.$.$.$.$.$.$.$.$.$.$.$.$.$.$.@.$.+.n a @ $ v $.4.i.e.i.a.f.d.a.t.t.i.4.#.c $ @ a n +.$.$.+.$.$.$.$.$.$.$.+.+.+.+.+.+.+.$.+.",
"$.$.<.$.$.$.<.$.$.$.$.$.$.=.=.$.$.$.$.@.@.c $ @ p J 3.4.$.@.<.4.4.1.#.$.e.4.Y p @ $ x +.$.<.<.$.$.<.$.$.+.$.$.$.$.$.$.$.$.$.+.+.",
"t.e.i.e.4.i.i.i.t.t.2.4.4.i.i.4.3.<.<.1.3.@.y @ d =.g.D.=.%.:.e.e.1.+.:.g.g.<.v & u +.1.e.t.t.t.t.e.i.4.$.$.4.e.3.<.<.<.2.;.$.+.",
"p.p.i.p.i.i.i.i.i.i.4.4.i.i.i.i.4.3.3.4.4.$.y $ c =.F.D.r.5.9.e.w.9.6.r.F.j.1.T C Z H =.4.p.i.p.p.i.p.4.$.>.i.i.t.3.4.4.3.<.$.+.",
"p.i.i.4.4.i.e.4.4.4.4.4.4.t.t.4.4.4.3.3.<.+.i 4 x $.i.A.B.m.y.0.0.r.m.B.u.y.-.! W W Z v =.4.4.4.4.4.4.4.$.=.4.i.4.4.3.4.4.<.$.+.",
"p.i.4.2.2.2.4.4.4.4.2.4.2.4.3.4.4.4.1.>.+.b c c P $.<.q.N.N.x.7.7.x.N.M.8.&.#.! k.K V f +.<.3.4.4.4.4.<.$.=.i.p.t.3.4.4.4.<.$.+.",
"p.i.e.2.4.2.4.2.4.4.2.4.4.3.4.4.3.3.2.@.c k %.9.i.e.*.E ^ z./ ~ ^ / x.( R G H F W K M f +.<.2.4.4.4.4.<.$.$.i.p.4.4.4.4.4.2.$.+.",
"p.i.e.2.4.4.4.4.4.4.4.2.3.4.4.2.4.3.<.+.d l 8.C.S.V.H G ! K ~ ~ ~ ~ ~ ! H c h g D D g v $.<.2.4.4.4.4.<.$.<.4.4.4.4.4.4.2.=.$.+.",
"p.i.t.2.4.2.4.4.2.4.4.2.2.4.4.4.2.2.<.+.u C M.K.J.Z.K v G %.*.*.*.*.*.%.J k y % = g G #.<.<.4.4.4.4.4.<.<.<.<.$.$.=.t.t.<.$.+.+.",
"p.t.t.2.4.4.2.2.4.4.2.4.4.4.3.3.3.2.<.J f Z v.J.J.Z.D u c Y @.=.$.$.$.+.J d @ X y c $.3.4.3.4.4.4.4.4.4.4.<.$.$.$.<.4.4.$.+.+.+.",
"p.i.4.t.4.4.4.2.3.4.4.4.3.4.3.4.3.3.<.+.h A c.b.n.c.D % h v P +.@.@.@.+.n p # * b ;.4.i.4.4.4.4.4.4.4.2.2.2.<.<.<.<.<.$.$.+.+.+.",
"p.i.4.4.4.2.2.4.4.4.3.4.4.3.4.4.3.4.4.=.m S Q l.l.K : O - d c c J J +.m c i o y #.t.p.i.4.2.4.4.4.2.4.2.4.t.4.4.4.<.$.$.+.+.+.$.",
"p.i.4.4.4.4.4.4.3.3.3.3.4.2.3.3.4.4.i.4.=.T I Z M M @ @ @ $ $ a h c c c d - * i $.t.p.i.t.4.4.4.2.4.4.t.i.i.e.2.4.2.<.=.$...+.+.",
"i.t.t.4.4.2.<.<.<.<.2.<.<.2.2.4.3.4.i.i.1.#.b h a a & 4 $ $ & & y d h l f ; O 4 #.t.i.t.4.4.2.4.4.4.2.4.i.t.4.4.2.4.4.<.$.$.$.+.",
"4.t.4.4.4.<.$.$.$.$.$.$.$.$.<.4.4.4.4.4.3.<.$.+.P m m c c c c a $ & : > : = O = +.<.4.t.4.2.4.2.2.4.2.4.4.e.4.4.2.4.4.2.2.$.$.+.",
"<.<.<.<.<.<.$.$.$.@.@.+.$.$.<.<.<.3.4.4.4.4.1.<.<.<.+.P P +.m c & % > N > : * - P <.1.4.2.4.2.4.4.4.4.4.2.4.4.4.4.4.2.4.4.2.$.+.",
"$.$.$.$.$.$.<.<.<.<.@.$.<.>.$.$.$.$.<.4.4.4.3.3.2.<.$.+.+.+.P n u = N B B > = p +.<.1.4.4.4.2.4.4.2.4.2.2.4.4.4.2.4.4.4.2.2.$.+.",
"$.$.$.$.$.$.2.4.3.<.$.$.<.1.<.$.$.$.<.<.<.<.<.<.<.<.$.@.@.+.P P b G I U U I l c #.<.1.4.2.4.4.2.4.4.4.4.4.2.4.4.<.<.2.4.2.<.$.+.",
"<.<.<.<.<.<.4.t.4.<.$.$.<.4.<.<.<.$.$.$.$.$.$.$.$.$.<.<.$.@.+.$.<.<.:.*.*.=.@.$.<.<.2.4.4.4.4.4.4.4.4.<.4.4.4.<.$.$.<.4.4.<.$.+.",
"4.t.4.<.4.4.<.<.2.<.$.$.<.<.4.4.4.2.<.$.$.$.$.$.$.$.<.2.$.$.+.$.4.e.4.4.3.4.<.<.4.2.4.4.4.4.<.<.<.<.<.<.2.4.4.<.$.<.<.4.4.<.$.+.",
"i.i.4.4.4.<.$.$.<.4.2.<.$.$.<.4.4.2.<.<.<.<.<.<.<.2.2.2.<.=.$.$.<.e.4.3.3.3.4.4.4.4.2.4.4.<.<.+.$.$.$.<.<.4.4.<.<.<.<.4.4.<.$.+.",
"i.i.4.4.4.<.$.$.$.4.4.<.$.$.<.4.2.4.4.4.2.2.2.4.2.2.4.2.2.<.$.$.<.2.3.4.3.4.4.2.4.2.4.4.4.<.$.+.+.+.+.+.<.4.4.4.4.4.4.4.4.<.$.+.",
"4.4.4.4.4.<.$.+.$.$.2.<.$.$.4.t.4.4.4.2.4.4.4.4.4.2.2.4.4.<.$.$.<.4.2.4.4.4.2.4.2.2.4.2.4.<.+.+.+.+.+.$.<.4.2.4.4.2.2.4.4.<.$.+.",
"4.4.2.4.4.<.$.+.+.$.<.2.$.$.$.<.4.4.4.t.t.2.4.4.2.4.4.4.4.<.$.$.<.2.4.4.4.2.4.4.4.4.4.4.4.<.<.+.$.$.$.$.<.4.4.4.4.4.4.2.2.<.$.+.",
"t.4.2.4.2.<.$.+.+.$.<.4.<.<.$.$.<.4.i.i.i.t.4.2.4.4.2.2.4.<.$.$.<.4.2.4.4.4.4.2.4.2.2.4.4.2.<.<.<.<.<.<.4.4.4.4.2.4.4.4.2.<.$.+.",
"4.4.4.2.4.<.=.$.$.$.<.4.4.4.$.$.<.t.i.p.p.i.t.t.4.4.4.4.4.<.$.$.<.4.4.4.4.2.4.4.4.4.4.2.4.4.4.2.4.4.4.4.4.4.4.2.4.2.2.2.2.<.$.+.",
"4.4.2.4.4.2.2.<.<.4.4.4.4.<.+.$.<.t.i.p.p.p.p.t.4.4.4.4.2.<.$.=.e.i.e.4.4.2.4.4.2.4.4.4.4.4.4.4.4.2.2.4.4.2.2.4.4.2.4.4.2.<.$.+.",
"2.2.4.4.4.4.2.4.4.4.4.<.4.<.$.$.<.4.t.i.i.i.i.t.4.4.2.2.2.<.$.$.e.i.4.4.4.4.2.2.2.<.<.<.<.<.2.4.2.4.4.2.4.4.4.4.2.<.<.3.2.<.$.+.",
"4.4.4.2.2.4.2.4.4.4.2.4.4.4.4.<.$.$.4.t.t.t.2.4.4.4.4.4.2.<.$.$.3.4.4.2.2.3.4.3.<.+.$.$.$.$.2.4.4.4.4.4.2.4.2.<.=.$.$.$.3.<.$.+.",
"4.2.4.2.4.4.2.2.4.4.4.4.4.4.4.<.$.$.<.2.4.4.4.4.4.4.4.4.4.<.$.$.<.2.4.4.2.3.<.<.$.+.+.+.+.$.<.<.2.2.4.4.<.<.<.<.$.+.+.$.<.<.$.+.",
"2.4.4.4.2.2.2.2.4.2.4.2.4.4.4.<.$.$.<.2.4.4.4.4.4.4.4.4.4.<.$.$.<.4.4.4.4.<.=.$.$.+.+.+.+.+.@.<.3.2.4.<.$.$.$.$.+.+.+.$.<.<.$.+.",
"<.<.<.<.<.<.<.<.<.<.<.<.<.<.2.$.+.$.$.4.<.<.<.<.<.<.<.<.<.=.$.$.<.<.<.<.<.<.$.+.+.+.+.+.+.+.+.$.<.<.<.<.$.+.+.+.+.+.+.$.<.<.$.+.",
"$.$.$.$.$.$.$.$.$.$.$.$.$.$.$.$.+.$.$.$.+.$.$.$.$.$.$.$.$.$.+.+.$.$.$.$.$.$.+.+.$.+.+.+.+.+.+.+.$.$.$.@.$.+.+.+.@.+.+.$.$.$.+.+.",
"+.+.+.+.+.+.+.+.+.+.+.+.+.+.+.+.+.+.+.+.+.+.+.+.+.+.+.+.+.$.+.+.+.+.+.+.+.+.+.+.+.+.+.+.$.+.+.+.+.+.+.@.+.+.+.$.+.+.+.+.+.+.+.+."
};
