/* XPM */
static char *_c838dc8d5f840e98ea4147bd7d1542ctreVNKjcbRl0piSY[] = {
/* columns rows colors chars-per-pixel */
"64 64 192 2 ",
"   c #030807",
".  c #020D0D",
"X  c #0C0E0D",
"o  c #1B160C",
"O  c #1E190F",
"+  c #021514",
"@  c #0B1313",
"#  c #031A18",
"$  c #0B1C1B",
"%  c #151414",
"&  c #171817",
"*  c #1B1A16",
"=  c #1B1B1B",
"-  c #24180B",
";  c #2A1B0E",
":  c #221C14",
">  c #2D1D16",
",  c #221E1B",
"<  c #381F14",
"1  c #03201E",
"2  c #1D201F",
"3  c #2F240C",
"4  c #37280E",
"5  c #2A2316",
"6  c #22201D",
"7  c #2A251C",
"8  c #2D291E",
"9  c #3A2E14",
"0  c #30221C",
"q  c #322A19",
"w  c #382918",
"e  c #3F3213",
"r  c #3D331B",
"t  c #032523",
"y  c #0C2221",
"u  c #002826",
"i  c #032C2B",
"p  c #0C2C2D",
"a  c #122525",
"s  c #1D2424",
"d  c #1A2728",
"f  c #112B2D",
"g  c #1B2B2B",
"h  c #00322F",
"j  c #0D2F31",
"k  c #1D2F30",
"l  c #023433",
"z  c #083737",
"x  c #023B3C",
"c  c #163434",
"v  c #242423",
"b  c #2A2623",
"n  c #212827",
"m  c #2B2926",
"M  c #262A2A",
"N  c #2B2B2B",
"B  c #362E24",
"V  c #322B28",
"C  c #32312D",
"Z  c #3A342B",
"A  c #2D3232",
"S  c #273C3A",
"D  c #2F3B39",
"F  c #343433",
"G  c #393634",
"H  c #3B3935",
"J  c #363B3B",
"K  c #3C3C3B",
"L  c #432716",
"P  c #422C1B",
"I  c #4B2A19",
"U  c #443615",
"Y  c #493716",
"T  c #443419",
"R  c #513F17",
"E  c #463320",
"W  c #443B26",
"Q  c #513F2C",
"!  c #403D37",
"~  c #413F3D",
"^  c #53421A",
"/  c #584518",
"(  c #4C422B",
")  c #564525",
"_  c #56492A",
"`  c #42413E",
"'  c #4A4538",
"]  c #57493B",
"[  c #664020",
"{  c #6E4F2F",
"}  c #6A543C",
"|  c #795B3B",
" . c #083D42",
".. c #014344",
"X. c #03464B",
"o. c #004A4C",
"O. c #034E54",
"+. c #005254",
"@. c #01555A",
"#. c #00595D",
"$. c #3A4744",
"%. c #005E64",
"&. c #00646B",
"*. c #006972",
"=. c #00747D",
"-. c #464646",
";. c #484745",
":. c #474847",
">. c #4A4846",
",. c #484848",
"<. c #4A4A49",
"1. c gray29",
"2. c #4B4B4B",
"3. c #4C4B4B",
"4. c #4D4D4C",
"5. c #4F4F4E",
"6. c #534E45",
"7. c #514F4D",
"8. c #4C524F",
"9. c #565144",
"0. c #50504F",
"q. c #52504E",
"w. c #5A5348",
"e. c #515151",
"r. c #535352",
"t. c #545453",
"y. c #545454",
"u. c #555554",
"i. c #565655",
"p. c #575756",
"a. c #585654",
"s. c #575857",
"d. c #585857",
"f. c #595957",
"g. c #585858",
"h. c #595958",
"j. c #5A5A58",
"k. c #5A5A59",
"l. c #5B5B5A",
"z. c #5C5C5B",
"x. c #5D5D5B",
"c. c #5D5D5C",
"v. c #5E5E5D",
"b. c #5F5F5E",
"n. c #695B4B",
"m. c #765C42",
"M. c #655E54",
"N. c #615E5B",
"B. c #6F604F",
"V. c #7D6142",
"C. c #60605F",
"Z. c #61605F",
"A. c #616160",
"S. c #626261",
"D. c #646462",
"F. c #656563",
"G. c #666664",
"H. c #696764",
"J. c #696966",
"K. c #696967",
"L. c #6D6C69",
"P. c #716D69",
"I. c #74716E",
"U. c #757471",
"Y. c #7D7A76",
"T. c #88572B",
"R. c #815A30",
"E. c #956330",
"W. c #AF7439",
"Q. c #876B4C",
"!. c #816C55",
"~. c #AC7841",
"^. c #867F75",
"/. c #817E79",
"(. c #AC8050",
"). c #85827D",
"_. c #C78441",
"`. c #D7934B",
"'. c #007984",
"]. c #888580",
"[. c #8C8984",
"{. c #908E89",
"}. c #95928C",
"|. c #99978F",
" X c #979591",
".X c #9D9B94",
"XX c #A09E99",
"oX c #A6A39C",
"OX c #ADAAA4",
"+X c #B1AFA9",
"@X c #B8B6B0",
"#X c #BDBBB5",
/* pixels */
"d.z.F.K.K.K.K.F.z.l.d.l.d.t.<.5.b.F.v.p.g.z.p.p.z.z.p.p.z.t.4.-.t.v.F.K.K.F.c.z.d.l.d.z.F.K.K.F.z.l.d.v.F.F.v.l.p.l.p.l.s.r.4.-.",
"z.v.S.F.F.F.F.Z.z.d.d.l.d.p.5.0.z.b.v.z.z.p.z.p.p.l.p.z.p.t.4.4.p.v.S.S.F.D.z.p.d.l.d.z.F.F.F.Z.z.d.t.d.v.v.v.l.l.p.p.l.l.t.<.-.",
"F.S.v.v.z.v.z.l.l.d.d.d.d.p.p.r.e.r.b.S.z.p.z.p.p.p.p.z.z.r.<.5.v.D.b.v.c.z.z.l.d.d.d.l.l.v.z.z.l.p.5.<.5.p.S.S.l.p.l.l.l.p.3.-.",
"K.F.z.p.p.d.l.l.d.l.l.d.l.d.l.p.4.e.z.v.b.z.z.p.z.z.l.p.p.t.<.5.v.F.v.p.p.p.l.p.l.d.d.l.d.d.l.d.p.p.5.<.-.<.l.v.v.l.l.p.r.r.<.-.",
"K.F.z.d.l.d.d.d.l.d.d.d.d.d.d.d.p.t.e.t.b.D.z.p.p.p.z.p.l.t.5.5.A.F.c.g.z.u.z.p.d.l.d.d.d.d.d.d.l.p.d.0.<.:.<.p.A.D.c.u.7.,.,.-.",
"K.F.l.l.l.d.l.d.d.d.l.l.d.l.d.l.p.t.4.5.S.F.N.z.p.z.p.p.l.t.-.5.A.D.l.g.p.z.p.z.d.l.d.l.z.z.p.p.d.d.d.s.7.<.-.5.g.c.g.0.<.,.:.:.",
"K.F.v.d.d.d.d.p.d.l.d.d.d.d.d.l.z.t.<.e.A.F.z.g.l.l.p.z.l.r.<.e.v.C.z.u.p.p.l.p.d.d.l.z.F.v.0.5.t.d.l.d.p.0.<.-.5.5.5.<.<.-.-.:.",
"F.S.l.l.d.l.l.l.z.l.l.d.l.l.d.d.p.t.5.e.z.z.p.t.l.l.z.p.p.7.~ ~ <.7.-.-.-.4.t.p.l.d.s.z.S.v.0.5.p.d.d.d.l.p.5.<.-.-.-.-.-.,.-.-.",
"z.z.l.l.d.l.l.l.S.S.z.l.s.d.d.l.p.g.a.t.e.4.4.5.v.S.v.p.p.<.C M N N M M N J <.p.p.l.s.l.z.z.p.p.g.p.p.z.g.g.u.0.<.-.-.,.-.-.-.,.",
"l.d.p.d.d.d.d.l.S.S.z.p.d.l.d.d.l.g.l.t.7.<.<.e.z.v.p.e.-.J g f f j f a a M J >.0.u.s.s.d.l.d.d.g.z.g.g.g.c.g.u.3.,.-.-.-.,.-.-.",
"d.d.l.d.l.d.d.l.l.l.l.l.l.d.l.d.g.l.l.g.t.t.t.t.e.4.<.K A k  .X.O.O.O.X.z j g A ~ 3.p.l.d.d.l.d.z.p.g.g.g.z.c.u.3.-.-.,.-.,.,.-.",
"d.l.d.d.l.d.l.d.l.d.l.p.d.d.l.d.a.l.g.g.l.p.z.p.4.-.K A g z O.%.*.*.*.%.O...p d A K 8.p.l.d.d.d.z.g.g.g.p.u.0.0.4.-.,.-.-.-.-.,.",
"d.d.l.d.d.l.d.d.d.l.l.d.d.d.l.d.p.l.g.g.g.l.g.g.e.-.A d j ..%.=.'.'.'.=.*.@. .p d A -.p.p.g.d.l.p.z.z.t.e.4.<.,.,.-.-.,.,.-.,.-.",
"l.d.l.d.d.l.d.l.d.d.d.d.l.d.l.d.l.p.g.g.t.p.g.g.t.-.M a l o.*.'.'.'.=.=.*.#...h y s J ,.r.g.d.l.g.g.p.e.,.-.-.,.,.-.,.-.-.-.,.-.",
"d.d.d.d.d.d.l.d.l.d.d.l.d.l.d.d.g.l.g.t.5.5.t.g.r.-.v y x O.%.&.*.&.&.&.+.o.x l u a n G <.g.s.d.l.p.5.<.,.,.-.,.-.,.-.-.-.-.-.,.",
"z.l.l.l.l.d.d.d.l.d.d.l.d.d.d.l.l.g.g.p.5.5.t.g.t.K s 1 l o.+.#.#.@.+.X...x x l u # = M -.u.s.s.u.5.<.-.-.,.-.-.-.,.3.3.e.,.4.-.",
"F.S.z.l.d.d.d.l.p.p.z.z.g.g.d.d.l.d.d.d.p.p.p.p.r.K = $ i  .X.O.+.o. . .l l l i u 1 @ v ~ t.g.p.8.,.,.-.-.,.-.-.-.<.g.N.g.e.4.-.",
"K.F.v.d.d.l.d.d.l.l.p.p.g.l.l.d.l.d.d.l.l.d.p.r.<.F = X t i  .X... .l i u t t u 1 # @ v ~ t.p.e.3.-.-.<.-.<.-.4.e.t.A.A.z.e.4.-.",
"K.F.z.d.l.d.l.d.z.p.p.l.g.l.d.d.d.d.d.d.l.d.t.-.C = X X $ a c j x l p a a $ + + . . X v -.e.e.-.<.-.,.-.-.-.-.3.p.A.A.p.e.4.-.-.",
"K.F.z.l.d.d.l.d.p.l.z.l.l.s.d.l.d.l.l.d.p.r.-.G M = % = M A D S c c g s s & @     X = A ,.e.,.-.-.-.,.-.-.-.-.e.A.G.z.t.<.-.-.-.",
"K.F.v.d.d.d.l.d.l.l.S.S.l.g.p.p.d.l.g.g.t.:.F v v v C ~ 7.a.p.7.$.D A M N v % X . % N ~ e.t.-.-.-.-.,.-.,.-.-.e.A.K.z.e.4.-.-.,.",
"K.F.z.d.l.d.l.d.p.l.S.S.l.g.z.l.d.d.s.t.:.H v v m K 3.N.P.L.H.l.0.-.J F N N = % X & N -.e.e.4.-.-.<.<.4.,.-.-.<.p.v.p.e.,.-.-.-.",
"K.F.z.l.d.l.d.d.l.l.l.l.l.l.l.p.l.d.p.<.F m v N ~ 0.H./././.H.M.<.-.;.` K N v = % = v C ~ ,.,.-.-.5.p.l.4.-.-.4.e.e.3.4.4.-.,.-.",
"F.Z.l.l.d.d.d.l.p.p.p.p.r.p.p.l.d.d.a.-.M v G <.N.U./.[.].Y.S.r.<.4.7.7.-.~ F M v = = v J ~ -.,.3.p.S.A.r.<.,.-.-.-.-.-.-.-.,.-.",
"z.l.l.d.l.d.d.d.l.p.5.<.3.5.p.g.l.d.t.-.M m r.U.{.}.{.).U.H.a.7.>.7.N.S.N.a.;.K F v = 2 F -.-.5.g.A.c.z.p.e.,.,.-.-.,.-.-.,.-.,.",
"z.l.l.l.d.d.l.d.d.r.<.-.-.3.r.l.d.d.r.~ m F H.{.OXOX.X[.^.P.N.N.N.N.L.P.H.N.7.;.K M % = F -.3.t.A.A.z.g.g.u.4.-.-.-.-.,.,.-.-.-.",
"F.S.l.d.d.l.d.l.l.t.3.-.-.<.r.l.d.p.t.-.M F P..X@X#X+XoX}.).)./././.^.U.D.p.6.~ F M % = F -.g.A.c.c.z.g.g.u.,.,.-.,.-.-.-.-.,.-.",
"K.F.v.d.d.l.d.d.l.p.5.3.<.5.p.l.d.p.r.-.m C F.{.+X#X#X+XXXXXXX|.|.{.).P.p.-.` G N v % , G e.v.S.c.g.g.g.z.u.4.-.,.-.,.-.,.,.-.,.",
"K.F.v.l.s.l.l.d.l.p.p.p.r.p.l.l.l.d.p.-.v v -.K. X+X@X@XOXXX.X|.|.{.].L.;.C N m 2 = X 2 -.z.z.z.g.g.g.z.g.u.4.-.,.-.-.-.-.-.,.-.",
"v.v.p.t.r.r.t.p.r.r.t.p.t.t.t.t.t.t.5.-.N v N <.U. X.X.XXX X[./.^./.L.a.G v v = = % X v -.g.p.t.u.u.t.u.u.e.4.-.-.-.,.-.,.-.-.,.",
"5.5.<.<.<.<.3.<.<.3.<.3.3.<.<.<.<.<.<.-.H N 2 C 7.H.L.I.U.U.D.p.7.;.~ K M s = = & % X 2 G 4.,.,.-.4.4.,.4.,.-.-.-.-.-.-.-.,.-.,.",
"5.5.5.5.7.5.5.5.0.5.3.3.5.5.0.5.5.<.<.<.-.J 2 v ~ 7.7.l.K.L.p.-.F V N M , = = % % = 2 N -.4.e.4.e.e.e.4.,.-.4.4.4.4.4.4.4.,.,.-.",
"v.S.v.S.b.v.S.N.v.v.p.p.v.S.S.v.p.p.r.p.p.,.M v ~ 6.>.N.Y./.N.-.F N N M v 2 = % = m K 5.p.v.S.S.A.A.A.p.4.<.l.v.g.t.t.p.t.e.<.-.",
"K.F.F.D.F.F.F.F.F.S.l.l.S.F.F.S.N.g.p.N.z.<.M v ~ 9.] n.)./.v.-.F C V N v s = = v F 5.l.D.F.F.S.S.G.F.z.5.5.N.F.v.z.g.p.z.t.3.-.",
"K.F.v.v.v.v.v.l.v.l.z.z.z.v.z.z.g.g.g.g.a.-.v s G ] Q.Q.!.H.t.-.K F F A N v = = C ` r.c.z.z.N.v.N.z.N.g.<.5.A.G.z.z.p.l.l.t.3.-.",
"K.F.v.g.p.l.d.d.p.l.p.p.z.p.p.z.g.g.g.g.t.K 6 = b ] R.Q.n.a.7.7.5.-.K F b v > 0 G ` 5.a.g.l.g.g.g.g.g.t.<.5.A.G.v.p.g.z.p.t.4.-.",
"K.F.v.g.d.d.l.l.g.g.l.g.l.p.p.p.g.l.p.a.r.` , % > E ] } 6.w.l.F.H.l.;.F b > I L B C ;.r.d.d.d.l.z.g.g.t.<.7.A.G.v.g.g.g.z.u.4.-.",
"F.F.z.z.l.d.d.d.z.g.l.g.l.p.z.p.g.g.l.l.r.K v , P ) | m.n.M.H.P.P.H.7.! , > I I 0 N -.p.d.l.d.d.l.g.l.t.5.e.l.v.s.p.z.l.p.0.,.,.",
"K.F.v.p.l.d.d.d.s.l.g.a.g.z.p.z.g.l.p.g.r.-.m T { ~.~.~.!.H.P.U.U.H.7.F , > I I 0 V -.t.d.d.l.d.g.g.g.g.p.r.e.4.4.5.A.v.0.,.,.-.",
"F.S.z.z.d.d.l.l.d.g.g.z.p.z.p.p.g.l.a.g.e.-.V T E._.`.`.Q.M.N.F.P.N.<.F = : < < B H <.d.d.l.d.d.g.l.l.g.p.p.5.<.3.8.c.g.0.-.-.,.",
"K.S.c.z.p.g.g.z.g.z.g.p.g.z.z.p.g.l.g.g.e.-.b P T.W._.W.} ' <.p.g.a.;.G 2 o O b ~ a.N.N.z.d.l.l.z.p.p.p.p.p.t.t.t.t.e.<.<.-.-.,.",
"K.F.b.p.p.z.g.p.p.z.g.z.p.p.l.p.p.l.z.l.t.~ b w [ T.E.R.( Z ~ <.7.7.;.! m * % v >.N.F.F.v.d.d.d.p.p.z.z.z.l.l.l.z.t.7.<.-.<.<.-.",
"K.F.b.p.g.l.z.p.p.p.p.p.z.p.l.z.l.z.D.A.a.~ , : 3 L T T W G ~ ~ ~ ;.;.~ H m * 7 ;.z.F.F.N.l.l.d.g.z.z.z.S.S.l.l.g.g.a.e.4.-.-.-.",
"F.D.z.z.g.g.p.r.t.p.p.t.t.p.p.p.p.z.A.A.g.~ s o - - ; q B G C C Z ! ~ Q ( W q b H <.l.S.z.d.d.d.g.p.p.z.S.S.z.p.g.g.z.t.e.,.<.-.",
"z.l.l.l.l.p.5.<.4.<.,.4.4.5.t.l.l.l.z.l.r.~ , : 3 4 4 4 r q : * , 7 r ) ^ ^ U 9 8 C -.d.d.d.d.l.z.z.p.z.z.z.z.z.z.g.g.g.r.t.4.-.",
"t.t.u.u.t.r.5.<.4.4.-.-.<.4.r.p.r.p.p.p.r.-.b : e U R U e 3 o % , b 9 Y / / R U 5 b ;.t.d.d.d.l.p.g.l.p.g.p.z.p.p.p.z.g.p.t.4.-.",
"<.3.3.3.3.<.r.t.t.t.4.<.5.r.4.<.<.5.p.p.p.-.N 7 r ^ ^ R T q * 6 G K B 9 ^ / ^ r 7 M -.t.d.d.d.d.l.g.l.p.p.z.p.z.g.z.g.z.p.t.4.-.",
"3.3.3.3.<.5.t.l.p.t.<.<.p.p.5.<.<.5.r.t.r.;.F V W ) _ ( W r b C ;.6.H Z ( _ _ ( Z G <.p.d.l.l.d.g.p.z.p.p.z.g.g.t.t.p.p.z.t.-.-.",
"u.t.t.t.t.p.p.l.l.t.<.<.p.g.p.r.t.r.<.<.<.-.K K ' ' 9.6.' K H ;.j.z.0.>.9.9.9.9.;.4.t.g.l.a.l.g.g.s.l.d.d.l.d.t.5.5.t.l.l.t.4.-.",
"z.l.l.l.l.g.p.t.g.t.e.3.r.p.g.l.l.t.7.<.-.4.,.,.<.5.d.t.5.;.-.<.z.Z.d.a.d.d.d.d.a.p.g.p.p.g.p.t.p.t.t.d.d.d.d.p.<.5.t.l.g.t.4.-.",
"F.S.l.g.p.p.5.5.p.g.p.r.3.5.p.g.l.g.p.u.u.u.r.u.t.d.s.d.p.5.<.5.a.z.z.d.d.d.d.d.l.p.l.p.z.p.5.3.<.5.<.7.p.l.l.d.p.p.g.l.p.t.<.-.",
"D.S.z.g.l.t.<.<.8.a.g.p.<.<.t.l.l.g.g.p.g.l.g.l.d.d.d.d.l.p.<.3.q.j.d.d.d.j.l.d.l.p.l.p.p.t.3.-.-.-.-.<.t.d.d.d.l.p.g.g.l.r.4.-.",
"v.l.l.d.l.t.3.:.,.e.p.t.<.<.t.z.g.g.z.l.z.p.p.z.d.d.z.d.z.t.<.<.t.d.d.j.d.l.d.d.p.l.a.l.g.t.<.-.-.-.-.3.t.g.l.s.g.z.z.g.p.t.4.-.",
"g.l.s.g.l.t.2.-.-.3.t.p.7.5.r.p.p.z.l.z.z.g.z.p.z.d.d.d.d.t.5.3.a.j.j.d.d.l.d.l.l.p.p.l.l.t.7.3.3.<.<.5.p.l.g.p.g.g.p.p.p.t.3.-.",
"g.g.l.l.p.r.<.-.-.<.t.l.t.r.3.5.p.z.A.D.D.D.z.z.d.d.d.d.d.t.<.<.t.d.d.j.d.d.l.d.d.d.s.l.l.g.p.t.t.t.t.p.g.g.l.l.z.p.g.z.p.t.4.-.",
"l.g.g.g.l.p.5.<.<.r.t.l.l.t.3.<.t.c.F.K.K.D.b.z.z.d.d.z.l.t.3.5.d.z.z.d.l.d.d.d.l.l.d.s.g.g.g.z.g.l.l.g.g.g.a.l.z.g.g.g.p.t.4.-.",
"g.z.z.g.z.g.p.t.r.p.p.g.l.p.<.<.t.z.D.K.K.K.D.D.z.g.g.p.p.t.<.5.v.F.z.d.j.d.d.d.g.g.g.g.g.z.g.g.g.p.p.z.p.z.g.g.p.p.p.z.z.t.<.-.",
"g.p.p.p.g.g.g.g.g.p.l.g.a.p.5.4.t.g.A.D.D.G.A.D.z.g.z.z.p.t.4.5.z.Z.z.d.d.z.z.d.t.t.g.t.t.p.p.z.z.z.g.g.g.g.g.g.p.p.t.p.p.t.4.-.",
"z.p.p.z.g.z.z.g.l.l.g.g.p.l.p.r.4.4.g.b.c.z.z.z.z.z.g.g.p.t.<.4.d.z.z.s.d.d.d.s.e.<.<.4.4.e.t.g.p.g.g.g.z.z.p.p.e.4.4.5.p.p.4.-.",
"z.g.p.z.g.p.g.g.g.g.g.l.z.p.l.r.4.4.t.p.g.z.z.p.p.p.p.z.z.t.4.<.t.d.d.z.d.s.s.0.<.-.-.-.-.-.e.g.g.l.g.p.p.t.t.e.,.-.-.,.t.t.<.-.",
"p.p.z.p.p.p.p.p.z.p.p.p.p.z.z.t.4.4.t.p.z.p.p.p.z.p.g.z.l.u.<.4.r.l.s.z.z.s.5.>.,.-.-.-.-.,.-.e.g.l.l.t.5.,.4.4.,.-.-.4.t.p.<.-.",
"u.t.u.u.t.t.p.u.t.t.t.r.t.t.p.e.,.4.e.t.t.t.t.t.t.t.t.t.u.0.<.4.r.p.t.s.t.t.<.:.,.-.,.-.-.<.-.,.5.t.a.8.4.-.-.-.-.-.-.<.r.e.,.-.",
"4.,.4.4.-.4.4.4.4.4.<.4.4.4.,.<.,.-.,.,.4.4.1.4.4.4.4.1.<.<.>.:.<.<.2.2.<.<.:.-.,.-.-.-.,.-.<.,.<.<.3.<.,.-.,.-.-.,.-.,.<.4.,.-.",
"-.-.-.-.-.-.-.-.-.-.-.-.-.-.-.-.,.-.-.-.-.-.-.-.-.-.-.-.-.:.:.:.:.-.-.-.-.<.-.:.-.<.-.-.,.-.-.-.,.-.-.<.,.-.-.-.,.-.,.-.-.-.-.,."
};
