/* XPM */
static char *_3c0d3822e8243d8b4d7ad34193e3c67lU2WbT0TppslbYC2[] = {
/* columns rows colors chars-per-pixel */
"64 64 165 2 ",
"   c None",
".  c #010102",
"X  c #090604",
"o  c #0E0A06",
"O  c #000B0A",
"+  c #0B0B0B",
"@  c #110E06",
"#  c #100F0F",
"$  c #1A0F0A",
"%  c #161107",
"&  c #171208",
"*  c #191409",
"=  c #000F10",
"-  c #0F0F10",
";  c #011212",
":  c #0F1817",
">  c #001C1C",
",  c #131313",
"<  c #1C1C1C",
"1  c #161B18",
"2  c #23140D",
"3  c #29190E",
"4  c #251913",
"5  c #211F1C",
"6  c #2D1F10",
"7  c #04201E",
"8  c #2D230D",
"9  c #32260F",
"0  c #392C0F",
"q  c #35290E",
"w  c #26211B",
"e  c #2B2214",
"r  c #392414",
"t  c #3D2916",
"y  c #3B2E1E",
"u  c #322813",
"i  c #3C321E",
"p  c #001E21",
"a  c #1D1E20",
"s  c #002725",
"d  c #042C29",
"f  c #082B29",
"g  c #162423",
"h  c #102827",
"j  c #1F2827",
"k  c #00322E",
"l  c #002E30",
"z  c #013432",
"x  c #003835",
"c  c #003B3B",
"v  c #193633",
"b  c #232323",
"n  c #282625",
"m  c #292826",
"M  c #2C2C2C",
"N  c #252729",
"B  c #302F2F",
"V  c #2D3533",
"C  c #343434",
"Z  c #3C3B3B",
"A  c #3A3A35",
"S  c #4E2B19",
"D  c #532E1C",
"F  c #453513",
"G  c #483713",
"H  c #4C3B14",
"J  c #523E15",
"K  c #473520",
"L  c #4B3C25",
"P  c #403F3D",
"I  c #443E32",
"U  c #6A3A22",
"Y  c #00413F",
"T  c #5A4516",
"R  c #5F4818",
"E  c #574316",
"W  c #604917",
"Q  c #604A18",
"!  c #5D4B25",
"~  c #564426",
"^  c #41403F",
"/  c #4B463E",
"(  c #5B4D3E",
")  c #554534",
"_  c #7B4825",
"`  c #023F40",
"'  c #004342",
"]  c #024749",
"[  c #004D4D",
"{  c #004D51",
"}  c #005355",
"|  c #00565B",
" . c #00595C",
".. c #005E63",
"X. c #005F68",
"o. c #00656D",
"O. c #006C73",
"+. c #00737C",
"@. c #444443",
"#. c #484746",
"$. c #4A4846",
"%. c #4C4B4B",
"&. c #464E4B",
"*. c #544E41",
"=. c #504F4E",
"-. c #52504F",
";. c #565553",
":. c #585755",
">. c #5A5956",
",. c #5D5C5A",
"<. c #645443",
"1. c #615F5D",
"2. c #63625F",
"3. c #686159",
"4. c #766653",
"5. c #656564",
"6. c #696664",
"7. c #6A6965",
"8. c #6D6C68",
"9. c #706E6A",
"0. c #73726D",
"q. c #757370",
"w. c #7C7A75",
"e. c #787671",
"r. c #8D6130",
"t. c #926635",
"y. c #AF6B36",
"u. c #BB7C3E",
"i. c #867259",
"p. c #AC7E4B",
"a. c #AA7B46",
"s. c #877765",
"d. c #817E79",
"f. c #B0814D",
"g. c #B08453",
"h. c #85827C",
"j. c #C68A47",
"k. c #D89B57",
"l. c #F69C4D",
"z. c #FFAC55",
"x. c #FFB056",
"c. c #007A85",
"v. c #007E8A",
"b. c #00818E",
"n. c #008390",
"m. c #8D8A84",
"M. c #898680",
"N. c #938F89",
"B. c #918E87",
"V. c #95918B",
"C. c #99968E",
"Z. c #9C9A94",
"A. c #9A9A9B",
"S. c #A19D96",
"D. c #A5A29B",
"F. c #AAA59E",
"G. c #ABABAB",
"H. c #AAA7A2",
"J. c #B2AEA7",
"K. c #B5B2AB",
"L. c #BCB9B3",
"P. c #BAB7B1",
"I. c #C1BDB7",
"U. c #C2BFB8",
"Y. c #C3C0BA",
/* pixels */
"                                                                                                                                ",
"                                                                                                                                ",
"                                                                                                                                ",
"                                                                                                                                ",
"                                                                                                                                ",
"                                                                                                                                ",
"                                                                                                                                ",
"                                                                                                                                ",
"                                                            . . . . . . . .                                                     ",
"                                                            > p > p p > ; ;                                                     ",
"                                                        . > { X.X.X.X.| ] l O .                                                 ",
"                                                        = l o.n.n.n.v.c.O.{ s =                                                 ",
"                                                    . ; z { +.n.v.v.b.v.c.O.[ z ; .                                             ",
"                                                    . ; c ..O.+.+.c.+.+.O.o.| c > O                                             ",
"                                                    . ; '  . .o....... .[ ' c x s > O .                                         ",
"                                                    . ; x [ } } } { [ ' z k k z z s O .                                         ",
"                                                    . O d ' { } } [ Y x z z d z k s O .                                         ",
"                                                    . O > z ' ] [ ' z d d d s s s > O .                                         ",
"                                                . . . X 1 g g h z z h g g 1 = O O O . .                                         ",
"                                                + + + 1 M C C C v v N b b < - X . . . .                                         ",
"                                            . + 5 M C @.>.6.6.,.%.Z C V C M < # . .                                             ",
"                                            + , B @.:.9.d.h.w.7.:.$.^ Z C B b 1 + X                                             ",
"                                        . + < M P :.d.V.Z.m.7.;.=.%.#.@.Z B b < 1 , X .                                         ",
"                                        . , Z :.2.0.m.C.N.w.>.$.@.$.;.;.%.^ B m m < + .                                         ",
"                                        . < 2.N.S.Z.B.w.6.:.-.@.Z #.5.0.9.2.%.^ @.C + .                                         ",
"                                        . n d.K.I.K.Z.d.6.,.1.,.;.>.0.w.e.7.:.%.%.C , .                                         ",
"                                        . M m.U.U.L.J.D.V.m.m.M.M.h.d.0.2.:.-.%.@.M + .                                         ",
"                                        . b q.H.P.U.U.L.J.F.D.D.D.Z.N.q.-.Z ^ P C b + .                                         ",
"                                        . , ^ q.H.Y.Y.L.L.P.H.D.D.D.S.d.@.b m M n 1 + .                                         ",
"                                        . + 1 @.M.D.A.H.D.Z.m.M.h.d.h.6.C < < < a , X .                                         ",
"                                            + w %.7.7.7.5.,.;.$.P I P C b < < < a 1 X .                                         ",
"                                            . , ^ =.Z #.5.5.$.C n a b a g w a < 1 , X .                                         ",
"                                            . 1 ;.:.N Z A.G.7.^ C M B M a a a 1 + X                                             ",
"                                            . < :.1.I <.D.G.7.^ A A C B M a < , X .                                             ",
"                                            . , ^ 4.p.p.s.7.$.C C C C C C N , X                                                 ",
"                                            . + n <.p.p.<.@.@.$.#.@.^ Z B b 4 2                                                 ",
"                                            . . + b I ( P ^ 1.8.8.2.-.Z 1 4 D D 2 .                                             ",
"                                            . @ 3 K ) ( $.;.9.d.d.q.>.C , 2 U U 4 .                                             ",
"                                            . e r.j.j.g.s.8.w.d.d.q.>.Z , 2 U U 2 .                                             ",
"                                            . t u.z.x.k.i.2.7.0.0.7.:.A , $ S D 4 .                                             ",
"                                            . r y.l.z.j.L B #.:.>.;.-.Z : X & 2                                                 ",
"                                            . 3 _ y.u.t.y a Z =.%.=.=.^ b - X .                                                 ",
"                                            . @ 3 r t y A ^ %.=.=.%.%.#.^ M , .                                                 ",
"                                            . + @ @ @ 1 A I P Z A P #.*.) ^ w %                                                 ",
"                                            . & q F 9 u i y 5 , , 4 ~ ! ! E E q & .                                             ",
"                                            . * H T H F F 9 @ . . $ 0 H E T Q G * .                                             ",
"                                            . * G Q E J F 8 @ .     & 3 H R Q G * .                                             ",
"                                            . * G Q Q E F 9 # .     . & F R R G * .                                             ",
"                                                                                                                                ",
"                                                                                                                                ",
"                                                                                                                                ",
"                                                                                                                                ",
"                                                                                                                                ",
"                                                                                                                                ",
"                                                                                                                                ",
"                                                                                                                                ",
"                                                                                                                                ",
"                                                                                                                                ",
"                                                                                                                                ",
"                                                                                                                                ",
"                                                                                                                                ",
"                                                                                                                                ",
"                                                                                                                                ",
"                                                                                                                                "
};
