/* XPM */
static char *_ee1770293d3465ad47cb04e57c484e8rbEd5eswhRCu6JR5[] = {
/* columns rows colors chars-per-pixel */
"64 64 197 2 ",
"   c #020707",
".  c #020D0D",
"X  c #0B0D0D",
"o  c #120E0B",
"O  c #1A0F09",
"+  c #15100D",
"@  c #1D140D",
"#  c #021514",
"$  c #0B1212",
"%  c #021A18",
"&  c #0B1B1A",
"*  c #151514",
"=  c #1A1614",
"-  c #1C1916",
";  c #141C1B",
":  c #1C1C1B",
">  c #20140B",
",  c #311B0D",
"<  c #241C16",
"1  c #2D1D13",
"2  c #211E1B",
"3  c #341E12",
"4  c #03201E",
"5  c #0A201F",
"6  c #252117",
"7  c #2A2416",
"8  c #20201F",
"9  c #2A261B",
"0  c #2E291D",
"q  c #362C15",
"w  c #382718",
"e  c #3E3112",
"r  c #3F341E",
"t  c #1E1F21",
"y  c #0E2424",
"u  c #012825",
"i  c #032D2B",
"p  c #0E2A2B",
"a  c #112524",
"s  c #1D2222",
"d  c #142829",
"f  c #1C2B2B",
"g  c #00322F",
"h  c #142F31",
"j  c #023433",
"k  c #073739",
"l  c #023C3C",
"z  c #0A3838",
"x  c #123233",
"c  c #163938",
"v  c #232323",
"b  c #292624",
"n  c #2C2925",
"m  c #242B2A",
"M  c #2B2B2A",
"N  c #322B24",
"B  c #312E2C",
"V  c #2F302F",
"C  c #3B3525",
"Z  c #33312D",
"A  c #3A342B",
"S  c #233231",
"D  c #2D3231",
"F  c #233638",
"G  c #2B3A39",
"H  c #343433",
"J  c #3A3733",
"K  c #3B3935",
"L  c #353938",
"P  c #3B3B3B",
"I  c #432D1C",
"U  c #433515",
"Y  c #463815",
"T  c #4C3B15",
"R  c #43351A",
"E  c #4A3A23",
"W  c #4C3D2A",
"Q  c #513526",
"!  c #423C32",
"~  c #403F3D",
"^  c #673F20",
"/  c #584517",
"(  c #54431B",
")  c #49402B",
"_  c #564729",
"`  c #464135",
"'  c #42413E",
"]  c #4C453A",
"[  c #584739",
"{  c #644E39",
"}  c #724C31",
"|  c #62503D",
" . c #063F41",
".. c #103F45",
"X. c #014343",
"o. c #05444A",
"O. c #004A4B",
"+. c #024C53",
"@. c #005253",
"#. c #005559",
"$. c #00595D",
"%. c #384342",
"&. c #005E63",
"*. c #005F69",
"=. c #00656C",
"-. c #006772",
";. c #006A73",
":. c #00747D",
">. c #464646",
",. c #494745",
"<. c #4A4946",
"1. c #494848",
"2. c #4A4A49",
"3. c gray29",
"4. c #4B4B4B",
"5. c #4C4C4B",
"6. c #4D4D4C",
"7. c #4E4E4D",
"8. c #4F4F4E",
"9. c #534E44",
"0. c #524F4C",
"q. c #4A514E",
"w. c #5A5347",
"e. c #51504E",
"r. c #50504F",
"t. c #515151",
"y. c #535352",
"u. c #545453",
"i. c #545454",
"p. c #555554",
"a. c #565655",
"s. c #575655",
"d. c #575756",
"f. c #595654",
"g. c #585857",
"h. c #595858",
"j. c #595958",
"k. c #5A5A58",
"l. c #5A5A59",
"z. c #5B5B5A",
"x. c #5C5C5B",
"c. c #5D5D5B",
"v. c #5D5D5C",
"b. c #5E5E5D",
"n. c #5F5F5E",
"m. c #6F5F4F",
"M. c #625F5B",
"N. c #77624C",
"B. c #60605F",
"V. c #61605F",
"C. c #6D675F",
"Z. c #626261",
"A. c #636362",
"S. c #646462",
"D. c #656563",
"F. c #666664",
"G. c #6A6663",
"H. c #696966",
"J. c #696967",
"K. c #6D6C69",
"L. c #716F6B",
"P. c #787066",
"I. c #74726E",
"U. c #767471",
"Y. c #797672",
"T. c #7D7A76",
"R. c #7E7B78",
"E. c #8B572B",
"W. c #815A32",
"Q. c #8B623C",
"!. c #9A6634",
"~. c #B1753B",
"^. c #8C6F4F",
"/. c #966D44",
"(. c #92704D",
"). c #89735C",
"_. c #877E75",
"`. c #817E7A",
"'. c #B58046",
"]. c #84827C",
"[. c #D18C47",
"{. c #C38C53",
"}. c #007883",
"|. c #007985",
" X c #898681",
".X c #8C8A83",
"XX c #918F8A",
"oX c #94928C",
"OX c #9D9B94",
"+X c #9F9D98",
"@X c #A09D95",
"#X c #A29F9A",
"$X c #A7A49D",
"%X c #AAA7A2",
"&X c #ADABA4",
"*X c #B5B3AD",
"=X c #B8B5AF",
/* pixels */
"g.x.D.J.J.J.J.D.x.j.j.j.j.u.3.8.Z.D.b.g.j.j.j.j.j.j.j.j.j.i.6.3.u.b.D.J.J.D.b.g.j.j.j.b.D.J.J.D.b.h.j.M.J.Z.j.j.j.j.j.j.j.d.4.>.",
"x.b.Z.D.D.D.D.Z.x.j.j.j.j.d.8.r.g.b.b.x.j.j.j.j.j.j.j.j.j.i.6.3.d.b.Z.D.D.Z.j.j.j.j.j.b.Z.D.D.Z.j.j.d.d.b.b.B.x.j.j.j.j.j.u.4.>.",
"D.Z.b.x.x.b.b.b.j.j.j.j.j.g.d.y.0.d.B.Z.x.j.j.j.j.j.j.j.g.i.3.r.b.A.n.x.b.n.j.j.j.j.j.x.x.b.x.x.d.d.8.3.3.d.b.Z.x.j.j.j.j.u.4.>.",
"J.D.x.g.d.j.g.j.j.j.j.j.j.g.g.d.8.r.x.b.b.x.j.j.j.j.j.j.g.y.3.r.b.S.b.g.d.j.j.j.j.j.j.j.g.j.j.j.h.d.8.1.1.8.j.b.b.x.j.j.f.r.4.>.",
"J.D.x.d.j.j.j.j.j.j.j.j.j.j.j.g.d.y.8.y.B.Z.x.g.j.j.d.d.d.u.4.0.b.Z.b.d.j.j.j.j.j.j.j.j.j.j.h.d.h.d.f.y.5.1.3.d.Z.A.x.g.q.3.,.>.",
"J.D.b.j.j.j.j.j.j.j.j.j.j.j.j.j.j.d.3.8.B.D.b.g.d.d.6.1.>.>.P P r.d.d.d.j.j.j.j.j.j.j.j.j.j.d.d.d.j.j.d.8.1.3.3.d.x.g.r.8.>.>.1.",
"J.D.b.j.j.j.j.j.j.j.j.j.j.j.j.j.j.y.3.8.B.D.x.g.d.3.L V v b s v D P 5.d.d.j.j.j.j.j.j.j.D.n.y.8.d.d.j.d.d.8.3.1.q.r.5.3.1.>.>.1.",
"D.Z.x.j.j.j.j.j.x.x.j.j.j.j.j.j.d.d.8.y.x.b.d.8.1.P m d p p p p h F %.1.u.j.j.j.j.j.j.j.D.n.8.8.d.j.j.j.j.d.8.3.>.1.>.1.>.1.>.>.",
"b.b.j.j.j.j.j.j.Z.Z.b.j.j.j.j.j.j.g.g.y.r.8.3.>.L D x k o.+.+.+.o...F P 8.d.d.j.j.h.j.j.j.b.d.d.h.h.h.h.h.h.u.y.5.>.>.>.>.>.1.>.",
"j.j.j.j.j.j.j.b.Z.Z.b.j.j.j.j.j.j.j.j.d.3.>.L H m x X.+.*.-.;.-.=.+.k S P 5.8.u.d.d.d.j.j.j.j.j.x.h.h.h.h.d.x.i.5.>.1.>.1.>.1.>.",
"j.j.j.j.j.j.j.j.b.j.j.j.j.j.j.j.j.j.g.d.y.>.H f x  .#.=.:.|.|.|.:.*...k S H ' 1.3.8.d.h.j.j.j.j.d.j.h.h.h.x.x.i.5.>.>.1.>.>.>.1.",
"j.j.j.j.j.j.j.j.j.j.j.j.j.j.j.j.j.j.g.y.3.L m y j X.#.-.:.}.|.|.:.-.+.k d v L %.>.3.d.j.j.j.j.j.j.j.h.h.h.u.u.r.5.1.>.>.1.1.>.>.",
"j.j.j.j.j.j.j.j.j.j.j.j.j.j.j.j.j.j.f.3.J m a u j  .O.#.*.=.=.=.=.&.O.l y v H >.>.3.d.d.j.j.j.j.j.j.j.d.8.3.5.1.1.>.>.>.>.>.1.>.",
"j.j.j.j.j.j.j.j.j.j.j.j.j.j.j.j.j.j.d.1.m ; u u j j l X.O.@.#.$.$.@.O.j & t H >.3.8.d.j.j.j.j.j.j.d.d.y.1.>.>.1.1.>.1.>.1.>.1.>.",
"j.j.j.j.j.j.j.j.j.j.j.j.j.j.j.j.j.d.u.%.2 $ % u i j j j l X.O.@.+.O.l i % : P r.y.d.d.j.j.j.j.j.j.d.r.3.1.1.>.1.>.1.1.>.>.1.>.>.",
"b.x.j.j.j.j.j.j.j.j.j.j.j.j.j.j.j.h.u.~ 8 $ % % u u u u i j X.X.X.l j a $ : H 1.y.d.j.j.j.j.j.d.d.r.3.>.>.1.>.>.>.1.6.q.6.5.>.1.",
"D.Z.j.j.j.j.j.j.j.j.j.j.j.j.j.j.j.j.i.1.s $ . . # # & 5 y p k k k d a & X X t H >.d.d.h.h.h.h.d.q.3.>.>.>.1.>.>.>.8.x.b.j.r.5.1.",
"J.Z.b.j.j.j.j.j.j.j.j.j.j.j.j.j.j.h.d.1.M : X     $ t t s h x c G G H b : : - b J 1.u.d.h.h.d.r.8.>.1.>.>.1.1.5.8.y.n.Z.j.u.5.>.",
"J.D.b.j.j.j.j.j.j.j.j.j.j.j.j.j.j.j.h.r.>.M *   X = s M M D G %.q.f.u.0.P M b 8 b H 1.u.h.d.0.5.1.1.>.>.>.>.>.8.d.M.n.j.r.5.>.>.",
"J.Z.b.j.j.j.j.j.j.j.x.b.j.j.j.j.j.j.h.0.>.M ; o o t M M H P %.5.g.H.L.L.M.3.L n v m J 3.y.y.1.>.>.>.>.1.>.>.>.8.b.D.n.i.5.>.>.>.",
"J.D.b.j.j.j.j.j.j.j.Z.Z.x.j.j.j.j.h.d.>.H v * * 2 v H K ~ ,.3.0.x.H.`.].`.J.0.P m b m J 1.r.3.1.>.1.>.>.3.>.>.8.A.D.b.i.5.>.>.>.",
"J.D.j.h.j.j.j.j.j.b.Z.Z.x.j.j.j.j.f.y.>.v : : b M ~ ' 5.0.f.f.f.f.G.T.].].`.G.e.1.M v M >.5.3.1.>.3.5.3.3.>.>.q.d.n.d.r.1.1.>.1.",
"J.D.b.j.j.j.j.j.j.j.b.j.j.j.j.j.j.f.d.>.t : m P 0.f.M.Z.H.K.G.M.j.x.G.I.`.`.T.L.H.9.M v L >.>.>.>.8.j.b.3.>.>.1.5.u.5.1.1.1.1.>.",
"D.Z.b.j.j.j.j.j.j.d.d.y.d.d.j.j.d.j.d.' t : B ~ f.G.K.Y.Y.Y.Y.L.G.G.L.Y. XXXXX.XT.j.B t H >.>.1.3.d.B.b.u.8.>.>.>.>.1.>.>.>.1.>.",
"x.x.j.j.j.j.j.j.j.d.8.3.3.q.f.f.j.j.y.>.t : b P 0.M.J.I._.Y.`.`.].]..XoX@X%X%XOX`.f.M t H 1.1.5.x.n.x.x.d.t.1.1.>.1.>.>.1.1.>.>.",
"x.j.j.j.j.j.j.j.j.d.3.>.>.5.d.h.j.j.y.~ t * v B ~ 0.f.M.M.K.Y. XXXOX@X$X*X*X*X@XU.3.b - H >.1.d.v.A.x.h.x.u.3.1.>.>.1.>.>.>.>.1.",
"D.Z.b.j.j.j.j.j.d.u.3.>.>.3.g.j.d.j.d.>.v : : t M Z J P ~ y.L. XoX@X$X&X=X*X&XoXM.L : t H >.h.Z.x.x.x.d.x.t.3.1.1.1.>.>.>.>.>.1.",
"J.D.b.j.j.j.j.j.j.d.8.5.3.8.g.j.j.d.u.>.D 2 : * : t t b b ~ M.I.]..XoX@X#X#XoXU.>.b t b P y.M.Z.v.h.d.x.x.u.1.>.>.>.>.1.1.1.>.>.",
"J.D.x.h.h.h.d.j.j.j.d.u.d.d.g.j.j.j.d.y.>.M - * : : : t t b P 3.j.D.U.Y.U.K.J.r.M v m P u.n.n.x.x.h.h.h.x.p.3.1.>.1.>.>.>.>.>.1.",
"b.b.j.y.y.d.u.u.d.d.u.u.d.y.u.u.d.d.y.r.3.L : $ + * : : t v M H >.f.J.K.j.0.0.~ t t B 1.h.x.h.u.u.p.p.p.u.r.3.3.>.>.1.1.>.1.>.>.",
"8.8.5.1.3.3.5.5.3.3.3.5.3.3.3.3.3.3.3.3.>.H : * $ * ; t v M M H >.B.`.R.g.] 5.>.v t H >.6.6.6.6.3.6.3.3.1.3.1.3.>.1.>.>.>.>.1.>.",
"8.8.8.8.8.8.8.8.8.8.3.5.8.8.8.8.8.3.3.8.5.>.M : : = t b V V V H >.B.]._.m.[ 9.K v t P 6.6.6.6.r.6.6.t.q.1.3.5.5.5.1.5.5.q.3.1.1.",
"n.A.n.A.n.Z.Z.A.n.b.h.j.b.B.b.b.g.y.y.j.M.d.>.B 9 9 C J H H H P >.0.H.).(.^.[ J t t ~ f.b.b.M.Z.n.n.Z.x.5.5.h.n.h.u.d.u.d.r.5.1.",
"J.D.D.Z.D.Z.D.D.A.M.x.b.D.S.J.D.x.j.j.x.M.f.>.! W _ { | [ >.,.3.5.0.w.N./.Q.[ N = t L 4.x.S.D.D.D.D.D.b.5.6.B.D.b.x.j.j.h.d.5.1.",
"J.D.n.n.n.j.n.j.b.x.j.j.j.b.b.j.j.j.g.j.d.8.J W W.~.'.'.N.j.M.D.Z.x.w.{ } } w @ o O t H 5.x.x.b.x.b.b.d.r.r.A.F.b.x.d.j.d.u.5.>.",
"J.A.b.j.d.x.g.j.h.j.j.j.j.d.j.j.j.j.f.d.y.>.M Q E.[.[.{.).C.K.I.K.D.0.[ { Q 1 O O O = b ' d.d.h.h.h.d.u.5.r.n.D.x.d.h.j.x.d.>.>.",
"D.A.b.j.x.f.j.j.j.j.j.j.j.j.j.j.j.j.j.j.u.' b I E.~.[.{.).P.I.U.I.G.f.,.~ I 2 > , , 1 b >.u.d.l.h.h.j.u.5.0.n.D.n.h.d.d.j.d.5.1.",
"J.D.j.j.j.j.j.j.j.j.j.j.j.j.j.j.j.j.j.j.u.' v w ^ E.!./.^.G.K.J.J.B.d.3.~ B 2 > w w N H 2.d.d.l.j.h.h.d.r.r.h.x.d.d.x.x.d.r.>.1.",
"J.Z.Z.j.j.f.x.j.j.j.j.j.j.j.j.j.j.j.j.g.u.>.b < 3 w R W ] q.d.g.f.d.y.3.>.H = + < N L 1.r.d.f.l.j.j.j.h.d.u.r.6.5.u.b.n.8.5.>.>.",
"J.Z.n.d.h.j.h.j.j.j.j.j.j.j.j.j.j.j.j.j.h.3.H 8 O + < B K ' <.3.3.3.3.>.P M * + v H q.g.g.l.k.l.j.j.j.j.d.d.6.6.5.6.x.x.5.>.1.5.",
"D.D.n.j.d.d.j.x.j.j.j.j.j.j.j.j.j.j.h.j.h.8.>.M - - n J ` ' >.' ,.,.,.~ L M - 2 L 3.x.B.l.l.k.l.h.x.j.j.j.h.d.u.u.u.r.5.3.>.>.1.",
"J.D.j.x.x.j.j.d.j.h.j.j.j.j.j.j.j.j.b.j.j.8.P B 0 7 C ) ` ` J Z B J ! ! C r 7 0 K 3.B.B.c.k.k.d.j.j.j.j.x.x.j.j.d.p.r.5.>.1.>.>.",
"J.Z.Z.j.x.j.j.j.h.h.h.d.j.h.h.j.j.j.Z.Z.u.>.Z 9 q e ( ( ( r 9 : - < w R e e e q 0 K f.B.l.l.d.l.h.j.j.x.Z.A.x.h.x.h.d.r.1.>.1.>.",
"D.D.j.j.j.d.d.y.u.u.d.y.u.d.d.j.j.b.Z.Z.d.>.b 7 U ( / ( Y q 6 - * @ 1 I U ( ( e 7 n q.g.l.l.l.g.j.f.j.j.Z.Z.b.j.d.h.j.d.r.5.1.>.",
"x.x.h.d.j.d.q.5.3.5.3.8.3.0.d.g.k.g.x.g.u.>.n 7 U ( ( T q 9 m b - < q e ( ( ( R 0 n >.j.x.g.g.l.j.j.j.x.b.x.j.j.x.h.h.d.p.u.5.>.",
"d.u.u.u.y.y.q.5.3.8.1.>.3.4.y.d.u.g.k.g.d.5.L A W _ _ E C M H L H Z E ) _ _ _ ) C K <.d.g.f.l.l.j.j.h.j.j.j.h.j.d.d.x.d.d.p.5.>.",
"5.8.6.6.6.6.u.d.u.r.3.3.y.y.0.3.5.q.d.g.d.f.8.,.9.9.] ! K P P 1.8.r.9.9.w.w.9.] 4.3.u.d.x.k.f.f.j.j.j.j.j.j.h.h.j.j.h.x.d.u.5.1.",
"3.3.1.6.3.8.d.j.j.u.5.3.d.d.q.3.<.r.r.u.u.d.r.r.u.u.9.,.>.1.1.q.x.B.x.d.j.j.j.f.k.f.g.g.f.k.x.f.h.j.j.h.j.h.j.h.u.d.h.h.h.u.1.>.",
"u.u.u.u.d.d.d.h.j.u.5.5.d.h.d.u.g.u.6.3.3.3.5.5.3.5.u.r.3.>.>.6.b.D.b.j.h.j.j.h.d.h.j.j.j.h.h.h.j.j.j.j.j.h.j.u.q.8.u.x.h.u.4.>.",
"x.x.x.d.h.h.d.d.d.d.8.q.y.u.d.j.g.g.q.5.3.3.5.5.3.r.d.d.r.5.>.r.Z.D.j.j.j.j.j.j.j.j.j.j.j.d.d.u.f.y.y.g.h.h.h.d.r.5.u.x.j.d.5.>.",
"S.Z.x.d.h.d.8.5.d.h.d.r.3.8.d.j.g.g.g.i.d.d.u.u.u.d.d.d.h.r.1.5.d.j.j.j.j.j.j.j.j.j.j.j.j.d.r.5.6.5.5.q.d.j.h.j.d.u.h.h.f.d.4.>.",
"D.B.x.h.d.u.5.1.8.d.h.d.5.3.d.j.l.g.g.g.d.h.d.j.d.j.j.h.d.u.5.5.u.j.j.j.j.j.j.j.j.j.j.h.h.u.1.1.>.>.1.q.d.j.j.j.h.h.h.j.h.u.4.>.",
"b.x.x.h.h.d.5.>.3.8.d.u.5.3.u.j.g.x.g.d.g.g.g.g.x.d.j.j.j.d.1.8.u.j.j.j.j.j.j.j.j.j.j.j.j.u.5.1.>.>.1.5.u.d.j.j.h.j.h.j.h.d.5.>.",
"h.h.j.j.h.u.5.>.>.5.u.d.8.8.y.d.g.g.n.b.B.B.g.x.j.j.j.j.j.u.5.5.u.j.j.j.j.j.j.j.j.j.j.j.h.d.q.5.3.6.5.r.d.h.h.j.j.h.j.d.h.u.5.>.",
"j.j.j.j.j.u.5.1.>.5.u.j.d.y.5.8.d.g.S.S.S.A.g.g.j.j.j.j.j.u.5.5.u.j.j.j.j.j.j.j.j.j.j.j.h.h.d.u.u.d.u.d.d.h.h.d.j.h.d.x.j.r.5.>.",
"j.j.j.j.j.d.r.5.5.8.d.j.h.d.3.3.u.n.S.J.J.S.B.b.j.j.j.j.j.d.5.5.d.b.j.j.j.j.j.j.j.j.j.j.d.x.d.x.d.g.d.h.d.h.h.x.j.j.x.d.x.u.3.>.",
"j.j.j.j.x.d.d.y.u.d.d.j.j.d.3.3.y.x.S.J.J.J.S.A.x.j.j.j.j.u.8.q.b.D.j.j.j.j.j.j.g.g.l.h.h.h.h.h.x.d.x.d.h.x.h.d.j.j.g.g.g.i.6.1.",
"j.j.j.j.j.j.j.j.h.h.j.j.j.d.8.3.i.g.B.S.D.D.S.Z.x.j.j.j.j.y.3.8.x.Z.b.j.j.j.j.j.g.i.u.u.p.p.h.h.d.j.d.x.h.h.h.l.d.y.i.g.l.d.3.>.",
"j.j.j.j.h.j.h.j.h.j.j.j.h.h.d.u.6.8.h.x.b.n.x.g.j.j.j.j.j.u.<.3.d.x.j.j.j.g.j.g.6.6.3.3.q.r.u.d.j.j.l.d.h.x.d.p.q.5.5.6.i.u.5.>.",
"j.j.j.d.j.h.j.h.j.j.j.j.h.j.d.d.3.8.u.h.g.g.g.x.j.j.j.j.j.d.8.5.u.j.j.j.j.d.d.y.3.>.>.>.>.6.r.d.d.j.h.h.d.p.i.r.5.1.>.5.i.u.6.>.",
"j.j.d.j.j.d.j.h.h.d.j.f.j.g.j.u.4.3.d.d.h.j.h.j.j.j.j.j.j.d.3.5.d.d.j.d.j.d.8.3.1.>.>.3.1.1.1.q.d.j.j.d.r.3.5.3.>.>.>.6.i.u.5.>.",
"u.d.d.d.u.r.d.u.u.u.d.d.d.u.d.y.3.3.r.d.d.u.y.y.d.y.y.d.u.8.3.3.8.d.d.d.d.r.3.>.1.>.>.>.>.>.1.5.y.d.u.r.3.>.>.1.>.>.>.3.u.r.5.>.",
"5.3.5.5.5.5.5.3.5.5.4.4.3.3.4.3.1.1.3.3.3.8.3.3.8.>.8.8.3.3.1.1.3.3.5.5.3.>.3.<.1.>.>.>.>.1.>.5.5.3.5.5.1.>.1.>.3.>.>.3.3.5.1.>.",
">.>.>.>.>.>.>.>.>.1.>.>.>.>.>.<.>.>.>.>.>.>.>.>.>.>.>.>.>.>.>.3.3.>.>.>.>.3.>.>.>.>.1.1.>.>.>.>.>.>.>.1.1.>.>.1.>.>.>.>.>.>.3.>."
};
