/* XPM */
static char *_dc15ae3eac6441796f2993de8ad2f9211U16YHqQ31w0Jlx[] = {
/* columns rows colors chars-per-pixel */
"64 64 154 2 ",
"   c #0A1B1A",
".  c #161615",
"X  c #1D1714",
"o  c #1B1913",
"O  c #171919",
"+  c #1B1B1B",
"@  c #221C14",
"#  c #221F1D",
"$  c #1E201F",
"%  c #2E2614",
"&  c #24211E",
"*  c #2B231A",
"=  c #2E2819",
"-  c #382315",
";  c #362C15",
":  c #372618",
">  c #3C2C1B",
",  c #3E3319",
"<  c #0C2221",
"1  c #032826",
"2  c #022C2C",
"3  c #152424",
"4  c #1E2220",
"5  c #112C2C",
"6  c #1B2A2B",
"7  c #0C2F31",
"8  c #162D30",
"9  c #1C2E30",
"0  c #033534",
"q  c #0B3633",
"w  c #003836",
"e  c #033739",
"r  c #0D363A",
"t  c #003C3C",
"y  c #1C3234",
"u  c #133936",
"i  c #1F3538",
"p  c #232323",
"a  c #282623",
"s  c #262827",
"d  c #2C2925",
"f  c #272728",
"g  c #272A29",
"h  c #2C2C2B",
"j  c #312B24",
"k  c #3B2D26",
"l  c #312E2B",
"z  c #2C302F",
"x  c #32302D",
"c  c #383329",
"v  c #243435",
"b  c #2D3333",
"n  c #2A3A37",
"m  c #223D3A",
"M  c #343433",
"N  c #383635",
"B  c #3A3836",
"V  c #363C3C",
"C  c #3C3C3B",
"Z  c #432D1D",
"A  c #433514",
"S  c #423619",
"D  c #4B301B",
"F  c #4D3E19",
"G  c #463526",
"H  c #4D3A23",
"J  c #493729",
"K  c #4B3D2C",
"L  c #563321",
"P  c #5A3F25",
"I  c #433C37",
"U  c #483D35",
"Y  c #413F3E",
"T  c #6A3C22",
"R  c #3F403F",
"E  c #4B422A",
"W  c #534729",
"Q  c #54482A",
"!  c #43413F",
"~  c #4A433B",
"^  c #5E4435",
"/  c #75462B",
"(  c #76552E",
")  c #644E3E",
"_  c #754D32",
"`  c #6C503E",
"'  c #0C3E44",
"]  c #014243",
"[  c #004847",
"{  c #03464B",
"}  c #004B4C",
"|  c #004C50",
" . c #005355",
".. c #035059",
"X. c #005A5E",
"o. c #2C4C47",
"O. c #3D4341",
"+. c #314B46",
"@. c #3A4845",
"#. c #005D63",
"$. c #005F6A",
"%. c #00656C",
"&. c #00747F",
"*. c #464646",
"=. c #494746",
"-. c #494846",
";. c #4C4B4B",
":. c #534C44",
">. c #594D46",
",. c #504E4D",
"<. c #51504E",
"1. c #545454",
"2. c #595654",
"3. c #575857",
"4. c #595857",
"5. c #5A5A59",
"6. c #6D5C46",
"7. c #655E54",
"8. c #615E5B",
"9. c #60605F",
"0. c #706558",
"q. c #5D6762",
"w. c #646462",
"e. c #686663",
"r. c #6A6966",
"t. c #6E6C68",
"y. c #716E6A",
"u. c #63716A",
"i. c #75726E",
"p. c #767570",
"a. c #797672",
"s. c #7D7A75",
"d. c #8E5C2E",
"f. c #855333",
"g. c #946734",
"h. c #996030",
"j. c #BD7E3D",
"k. c #C17B3C",
"l. c #926C42",
"z. c #91795B",
"x. c #AC7F50",
"c. c #937E64",
"v. c #827E79",
"b. c #85837E",
"n. c #88857F",
"m. c #D1904A",
"M. c #D9924B",
"N. c #C28D55",
"B. c #8C8883",
"V. c #928E88",
"C. c #94918B",
"Z. c #98958F",
"A. c #999690",
"S. c #9C9992",
/* pixels */
"4.5.r.r.r.r.r.w.9.3.5.3.5.1.;.;.w.w.9.5.5.5.5.3.5.5.3.5.5.1.;.;.1.5.w.r.r.w.5.5.5.5.5.8.w.r.r.e.5.3.3.9.r.w.5.5.5.5.5.5.5.1.;.*.",
"5.5.w.e.w.w.w.w.5.3.5.3.5.1.,.<.5.9.5.5.5.5.5.5.5.3.3.5.3.1.;.;.3.9.w.r.w.w.5.5.3.5.3.5.w.w.w.w.9.3.1.3.5.9.9.5.5.5.5.5.5.1.;.*.",
"w.w.9.5.5.9.5.5.5.5.5.5.5.3.3.1.1.1.9.w.5.5.5.5.3.5.5.3.3.1.;.;.5.w.9.5.9.5.5.5.5.5.5.5.5.5.9.5.5.1.,.;.;.3.9.9.5.5.5.5.5.1.;.*.",
"r.e.5.5.5.5.5.5.5.5.5.5.3.5.5.1.;.;.5.9.9.5.5.5.5.3.5.5.5.1.;.1.w.w.5.3.3.5.5.5.3.5.5.3.5.5.3.5.5.1.;.;.*.;.5.9.9.5.5.5.3.,.;.*.",
"r.w.5.3.5.3.5.5.5.5.5.5.5.5.3.3.3.1.;.3.9.w.5.5.5.3.5.3.5.1.;.;.9.w.8.3.5.3.5.3.5.3.5.5.5.3.5.5.5.3.4.,.;.=.;.1.9.w.9.1.;.;.*.*.",
"r.w.9.5.5.5.3.5.5.1.5.5.3.5.5.5.5.1.;.;.9.w.9.5.3.5.5.5.5.1.;.,.9.r.5.5.5.5.5.5.5.3.5.5.5.5.3.3.3.5.5.1.;.;.*.;.5.5.3.1.;.*.*.*.",
"r.w.9.5.3.5.3.5.5.5.5.5.5.5.5.5.5.1.;.;.9.w.5.5.5.5.5.5.5.1.;.;.5.w.5.5.5.3.3.5.3.5.5.5.w.9.,.;.1.3.5.3.4.1.=.;.;.,.;.;.*.;.;.*.",
"w.q.5.5.5.5.5.5.5.5.5.5.1.5.3.5.5.3.;.1.5.5.3.1.5.5.5.5.3.,.Y Y ;.3.3.3.5.5.5.3.5.5.5.5.w.9.1.;.4.3.5.5.5.1.;.;.;.*.*.*.*.*.*.*.",
"8.5.5.5.5.3.3.8.w.w.5.5.5.5.5.5.5.5.1.1.,.;.;.1.9.w.5.3.1.*.x f M C ;.1.5.5.5.5.5.5.5.5.5.5.3.1.3.5.5.3.5.3.1.1.;.*.*.*.*.*.*.*.",
"3.5.5.3.5.5.5.5.w.w.5.5.5.5.5.3.1.5.5.1.;.;.;.;.5.9.3.,.*.V 9 5 8 i V =.1.5.1.1.1.1.3.5.5.5.5.5.3.3.5.5.5.5.3.1.;.*.*.*.*.;.*.*.",
"5.5.5.5.5.3.4.5.5.5.5.5.3.5.5.3.3.5.5.5.5.1.1.1.,.;.*.R b y ' { ' ' i V 1.5.,.*.;.;.1.5.5.3.3.5.5.5.5.3.5.5.3.1.;.*.*.;.*.*.*.;.",
"5.3.3.5.5.5.5.5.3.5.5.5.5.5.3.5.5.5.5.1.5.5.5.3.;.*.C b 6 r ..$.$...' v @.,.*.*.*.;.1.5.3.5.5.3.5.3.3.3.3.1.1.1.;.*.*.*.;.*.*.*.",
"5.5.5.4.4.3.5.3.5.3.5.5.3.3.5.3.1.5.5.5.5.5.5.3.1.*.z 6 7 { $.&.&.%.' r v M R *.*.;.1.5.5.5.5.5.5.5.5.3.;.;.;.;.*.*.*.*.*.*.*.*.",
"5.3.4.5.5.4.5.5.5.4.5.3.5.5.5.5.5.5.5.5.1.1.5.3.1.*.g 3 e | %.&.&.%.| e 3 g C *.;.;.1.5.5.3.5.5.3.3.1.1.;.*.*.*.*.*.;.*.*.*.*.;.",
"5.5.5.4.5.5.4.5.5.4.4.5.3.5.3.5.5.3.5.5.;.<.3.3.1.R 4 < e | #.%.%.$.| e < 4 R ,.1.1.5.3.5.3.5.5.3.1.;.;.;.*.*.*.;.*.;.*.*.*.*.*.",
"8.5.5.3.5.3.5.5.3.5.5.5.5.5.5.3.5.5.5.1.,.;.1.3.1.R $ < 0 [  .X.#...{ 0 < 4 O.1.5.5.5.5.3.5.5.1.3.1.;.*.*.*.*.*.*.;.;.;.;.;.;.*.",
"w.w.5.5.5.5.5.5.5.5.3.5.5.3.5.5.5.3.4.3.3.3.3.3.<.C 4   2 t }  ...{ ' 2   $ Y 1.5.5.5.5.3.3.5.3.;.;.*.*.*.*.*.*.*.;.3.9.3.;.;.*.",
"r.w.9.5.5.5.3.5.5.5.5.3.5.5.3.5.5.5.5.3.4.4.4.,.=.M $   1 0 ] [ [ ' 0 1   O M *.,.3.3.5.5.3.3.,.;.*.*.*.*.;.;.*.;.3.w.w.3.1.;.*.",
"r.w.5.5.5.5.5.5.5.5.5.5.3.5.5.5.5.4.5.5.5.4.1.*.M p O   1 0 0 w e e 2 2 . O p M *.1.3.5.5.3.;.;.;.*.;.*.*.*.*.;.5.w.9.3.;.;.*.*.",
"r.w.5.5.3.3.5.3.5.5.5.5.5.5.3.5.3.5.4.5.3.1.*.N p O O 3 5 q 0 0 0 0 7 8 3 + O p N *.1.3.3.1.;.*.*.*.*.*.*.*.*.;.w.w.5.1.;.*.*.;.",
"r.w.5.5.5.5.3.5.5.5.w.w.9.3.3.5.5.5.5.5.1.*.M p O O p z n m r r q u m n h f O O p M *.1.5.1.;.*.*.*.*.*.*.*.*.1.w.w.5.1.;.*.*.;.",
"r.w.9.5.3.5.5.3.5.5.w.9.5.5.5.5.5.5.3.,.*.N p . O & x C O.@.+.o.o.+.@.O.C h p O O f N *.,.1.;.*.*.;.;.;.;.*.*.;.3.9.3.1.;.*.*.*.",
"r.w.9.3.5.5.5.5.5.5.5.5.5.3.5.3.3.5.2.;.N f + + p M B *.-.1.q.r.u.q.1.=.Y C x f + + p M Y *.*.*.*.;.5.5.;.*.*.;.;.1.;.;.;.*.*.*.",
"w.9.5.4.5.3.5.4.5.5.3.1.1.3.3.5.5.3.1.*.f + p M C *.*.=.;.5.i.v.b.p.5.;.*.Y *.C M f + p N *.*.*.;.3.w.9.1.;.*.*.*.*.*.*.*.*.*.;.",
"9.3.5.3.5.5.3.5.3.1.,.;.;.;.3.3.5.5.1.Y f p C ,.8.2.;.=.,.8.a.n.b.p.8.,.=.;.5.7.,.C p # M Y *.,.5.9.9.5.1.1.;.*.*.*.;.*.*.*.;.*.",
"9.3.5.5.5.3.5.5.5.1.;.*.*.;.1.5.5.1.1.Y p p ! 8.t.t.2.2.8.t.v.B.B.b.y.5.2.4.r.t.8.Y p + M *.;.1.9.w.5.3.3.1.;.*.*.*.*.*.*.*.*.*.",
"w.9.9.3.5.5.3.9.3.1.;.*.*.;.1.5.5.3.1.Y p # C 1.t.y.y.y.v.v.V.Z.Z.V.b.s.y.y.i.r.2.Y + + M *.5.9.9.5.5.5.5.1.;.*.*.;.*.*.*.*.*.*.",
"r.w.9.3.3.3.3.3.5.3.;.;.;.,.3.5.5.5.3.Y p + x *.8.y.i.v.n.V.Z.S.S.Z.V.n.s.i.y.8.*.b + + Y ,.9.9.9.5.5.5.5.1.;.*.*.*.*.*.*.*.*.;.",
"r.w.9.3.3.3.3.3.5.5.3.1.1.4.3.5.5.5.1.Y f O p M =.8.t.a.v.B.V.A.Z.C.B.v.a.t.7.=.b p . f ;.5.5.9.3.3.3.5.3.3.;.*.*.*.*.;.;.*.*.;.",
"9.9.3.1.1.1.1.1.1.1.1.1.1.1.1.1.1.1.1.*.h + O + x =.5.e.t.i.v.n.n.v.p.t.e.5.=.M $ . O h ;.5.3.1.1.1.1.1.3.;.;.*.*.*.*.*.*.*.*.*.",
";.;.;.;.;.;.;.;.;.;.;.;.;.;.;.;.;.;.;.Y C f O . p M Y ,.,.1.8.w.w.8.2.;.-.*.x p . . f V *.;.;.*.;.;.;.;.;.;.*.*.*.*.*.*.*.*.*.*.",
",.;.1.;.,.;.,.,.;.;.;.;.;.,.,.,.;.;.;.*.*.N + . # l N Y Y =.,.,.<.;.*.Y Y B h $ . + b *.;.1.;.1.;.;.1.;.;.*.;.1.;.;.;.;.;.;.*.;.",
"9.5.9.9.9.9.9.9.9.9.5.3.5.9.w.5.1.1.1.3.5.=.p O h N Y ! ! ! =.=.-.=.*.*.Y Y B l # j *.2.8.8.9.9.9.9.9.5.;.;.5.9.5.1.1.1.1.1.;.*.",
"r.r.r.w.w.r.w.w.w.w.5.5.w.r.w.w.5.5.5.5.5.;.f p N =.=.=.=.=.;.;.-.-.=.=.*.Y Y U J J ~ ,.8.w.e.e.w.e.w.9.;.,.w.w.5.5.5.5.5.1.;.*.",
"r.r.9.9.5.5.5.9.9.5.5.5.5.9.5.5.5.5.5.1.1.*.h h ;.2.,.,.,.,.,.,.1.,.;.-.=.=.>.) _ / G N ;.5.5.5.9.5.5.5.;.;.q.w.9.5.5.5.5.1.;.*.",
"r.w.5.5.5.5.5.5.3.3.5.5.3.3.5.5.5.5.2.,.*.C M Y 5.e.5.2.2.2.5.8.5.7.5.2.;.-.>.` f.T Z l =.1.5.5.3.5.5.1.;.;.w.r.5.5.5.5.5.1.;.*.",
"r.w.5.5.5.5.3.5.5.5.5.5.3.5.5.3.5.3.1.-.M M :.7.v.v.0.8.w.e.e.e.e.t.e.e.8.2.:.^ / T > l *.1.5.5.5.3.5.1.;.,.w.w.9.5.5.3.5.1.;.*.",
"r.w.5.5.3.5.5.3.5.3.3.5.5.5.3.5.5.5.1.*.d k 6.z.c.z.0.2.8.w.e.t.t.e.t.e.9.,.I G L L k N -.1.1.5.5.5.5.1.;.,.5.5.3.3.5.5.3.,.;.*.",
"r.w.9.5.3.5.5.3.5.5.5.3.5.3.5.5.5.1.1.*.d G l.N.m.x.` U ;.1.5.5.2.8.5.2.,.Y a @ - j I -.1.5.5.5.3.5.5.3.3.1.,.;.;.,.9.9.1.;.;.*.",
"r.w.5.5.5.3.5.5.3.3.5.5.5.5.5.1.5.1.1.! j L l.m.M.x.P : N Y ,.,.,.;.,.;.Y x O . p B ;.1.5.5.5.5.5.3.3.5.5.3.;.;.*.1.5.3.;.*.*.*.",
"r.w.5.5.5.5.3.5.3.3.5.5.3.5.5.5.5.5.1.*.l H g.j.k.h.D # x N Y *.=.=.;.! N g O + C <.5.w.5.5.5.5.3.5.5.5.5.5.1.1.1.1.1.;.*.*.;.*.",
"r.w.9.5.3.5.5.5.5.5.5.3.3.5.5.3.5.5.5.<.B K ( d.h.T - X p h M N I Y Y Y M a . p =.9.r.w.5.5.5.5.5.3.5.5.5.5.5.5.3.1.;.;.*.*.*.*.",
"r.w.9.3.3.5.3.5.3.5.5.3.5.5.5.5.3.5.w.5.,.~ E H Z - X . . + + f z N N N z a o s -.w.r.w.5.5.4.5.5.3.5.9.w.w.5.5.5.3.3.,.;.*.*.*.",
"w.9.5.5.5.5.1.1.1.1.1.1.1.3.5.5.5.5.w.9.2.-.B l f p p + + + + p p d l c l * o & -.5.w.q.5.5.5.3.3.5.5.5.9.w.5.5.5.3.5.3.;.;.*.;.",
"5.9.5.5.5.1.;.;.;.;.;.;.;.,.1.5.5.5.5.5.4.1.-.=.*.Y N M M b M f # @ > , ; % o & *.1.5.5.5.5.5.5.5.5.3.5.5.5.5.5.5.3.5.5.3.,.;.*.",
"1.1.1.1.1.1.;.;.;.;.*.*.;.;.1.1.1.1.5.5.5.5.2.1.1.;.*.*.*.*.Y b # @ ; A A ; & p *.1.1.5.5.5.4.5.5.3.5.5.5.5.5.5.3.5.5.5.5.3.;.*.",
";.;.;.;.;.;.1.1.1.<.;.;.<.<.;.;.;.,.1.5.5.5.5.5.3.1.*.*.*.*.Y M a % S F F , = d *.1.1.5.5.5.5.5.5.3.3.5.5.5.1.5.5.5.5.5.3.1.;.*.",
";.;.;.;.;.;.3.5.5.1.;.;.1.3.;.;.;.,.1.1.1.1.1.1.1.1.,.;.*.*.*.Y B I E Q W K c N *.2.1.5.5.5.5.5.3.5.5.3.5.5.5.5.1.1.5.5.3.1.;.*.",
"1.1.1.1.1.1.3.5.5.1.;.;.3.3.3.1.1.1.;.;.;.;.;.;.;.;.1.1.;.*.*.;.,.1.>.>.>.,.*.;.1.1.5.5.5.5.5.5.5.5.5.5.5.5.5.1.;.,.1.5.5.1.;.*.",
"5.9.5.3.3.3.3.1.3.3.;.;.1.1.3.5.5.1.;.;.;.;.;.;.;.;.1.1.;.*.*.;.5.9.5.2.4.2.5.1.5.5.1.3.5.5.1.5.1.1.1.1.3.3.5.1.,.,.1.5.5.1.;.*.",
"w.w.5.5.5.3.;.;.3.3.3.1.;.;.1.5.5.3.1.1.1.1.1.1.1.1.5.3.1.1.;.;.1.8.5.5.5.5.5.1.5.5.5.5.3.1.;.;.;.;.;.;.1.5.5.3.3.1.3.5.5.1.;.*.",
"w.9.5.5.3.3.;.;.,.3.3.3.;.;.1.5.5.5.5.3.5.5.5.3.5.5.5.5.5.1.;.*.1.5.5.4.5.4.5.5.5.5.5.5.5.1.;.*.*.*.*.;.1.5.5.5.3.5.5.5.5.1.;.*.",
"9.5.5.5.3.1.;.*.;.;.3.1.;.;.3.5.5.5.3.5.5.5.5.5.5.5.5.5.5.1.;.;.1.5.5.5.5.1.5.5.5.5.5.5.5.1.;.*.*.*.*.;.1.3.3.5.5.5.5.3.3.1.;.*.",
"5.5.5.3.5.1.;.*.*.;.1.1.;.;.1.3.3.5.5.9.9.5.5.3.5.3.5.5.5.1.;.;.1.3.3.4.5.3.5.5.1.5.5.5.5.1.;.;.;.;.;.,.3.3.5.5.3.3.5.5.5.1.;.*.",
"5.5.5.5.5.1.;.*.*.;.1.5.1.1.;.;.1.5.w.w.w.9.5.3.5.3.5.1.5.1.;.;.1.5.5.5.5.5.5.1.5.5.5.1.5.1.1.1.3.3.1.3.3.3.5.5.5.3.5.5.1.1.;.*.",
"5.3.3.5.5.1.,.;.;.;.3.5.5.1.;.;.1.9.w.r.r.w.9.9.5.5.5.5.5.1.;.;.1.5.5.5.5.5.5.5.5.5.5.5.5.5.5.5.3.3.3.3.5.5.5.3.5.5.3.5.5.1.;.*.",
"5.5.5.5.3.3.1.1.1.3.3.5.5.1.*.;.1.9.w.r.r.w.w.w.9.5.3.5.5.1.;.;.8.w.5.5.5.5.5.5.3.5.3.5.5.5.5.5.3.5.3.5.3.5.3.3.3.5.5.5.5.1.;.*.",
"3.5.3.3.5.5.5.5.5.5.3.5.5.1.,.;.1.5.9.w.w.w.w.w.5.3.5.5.5.3.;.;.8.w.5.5.5.5.5.3.3.3.3.1.1.1.5.5.5.5.5.5.5.5.3.3.1.1.1.1.5.1.;.*.",
"5.5.3.5.5.3.5.3.5.5.3.5.5.1.5.,.;.,.3.9.9.9.5.5.5.3.5.3.3.1.*.;.4.5.5.3.3.5.5.1.;.;.;.;.;.;.5.5.5.5.5.3.3.5.3.3.,.;.;.;.1.1.;.*.",
"5.3.5.5.3.5.5.3.5.5.5.3.5.9.5.1.;.*.1.5.5.5.5.5.5.3.5.5.5.1.;.;.1.4.5.5.5.4.1.1.;.*.*.*.*.;.;.5.3.3.5.3.1.3.1.1.;.*.*.;.1.1.;.*.",
"5.3.5.5.3.3.3.5.5.3.5.3.5.5.5.1.;.;.1.5.3.3.3.3.3.3.3.9.5.1.;.;.1.5.5.5.5.1.,.;.;.*.*.*.*.*.;.;.1.5.5.1.;.;.;.;.*.*.*.;.1.1.;.*.",
"1.1.1.1.1.1.1.1.1.1.1.1.1.1.1.,.;.;.,.1.3.1.3.1.3.1.1.1.1.1.;.;.1.1.1.1.1.1.;.*.*.*.*.*.;.*.*.;.1.1.3.,.;.*.*.*.*.*.*.;.1.1.;.*.",
";.;.;.;.;.;.;.;.;.;.;.;.;.;.;.;.;.*.*.;.;.;.;.;.;.;.*.;.;.;.*.*.;.;.;.;.;.;.*.*.*.*.*.*.*.*.*.;.;.;.;.;.;.*.;.*.;.*.*.;.;.;.*.*.",
"*.*.*.*.*.*.*.*.*.*.*.*.*.*.*.*.*.*.*.*.*.*.*.*.*.*.*.*.*.*.*.*.*.*.*.*.*.*.*.*.;.*.*.;.*.*.*.*.*.*.*.*.*.*.*.*.*.*.*.*.*.*.*.*."
};
